<?xml version="1.0" encoding="UTF-8" standalone="no"?>
<!-- Created with Inkscape (http://www.inkscape.org/) -->

<svg
   xmlns:ns0="http://www.iki.fi/pav/software/textext/"
   xmlns:dc="http://purl.org/dc/elements/1.1/"
   xmlns:cc="http://creativecommons.org/ns#"
   xmlns:rdf="http://www.w3.org/1999/02/22-rdf-syntax-ns#"
   xmlns:svg="http://www.w3.org/2000/svg"
   xmlns="http://www.w3.org/2000/svg"
   xmlns:sodipodi="http://sodipodi.sourceforge.net/DTD/sodipodi-0.dtd"
   xmlns:inkscape="http://www.inkscape.org/namespaces/inkscape"
   sodipodi:docname="Exemple_A.svg"
   width="744.09448819"
   height="1052.3622047"
   id="svg11607"
   version="1.1"
   inkscape:version="0.91 r">
  <sodipodi:namedview
     id="base"
     pagecolor="#ffffff"
     bordercolor="#666666"
     borderopacity="1.0"
     inkscape:pageopacity="0.0"
     inkscape:pageshadow="2"
     inkscape:zoom="4.726209333555"
     inkscape:cx="278.3387911213"
     inkscape:cy="540.6625797434"
     inkscape:document-units="px"
     inkscape:current-layer="svg11607"
     showgrid="true"
     inkscape:window-width="1920"
     inkscape:window-height="1062"
     inkscape:window-x="-4"
     inkscape:window-y="-6"
     inkscape:window-maximized="1">
    <inkscape:grid
       type="xygrid"
       id="grid11615" />
  </sodipodi:namedview>
  <defs
     id="defs11609">
    <marker
       id="arrowCurrentEnd"
       orient="auto"
       refX="0.0"
       style="overflow:visible"
       refY="0.0"
       inkscape:stockid="arrowCurrentEnd">
      <path
         id="path11779"
         transform="scale(0.25) rotate(180) translate(7.2925,0)"
         d="M 0.0,0.0 L 5.0,-5.0 L -12.5,0.0 L 5.0,5.0 L 0.0,0.0 z "
         style="stroke-width:1.0pt;stroke:#FF0000;fill:#FF0000;fill-rule:evenodd" />
    </marker>
    <marker
       inkscape:stockid="arrowVoltageStart"
       refY="0.0"
       style="overflow:visible"
       refX="0.0"
       orient="auto"
       id="arrowVoltageStart">
      <path
         style="stroke-width:1.0pt;stroke:#217B21;fill:#217B21;fill-rule:evenodd"
         d="M 0.0,0.0 L 5.0,-5.0 L -12.5,0.0 L 5.0,5.0 L 0.0,0.0 z "
         transform="scale(0.25) rotate(0) translate(7.2925,0)"
         id="path13369" />
    </marker>
    <marker
       inkscape:stockid="arrowVoltageEnd"
       refY="0.0"
       style="overflow:visible"
       refX="0.0"
       orient="auto"
       id="arrowVoltageEnd">
      <path
         style="stroke-width:1.0pt;stroke:#217B21;fill:#217B21;fill-rule:evenodd"
         d="M 0.0,0.0 L 5.0,-5.0 L -12.5,0.0 L 5.0,5.0 L 0.0,0.0 z "
         transform="scale(0.25) rotate(180) translate(7.2925,0)"
         id="path13372" />
    </marker>
  </defs>
  <metadata
     id="metadata11612">
    <rdf:RDF>
      <cc:Work
         rdf:about="">
        <dc:format>image/svg+xml</dc:format>
        <dc:type
           rdf:resource="http://purl.org/dc/dcmitype/StillImage" />
        <dc:title />
      </cc:Work>
    </rdf:RDF>
  </metadata>
  <g
     inkscape:label="Layer 1"
     inkscape:groupmode="layer"
     id="layer1" />
  <g
     transform="translate(80,-22.63781738281)"
     inkscape:label="Resistor"
     id="g26034">
    <g
       inkscape:label="name"
       id="g26046" />
  </g>
  <g
     id="g25604"
     transform="matrix(0,-1,1,0,-260,1002.362182617)"
     inkscape:label="Resistor">
    <g
       id="g25606">
      <path
         id="path25608"
         d="m 460,510 15.5,0 2,3 3,-6 3,6 3,-6 3,6 3,-6 2,3 15.5,0"
         style="fill:none;stroke:#000000;stroke-width:1;stroke-linecap:round;stroke-linejoin:round"
         inkscape:label="none"
         inkscape:connector-curvature="0" />
    </g>
    <g
       transform="matrix(0.739645,0,0,-0.739645,304.201176,856.492125)"
       ns0:preamble="./preamble.tex"
       ns0:text="$8\\si\\ohm$"
       word-spacing="normal"
       letter-spacing="normal"
       font-size-adjust="none"
       font-stretch="normal"
       font-weight="normal"
       font-variant="normal"
       font-style="normal"
       stroke-miterlimit="10.433"
       xml:space="preserve"
       id="g25610"
       style="font-style:normal;font-variant:normal;font-weight:normal;font-stretch:normal;letter-spacing:normal;word-spacing:normal;text-anchor:start;fill:none;stroke:#000000;stroke-linecap:butt;stroke-linejoin:miter;stroke-miterlimit:10.4329996109;stroke-opacity:1;stroke-dasharray:none;stroke-dashoffset:0"><path
         id="path25612"
         style="fill:#000000;stroke-width:0"
         d="m 241.45,480.83 0.07,0.04 0.06,0.03 0.07,0.04 0.06,0.04 0.06,0.03 0.06,0.04 0.05,0.04 0.06,0.04 0.05,0.05 0.06,0.04 0.05,0.04 0.05,0.05 0.04,0.04 0.05,0.05 0.04,0.05 0.04,0.04 0.04,0.05 0.04,0.05 0.03,0.05 0.03,0.05 0.03,0.05 0.03,0.06 0.02,0.05 0.03,0.06 0.02,0.05 0.01,0.06 0.02,0.05 0.01,0.06 0.01,0.06 0.01,0.06 0,0.06 0,0.06 c 0,0.92 -0.88,1.48 -1.79,1.48 l -0.01,-0.25 c 0.73,0 1.37,-0.51 1.37,-1.23 0,-0.57 -0.39,-1.04 -0.99,-1.39 l -1.23,0.79 c -0.46,0.3 -0.5,0.64 -0.5,0.81 0,0.6 0.65,1.02 1.35,1.02 l 0.01,0.25 c -0.99,0 -1.8,-0.73 -1.8,-1.66 0,-0.18 0.02,-0.62 0.44,-1.09 0.11,-0.12 0.48,-0.37 0.73,-0.54 l 0.23,-0.15 1.22,-0.77 c 0.28,-0.19 0.75,-0.49 0.75,-1.09 0,-0.74 -0.75,-1.25 -1.57,-1.25 -0.85,0 -1.57,0.61 -1.57,1.43 0,0.58 0.32,1.22 1.17,1.68 h 0 l -0.23,0.15 c -0.58,-0.29 -1.44,-0.84 -1.44,-1.83 0,-1.05 1.02,-1.71 2.06,-1.71 1.13,0 2.07,0.82 2.07,1.88 0,0.36 -0.11,0.81 -0.49,1.23 -0.18,0.2 -0.34,0.3 -0.98,0.7 z"
         inkscape:connector-curvature="0" /><path
         id="path25614"
         style="fill:#000000;stroke-width:0"
         d="m 250.09,478.84 h -0.25 c -0.05,-0.25 -0.08,-0.48 -0.18,-0.72 -0.04,-0.16 -0.07,-0.24 -0.65,-0.24 h -0.8 c 0.13,0.56 0.44,1.03 0.89,1.69 0.47,0.7 0.87,1.39 0.87,2.17 0,1.39 -1.34,2.5 -3.02,2.5 -1.71,0 -3.04,-1.13 -3.04,-2.5 0,-0.78 0.41,-1.47 0.88,-2.17 0.44,-0.66 0.76,-1.13 0.89,-1.69 h -0.8 c -0.58,0 -0.61,0.08 -0.66,0.23 -0.08,0.23 -0.13,0.49 -0.18,0.73 h -0.25 l 0.33,-1.61 h 1.59 c 0.22,0 0.25,0 0.25,0.21 0,0.7 -0.3,1.57 -0.53,2.21 -0.21,0.58 -0.49,1.36 -0.49,2.11 0,1.58 1.09,2.26 2,2.26 0.95,0 2.01,-0.72 2.01,-2.26 0,-0.75 -0.27,-1.5 -0.56,-2.32 -0.15,-0.42 -0.47,-1.31 -0.47,-2 0,-0.21 0.03,-0.21 0.26,-0.21 h 1.58 z"
         inkscape:connector-curvature="0" /></g>    <g
       id="g25616"
       inkscape:label="name">
      <path
         id="path25618"
         sodipodi:end="1.91063323625"
         sodipodi:start="1.23095941734"
         sodipodi:type="arc"
         sodipodi:ry="30"
         d="m 495,515.0000000072 a 30,30 0 0 1 -20,0"
         style="fill:none;stroke:#217b21;stroke-width:1;stroke-linecap:round;stroke-linejoin:round;marker-end:url(#arrowVoltageEnd)"
         sodipodi:open="true"
         sodipodi:cx="485"
         sodipodi:cy="486.7157287598"
         inkscape:label="arc"
         sodipodi:rx="30" />
      <g
         transform="matrix(0,0.739645,0.739645,0,130.048063,343.918385)"
         ns0:preamble="./preamble.tex"
         ns0:text="$\\phasorName{V}_1$"
         word-spacing="normal"
         letter-spacing="normal"
         font-size-adjust="none"
         font-stretch="normal"
         font-weight="normal"
         font-variant="normal"
         font-style="normal"
         stroke-miterlimit="10.433"
         xml:space="preserve"
         id="g25620"
         style="font-style:normal;font-variant:normal;font-weight:normal;font-stretch:normal;letter-spacing:normal;word-spacing:normal;text-anchor:start;fill:#008000;stroke:#000000;stroke-linecap:butt;stroke-linejoin:miter;stroke-miterlimit:10.4329996109;stroke-opacity:1;stroke-dasharray:none;stroke-dashoffset:0"><polygon
           id="polygon25622"
           points="241.73,484.9 243.02,485.72 244.3,484.91 244.58,485.28 243.02,486.54 241.45,485.29 "
           style="fill:#008000;stroke-width:0" /><path
           id="path25624"
           style="fill:#008000;stroke-width:0"
           d="m 245.93,483.18 0.02,0.05 0.03,0.03 0.03,0.04 0.02,0.02 0.01,0.02 0.02,0.02 0.02,0.01 0.02,0.02 0.01,0.01 0.02,0.02 0.03,0.01 0.02,0.02 0.02,0.01 0.03,0.02 0.03,0.01 0.03,0.01 0.03,0.01 0.03,0.01 0.04,0.01 0.03,0.01 0.04,0.01 0.05,0 0.04,0.01 0.05,0.01 0.05,0 0.03,0 0.02,0.01 0.03,0 0.03,0 0.03,0 0.03,0 0.03,0 0.03,0 c 0.12,0 0.3,0 0.3,0.29 0,0.06 -0.05,0.18 -0.18,0.18 -0.29,0 -0.6,-0.03 -0.9,-0.03 -0.36,0 -0.75,0.03 -1.1,0.03 -0.08,0 -0.27,0 -0.27,-0.29 0,-0.18 0.17,-0.18 0.26,-0.18 0.05,0 0.34,0 0.56,-0.1 l -3.28,-4.77 -0.88,4.65 c -0.01,0.03 -0.02,0.11 -0.02,0.14 0,0.08 0.54,0.08 0.61,0.08 0.22,0 0.38,0 0.38,0.29 0,0.13 -0.1,0.18 -0.22,0.18 -0.25,0 -0.51,-0.02 -0.76,-0.02 -0.24,0 -0.49,-0.01 -0.73,-0.01 -0.22,0 -0.45,0.01 -0.68,0.01 -0.22,0 -0.45,0.02 -0.66,0.02 -0.09,0 -0.28,0 -0.28,-0.29 0,-0.18 0.16,-0.18 0.37,-0.18 0.13,0 0.25,0 0.39,-0.01 0.11,-0.01 0.12,-0.02 0.15,-0.19 l 1.13,-6.04 c 0.05,-0.27 0.16,-0.27 0.35,-0.27 0.28,0 0.33,0.07 0.46,0.25 z"
           inkscape:connector-curvature="0" /><path
           id="path25626"
           style="fill:#008000;stroke-width:0"
           d="m 250.01,480.16 0,0.01 0,0.01 0,0.01 0,0.01 0,0 0,0.01 0,0.01 0,0.01 0,0 0,0.01 -0.01,0.01 0,0 0,0.01 0,0 0,0.01 0,0 0,0.01 0,0 0,0.01 0,0.01 -0.01,0.01 0,0 -0.01,0.01 0,0.01 0,0 -0.01,0.01 -0.01,0 0,0 -0.01,0.01 -0.01,0 -0.01,0 -0.01,0 0,0 -0.01,0 0,0 -0.01,0.01 0,0 -0.01,0 -0.01,0 0,0 -0.01,0 -0.01,0 0,0 -0.01,0 -0.01,0 -0.01,0 -0.01,0 0,0 -0.01,0 -0.01,0 c -0.45,-0.44 -1.08,-0.45 -1.37,-0.45 v -0.25 c 0.17,0 0.63,0 1.01,0.2 v -3.55 c 0,-0.23 0,-0.32 -0.69,-0.32 h -0.27 v -0.25 c 0.13,0.01 0.98,0.03 1.24,0.03 0.22,0 1.1,-0.02 1.25,-0.03 v 0.25 h -0.27 c -0.69,0 -0.69,0.09 -0.69,0.32 z"
           inkscape:connector-curvature="0" /></g>    </g>
    <g
       id="g25628"
       inkscape:label="name">
      <path
         id="path25630"
         d="m 495,505 10,0"
         style="fill:none;stroke:#ff0000;stroke-width:1;stroke-linecap:round;stroke-linejoin:round;marker-end:url(#arrowCurrentEnd)"
         inkscape:label="none"
         inkscape:connector-curvature="0" />
      <g
         transform="matrix(0,0.739645,0.739645,0,145.048063,319.24161)"
         ns0:preamble="./preamble.tex"
         ns0:text="$\\phasorName{I}_1$"
         word-spacing="normal"
         letter-spacing="normal"
         font-size-adjust="none"
         font-stretch="normal"
         font-weight="normal"
         font-variant="normal"
         font-style="normal"
         stroke-miterlimit="10.433"
         xml:space="preserve"
         id="g25632"
         style="font-style:normal;font-variant:normal;font-weight:normal;font-stretch:normal;letter-spacing:normal;word-spacing:normal;text-anchor:start;fill:#ff0000;stroke:#000000;stroke-linecap:butt;stroke-linejoin:miter;stroke-miterlimit:10.4329996109;stroke-opacity:1;stroke-dasharray:none;stroke-dashoffset:0"><polygon
           id="polygon25634"
           points="241.29,484.9 242.57,485.72 243.86,484.91 244.13,485.28 242.57,486.54 241.01,485.29 "
           style="fill:#ff0000;stroke-width:0" /><path
           id="path25636"
           style="fill:#ff0000;stroke-width:0"
           d="m 242.76,483.37 0.01,0.02 0,0.01 0,0.02 0.01,0.01 0,0.01 0,0.01 0.01,0.01 0,0.01 0,0.01 0.01,0.01 0,0.01 0.01,0.01 0,0 0.01,0.01 0,0 0.01,0.01 0,0 0.01,0.01 0.01,0 0.01,0.01 0,0 0.01,0 0.01,0 0.01,0.01 0.02,0 0.01,0 0.01,0 0.02,0.01 0,0 0.01,0 0.01,0 0.01,0 0.01,0 0,0 0.01,0 0.01,0 c 0.15,0.01 0.28,0.01 0.43,0.01 h 0.21 c 0.21,0 0.22,0.01 0.27,0.05 0.06,0.04 0.09,0.18 0.09,0.24 0,0.12 -0.1,0.18 -0.22,0.18 -0.25,0 -0.51,-0.02 -0.76,-0.02 -0.26,0 -0.52,-0.01 -0.79,-0.01 -0.28,0 -0.56,0.01 -0.83,0.01 -0.26,0 -0.53,0.02 -0.78,0.02 -0.11,0 -0.28,0 -0.28,-0.29 0,-0.18 0.16,-0.18 0.33,-0.18 h 0.21 c 0.09,0 0.33,-0.01 0.53,-0.02 L 240,477.9 c -0.04,-0.16 -0.05,-0.17 -0.24,-0.18 -0.12,-0.02 -0.3,-0.02 -0.43,-0.02 h -0.21 c -0.2,0 -0.37,0 -0.37,-0.29 0,-0.12 0.11,-0.18 0.22,-0.18 0.25,0 0.51,0.03 0.76,0.03 0.27,0 0.54,0.01 0.81,0.01 0.27,0 0.54,-0.01 0.82,-0.01 0.26,0 0.52,-0.03 0.77,-0.03 0.1,0 0.3,0 0.3,0.29 0,0.18 -0.17,0.18 -0.34,0.18 h -0.21 c -0.07,0 -0.4,0.01 -0.53,0.02 z"
           inkscape:connector-curvature="0" /><path
           id="path25638"
           style="fill:#ff0000;stroke-width:0"
           d="m 246.58,480.16 0,0.01 0,0.01 0,0.01 0,0.01 0,0 0,0.01 0,0.01 0,0.01 -0.01,0 0,0.01 0,0.01 0,0 0,0.01 0,0 0,0.01 0,0 0,0.01 0,0 0,0.01 -0.01,0.01 0,0.01 0,0 -0.01,0.01 0,0.01 -0.01,0 0,0.01 -0.01,0 0,0 -0.01,0.01 -0.01,0 -0.01,0 -0.01,0 0,0 -0.01,0 0,0 -0.01,0.01 -0.01,0 0,0 -0.01,0 0,0 -0.01,0 -0.01,0 -0.01,0 0,0 -0.01,0 -0.01,0 -0.01,0 -0.01,0 0,0 -0.01,0 c -0.45,-0.44 -1.08,-0.45 -1.37,-0.45 v -0.25 c 0.17,0 0.63,0 1.01,0.2 v -3.55 c 0,-0.23 0,-0.32 -0.69,-0.32 h -0.27 v -0.25 c 0.13,0.01 0.98,0.03 1.24,0.03 0.22,0 1.09,-0.02 1.25,-0.03 v 0.25 h -0.27 c -0.69,0 -0.69,0.09 -0.69,0.32 z"
           inkscape:connector-curvature="0" /></g>    </g>
  </g>
  <g
     id="g26036"
     transform="translate(-160,-67.63781738282)">
    <path
       inkscape:connector-curvature="0"
       inkscape:label="none"
       style="fill:none;stroke:#000000;stroke-width:1;stroke-linecap:round;stroke-linejoin:round"
       d="m 460,510 15.5,0 2,3 3,-6 3,6 3,-6 3,6 3,-6 2,3 15.5,0"
       id="path26038" />
  </g>
  <g
     style="font-style:normal;font-variant:normal;font-weight:normal;font-stretch:normal;letter-spacing:normal;word-spacing:normal;text-anchor:start;fill:none;stroke:#000000;stroke-linecap:butt;stroke-linejoin:miter;stroke-miterlimit:10.4329996109;stroke-opacity:1;stroke-dasharray:none;stroke-dashoffset:0"
     id="g26040"
     xml:space="preserve"
     stroke-miterlimit="10.433"
     font-style="normal"
     font-variant="normal"
     font-weight="normal"
     font-stretch="normal"
     font-size-adjust="none"
     letter-spacing="normal"
     word-spacing="normal"
     ns0:text="$4\\si\\ohm$"
     ns0:preamble="./preamble.tex"
     transform="matrix(0.739645,0,0,-0.739645,144.252951,789.0096326172)"><path
       inkscape:connector-curvature="0"
       d="m 241.3,478.87 v -0.86 c 0,-0.36 -0.02,-0.47 -0.76,-0.47 h -0.2 v -0.31 c 0.4,0.04 0.92,0.04 1.34,0.04 0.42,0 0.94,0 1.35,-0.04 v 0.31 h -0.21 c -0.73,0 -0.75,0.11 -0.75,0.47 v 0.86 h 0.99 v 0.31 h -0.99 v 4.52 c 0,0.2 0,0.26 -0.16,0.26 -0.09,0 -0.12,0 -0.2,-0.12 l -3.06,-4.66 h 0.28 l 2.43,3.71 v -3.71 h -2.43 -0.28 v -0.31 z"
       style="fill:#000000;stroke-width:0"
       id="path26042" /><path
       inkscape:connector-curvature="0"
       d="m 250.09,478.84 h -0.25 c -0.05,-0.25 -0.08,-0.48 -0.18,-0.72 -0.04,-0.16 -0.07,-0.24 -0.65,-0.24 h -0.8 c 0.13,0.56 0.44,1.03 0.89,1.69 0.47,0.7 0.87,1.39 0.87,2.17 0,1.39 -1.34,2.5 -3.02,2.5 -1.71,0 -3.04,-1.13 -3.04,-2.5 0,-0.78 0.41,-1.47 0.88,-2.17 0.44,-0.66 0.76,-1.13 0.89,-1.69 h -0.8 c -0.58,0 -0.61,0.08 -0.66,0.23 -0.08,0.23 -0.13,0.49 -0.18,0.73 h -0.25 l 0.33,-1.61 h 1.59 c 0.22,0 0.25,0 0.25,0.21 0,0.7 -0.3,1.57 -0.53,2.21 -0.21,0.58 -0.49,1.36 -0.49,2.11 0,1.58 1.09,2.26 2,2.26 0.95,0 2.01,-0.72 2.01,-2.26 0,-0.75 -0.27,-1.5 -0.56,-2.32 -0.15,-0.42 -0.47,-1.31 -0.47,-2 0,-0.21 0.03,-0.21 0.26,-0.21 h 1.58 z"
       style="fill:#000000;stroke-width:0"
       id="path26044" /></g>  <path
     sodipodi:rx="30"
     inkscape:label="arc"
     sodipodi:cy="486.7157287598"
     sodipodi:cx="485"
     sodipodi:open="true"
     style="fill:none;stroke:#217b21;stroke-width:1;stroke-linecap:round;stroke-linejoin:round;marker-end:url(#arrowVoltageEnd)"
     d="m 495,515.0000000072 a 30,30 0 0 1 -20,0"
     sodipodi:ry="30"
     sodipodi:type="arc"
     sodipodi:start="1.23095941734"
     sodipodi:end="1.91063323625"
     id="path26048"
     transform="translate(-160,-67.63781738282)" />
  <g
     style="font-style:normal;font-variant:normal;font-weight:normal;font-stretch:normal;letter-spacing:normal;word-spacing:normal;text-anchor:start;fill:#008000;stroke:#000000;stroke-linecap:butt;stroke-linejoin:miter;stroke-miterlimit:10.4329996109;stroke-opacity:1;stroke-dasharray:none;stroke-dashoffset:0"
     id="g26050"
     xml:space="preserve"
     stroke-miterlimit="10.433"
     font-style="normal"
     font-variant="normal"
     font-weight="normal"
     font-stretch="normal"
     font-size-adjust="none"
     letter-spacing="normal"
     word-spacing="normal"
     ns0:text="$\\phasorName{V}_2$"
     ns0:preamble="./preamble.tex"
     transform="matrix(0.739645,0,0,-0.739645,143.705614,811.1030736172)"><polygon
       style="fill:#008000;stroke-width:0"
       points="244.3,484.91 244.58,485.28 243.02,486.54 241.45,485.29 241.73,484.9 243.02,485.72 "
       id="polygon26052" /><path
       inkscape:connector-curvature="0"
       d="m 245.93,483.18 0.02,0.05 0.03,0.03 0.03,0.04 0.02,0.02 0.01,0.02 0.02,0.02 0.02,0.01 0.02,0.02 0.01,0.01 0.02,0.02 0.03,0.01 0.02,0.02 0.02,0.01 0.03,0.02 0.03,0.01 0.03,0.01 0.03,0.01 0.03,0.01 0.04,0.01 0.03,0.01 0.04,0.01 0.05,0 0.04,0.01 0.05,0.01 0.05,0 0.03,0 0.02,0.01 0.03,0 0.03,0 0.03,0 0.03,0 0.03,0 0.03,0 c 0.12,0 0.3,0 0.3,0.29 0,0.06 -0.05,0.18 -0.18,0.18 -0.29,0 -0.6,-0.03 -0.9,-0.03 -0.36,0 -0.75,0.03 -1.1,0.03 -0.08,0 -0.27,0 -0.27,-0.29 0,-0.18 0.17,-0.18 0.26,-0.18 0.05,0 0.34,0 0.56,-0.1 l -3.28,-4.77 -0.88,4.65 c -0.01,0.03 -0.02,0.11 -0.02,0.14 0,0.08 0.54,0.08 0.61,0.08 0.22,0 0.38,0 0.38,0.29 0,0.13 -0.1,0.18 -0.22,0.18 -0.25,0 -0.51,-0.02 -0.76,-0.02 -0.24,0 -0.49,-0.01 -0.73,-0.01 -0.22,0 -0.45,0.01 -0.68,0.01 -0.22,0 -0.45,0.02 -0.66,0.02 -0.09,0 -0.28,0 -0.28,-0.29 0,-0.18 0.16,-0.18 0.37,-0.18 0.13,0 0.25,0 0.39,-0.01 0.11,-0.01 0.12,-0.02 0.15,-0.19 l 1.13,-6.04 c 0.05,-0.27 0.16,-0.27 0.35,-0.27 0.28,0 0.33,0.07 0.46,0.25 z"
       style="fill:#008000;stroke-width:0"
       id="path26054" /><path
       inkscape:connector-curvature="0"
       d="m 251.19,477.01 h -0.24 c -0.02,-0.16 -0.09,-0.57 -0.18,-0.64 -0.05,-0.04 -0.59,-0.04 -0.69,-0.04 h -1.28 c 0.73,0.65 0.98,0.84 1.4,1.17 0.51,0.41 0.99,0.84 0.99,1.5 0,0.84 -0.74,1.36 -1.63,1.36 -0.86,0 -1.45,-0.61 -1.45,-1.25 0,-0.35 0.3,-0.39 0.37,-0.39 0.17,0 0.37,0.12 0.37,0.37 0,0.13 -0.05,0.37 -0.41,0.37 0.22,0.49 0.69,0.65 1.02,0.65 0.69,0 1.05,-0.54 1.05,-1.11 0,-0.6 -0.43,-1.08 -0.65,-1.33 l -1.68,-1.66 c -0.07,-0.06 -0.07,-0.07 -0.07,-0.27 h 2.87 z"
       style="fill:#008000;stroke-width:0"
       id="path26056" /></g>  <g
     inkscape:label="name"
     id="g26058"
     transform="translate(-160,-67.63781738282)">
    <path
       inkscape:connector-curvature="0"
       inkscape:label="none"
       style="fill:none;stroke:#ff0000;stroke-width:1;stroke-linecap:round;stroke-linejoin:round;marker-end:url(#arrowCurrentEnd)"
       d="m 495,505 10,0"
       id="path26060" />
    <g
       style="font-style:normal;font-variant:normal;font-weight:normal;font-stretch:normal;letter-spacing:normal;word-spacing:normal;text-anchor:start;fill:#ff0000;stroke:#000000;stroke-linecap:butt;stroke-linejoin:miter;stroke-miterlimit:10.4329996109;stroke-opacity:1;stroke-dasharray:none;stroke-dashoffset:0"
       id="g26062"
       xml:space="preserve"
       stroke-miterlimit="10.433"
       font-style="normal"
       font-variant="normal"
       font-weight="normal"
       font-stretch="normal"
       font-size-adjust="none"
       letter-spacing="normal"
       word-spacing="normal"
       ns0:text="$\\phasorName{I}_2$"
       ns0:preamble="./preamble.tex"
       transform="matrix(0.739645,0,0,-0.739645,320.077656,854.212045)"><polygon
         style="fill:#ff0000;stroke-width:0"
         points="243.86,484.91 244.13,485.28 242.57,486.54 241.01,485.29 241.29,484.9 242.57,485.72 "
         id="polygon26064" /><path
         inkscape:connector-curvature="0"
         d="m 242.76,483.37 0.01,0.02 0,0.01 0,0.02 0.01,0.01 0,0.01 0,0.01 0.01,0.01 0,0.01 0,0.01 0.01,0.01 0,0.01 0.01,0.01 0,0 0.01,0.01 0,0 0.01,0.01 0,0 0.01,0.01 0.01,0 0.01,0.01 0,0 0.01,0 0.01,0 0.01,0.01 0.02,0 0.01,0 0.01,0 0.02,0.01 0,0 0.01,0 0.01,0 0.01,0 0.01,0 0,0 0.01,0 0.01,0 c 0.15,0.01 0.28,0.01 0.43,0.01 h 0.21 c 0.21,0 0.22,0.01 0.27,0.05 0.06,0.04 0.09,0.18 0.09,0.24 0,0.12 -0.1,0.18 -0.22,0.18 -0.25,0 -0.51,-0.02 -0.76,-0.02 -0.26,0 -0.52,-0.01 -0.79,-0.01 -0.28,0 -0.56,0.01 -0.83,0.01 -0.26,0 -0.53,0.02 -0.78,0.02 -0.11,0 -0.28,0 -0.28,-0.29 0,-0.18 0.16,-0.18 0.33,-0.18 h 0.21 c 0.09,0 0.33,-0.01 0.53,-0.02 L 240,477.9 c -0.04,-0.16 -0.05,-0.17 -0.24,-0.18 -0.12,-0.02 -0.3,-0.02 -0.43,-0.02 h -0.21 c -0.2,0 -0.37,0 -0.37,-0.29 0,-0.12 0.11,-0.18 0.22,-0.18 0.25,0 0.51,0.03 0.76,0.03 0.27,0 0.54,0.01 0.81,0.01 0.27,0 0.54,-0.01 0.82,-0.01 0.26,0 0.52,-0.03 0.77,-0.03 0.1,0 0.3,0 0.3,0.29 0,0.18 -0.17,0.18 -0.34,0.18 h -0.21 c -0.07,0 -0.4,0.01 -0.53,0.02 z"
         style="fill:#ff0000;stroke-width:0"
         id="path26066" /><path
         inkscape:connector-curvature="0"
         d="m 247.76,477.01 h -0.24 c -0.02,-0.16 -0.09,-0.57 -0.18,-0.64 -0.05,-0.04 -0.59,-0.04 -0.69,-0.04 h -1.28 c 0.73,0.65 0.98,0.84 1.39,1.17 0.52,0.41 1,0.84 1,1.5 0,0.84 -0.74,1.36 -1.63,1.36 -0.86,0 -1.45,-0.61 -1.45,-1.25 0,-0.35 0.3,-0.39 0.37,-0.39 0.17,0 0.37,0.12 0.37,0.37 0,0.13 -0.05,0.37 -0.41,0.37 0.22,0.49 0.69,0.65 1.02,0.65 0.69,0 1.05,-0.54 1.05,-1.11 0,-0.6 -0.43,-1.08 -0.65,-1.33 l -1.68,-1.66 c -0.07,-0.06 -0.07,-0.07 -0.07,-0.27 h 2.87 z"
         style="fill:#ff0000;stroke-width:0"
         id="path26068" /></g>  </g>
  <g
     id="g27225"
     transform="matrix(0,-1,1,0,-190,952.3621826172)"
     inkscape:label="Capacitor">
    <g
       id="g27227"
       inkscape:label="Capacitor">
      <path
         id="path27229"
         d="m 460,490 23,0"
         style="fill:none;stroke:#000000;stroke-width:1;stroke-linecap:round;stroke-linejoin:round"
         inkscape:label="none"
         inkscape:connector-curvature="0" />
      <path
         id="path27231"
         d="m 510,490 -23,0"
         style="fill:none;stroke:#000000;stroke-width:1;stroke-linecap:round;stroke-linejoin:round"
         inkscape:label="none"
         inkscape:connector-curvature="0" />
      <path
         id="path27233"
         d="m 483,497 0,-14"
         style="fill:none;stroke:#000000;stroke-width:1;stroke-linecap:round;stroke-linejoin:round"
         inkscape:label="none"
         inkscape:connector-curvature="0" />
      <path
         id="path27235"
         d="m 487,497 0,-14"
         style="fill:none;stroke:#000000;stroke-width:1;stroke-linecap:round;stroke-linejoin:round"
         inkscape:label="none"
         inkscape:connector-curvature="0" />
    </g>
    <g
       transform="matrix(0.739645,0,0,-0.739645,299.452655,830.145971)"
       ns0:preamble="./preamble.tex"
       ns0:text="$-2j\\si{\\ohm}$"
       word-spacing="normal"
       letter-spacing="normal"
       font-size-adjust="none"
       font-stretch="normal"
       font-weight="normal"
       font-variant="normal"
       font-style="normal"
       stroke-miterlimit="10.433"
       xml:space="preserve"
       id="g27237"
       style="font-style:normal;font-variant:normal;font-weight:normal;font-stretch:normal;letter-spacing:normal;word-spacing:normal;text-anchor:start;fill:none;stroke:#000000;stroke-linecap:butt;stroke-linejoin:miter;stroke-miterlimit:10.4329996109;stroke-opacity:1;stroke-dasharray:none;stroke-dashoffset:0"><path
         id="path27239"
         style="fill:#000000;stroke-width:0"
         d="m 244.93,479.52 0.03,0 0.04,0 0.03,0 0.01,0 0.02,0 0.01,0 0.02,0.01 0.01,0 0.02,0 0.01,0 0.01,0.01 0.02,0 0.01,0 0.01,0.01 0.01,0.01 0.02,0 0.01,0.01 0.01,0.01 0,0 0.01,0.01 0.01,0.01 0,0.01 0.01,0 0,0.01 0,0.01 0.01,0 0,0.01 0,0.01 0,0 0,0.01 0.01,0.01 0,0.01 0,0 0,0.01 0,0.01 0,0.01 0,0.01 c 0,0.2 -0.18,0.2 -0.35,0.2 h -5.38 c -0.17,0 -0.35,0 -0.35,-0.2 0,-0.2 0.18,-0.2 0.35,-0.2 z"
         inkscape:connector-curvature="0" /><path
         id="path27241"
         style="fill:#000000;stroke-width:0"
         d="m 247.39,478 1.05,1.02 c 1.55,1.37 2.15,1.91 2.15,2.9 0,1.14 -0.89,1.93 -2.11,1.93 -1.12,0 -1.86,-0.91 -1.86,-1.8 0,-0.55 0.5,-0.55 0.53,-0.55 0.17,0 0.52,0.12 0.52,0.52 0,0.26 -0.18,0.52 -0.53,0.52 -0.08,0 -0.1,0 -0.13,-0.01 0.23,0.64 0.77,1.01 1.34,1.01 0.91,0 1.34,-0.8 1.34,-1.62 0,-0.79 -0.5,-1.58 -1.05,-2.19 l -1.91,-2.13 c -0.11,-0.11 -0.11,-0.13 -0.11,-0.37 h 3.69 l 0.28,1.73 h -0.25 c -0.05,-0.29 -0.12,-0.73 -0.22,-0.88 C 250.05,478 249.4,478 249.18,478 z"
         inkscape:connector-curvature="0" /><path
         id="path27243"
         style="fill:#000000;stroke-width:0"
         d="m 255.06,483.44 0,0.02 -0.01,0.02 0,0.02 0,0.01 0,0.02 -0.01,0.02 0,0.01 -0.01,0.02 -0.01,0.01 0,0.02 -0.01,0.02 -0.01,0.01 -0.01,0.01 -0.01,0.02 -0.01,0.01 -0.01,0.01 -0.02,0.02 -0.01,0.01 -0.01,0.01 -0.02,0.01 -0.01,0.01 -0.02,0.01 -0.01,0 -0.02,0.01 -0.02,0.01 -0.02,0 -0.02,0.01 -0.02,0 -0.02,0.01 -0.02,0 -0.02,0 -0.02,0 c -0.23,0 -0.53,-0.23 -0.53,-0.53 0,-0.19 0.14,-0.35 0.37,-0.35 0.27,0 0.54,0.25 0.54,0.52 z"
         inkscape:connector-curvature="0" /><path
         id="path27245"
         style="fill:#000000;stroke-width:0"
         d="m 253.06,476.74 -0.02,-0.07 -0.02,-0.07 -0.02,-0.07 -0.03,-0.07 -0.02,-0.06 -0.03,-0.06 -0.03,-0.07 -0.03,-0.06 -0.03,-0.06 -0.03,-0.05 -0.03,-0.06 -0.04,-0.05 -0.03,-0.05 -0.04,-0.05 -0.04,-0.05 -0.04,-0.05 -0.04,-0.04 -0.04,-0.04 -0.04,-0.04 -0.05,-0.03 -0.04,-0.04 -0.05,-0.03 -0.04,-0.03 -0.05,-0.02 -0.05,-0.03 -0.04,-0.02 -0.05,-0.01 -0.05,-0.02 -0.05,-0.01 -0.05,-0.01 -0.06,0 -0.05,0 c -0.06,0 -0.21,0 -0.39,0.09 0.3,0.07 0.45,0.32 0.45,0.52 0,0.16 -0.11,0.35 -0.38,0.35 -0.25,0 -0.53,-0.21 -0.53,-0.57 0,-0.39 0.4,-0.61 0.87,-0.61 0.7,0 1.62,0.53 1.87,1.51 l 0.92,3.63 c 0.05,0.2 0.05,0.34 0.05,0.37 0,0.57 -0.42,0.92 -0.92,0.92 -1.01,0 -1.58,-1.45 -1.58,-1.53 0,-0.1 0.1,-0.1 0.12,-0.1 0.09,0 0.1,0.01 0.18,0.2 0.25,0.6 0.71,1.21 1.25,1.21 0.14,0 0.32,-0.04 0.32,-0.46 0,-0.23 -0.03,-0.34 -0.07,-0.51 z"
         inkscape:connector-curvature="0" /><path
         id="path27247"
         style="fill:#000000;stroke-width:0"
         d="m 262.52,478.84 h -0.25 c -0.05,-0.25 -0.09,-0.48 -0.18,-0.72 -0.05,-0.16 -0.08,-0.24 -0.66,-0.24 h -0.8 c 0.13,0.56 0.44,1.03 0.89,1.69 0.47,0.7 0.87,1.39 0.87,2.17 0,1.39 -1.34,2.5 -3.02,2.5 -1.71,0 -3.03,-1.13 -3.03,-2.5 0,-0.78 0.4,-1.47 0.87,-2.17 0.44,-0.66 0.76,-1.13 0.89,-1.69 h -0.8 c -0.58,0 -0.61,0.08 -0.66,0.23 -0.07,0.23 -0.12,0.49 -0.18,0.73 h -0.24 l 0.33,-1.61 h 1.59 c 0.22,0 0.25,0 0.25,0.21 0,0.7 -0.31,1.57 -0.54,2.21 -0.21,0.58 -0.49,1.36 -0.49,2.11 0,1.58 1.09,2.26 2,2.26 0.96,0 2.01,-0.72 2.01,-2.26 0,-0.75 -0.27,-1.5 -0.56,-2.32 -0.15,-0.42 -0.46,-1.31 -0.46,-2 0,-0.21 0.03,-0.21 0.25,-0.21 h 1.59 z"
         inkscape:connector-curvature="0" /></g>    <g
       id="g27249"
       inkscape:label="name">
      <path
         id="path27251"
         sodipodi:end="1.91063323625"
         sodipodi:start="1.23095941734"
         sodipodi:type="arc"
         sodipodi:ry="30"
         d="m 495,499.0000000072 a 30,30 0 0 1 -20,0"
         style="fill:none;stroke:#217b21;stroke-width:1;stroke-linecap:round;stroke-linejoin:round;marker-end:url(#arrowVoltageEnd)"
         sodipodi:open="true"
         sodipodi:cx="485"
         sodipodi:cy="470.7157287598"
         inkscape:label="arc"
         sodipodi:rx="30" />
      <g
         transform="matrix(0,0.739645,0.739645,0,130.099838,327.918385)"
         ns0:preamble="./preamble.tex"
         ns0:text="$\\phasorName{V}_3$"
         word-spacing="normal"
         letter-spacing="normal"
         font-size-adjust="none"
         font-stretch="normal"
         font-weight="normal"
         font-variant="normal"
         font-style="normal"
         stroke-miterlimit="10.433"
         xml:space="preserve"
         id="g27253"
         style="font-style:normal;font-variant:normal;font-weight:normal;font-stretch:normal;letter-spacing:normal;word-spacing:normal;text-anchor:start;fill:#008000;stroke:#000000;stroke-linecap:butt;stroke-linejoin:miter;stroke-miterlimit:10.4329996109;stroke-opacity:1;stroke-dasharray:none;stroke-dashoffset:0"><polygon
           id="polygon27255"
           points="244.3,484.91 244.58,485.28 243.02,486.54 241.45,485.29 241.73,484.9 243.02,485.72 "
           style="fill:#008000;stroke-width:0" /><path
           id="path27257"
           style="fill:#008000;stroke-width:0"
           d="m 245.93,483.18 0.02,0.05 0.03,0.03 0.03,0.04 0.02,0.02 0.01,0.02 0.02,0.02 0.02,0.01 0.02,0.02 0.01,0.01 0.02,0.02 0.03,0.01 0.02,0.02 0.02,0.01 0.03,0.02 0.03,0.01 0.03,0.01 0.03,0.01 0.03,0.01 0.04,0.01 0.03,0.01 0.04,0.01 0.05,0 0.04,0.01 0.05,0.01 0.05,0 0.03,0 0.02,0.01 0.03,0 0.03,0 0.03,0 0.03,0 0.03,0 0.03,0 c 0.12,0 0.3,0 0.3,0.29 0,0.06 -0.05,0.18 -0.18,0.18 -0.29,0 -0.6,-0.03 -0.9,-0.03 -0.36,0 -0.75,0.03 -1.1,0.03 -0.08,0 -0.27,0 -0.27,-0.29 0,-0.18 0.17,-0.18 0.26,-0.18 0.05,0 0.34,0 0.56,-0.1 l -3.28,-4.77 -0.88,4.65 c -0.01,0.03 -0.02,0.11 -0.02,0.14 0,0.08 0.54,0.08 0.61,0.08 0.22,0 0.38,0 0.38,0.29 0,0.13 -0.1,0.18 -0.22,0.18 -0.25,0 -0.51,-0.02 -0.76,-0.02 -0.24,0 -0.49,-0.01 -0.73,-0.01 -0.22,0 -0.45,0.01 -0.68,0.01 -0.22,0 -0.45,0.02 -0.66,0.02 -0.09,0 -0.28,0 -0.28,-0.29 0,-0.18 0.16,-0.18 0.37,-0.18 0.13,0 0.25,0 0.39,-0.01 0.11,-0.01 0.12,-0.02 0.15,-0.19 l 1.13,-6.04 c 0.05,-0.27 0.16,-0.27 0.35,-0.27 0.28,0 0.33,0.07 0.46,0.25 z"
           inkscape:connector-curvature="0" /><path
           id="path27259"
           style="fill:#008000;stroke-width:0"
           d="m 249.57,478.06 0.06,0 0.05,0 0.04,-0.01 0.05,0 0.05,-0.01 0.04,-0.02 0.05,-0.01 0.04,-0.02 0.04,-0.02 0.04,-0.02 0.04,-0.02 0.04,-0.02 0.04,-0.03 0.03,-0.03 0.03,-0.03 0.04,-0.04 0.03,-0.03 0.02,-0.04 0.03,-0.04 0.03,-0.04 0.02,-0.05 0.02,-0.05 0.02,-0.05 0.02,-0.05 0.02,-0.05 0.01,-0.06 0.01,-0.05 0.01,-0.06 0.01,-0.07 0,-0.06 0.01,-0.07 0,-0.07 c 0,-0.86 -0.5,-1.12 -0.91,-1.12 -0.28,0 -0.89,0.08 -1.18,0.49 0.33,0.02 0.4,0.24 0.4,0.39 0,0.22 -0.16,0.38 -0.38,0.38 -0.2,0 -0.39,-0.12 -0.39,-0.4 0,-0.65 0.72,-1.08 1.57,-1.08 0.97,0 1.63,0.65 1.63,1.34 0,0.55 -0.44,1.09 -1.21,1.25 0.73,0.26 1,0.78 1,1.21 0,0.55 -0.64,0.96 -1.41,0.96 -0.77,0 -1.36,-0.38 -1.36,-0.93 0,-0.24 0.15,-0.37 0.36,-0.37 0.21,0 0.35,0.16 0.35,0.35 0,0.2 -0.14,0.35 -0.35,0.36 0.24,0.31 0.72,0.39 0.98,0.39 0.31,0 0.75,-0.16 0.75,-0.76 0,-0.29 -0.1,-0.61 -0.28,-0.83 -0.23,-0.26 -0.42,-0.28 -0.77,-0.3 -0.17,-0.01 -0.19,-0.01 -0.22,-0.02 -0.02,0 -0.07,-0.01 -0.07,-0.09 0,-0.1 0.06,-0.1 0.18,-0.1 z"
           inkscape:connector-curvature="0" /></g>    </g>
    <g
       id="g27261"
       inkscape:label="name">
      <path
         id="path27263"
         d="m 495,485 10,0"
         style="fill:none;stroke:#ff0000;stroke-width:1;stroke-linecap:round;stroke-linejoin:round;marker-end:url(#arrowCurrentEnd)"
         inkscape:label="none"
         inkscape:connector-curvature="0" />
      <g
         transform="matrix(0,0.739645,0.739645,0,145.099838,299.034509)"
         ns0:preamble="./preamble.tex"
         ns0:text="$\\phasorName{I}_3$"
         word-spacing="normal"
         letter-spacing="normal"
         font-size-adjust="none"
         font-stretch="normal"
         font-weight="normal"
         font-variant="normal"
         font-style="normal"
         stroke-miterlimit="10.433"
         xml:space="preserve"
         id="g27265"
         style="font-style:normal;font-variant:normal;font-weight:normal;font-stretch:normal;letter-spacing:normal;word-spacing:normal;text-anchor:start;fill:#ff0000;stroke:#000000;stroke-linecap:butt;stroke-linejoin:miter;stroke-miterlimit:10.4329996109;stroke-opacity:1;stroke-dasharray:none;stroke-dashoffset:0"><polygon
           id="polygon27267"
           points="243.86,484.91 244.13,485.28 242.57,486.54 241.01,485.29 241.29,484.9 242.57,485.72 "
           style="fill:#ff0000;stroke-width:0" /><path
           id="path27269"
           style="fill:#ff0000;stroke-width:0"
           d="m 242.76,483.37 0.01,0.02 0,0.01 0,0.02 0.01,0.01 0,0.01 0,0.01 0.01,0.01 0,0.01 0,0.01 0.01,0.01 0,0.01 0.01,0.01 0,0 0.01,0.01 0,0 0.01,0.01 0,0 0.01,0.01 0.01,0 0.01,0.01 0,0 0.01,0 0.01,0 0.01,0.01 0.02,0 0.01,0 0.01,0 0.02,0.01 0,0 0.01,0 0.01,0 0.01,0 0.01,0 0,0 0.01,0 0.01,0 c 0.15,0.01 0.28,0.01 0.43,0.01 h 0.21 c 0.21,0 0.22,0.01 0.27,0.05 0.06,0.04 0.09,0.18 0.09,0.24 0,0.12 -0.1,0.18 -0.22,0.18 -0.25,0 -0.51,-0.02 -0.76,-0.02 -0.26,0 -0.52,-0.01 -0.79,-0.01 -0.28,0 -0.56,0.01 -0.83,0.01 -0.26,0 -0.53,0.02 -0.78,0.02 -0.11,0 -0.28,0 -0.28,-0.29 0,-0.18 0.16,-0.18 0.33,-0.18 h 0.21 c 0.09,0 0.33,-0.01 0.53,-0.02 L 240,477.9 c -0.04,-0.16 -0.05,-0.17 -0.24,-0.18 -0.12,-0.02 -0.3,-0.02 -0.43,-0.02 h -0.21 c -0.2,0 -0.37,0 -0.37,-0.29 0,-0.12 0.11,-0.18 0.22,-0.18 0.25,0 0.51,0.03 0.76,0.03 0.27,0 0.54,0.01 0.81,0.01 0.27,0 0.54,-0.01 0.82,-0.01 0.26,0 0.52,-0.03 0.77,-0.03 0.1,0 0.3,0 0.3,0.29 0,0.18 -0.17,0.18 -0.34,0.18 h -0.21 c -0.07,0 -0.4,0.01 -0.53,0.02 z"
           inkscape:connector-curvature="0" /><path
           id="path27271"
           style="fill:#ff0000;stroke-width:0"
           d="m 246.14,478.06 0.05,0 0.05,0 0.05,-0.01 0.05,0 0.05,-0.01 0.04,-0.02 0.05,-0.01 0.04,-0.02 0.04,-0.02 0.04,-0.02 0.04,-0.02 0.04,-0.02 0.03,-0.03 0.04,-0.03 0.03,-0.03 0.04,-0.04 0.03,-0.03 0.02,-0.04 0.03,-0.04 0.03,-0.04 0.02,-0.05 0.02,-0.05 0.02,-0.05 0.02,-0.05 0.01,-0.05 0.02,-0.06 0.01,-0.05 0.01,-0.06 0.01,-0.07 0,-0.06 0.01,-0.07 0,-0.07 c 0,-0.86 -0.5,-1.12 -0.91,-1.12 -0.28,0 -0.89,0.08 -1.18,0.49 0.33,0.02 0.4,0.24 0.4,0.39 0,0.22 -0.16,0.38 -0.38,0.38 -0.2,0 -0.39,-0.12 -0.39,-0.4 0,-0.65 0.72,-1.08 1.57,-1.08 0.96,0 1.63,0.65 1.63,1.34 0,0.55 -0.44,1.09 -1.21,1.25 0.73,0.26 1,0.78 1,1.21 0,0.55 -0.64,0.96 -1.41,0.96 -0.77,0 -1.36,-0.38 -1.36,-0.93 0,-0.24 0.15,-0.37 0.36,-0.37 0.21,0 0.35,0.16 0.35,0.35 0,0.2 -0.14,0.35 -0.35,0.36 0.24,0.31 0.72,0.39 0.98,0.39 0.31,0 0.75,-0.16 0.75,-0.76 0,-0.29 -0.1,-0.61 -0.28,-0.83 -0.23,-0.26 -0.42,-0.28 -0.77,-0.3 -0.17,-0.01 -0.19,-0.01 -0.22,-0.02 -0.02,0 -0.07,-0.01 -0.07,-0.09 0,-0.1 0.06,-0.1 0.18,-0.1 z"
           inkscape:connector-curvature="0" /></g>    </g>
  </g>
  <g
     inkscape:label="Capacitor"
     transform="matrix(0,-1,1,0,-210,1002.362182617)"
     id="g27751">
    <g
       inkscape:label="Capacitor"
       id="g27753">
      <path
         inkscape:connector-curvature="0"
         inkscape:label="none"
         style="fill:none;stroke:#000000;stroke-width:1;stroke-linecap:round;stroke-linejoin:round"
         d="m 460,510 23,0"
         id="path27755" />
      <path
         inkscape:connector-curvature="0"
         inkscape:label="none"
         style="fill:none;stroke:#000000;stroke-width:1;stroke-linecap:round;stroke-linejoin:round"
         d="m 510,510 -23,0"
         id="path27757" />
      <path
         inkscape:connector-curvature="0"
         inkscape:label="none"
         style="fill:none;stroke:#000000;stroke-width:1;stroke-linecap:round;stroke-linejoin:round"
         d="m 483,517 0,-14"
         id="path27759" />
      <path
         inkscape:connector-curvature="0"
         inkscape:label="none"
         style="fill:none;stroke:#000000;stroke-width:1;stroke-linecap:round;stroke-linejoin:round"
         d="m 487,517 0,-14"
         id="path27761" />
    </g>
    <g
       style="font-style:normal;font-variant:normal;font-weight:normal;font-stretch:normal;letter-spacing:normal;word-spacing:normal;text-anchor:start;fill:none;stroke:#000000;stroke-linecap:butt;stroke-linejoin:miter;stroke-miterlimit:10.4329996109;stroke-opacity:1;stroke-dasharray:none;stroke-dashoffset:0"
       id="g27763"
       xml:space="preserve"
       stroke-miterlimit="10.433"
       font-style="normal"
       font-variant="normal"
       font-weight="normal"
       font-stretch="normal"
       font-size-adjust="none"
       letter-spacing="normal"
       word-spacing="normal"
       ns0:text="$-2j\\si{\\ohm}$"
       ns0:preamble="./preamble.tex"
       transform="matrix(0.739645,0,0,-0.739645,299.452655,850.145971)"><path
         inkscape:connector-curvature="0"
         d="m 244.93,479.52 0.03,0 0.04,0 0.03,0 0.01,0 0.02,0 0.01,0 0.02,0.01 0.01,0 0.02,0 0.01,0 0.01,0.01 0.02,0 0.01,0 0.01,0.01 0.01,0.01 0.02,0 0.01,0.01 0.01,0.01 0,0 0.01,0.01 0.01,0.01 0,0.01 0.01,0 0,0.01 0,0.01 0.01,0 0,0.01 0,0.01 0,0 0,0.01 0.01,0.01 0,0.01 0,0 0,0.01 0,0.01 0,0.01 0,0.01 c 0,0.2 -0.18,0.2 -0.35,0.2 h -5.38 c -0.17,0 -0.35,0 -0.35,-0.2 0,-0.2 0.18,-0.2 0.35,-0.2 z"
         style="fill:#000000;stroke-width:0"
         id="path27765" /><path
         inkscape:connector-curvature="0"
         d="m 247.39,478 1.05,1.02 c 1.55,1.37 2.15,1.91 2.15,2.9 0,1.14 -0.89,1.93 -2.11,1.93 -1.12,0 -1.86,-0.91 -1.86,-1.8 0,-0.55 0.5,-0.55 0.53,-0.55 0.17,0 0.52,0.12 0.52,0.52 0,0.26 -0.18,0.52 -0.53,0.52 -0.08,0 -0.1,0 -0.13,-0.01 0.23,0.64 0.77,1.01 1.34,1.01 0.91,0 1.34,-0.8 1.34,-1.62 0,-0.79 -0.5,-1.58 -1.05,-2.19 l -1.91,-2.13 c -0.11,-0.11 -0.11,-0.13 -0.11,-0.37 h 3.69 l 0.28,1.73 h -0.25 c -0.05,-0.29 -0.12,-0.73 -0.22,-0.88 C 250.05,478 249.4,478 249.18,478 z"
         style="fill:#000000;stroke-width:0"
         id="path27767" /><path
         inkscape:connector-curvature="0"
         d="m 255.06,483.44 0,0.02 -0.01,0.02 0,0.02 0,0.01 0,0.02 -0.01,0.02 0,0.01 -0.01,0.02 -0.01,0.01 0,0.02 -0.01,0.02 -0.01,0.01 -0.01,0.01 -0.01,0.02 -0.01,0.01 -0.01,0.01 -0.02,0.02 -0.01,0.01 -0.01,0.01 -0.02,0.01 -0.01,0.01 -0.02,0.01 -0.01,0 -0.02,0.01 -0.02,0.01 -0.02,0 -0.02,0.01 -0.02,0 -0.02,0.01 -0.02,0 -0.02,0 -0.02,0 c -0.23,0 -0.53,-0.23 -0.53,-0.53 0,-0.19 0.14,-0.35 0.37,-0.35 0.27,0 0.54,0.25 0.54,0.52 z"
         style="fill:#000000;stroke-width:0"
         id="path27769" /><path
         inkscape:connector-curvature="0"
         d="m 253.06,476.74 -0.02,-0.07 -0.02,-0.07 -0.02,-0.07 -0.03,-0.07 -0.02,-0.06 -0.03,-0.06 -0.03,-0.07 -0.03,-0.06 -0.03,-0.06 -0.03,-0.05 -0.03,-0.06 -0.04,-0.05 -0.03,-0.05 -0.04,-0.05 -0.04,-0.05 -0.04,-0.05 -0.04,-0.04 -0.04,-0.04 -0.04,-0.04 -0.05,-0.03 -0.04,-0.04 -0.05,-0.03 -0.04,-0.03 -0.05,-0.02 -0.05,-0.03 -0.04,-0.02 -0.05,-0.01 -0.05,-0.02 -0.05,-0.01 -0.05,-0.01 -0.06,0 -0.05,0 c -0.06,0 -0.21,0 -0.39,0.09 0.3,0.07 0.45,0.32 0.45,0.52 0,0.16 -0.11,0.35 -0.38,0.35 -0.25,0 -0.53,-0.21 -0.53,-0.57 0,-0.39 0.4,-0.61 0.87,-0.61 0.7,0 1.62,0.53 1.87,1.51 l 0.92,3.63 c 0.05,0.2 0.05,0.34 0.05,0.37 0,0.57 -0.42,0.92 -0.92,0.92 -1.01,0 -1.58,-1.45 -1.58,-1.53 0,-0.1 0.1,-0.1 0.12,-0.1 0.09,0 0.1,0.01 0.18,0.2 0.25,0.6 0.71,1.21 1.25,1.21 0.14,0 0.32,-0.04 0.32,-0.46 0,-0.23 -0.03,-0.34 -0.07,-0.51 z"
         style="fill:#000000;stroke-width:0"
         id="path27771" /><path
         inkscape:connector-curvature="0"
         d="m 262.52,478.84 h -0.25 c -0.05,-0.25 -0.09,-0.48 -0.18,-0.72 -0.05,-0.16 -0.08,-0.24 -0.66,-0.24 h -0.8 c 0.13,0.56 0.44,1.03 0.89,1.69 0.47,0.7 0.87,1.39 0.87,2.17 0,1.39 -1.34,2.5 -3.02,2.5 -1.71,0 -3.03,-1.13 -3.03,-2.5 0,-0.78 0.4,-1.47 0.87,-2.17 0.44,-0.66 0.76,-1.13 0.89,-1.69 h -0.8 c -0.58,0 -0.61,0.08 -0.66,0.23 -0.07,0.23 -0.12,0.49 -0.18,0.73 h -0.24 l 0.33,-1.61 h 1.59 c 0.22,0 0.25,0 0.25,0.21 0,0.7 -0.31,1.57 -0.54,2.21 -0.21,0.58 -0.49,1.36 -0.49,2.11 0,1.58 1.09,2.26 2,2.26 0.96,0 2.01,-0.72 2.01,-2.26 0,-0.75 -0.27,-1.5 -0.56,-2.32 -0.15,-0.42 -0.46,-1.31 -0.46,-2 0,-0.21 0.03,-0.21 0.25,-0.21 h 1.59 z"
         style="fill:#000000;stroke-width:0"
         id="path27773" /></g>    <g
       inkscape:label="name"
       id="g27775">
      <path
         sodipodi:rx="30"
         inkscape:label="arc"
         sodipodi:cy="490.7157287598"
         sodipodi:cx="485"
         sodipodi:open="true"
         style="fill:none;stroke:#217b21;stroke-width:1;stroke-linecap:round;stroke-linejoin:round;marker-start:url(#arrowVoltageStart)"
         d="m 495,519.0000000072 a 30,30 0 0 1 -20,0"
         sodipodi:ry="30"
         sodipodi:type="arc"
         sodipodi:start="1.23095941734"
         sodipodi:end="1.91063323625"
         id="path27777" />
      <g
         style="font-style:normal;font-variant:normal;font-weight:normal;font-stretch:normal;letter-spacing:normal;word-spacing:normal;text-anchor:start;fill:#008000;stroke:#000000;stroke-linecap:butt;stroke-linejoin:miter;stroke-miterlimit:10.4329996109;stroke-opacity:1;stroke-dasharray:none;stroke-dashoffset:0"
         id="g27779"
         xml:space="preserve"
         stroke-miterlimit="10.433"
         font-style="normal"
         font-variant="normal"
         font-weight="normal"
         font-stretch="normal"
         font-size-adjust="none"
         letter-spacing="normal"
         word-spacing="normal"
         ns0:text="$\\phasorName{V}_4$"
         ns0:preamble="./preamble.tex"
         transform="matrix(0,0.739645,0.739645,0,130.048063,347.918385)"><polygon
           style="fill:#008000;stroke-width:0"
           points="244.3,484.91 244.58,485.28 243.02,486.54 241.45,485.29 241.73,484.9 243.02,485.72 "
           id="polygon27781" /><path
           inkscape:connector-curvature="0"
           d="m 245.93,483.18 0.02,0.05 0.03,0.03 0.03,0.04 0.02,0.02 0.01,0.02 0.02,0.02 0.02,0.01 0.02,0.02 0.01,0.01 0.02,0.02 0.03,0.01 0.02,0.02 0.02,0.01 0.03,0.02 0.03,0.01 0.03,0.01 0.03,0.01 0.03,0.01 0.04,0.01 0.03,0.01 0.04,0.01 0.05,0 0.04,0.01 0.05,0.01 0.05,0 0.03,0 0.02,0.01 0.03,0 0.03,0 0.03,0 0.03,0 0.03,0 0.03,0 c 0.12,0 0.3,0 0.3,0.29 0,0.06 -0.05,0.18 -0.18,0.18 -0.29,0 -0.6,-0.03 -0.9,-0.03 -0.36,0 -0.75,0.03 -1.1,0.03 -0.08,0 -0.27,0 -0.27,-0.29 0,-0.18 0.17,-0.18 0.26,-0.18 0.05,0 0.34,0 0.56,-0.1 l -3.28,-4.77 -0.88,4.65 c -0.01,0.03 -0.02,0.11 -0.02,0.14 0,0.08 0.54,0.08 0.61,0.08 0.22,0 0.38,0 0.38,0.29 0,0.13 -0.1,0.18 -0.22,0.18 -0.25,0 -0.51,-0.02 -0.76,-0.02 -0.24,0 -0.49,-0.01 -0.73,-0.01 -0.22,0 -0.45,0.01 -0.68,0.01 -0.22,0 -0.45,0.02 -0.66,0.02 -0.09,0 -0.28,0 -0.28,-0.29 0,-0.18 0.16,-0.18 0.37,-0.18 0.13,0 0.25,0 0.39,-0.01 0.11,-0.01 0.12,-0.02 0.15,-0.19 l 1.13,-6.04 c 0.05,-0.27 0.16,-0.27 0.35,-0.27 0.28,0 0.33,0.07 0.46,0.25 z"
           style="fill:#008000;stroke-width:0"
           id="path27783" /><path
           inkscape:connector-curvature="0"
           d="m 251.36,476.88 v 0.25 h -0.77 v 3.1 c 0,0.15 0,0.2 -0.16,0.2 -0.08,0 -0.11,0 -0.18,-0.1 l -2.3,-3.2 v -0.25 h 2.04 l 0.05,0.25 h -1.84 l 1.84,2.55 v -2.55 l -0.05,-0.25 v -0.57 c 0,-0.23 0,-0.32 -0.56,-0.32 h -0.19 v -0.25 c 0.35,0.02 0.8,0.03 1.05,0.03 0.25,0 0.7,-0.01 1.05,-0.03 v 0.25 h -0.19 c -0.56,0 -0.56,0.09 -0.56,0.32 v 0.57 z"
           style="fill:#008000;stroke-width:0"
           id="path27785" /></g>    </g>
    <g
       inkscape:label="name"
       id="g27787"
       transform="translate(-30.00000000019,0)">
      <path
         inkscape:connector-curvature="0"
         inkscape:label="none"
         style="fill:none;stroke:#ff0000;stroke-width:1;stroke-linecap:round;stroke-linejoin:round;marker-end:url(#arrowCurrentEnd)"
         d="m 505,505 -10,0"
         id="path27789" />
      <g
         style="font-style:normal;font-variant:normal;font-weight:normal;font-stretch:normal;letter-spacing:normal;word-spacing:normal;text-anchor:start;fill:#ff0000;stroke:#000000;stroke-linecap:butt;stroke-linejoin:miter;stroke-miterlimit:10.4329996109;stroke-opacity:1;stroke-dasharray:none;stroke-dashoffset:0"
         id="g27791"
         xml:space="preserve"
         stroke-miterlimit="10.433"
         font-style="normal"
         font-variant="normal"
         font-weight="normal"
         font-stretch="normal"
         font-size-adjust="none"
         letter-spacing="normal"
         word-spacing="normal"
         ns0:text="$\\phasorName{I}_4$"
         ns0:preamble="./preamble.tex"
         transform="matrix(0,0.739645,0.739645,0,145.048063,318.953148)"><polygon
           style="fill:#ff0000;stroke-width:0"
           points="244.13,485.28 242.57,486.54 241.01,485.29 241.29,484.9 242.57,485.72 243.86,484.91 "
           id="polygon27793" /><path
           inkscape:connector-curvature="0"
           d="m 242.76,483.37 0.01,0.02 0,0.01 0,0.02 0.01,0.01 0,0.01 0,0.01 0.01,0.01 0,0.01 0,0.01 0.01,0.01 0,0.01 0.01,0.01 0,0 0.01,0.01 0,0 0.01,0.01 0,0 0.01,0.01 0.01,0 0.01,0.01 0,0 0.01,0 0.01,0 0.01,0.01 0.02,0 0.01,0 0.01,0 0.02,0.01 0,0 0.01,0 0.01,0 0.01,0 0.01,0 0,0 0.01,0 0.01,0 c 0.15,0.01 0.28,0.01 0.43,0.01 h 0.21 c 0.21,0 0.22,0.01 0.27,0.05 0.06,0.04 0.09,0.18 0.09,0.24 0,0.12 -0.1,0.18 -0.22,0.18 -0.25,0 -0.51,-0.02 -0.76,-0.02 -0.26,0 -0.52,-0.01 -0.79,-0.01 -0.28,0 -0.56,0.01 -0.83,0.01 -0.26,0 -0.53,0.02 -0.78,0.02 -0.11,0 -0.28,0 -0.28,-0.29 0,-0.18 0.16,-0.18 0.33,-0.18 h 0.21 c 0.09,0 0.33,-0.01 0.53,-0.02 L 240,477.9 c -0.04,-0.16 -0.05,-0.17 -0.24,-0.18 -0.12,-0.02 -0.3,-0.02 -0.43,-0.02 h -0.21 c -0.2,0 -0.37,0 -0.37,-0.29 0,-0.12 0.11,-0.18 0.22,-0.18 0.25,0 0.51,0.03 0.76,0.03 0.27,0 0.54,0.01 0.81,0.01 0.27,0 0.54,-0.01 0.82,-0.01 0.26,0 0.52,-0.03 0.77,-0.03 0.1,0 0.3,0 0.3,0.29 0,0.18 -0.17,0.18 -0.34,0.18 h -0.21 c -0.07,0 -0.4,0.01 -0.53,0.02 z"
           style="fill:#ff0000;stroke-width:0"
           id="path27795" /><path
           inkscape:connector-curvature="0"
           d="m 247.93,476.88 v 0.25 h -0.78 v 3.1 c 0,0.15 0,0.2 -0.15,0.2 -0.08,0 -0.11,0 -0.18,-0.1 l -2.31,-3.2 v -0.25 h 2.05 l 0.05,0.25 h -1.84 l 1.84,2.55 v -2.55 l -0.05,-0.25 v -0.57 c 0,-0.23 0,-0.32 -0.56,-0.32 h -0.19 v -0.25 c 0.35,0.02 0.79,0.03 1.04,0.03 0.26,0 0.71,-0.01 1.06,-0.03 v 0.25 h -0.19 c -0.57,0 -0.57,0.09 -0.57,0.32 v 0.57 z"
           style="fill:#ff0000;stroke-width:0"
           id="path27797" /></g>    </g>
  </g>
  <g
     id="g29191"
     inkscape:label="Inductro"
     transform="translate(-210,-27.63781738282)">
    <g
       id="g29193"
       inkscape:label="Inductro">
      <path
         id="path29195"
         d="m 460,520 13,0"
         style="fill:none;stroke:#000000;stroke-width:1;stroke-linecap:round;stroke-linejoin:round"
         inkscape:label="none"
         inkscape:connector-curvature="0" />
      <path
         id="path29197"
         d="m 510,520 -13,0"
         style="fill:none;stroke:#000000;stroke-width:1;stroke-linecap:round;stroke-linejoin:round"
         inkscape:label="none"
         inkscape:connector-curvature="0" />
      <path
         id="path29199"
         sodipodi:end="3.14159265359"
         sodipodi:start="0"
         sodipodi:type="arc"
         sodipodi:ry="3"
         d="m 479,520 a 3,3 0 0 1 -1.5,2.5980762114 3,3 0 0 1 -3,0 A 3,3 0 0 1 473,520"
         style="fill:none;stroke:#000000;stroke-width:1;stroke-linecap:round;stroke-linejoin:round"
         sodipodi:open="true"
         sodipodi:cx="476"
         sodipodi:cy="520"
         inkscape:label="arc"
         sodipodi:rx="3" />
      <path
         id="path29201"
         sodipodi:end="3.14159265359"
         sodipodi:start="0"
         sodipodi:type="arc"
         sodipodi:ry="3"
         d="m 485,520 a 3,3 0 0 1 -1.5,2.5980762114 3,3 0 0 1 -3,0 A 3,3 0 0 1 479,520"
         style="fill:none;stroke:#000000;stroke-width:1;stroke-linecap:round;stroke-linejoin:round"
         sodipodi:open="true"
         sodipodi:cx="482"
         sodipodi:cy="520"
         inkscape:label="arc"
         sodipodi:rx="3" />
      <path
         id="path29203"
         sodipodi:end="3.14159265359"
         sodipodi:start="0"
         sodipodi:type="arc"
         sodipodi:ry="3"
         d="m 491,520 a 3,3 0 0 1 -1.5,2.5980762114 3,3 0 0 1 -3,0 A 3,3 0 0 1 485,520"
         style="fill:none;stroke:#000000;stroke-width:1;stroke-linecap:round;stroke-linejoin:round"
         sodipodi:open="true"
         sodipodi:cx="488"
         sodipodi:cy="520"
         inkscape:label="arc"
         sodipodi:rx="3" />
      <path
         id="path29205"
         sodipodi:end="3.14159265359"
         sodipodi:start="0"
         sodipodi:type="arc"
         sodipodi:ry="3"
         d="m 497,520 a 3,3 0 0 1 -1.5,2.5980762114 3,3 0 0 1 -3,0 A 3,3 0 0 1 491,520"
         style="fill:none;stroke:#000000;stroke-width:1;stroke-linecap:round;stroke-linejoin:round"
         sodipodi:open="true"
         sodipodi:cx="494"
         sodipodi:cy="520"
         inkscape:label="arc"
         sodipodi:rx="3" />
    </g>
    <g
       transform="matrix(0.739645,0,0,-0.739645,300.454874,868.145971)"
       ns0:preamble="./preamble.tex"
       ns0:text="$10j\\si{\\ohm}$"
       word-spacing="normal"
       letter-spacing="normal"
       font-size-adjust="none"
       font-stretch="normal"
       font-weight="normal"
       font-variant="normal"
       font-style="normal"
       stroke-miterlimit="10.433"
       xml:space="preserve"
       id="g29207"
       style="font-style:normal;font-variant:normal;font-weight:normal;font-stretch:normal;letter-spacing:normal;word-spacing:normal;text-anchor:start;fill:none;stroke:#000000;stroke-linecap:butt;stroke-linejoin:miter;stroke-miterlimit:10.4329996109;stroke-opacity:1;stroke-dasharray:none;stroke-dashoffset:0"><path
         id="path29209"
         style="fill:#000000;stroke-width:0"
         d="m 241.3,483.59 0,0.01 0,0.01 0,0.02 0,0.01 0,0 0,0.01 0,0.01 0,0.01 0,0.01 0,0.01 0,0.01 0,0.01 0,0 0,0.01 0,0.01 0,0 0,0.01 0,0.01 -0.01,0.01 0,0.01 0,0.01 0,0.01 -0.01,0.01 0,0 -0.01,0.01 0,0.01 -0.01,0 -0.01,0.01 0,0 -0.01,0.01 -0.01,0 0,0 -0.01,0 0,0 -0.01,0 -0.01,0 0,0.01 -0.01,0 0,0 -0.01,0 -0.01,0 -0.01,0 0,0 -0.01,0 -0.01,0 -0.01,0 -0.01,0 -0.01,0 -0.01,0 -0.01,0 -0.01,0 -0.01,0 c -0.61,-0.64 -1.49,-0.64 -1.81,-0.64 v -0.3 c 0.2,0 0.79,0 1.31,0.26 v -5.15 c 0,-0.36 -0.03,-0.48 -0.93,-0.48 h -0.32 v -0.31 c 0.35,0.04 1.22,0.04 1.61,0.04 0.4,0 1.27,0 1.61,-0.04 v 0.31 h -0.31 c -0.9,0 -0.93,0.11 -0.93,0.48 z"
         inkscape:connector-curvature="0" /><path
         id="path29211"
         style="fill:#000000;stroke-width:0"
         d="m 247.93,480.41 0,0.15 0,0.15 0,0.15 -0.01,0.15 -0.01,0.15 -0.01,0.14 -0.02,0.15 -0.01,0.15 -0.03,0.14 -0.03,0.15 -0.03,0.14 -0.03,0.15 -0.05,0.14 -0.05,0.14 -0.05,0.14 -0.03,0.07 -0.03,0.07 c -0.46,0.95 -1.28,1.11 -1.69,1.11 -0.6,0 -1.33,-0.26 -1.74,-1.18 -0.32,-0.69 -0.37,-1.46 -0.37,-2.26 0,-0.74 0.05,-1.64 0.45,-2.39 0.43,-0.81 1.16,-1 1.65,-1 v 0.21 c -0.39,0 -0.98,0.25 -1.16,1.21 -0.11,0.59 -0.11,1.51 -0.11,2.09 0,0.64 0,1.29 0.08,1.83 0.19,1.18 0.94,1.27 1.19,1.27 0.32,0 0.98,-0.18 1.17,-1.16 0.1,-0.56 0.1,-1.31 0.1,-1.94 0,-0.74 0,-1.42 -0.11,-2.05 -0.15,-0.95 -0.72,-1.25 -1.16,-1.25 h 0 v -0.21 c 0.53,0 1.29,0.21 1.73,1.15 0.31,0.68 0.36,1.46 0.36,2.24 z"
         inkscape:connector-curvature="0" /><path
         id="path29213"
         style="fill:#000000;stroke-width:0"
         d="m 252.29,483.44 0,0.02 0,0.02 0,0.02 -0.01,0.01 0,0.02 -0.01,0.02 0,0.01 -0.01,0.02 0,0.01 -0.01,0.02 -0.01,0.02 -0.01,0.01 -0.01,0.01 -0.01,0.02 -0.01,0.01 -0.01,0.01 -0.01,0.02 -0.02,0.01 -0.01,0.01 -0.01,0.01 -0.02,0.01 -0.02,0.01 -0.01,0 -0.02,0.01 -0.02,0.01 -0.02,0 -0.01,0.01 -0.02,0 -0.02,0.01 -0.03,0 -0.02,0 -0.02,0 c -0.23,0 -0.53,-0.23 -0.53,-0.53 0,-0.19 0.14,-0.35 0.37,-0.35 0.27,0 0.54,0.25 0.54,0.52 z"
         inkscape:connector-curvature="0" /><path
         id="path29215"
         style="fill:#000000;stroke-width:0"
         d="m 250.29,476.74 -0.02,-0.07 -0.02,-0.07 -0.02,-0.07 -0.03,-0.07 -0.02,-0.06 -0.03,-0.06 -0.02,-0.07 -0.03,-0.06 -0.03,-0.06 -0.04,-0.05 -0.03,-0.06 -0.03,-0.05 -0.04,-0.05 -0.04,-0.05 -0.04,-0.05 -0.03,-0.05 -0.05,-0.04 -0.04,-0.04 -0.04,-0.04 -0.04,-0.03 -0.05,-0.04 -0.04,-0.03 -0.05,-0.03 -0.05,-0.02 -0.04,-0.03 -0.05,-0.02 -0.05,-0.01 -0.05,-0.02 -0.05,-0.01 -0.05,-0.01 -0.05,0 -0.05,0 c -0.06,0 -0.21,0 -0.39,0.09 0.3,0.07 0.44,0.32 0.44,0.52 0,0.16 -0.1,0.35 -0.37,0.35 -0.25,0 -0.54,-0.21 -0.54,-0.57 0,-0.39 0.4,-0.61 0.88,-0.61 0.69,0 1.62,0.53 1.87,1.51 l 0.91,3.63 c 0.05,0.2 0.05,0.34 0.05,0.37 0,0.57 -0.42,0.92 -0.91,0.92 -1.02,0 -1.59,-1.45 -1.59,-1.53 0,-0.1 0.1,-0.1 0.12,-0.1 0.09,0 0.1,0.01 0.18,0.2 0.25,0.6 0.71,1.21 1.26,1.21 0.14,0 0.31,-0.04 0.31,-0.46 0,-0.23 -0.03,-0.34 -0.07,-0.51 z"
         inkscape:connector-curvature="0" /><path
         id="path29217"
         style="fill:#000000;stroke-width:0"
         d="m 259.75,478.84 h -0.25 c -0.05,-0.25 -0.09,-0.48 -0.18,-0.72 -0.05,-0.16 -0.08,-0.24 -0.66,-0.24 h -0.79 c 0.13,0.56 0.43,1.03 0.88,1.69 0.47,0.7 0.88,1.39 0.88,2.17 0,1.39 -1.34,2.5 -3.03,2.5 -1.71,0 -3.03,-1.13 -3.03,-2.5 0,-0.78 0.41,-1.47 0.88,-2.17 0.43,-0.66 0.75,-1.13 0.88,-1.69 h -0.8 c -0.57,0 -0.6,0.08 -0.65,0.23 -0.08,0.23 -0.13,0.49 -0.18,0.73 h -0.25 l 0.33,-1.61 h 1.59 c 0.22,0 0.25,0 0.25,0.21 0,0.7 -0.31,1.57 -0.54,2.21 -0.21,0.58 -0.49,1.36 -0.49,2.11 0,1.58 1.1,2.26 2,2.26 0.96,0 2.01,-0.72 2.01,-2.26 0,-0.75 -0.27,-1.5 -0.55,-2.32 -0.15,-0.42 -0.47,-1.31 -0.47,-2 0,-0.21 0.03,-0.21 0.26,-0.21 h 1.58 z"
         inkscape:connector-curvature="0" /></g>    <g
       id="g29219"
       inkscape:label="name">
      <path
         id="path29221"
         sodipodi:end="1.91063323625"
         sodipodi:start="1.23095941734"
         sodipodi:type="arc"
         sodipodi:ry="30"
         d="m 495,525.0000000072 a 30,30 0 0 1 -20,0"
         style="fill:none;stroke:#217b21;stroke-width:1;stroke-linecap:round;stroke-linejoin:round;marker-end:url(#arrowVoltageEnd)"
         sodipodi:open="true"
         sodipodi:cx="485"
         sodipodi:cy="496.7157287598"
         inkscape:label="arc"
         sodipodi:rx="30" />
      <g
         transform="matrix(0.739645,0,0,-0.739645,303.705614,888.740891)"
         ns0:preamble="./preamble.tex"
         ns0:text="$\\phasorName{V}_5$"
         word-spacing="normal"
         letter-spacing="normal"
         font-size-adjust="none"
         font-stretch="normal"
         font-weight="normal"
         font-variant="normal"
         font-style="normal"
         stroke-miterlimit="10.433"
         xml:space="preserve"
         id="g29223"
         style="font-style:normal;font-variant:normal;font-weight:normal;font-stretch:normal;letter-spacing:normal;word-spacing:normal;text-anchor:start;fill:#008000;stroke:#000000;stroke-linecap:butt;stroke-linejoin:miter;stroke-miterlimit:10.4329996109;stroke-opacity:1;stroke-dasharray:none;stroke-dashoffset:0"><polygon
           id="polygon29225"
           points="244.58,485.28 243.02,486.54 241.45,485.29 241.73,484.9 243.02,485.72 244.3,484.91 "
           style="fill:#008000;stroke-width:0" /><path
           id="path29227"
           style="fill:#008000;stroke-width:0"
           d="m 245.93,483.18 0.02,0.05 0.03,0.03 0.03,0.04 0.02,0.02 0.01,0.02 0.02,0.02 0.02,0.01 0.02,0.02 0.01,0.01 0.02,0.02 0.03,0.01 0.02,0.02 0.02,0.01 0.03,0.02 0.03,0.01 0.03,0.01 0.03,0.01 0.03,0.01 0.04,0.01 0.03,0.01 0.04,0.01 0.05,0 0.04,0.01 0.05,0.01 0.05,0 0.03,0 0.02,0.01 0.03,0 0.03,0 0.03,0 0.03,0 0.03,0 0.03,0 c 0.12,0 0.3,0 0.3,0.29 0,0.06 -0.05,0.18 -0.18,0.18 -0.29,0 -0.6,-0.03 -0.9,-0.03 -0.36,0 -0.75,0.03 -1.1,0.03 -0.08,0 -0.27,0 -0.27,-0.29 0,-0.18 0.17,-0.18 0.26,-0.18 0.05,0 0.34,0 0.56,-0.1 l -3.28,-4.77 -0.88,4.65 c -0.01,0.03 -0.02,0.11 -0.02,0.14 0,0.08 0.54,0.08 0.61,0.08 0.22,0 0.38,0 0.38,0.29 0,0.13 -0.1,0.18 -0.22,0.18 -0.25,0 -0.51,-0.02 -0.76,-0.02 -0.24,0 -0.49,-0.01 -0.73,-0.01 -0.22,0 -0.45,0.01 -0.68,0.01 -0.22,0 -0.45,0.02 -0.66,0.02 -0.09,0 -0.28,0 -0.28,-0.29 0,-0.18 0.16,-0.18 0.37,-0.18 0.13,0 0.25,0 0.39,-0.01 0.11,-0.01 0.12,-0.02 0.15,-0.19 l 1.13,-6.04 c 0.05,-0.27 0.16,-0.27 0.35,-0.27 0.28,0 0.33,0.07 0.46,0.25 z"
           inkscape:connector-curvature="0" /><path
           id="path29229"
           style="fill:#008000;stroke-width:0"
           d="m 248.75,479.62 0.04,-0.01 0.03,0 0.03,-0.01 0.03,-0.01 0.03,0 0.03,-0.01 0.03,-0.01 0.02,0 0.03,-0.01 0.03,0 0.02,0 0.02,-0.01 0.03,0 0.02,0 0.02,-0.01 0.02,0 0.02,0 0.02,0 0.02,0 0.02,0 0.02,-0.01 0.01,0 0.02,0 0.02,0 0.01,0 0.02,0 0.01,0 0.01,0 0.02,0 0.01,0 0.01,0 0.01,0 c 0.92,0 1.46,0.63 1.46,0.73 0,0.08 -0.05,0.1 -0.08,0.1 -0.02,0 -0.03,0 -0.06,-0.02 -0.16,-0.07 -0.53,-0.2 -1.05,-0.2 -0.19,0 -0.56,0.01 -1.02,0.18 -0.07,0.04 -0.08,0.04 -0.09,0.04 -0.09,0 -0.09,-0.08 -0.09,-0.19 v -2.05 c 0,-0.12 0,-0.2 0.11,-0.2 0.07,0 0.07,0.01 0.14,0.1 0.3,0.38 0.73,0.43 0.97,0.43 0.42,0 0.61,-0.33 0.64,-0.39 0.13,-0.23 0.17,-0.49 0.17,-0.89 0,-0.21 0,-0.62 -0.21,-0.93 -0.17,-0.25 -0.47,-0.42 -0.81,-0.42 -0.46,0 -0.92,0.26 -1.1,0.71 0.27,-0.02 0.4,0.16 0.4,0.34 0,0.3 -0.26,0.36 -0.35,0.36 -0.01,0 -0.35,0 -0.35,-0.38 0,-0.62 0.57,-1.25 1.41,-1.25 0.89,0 1.67,0.66 1.67,1.54 0,0.78 -0.6,1.51 -1.46,1.51 -0.31,0 -0.67,-0.08 -0.98,-0.34 z"
           inkscape:connector-curvature="0" /></g>    </g>
    <g
       id="g29231"
       inkscape:label="name">
      <path
         id="path29233"
         d="m 495,515 10,0"
         style="fill:none;stroke:#ff0000;stroke-width:1;stroke-linecap:round;stroke-linejoin:round;marker-end:url(#arrowCurrentEnd)"
         inkscape:label="none"
         inkscape:connector-curvature="0" />
      <g
         transform="matrix(0.739645,0,0,-0.739645,320.077656,864.108495)"
         ns0:preamble="./preamble.tex"
         ns0:text="$\\phasorName{I}_5$"
         word-spacing="normal"
         letter-spacing="normal"
         font-size-adjust="none"
         font-stretch="normal"
         font-weight="normal"
         font-variant="normal"
         font-style="normal"
         stroke-miterlimit="10.433"
         xml:space="preserve"
         id="g29235"
         style="font-style:normal;font-variant:normal;font-weight:normal;font-stretch:normal;letter-spacing:normal;word-spacing:normal;text-anchor:start;fill:#ff0000;stroke:#000000;stroke-linecap:butt;stroke-linejoin:miter;stroke-miterlimit:10.4329996109;stroke-opacity:1;stroke-dasharray:none;stroke-dashoffset:0"><polygon
           id="polygon29237"
           points="244.13,485.28 242.57,486.54 241.01,485.29 241.29,484.9 242.57,485.72 243.86,484.91 "
           style="fill:#ff0000;stroke-width:0" /><path
           id="path29239"
           style="fill:#ff0000;stroke-width:0"
           d="m 242.76,483.37 0.01,0.02 0,0.01 0,0.02 0.01,0.01 0,0.01 0,0.01 0.01,0.01 0,0.01 0,0.01 0.01,0.01 0,0.01 0.01,0.01 0,0 0.01,0.01 0,0 0.01,0.01 0,0 0.01,0.01 0.01,0 0.01,0.01 0,0 0.01,0 0.01,0 0.01,0.01 0.02,0 0.01,0 0.01,0 0.02,0.01 0,0 0.01,0 0.01,0 0.01,0 0.01,0 0,0 0.01,0 0.01,0 c 0.15,0.01 0.28,0.01 0.43,0.01 h 0.21 c 0.21,0 0.22,0.01 0.27,0.05 0.06,0.04 0.09,0.18 0.09,0.24 0,0.12 -0.1,0.18 -0.22,0.18 -0.25,0 -0.51,-0.02 -0.76,-0.02 -0.26,0 -0.52,-0.01 -0.79,-0.01 -0.28,0 -0.56,0.01 -0.83,0.01 -0.26,0 -0.53,0.02 -0.78,0.02 -0.11,0 -0.28,0 -0.28,-0.29 0,-0.18 0.16,-0.18 0.33,-0.18 h 0.21 c 0.09,0 0.33,-0.01 0.53,-0.02 L 240,477.9 c -0.04,-0.16 -0.05,-0.17 -0.24,-0.18 -0.12,-0.02 -0.3,-0.02 -0.43,-0.02 h -0.21 c -0.2,0 -0.37,0 -0.37,-0.29 0,-0.12 0.11,-0.18 0.22,-0.18 0.25,0 0.51,0.03 0.76,0.03 0.27,0 0.54,0.01 0.81,0.01 0.27,0 0.54,-0.01 0.82,-0.01 0.26,0 0.52,-0.03 0.77,-0.03 0.1,0 0.3,0 0.3,0.29 0,0.18 -0.17,0.18 -0.34,0.18 h -0.21 c -0.07,0 -0.4,0.01 -0.53,0.02 z"
           inkscape:connector-curvature="0" /><path
           id="path29241"
           style="fill:#ff0000;stroke-width:0"
           d="m 245.32,479.62 0.04,-0.01 0.03,0 0.03,-0.01 0.03,-0.01 0.03,0 0.03,-0.01 0.03,-0.01 0.02,0 0.03,-0.01 0.02,0 0.03,0 0.02,-0.01 0.03,0 0.02,0 0.02,-0.01 0.02,0 0.02,0 0.02,0 0.02,0 0.02,0 0.02,-0.01 0.01,0 0.02,0 0.02,0 0.01,0 0.01,0 0.02,0 0.01,0 0.01,0 0.02,0 0.01,0 0.01,0 c 0.92,0 1.46,0.63 1.46,0.73 0,0.08 -0.05,0.1 -0.08,0.1 -0.02,0 -0.03,0 -0.06,-0.02 -0.17,-0.07 -0.53,-0.2 -1.05,-0.2 -0.2,0 -0.56,0.01 -1.02,0.18 -0.07,0.04 -0.08,0.04 -0.09,0.04 -0.09,0 -0.09,-0.08 -0.09,-0.19 v -2.05 c 0,-0.12 0,-0.2 0.11,-0.2 0.07,0 0.07,0.01 0.14,0.1 0.3,0.38 0.73,0.43 0.97,0.43 0.42,0 0.61,-0.33 0.64,-0.39 0.13,-0.23 0.17,-0.49 0.17,-0.89 0,-0.21 0,-0.62 -0.21,-0.93 -0.18,-0.25 -0.47,-0.42 -0.82,-0.42 -0.45,0 -0.92,0.26 -1.09,0.71 0.27,-0.02 0.4,0.16 0.4,0.34 0,0.3 -0.26,0.36 -0.35,0.36 -0.01,0 -0.35,0 -0.35,-0.38 0,-0.62 0.57,-1.25 1.41,-1.25 0.89,0 1.67,0.66 1.67,1.54 0,0.78 -0.6,1.51 -1.46,1.51 -0.31,0 -0.67,-0.08 -0.98,-0.34 z"
           inkscape:connector-curvature="0" /></g>    </g>
  </g>
  <g
     inkscape:label="Source"
     transform="matrix(0,-1,1,0,-270,952.3621826172)"
     id="g29821">
    <g
       inkscape:label="Source"
       id="g29823">
      <path
         inkscape:connector-curvature="0"
         inkscape:label="none"
         style="fill:none;stroke:#000000;stroke-width:1;stroke-linecap:round;stroke-linejoin:round"
         d="m 460,520 18,0"
         id="path29825" />
      <path
         inkscape:connector-curvature="0"
         inkscape:label="none"
         style="fill:none;stroke:#000000;stroke-width:1;stroke-linecap:round;stroke-linejoin:round"
         d="m 510,520 -18,0"
         id="path29827" />
      <path
         sodipodi:rx="7"
         inkscape:label="circle"
         style="fill:none;stroke:#000000;stroke-width:1;stroke-linecap:round;stroke-linejoin:round"
         d="m 492,520 a 7,7 0 0 1 -7,7 7,7 0 0 1 -7,-7 7,7 0 0 1 7,-7 7,7 0 0 1 7,7 z"
         sodipodi:ry="7"
         sodipodi:type="arc"
         sodipodi:cy="520"
         sodipodi:cx="485"
         id="path29829" />
      <path
         inkscape:connector-curvature="0"
         inkscape:label="none"
         style="fill:#000000;stroke:#000000;stroke-width:0.6999999881;stroke-linecap:round;stroke-linejoin:round"
         d="m 481,520 5,0 0,1.2 3,-1.2 -3,-1.2 0,1.2"
         id="path29831" />
    </g>
    <g
       style="font-style:normal;font-variant:normal;font-weight:normal;font-stretch:normal;letter-spacing:normal;word-spacing:normal;text-anchor:start;fill:none;stroke:#000000;stroke-linecap:butt;stroke-linejoin:miter;stroke-miterlimit:10.4329996109;stroke-opacity:1;stroke-dasharray:none;stroke-dashoffset:0"
       id="g29833"
       xml:space="preserve"
       stroke-miterlimit="10.433"
       font-style="normal"
       font-variant="normal"
       font-weight="normal"
       font-stretch="normal"
       font-size-adjust="none"
       letter-spacing="normal"
       word-spacing="normal"
       ns0:text="$\\complexPolDeg{5}{0}\\si\\ampere$"
       ns0:preamble="./preamble.tex"
       transform="matrix(0.739645,0,0,-0.739645,298.9423,860.39745)"><path
         inkscape:connector-curvature="0"
         d="m 242.84,479.23 0,0.11 -0.01,0.11 -0.01,0.11 -0.01,0.1 -0.02,0.11 -0.03,0.1 -0.03,0.1 -0.03,0.1 -0.04,0.1 -0.04,0.09 -0.04,0.09 -0.05,0.09 -0.05,0.09 -0.06,0.08 -0.06,0.08 -0.06,0.07 -0.06,0.08 -0.07,0.06 -0.07,0.07 -0.08,0.06 -0.07,0.06 -0.08,0.05 -0.08,0.05 -0.09,0.04 -0.09,0.04 -0.08,0.04 -0.09,0.03 -0.1,0.02 -0.09,0.02 -0.1,0.02 -0.1,0 -0.1,0.01 c -0.47,0 -0.9,-0.16 -1.26,-0.51 v 1.94 c 0.2,-0.06 0.53,-0.13 0.85,-0.13 1.22,0 1.92,0.9 1.92,1.03 0,0.06 -0.03,0.11 -0.1,0.11 -0.01,0 -0.03,0 -0.08,-0.03 -0.2,-0.09 -0.69,-0.29 -1.36,-0.29 -0.4,0 -0.85,0.07 -1.32,0.28 -0.08,0.03 -0.1,0.03 -0.12,0.03 -0.1,0 -0.1,-0.08 -0.1,-0.24 v -2.94 c 0,-0.18 0,-0.26 0.14,-0.26 0.07,0 0.09,0.03 0.13,0.09 0.11,0.16 0.48,0.7 1.28,0.7 0.52,0 0.77,-0.46 0.85,-0.64 0.16,-0.37 0.18,-0.75 0.18,-1.25 0,-0.35 0,-0.94 -0.24,-1.36 -0.24,-0.39 -0.61,-0.64 -1.07,-0.64 -0.72,0 -1.29,0.52 -1.46,1.11 0.03,-0.01 0.06,-0.02 0.17,-0.02 0.33,0 0.5,0.25 0.5,0.48 0,0.24 -0.17,0.49 -0.5,0.49 -0.14,0 -0.49,-0.07 -0.49,-0.53 0,-0.85 0.69,-1.81 1.8,-1.81 1.16,0 2.17,0.95 2.17,2.21 z"
         style="fill:#000000;stroke-width:0"
         id="path29835" /><path
         inkscape:connector-curvature="0"
         d="m 243.56,475.73 0,0.01 -0.01,0.01 0,0.01 0,0.01 0,0.01 0,0.01 -0.01,0.01 0,0.01 0,0.01 -0.01,0.01 0,0.01 -0.01,0.01 0,0 -0.01,0.01 -0.01,0.01 0,0 -0.01,0.01 -0.01,0.01 0,0 -0.01,0.01 -0.01,0 -0.01,0.01 -0.01,0 -0.01,0.01 0,0 -0.01,0 -0.01,0.01 -0.01,0 -0.01,0 -0.01,0 -0.01,0 -0.01,0 c -0.11,0 -0.2,-0.09 -0.2,-0.2 0,-0.11 0.09,-0.19 0.2,-0.19 0.11,0 0.2,0.08 0.2,0.19 z"
         style="fill:#000000;fill-rule:nonzero;stroke-width:0"
         id="path29837" /><line
         style="stroke-width:0.5977600217"
         x1="243.3600006104"
         y1="475.7300109863"
         x2="257.1000061035"
         y2="475.7300109863"
         id="line29839" /><line
         style="stroke-width:0.5977600217"
         x1="243.3600006104"
         y1="475.7300109863"
         x2="247.5399932861"
         y2="484.1000061035"
         id="line29841" /><path
         inkscape:connector-curvature="0"
         d="m 252.12,480.41 -0.01,0.15 0,0.14 0,0.15 -0.01,0.15 -0.01,0.15 -0.01,0.15 -0.01,0.15 -0.02,0.14 -0.03,0.15 -0.02,0.14 -0.04,0.15 -0.03,0.14 -0.05,0.14 -0.05,0.14 -0.05,0.14 -0.03,0.07 -0.03,0.07 c -0.46,0.95 -1.28,1.11 -1.7,1.11 -0.59,0 -1.32,-0.25 -1.73,-1.18 -0.31,-0.68 -0.36,-1.46 -0.36,-2.25 0,-0.75 0.04,-1.64 0.44,-2.4 0.43,-0.8 1.16,-1 1.64,-1 v 0.22 c -0.38,0 -0.97,0.25 -1.15,1.2 -0.11,0.6 -0.11,1.51 -0.11,2.1 0,0.63 0,1.29 0.08,1.82 0.19,1.19 0.94,1.27 1.18,1.27 0.33,0 0.99,-0.17 1.18,-1.16 0.1,-0.55 0.1,-1.31 0.1,-1.93 0,-0.75 0,-1.42 -0.11,-2.06 -0.15,-0.94 -0.72,-1.24 -1.17,-1.24 h 0 v -0.22 c 0.54,0 1.3,0.21 1.74,1.15 0.32,0.69 0.37,1.46 0.37,2.25 z"
         style="fill:#000000;stroke-width:0"
         id="path29843" /><path
         inkscape:connector-curvature="0"
         d="m 256.05,482.58 0,0.08 -0.01,0.08 -0.01,0.07 -0.01,0.08 -0.02,0.07 -0.02,0.07 -0.02,0.07 -0.03,0.07 -0.03,0.07 -0.03,0.06 -0.04,0.06 -0.04,0.07 -0.04,0.05 -0.04,0.06 -0.05,0.05 -0.05,0.06 -0.05,0.04 -0.06,0.05 -0.05,0.04 -0.06,0.05 -0.06,0.03 -0.07,0.04 -0.06,0.03 -0.07,0.03 -0.06,0.03 -0.07,0.02 -0.07,0.02 -0.08,0.02 -0.07,0.01 -0.07,0.01 -0.08,0.01 -0.08,0 v -0.34 c 0.66,0 1.16,-0.53 1.16,-1.15 0,-0.65 -0.52,-1.16 -1.16,-1.16 h 0 c -0.65,0 -1.15,0.53 -1.15,1.15 0,0.65 0.51,1.16 1.15,1.16 v 0.34 c -0.83,0 -1.5,-0.68 -1.5,-1.49 0,-0.84 0.68,-1.5 1.5,-1.5 0.84,0 1.5,0.68 1.5,1.49 z"
         style="fill:#000000;stroke-width:0"
         id="path29845" /><path
         inkscape:connector-curvature="0"
         d="m 261.06,484.15 0,0.01 -0.01,0.01 0,0.01 -0.01,0.01 0,0.02 -0.01,0.01 0,0.01 0,0 -0.01,0.01 0,0.01 -0.01,0.01 0,0.01 -0.01,0.01 0,0 -0.01,0.01 0,0.01 -0.01,0 -0.01,0.01 0,0 -0.01,0.01 -0.01,0 -0.01,0.01 0,0 -0.01,0.01 -0.01,0 -0.01,0 -0.01,0 -0.02,0 -0.01,0.01 -0.01,0 -0.01,0 -0.01,0 -0.01,0 c -0.16,0 -0.19,-0.06 -0.24,-0.2 l -2.06,-5.94 c -0.18,-0.51 -0.57,-0.66 -1.11,-0.67 v -0.31 c 0.23,0.01 0.66,0.04 1.01,0.04 0.31,0 0.83,-0.03 1.15,-0.04 v 0.31 c -0.5,0 -0.75,0.25 -0.75,0.51 0,0.03 0.01,0.13 0.02,0.15 l 0.46,1.3 h 2.46 l -0.11,0.31 h -2.24 l 1.11,3.23 1.13,-3.23 0.11,-0.31 0.52,-1.52 c 0.01,-0.04 0.03,-0.1 0.03,-0.14 0,-0.3 -0.55,-0.3 -0.82,-0.3 v -0.31 c 0.36,0.04 1.05,0.04 1.43,0.04 0.43,0 0.89,-0.01 1.3,-0.04 v 0.31 h -0.18 c -0.59,0 -0.73,0.07 -0.84,0.4 z"
         style="fill:#000000;stroke-width:0"
         id="path29847" /></g>    <g
       inkscape:label="name"
       id="g29849">
      <path
         sodipodi:rx="30"
         inkscape:label="arc"
         sodipodi:cy="499.7157287598"
         sodipodi:cx="485"
         sodipodi:open="true"
         style="fill:none;stroke:#217b21;stroke-width:1;stroke-linecap:round;stroke-linejoin:round;marker-start:url(#arrowVoltageStart)"
         d="m 495,528.0000000072 a 30,30 0 0 1 -20,0"
         sodipodi:ry="30"
         sodipodi:type="arc"
         sodipodi:start="1.23095941734"
         sodipodi:end="1.91063323625"
         id="path29851" />
      <g
         style="font-style:normal;font-variant:normal;font-weight:normal;font-stretch:normal;letter-spacing:normal;word-spacing:normal;text-anchor:start;fill:#008000;stroke:#000000;stroke-linecap:butt;stroke-linejoin:miter;stroke-miterlimit:10.4329996109;stroke-opacity:1;stroke-dasharray:none;stroke-dashoffset:0"
         id="g29853"
         xml:space="preserve"
         stroke-miterlimit="10.433"
         font-style="normal"
         font-variant="normal"
         font-weight="normal"
         font-stretch="normal"
         font-size-adjust="none"
         letter-spacing="normal"
         word-spacing="normal"
         ns0:text="$\\phasorName{V}_{s1}$"
         ns0:preamble="./preamble.tex"
         transform="matrix(0,0.739645,0.739645,0,130.07395,356.918385)"><polygon
           style="fill:#008000;stroke-width:0"
           points="244.3,484.91 244.58,485.28 243.02,486.54 241.45,485.29 241.73,484.9 243.02,485.72 "
           id="polygon29855" /><path
           inkscape:connector-curvature="0"
           d="m 245.93,483.18 0.02,0.05 0.03,0.03 0.03,0.04 0.02,0.02 0.01,0.02 0.02,0.02 0.02,0.01 0.02,0.02 0.01,0.01 0.02,0.02 0.03,0.01 0.02,0.02 0.02,0.01 0.03,0.02 0.03,0.01 0.03,0.01 0.03,0.01 0.03,0.01 0.04,0.01 0.03,0.01 0.04,0.01 0.05,0 0.04,0.01 0.05,0.01 0.05,0 0.03,0 0.02,0.01 0.03,0 0.03,0 0.03,0 0.03,0 0.03,0 0.03,0 c 0.12,0 0.3,0 0.3,0.29 0,0.06 -0.05,0.18 -0.18,0.18 -0.29,0 -0.6,-0.03 -0.9,-0.03 -0.36,0 -0.75,0.03 -1.1,0.03 -0.08,0 -0.27,0 -0.27,-0.29 0,-0.18 0.17,-0.18 0.26,-0.18 0.05,0 0.34,0 0.56,-0.1 l -3.28,-4.77 -0.88,4.65 c -0.01,0.03 -0.02,0.11 -0.02,0.14 0,0.08 0.54,0.08 0.61,0.08 0.22,0 0.38,0 0.38,0.29 0,0.13 -0.1,0.18 -0.22,0.18 -0.25,0 -0.51,-0.02 -0.76,-0.02 -0.24,0 -0.49,-0.01 -0.73,-0.01 -0.22,0 -0.45,0.01 -0.68,0.01 -0.22,0 -0.45,0.02 -0.66,0.02 -0.09,0 -0.28,0 -0.28,-0.29 0,-0.18 0.16,-0.18 0.37,-0.18 0.13,0 0.25,0 0.39,-0.01 0.11,-0.01 0.12,-0.02 0.15,-0.19 l 1.13,-6.04 c 0.05,-0.27 0.16,-0.27 0.35,-0.27 0.28,0 0.33,0.07 0.46,0.25 z"
           style="fill:#008000;stroke-width:0"
           id="path29857" /><path
           inkscape:connector-curvature="0"
           d="m 250.68,478.36 -0.02,-0.01 -0.02,0 -0.01,-0.01 -0.02,0 -0.01,-0.01 -0.02,-0.01 -0.01,-0.01 -0.02,0 -0.01,-0.01 -0.01,-0.01 -0.01,-0.01 -0.02,-0.01 -0.01,-0.01 -0.01,-0.01 -0.01,-0.01 -0.01,-0.01 -0.01,-0.01 -0.01,-0.01 0,-0.02 -0.01,-0.01 -0.01,-0.01 -0.01,-0.01 0,-0.01 -0.01,-0.02 0,-0.01 -0.01,-0.01 0,-0.02 0,-0.01 0,-0.01 -0.01,-0.01 0,-0.02 0,-0.01 c 0,-0.16 0.14,-0.22 0.23,-0.22 0.07,0 0.34,0.04 0.34,0.39 0,0.45 -0.5,0.61 -0.93,0.61 -1.09,0 -1.28,-0.8 -1.28,-1.02 0,-0.25 0.15,-0.42 0.24,-0.5 0.18,-0.14 0.31,-0.17 0.79,-0.26 0.15,-0.02 0.59,-0.11 0.59,-0.45 0,-0.12 -0.07,-0.39 -0.37,-0.56 -0.27,-0.15 -0.61,-0.15 -0.69,-0.15 -0.28,0 -0.68,0.06 -0.84,0.29 0.23,0.03 0.38,0.2 0.38,0.39 0,0.18 -0.12,0.26 -0.27,0.26 -0.2,0 -0.4,-0.16 -0.4,-0.46 0,-0.42 0.44,-0.68 1.12,-0.68 1.28,0 1.52,0.88 1.52,1.15 0,0.64 -0.71,0.76 -0.96,0.81 -0.07,0.02 -0.24,0.04 -0.28,0.06 -0.26,0.05 -0.39,0.19 -0.39,0.35 0,0.16 0.13,0.34 0.28,0.44 0.19,0.12 0.44,0.13 0.55,0.13 0.15,0 0.51,-0.02 0.67,-0.25 z"
           style="fill:#008000;stroke-width:0"
           id="path29859" /><path
           inkscape:connector-curvature="0"
           d="m 253.77,480.16 0,0.01 0,0.01 0,0.01 0,0.01 0,0 0,0.01 0,0.01 0,0.01 0,0 0,0.01 0,0.01 0,0 -0.01,0.01 0,0 0,0.01 0,0 0,0.01 0,0 0,0.01 0,0.01 -0.01,0.01 0,0 0,0.01 -0.01,0.01 0,0 -0.01,0.01 -0.01,0 0,0 -0.01,0.01 -0.01,0 -0.01,0 -0.01,0 0,0 -0.01,0 0,0 -0.01,0.01 0,0 -0.01,0 -0.01,0 0,0 -0.01,0 -0.01,0 0,0 -0.01,0 -0.01,0 -0.01,0 0,0 -0.01,0 -0.01,0 -0.01,0 c -0.45,-0.44 -1.08,-0.45 -1.37,-0.45 v -0.25 c 0.17,0 0.63,0 1.01,0.2 v -3.55 c 0,-0.23 0,-0.32 -0.69,-0.32 h -0.27 v -0.25 c 0.13,0.01 0.99,0.03 1.24,0.03 0.22,0 1.1,-0.02 1.25,-0.03 v 0.25 h -0.27 c -0.69,0 -0.69,0.09 -0.69,0.32 z"
           style="fill:#008000;stroke-width:0"
           id="path29861" /></g>    </g>
  </g>
  <g
     id="g30483"
     transform="matrix(0,-1,1,0,-170,977.362182617)"
     inkscape:label="Source">
    <g
       id="g30485"
       inkscape:label="Source">
      <path
         id="path30487"
         d="m 460,520 18,0"
         style="fill:none;stroke:#000000;stroke-width:1;stroke-linecap:round;stroke-linejoin:round"
         inkscape:label="none"
         inkscape:connector-curvature="0" />
      <path
         id="path30489"
         d="m 510,520 -18,0"
         style="fill:none;stroke:#000000;stroke-width:1;stroke-linecap:round;stroke-linejoin:round"
         inkscape:label="none"
         inkscape:connector-curvature="0" />
      <path
         id="path30491"
         sodipodi:cx="485"
         sodipodi:cy="520"
         sodipodi:type="arc"
         sodipodi:ry="7"
         d="m 492,520 a 7,7 0 0 1 -7,7 7,7 0 0 1 -7,-7 7,7 0 0 1 7,-7 7,7 0 0 1 7,7 z"
         style="fill:none;stroke:#000000;stroke-width:1;stroke-linecap:round;stroke-linejoin:round"
         inkscape:label="circle"
         sodipodi:rx="7" />
      <path
         id="path30493"
         d="m 490,520 -2,0"
         style="fill:none;stroke:#000000;stroke-width:0.6000000238;stroke-linecap:round;stroke-linejoin:round"
         inkscape:label="none"
         inkscape:connector-curvature="0" />
      <path
         id="path30495"
         d="m 489,519 0,2"
         style="fill:none;stroke:#000000;stroke-width:0.6000000238;stroke-linecap:round;stroke-linejoin:round"
         inkscape:label="none"
         inkscape:connector-curvature="0" />
      <path
         id="path30497"
         d="m 481,519 0,2"
         style="fill:none;stroke:#000000;stroke-width:0.6000000238;stroke-linecap:round;stroke-linejoin:round"
         inkscape:label="none"
         inkscape:connector-curvature="0" />
    </g>
    <g
       transform="matrix(0.739645,0,0,-0.739645,295.207093,860.39745)"
       ns0:preamble="./preamble.tex"
       ns0:text="$\\complexPolDeg{20}{90}\\si\\volt$"
       word-spacing="normal"
       letter-spacing="normal"
       font-size-adjust="none"
       font-stretch="normal"
       font-weight="normal"
       font-variant="normal"
       font-style="normal"
       stroke-miterlimit="10.433"
       xml:space="preserve"
       id="g30499"
       style="font-style:normal;font-variant:normal;font-weight:normal;font-stretch:normal;letter-spacing:normal;word-spacing:normal;text-anchor:start;fill:none;stroke:#000000;stroke-linecap:butt;stroke-linejoin:miter;stroke-miterlimit:10.4329996109;stroke-opacity:1;stroke-dasharray:none;stroke-dashoffset:0"><path
         id="path30501"
         style="fill:#000000;stroke-width:0"
         d="m 239.64,478 1.05,1.02 c 1.56,1.37 2.15,1.91 2.15,2.9 0,1.14 -0.89,1.93 -2.11,1.93 -1.12,0 -1.86,-0.91 -1.86,-1.8 0,-0.55 0.5,-0.55 0.53,-0.55 0.17,0 0.52,0.12 0.52,0.52 0,0.26 -0.18,0.52 -0.53,0.52 -0.08,0 -0.1,0 -0.13,-0.01 0.23,0.64 0.77,1.01 1.34,1.01 0.91,0 1.34,-0.8 1.34,-1.62 0,-0.79 -0.5,-1.58 -1.05,-2.19 l -1.91,-2.13 c -0.11,-0.11 -0.11,-0.13 -0.11,-0.37 h 3.7 l 0.27,1.73 h -0.24 c -0.06,-0.29 -0.12,-0.73 -0.22,-0.88 C 242.31,478 241.65,478 241.43,478 z"
         inkscape:connector-curvature="0" /><path
         id="path30503"
         style="fill:#000000;stroke-width:0"
         d="m 247.93,480.41 0,0.15 0,0.15 0,0.15 -0.01,0.15 -0.01,0.15 -0.01,0.14 -0.02,0.15 -0.01,0.15 -0.03,0.14 -0.03,0.15 -0.03,0.14 -0.03,0.15 -0.05,0.14 -0.05,0.14 -0.05,0.14 -0.03,0.07 -0.03,0.07 c -0.46,0.95 -1.28,1.11 -1.69,1.11 -0.6,0 -1.33,-0.26 -1.74,-1.18 -0.32,-0.69 -0.37,-1.46 -0.37,-2.26 0,-0.74 0.05,-1.64 0.45,-2.39 0.43,-0.81 1.16,-1 1.65,-1 v 0.21 c -0.39,0 -0.98,0.25 -1.16,1.21 -0.11,0.59 -0.11,1.51 -0.11,2.09 0,0.64 0,1.29 0.08,1.83 0.19,1.18 0.94,1.27 1.19,1.27 0.32,0 0.98,-0.18 1.17,-1.16 0.1,-0.56 0.1,-1.31 0.1,-1.94 0,-0.74 0,-1.42 -0.11,-2.05 -0.15,-0.95 -0.72,-1.25 -1.16,-1.25 h 0 v -0.21 c 0.53,0 1.29,0.21 1.73,1.15 0.31,0.68 0.36,1.46 0.36,2.24 z"
         inkscape:connector-curvature="0" /><path
         id="path30505"
         style="fill:#000000;fill-rule:nonzero;stroke-width:0"
         d="m 248.54,475.73 0,0.01 0,0.01 0,0.01 -0.01,0.01 0,0.01 0,0.01 0,0.01 -0.01,0.01 0,0.01 -0.01,0.01 0,0.01 -0.01,0.01 0,0 -0.01,0.01 0,0.01 -0.01,0 -0.01,0.01 0,0.01 -0.01,0 -0.01,0.01 -0.01,0 -0.01,0.01 0,0 -0.01,0.01 -0.01,0 -0.01,0 -0.01,0.01 -0.01,0 -0.01,0 -0.01,0 -0.01,0 -0.01,0 c -0.11,0 -0.2,-0.09 -0.2,-0.2 0,-0.11 0.09,-0.19 0.2,-0.19 0.11,0 0.2,0.08 0.2,0.19 z"
         inkscape:connector-curvature="0" /><line
         id="line30507"
         y2="475.7300109863"
         x2="267.0599975586"
         y1="475.7300109863"
         x1="248.3399963379"
         style="stroke-width:0.5977600217" /><line
         id="line30509"
         y2="484.1000061035"
         x2="252.5200042725"
         y1="475.7300109863"
         x1="248.3399963379"
         style="stroke-width:0.5977600217" /><path
         id="path30511"
         style="fill:#000000;stroke-width:0"
         d="m 256.17,480.39 v -0.32 c 0,-2.33 -1.03,-2.78 -1.61,-2.78 -0.17,0 -0.71,0.02 -0.98,0.35 0.44,0 0.52,0.29 0.52,0.46 0,0.31 -0.24,0.46 -0.46,0.46 -0.16,0 -0.45,-0.09 -0.45,-0.48 0,-0.66 0.53,-1.07 1.38,-1.07 1.28,0 2.5,1.35 2.5,3.49 0,2.67 -1.15,3.34 -2.03,3.34 -0.55,0 -1.04,-0.17 -1.47,-0.62 -0.4,-0.45 -0.63,-0.87 -0.63,-1.61 0,-1.24 0.87,-2.22 1.99,-2.22 l 0.01,0.23 c -0.16,0 -0.62,0 -0.93,0.63 -0.18,0.36 -0.18,0.86 -0.18,1.35 0,0.54 0,1 0.21,1.37 0.27,0.5 0.65,0.63 1,0.63 0.45,0 0.78,-0.34 0.95,-0.79 0.12,-0.32 0.16,-0.94 0.16,-1.4 0,-0.82 -0.34,-1.79 -1.21,-1.79 h 0 l -0.01,-0.23 c 0.6,0 1.01,0.42 1.24,1 z"
         inkscape:connector-curvature="0" /><path
         id="path30513"
         style="fill:#000000;stroke-width:0"
         d="m 262.08,480.41 0,0.15 -0.01,0.14 0,0.15 -0.01,0.15 -0.01,0.15 -0.01,0.15 -0.01,0.15 -0.02,0.14 -0.02,0.15 -0.03,0.14 -0.03,0.15 -0.04,0.14 -0.05,0.14 -0.04,0.14 -0.06,0.14 -0.03,0.07 -0.03,0.07 c -0.46,0.95 -1.28,1.11 -1.69,1.11 -0.6,0 -1.33,-0.25 -1.73,-1.18 -0.32,-0.68 -0.37,-1.46 -0.37,-2.25 0,-0.75 0.04,-1.64 0.45,-2.4 0.42,-0.8 1.15,-1 1.64,-1 v 0.22 c -0.39,0 -0.98,0.25 -1.16,1.2 -0.11,0.6 -0.11,1.51 -0.11,2.1 0,0.63 0,1.29 0.08,1.82 0.19,1.19 0.94,1.27 1.19,1.27 0.33,0 0.98,-0.17 1.17,-1.16 0.1,-0.55 0.1,-1.31 0.1,-1.93 0,-0.75 0,-1.42 -0.11,-2.06 -0.15,-0.94 -0.72,-1.24 -1.16,-1.24 h 0 v -0.22 c 0.54,0 1.29,0.21 1.73,1.15 0.32,0.69 0.37,1.46 0.37,2.25 z"
         inkscape:connector-curvature="0" /><path
         id="path30515"
         style="fill:#000000;stroke-width:0"
         d="m 266.01,482.58 0,0.08 0,0.08 -0.01,0.07 -0.02,0.08 -0.01,0.07 -0.02,0.07 -0.03,0.07 -0.03,0.07 -0.03,0.07 -0.03,0.06 -0.04,0.06 -0.03,0.07 -0.05,0.05 -0.04,0.06 -0.05,0.05 -0.05,0.06 -0.05,0.04 -0.05,0.05 -0.06,0.04 -0.06,0.05 -0.06,0.03 -0.06,0.04 -0.07,0.03 -0.06,0.03 -0.07,0.03 -0.07,0.02 -0.07,0.02 -0.07,0.02 -0.08,0.01 -0.07,0.01 -0.08,0.01 -0.07,0 v -0.34 c 0.65,0 1.15,-0.53 1.15,-1.15 0,-0.65 -0.51,-1.16 -1.15,-1.16 h 0 c -0.66,0 -1.16,0.53 -1.16,1.15 0,0.65 0.52,1.16 1.16,1.16 v 0.34 c -0.84,0 -1.5,-0.68 -1.5,-1.49 0,-0.84 0.67,-1.5 1.5,-1.5 0.83,0 1.49,0.68 1.49,1.49 z"
         inkscape:connector-curvature="0" /><path
         id="path30517"
         style="fill:#000000;stroke-width:0"
         d="m 273.24,483.05 0.01,0.03 0.02,0.03 0.01,0.04 0.02,0.03 0.02,0.03 0.01,0.03 0.02,0.03 0.02,0.03 0.02,0.03 0.03,0.03 0.02,0.03 0.03,0.03 0.02,0.02 0.03,0.03 0.03,0.02 0.03,0.02 0.03,0.03 0.04,0.02 0.03,0.02 0.04,0.01 0.04,0.02 0.04,0.02 0.04,0.01 0.05,0.02 0.05,0.01 0.05,0.01 0.05,0.01 0.05,0.01 0.06,0 0.05,0.01 0.06,0 0.07,0 v 0.31 c -0.31,-0.02 -0.71,-0.03 -0.97,-0.03 -0.3,0 -0.88,0.02 -1.13,0.03 v -0.31 c 0.51,-0.01 0.72,-0.27 0.72,-0.5 0,-0.07 -0.03,-0.13 -0.05,-0.19 l -1.82,-4.79 -1.9,5.01 c -0.06,0.14 -0.06,0.16 -0.06,0.18 0,0.29 0.57,0.29 0.82,0.29 v 0.31 c -0.36,-0.03 -1.05,-0.03 -1.42,-0.03 -0.48,0 -0.91,0.02 -1.27,0.03 v -0.31 c 0.65,0 0.84,0 0.98,-0.38 l 2.3,-6.1 c 0.07,-0.18 0.12,-0.21 0.25,-0.21 0.17,0 0.19,0.05 0.24,0.18 z"
         inkscape:connector-curvature="0" /></g>    <g
       id="g30519"
       inkscape:label="name">
      <path
         id="path30521"
         sodipodi:end="1.91063323625"
         sodipodi:start="1.23095941734"
         sodipodi:type="arc"
         sodipodi:ry="30"
         d="m 495,528.0000000072 a 30,30 0 0 1 -20,0"
         style="fill:none;stroke:#217b21;stroke-width:1;stroke-linecap:round;stroke-linejoin:round;marker-start:url(#arrowVoltageStart)"
         sodipodi:open="true"
         sodipodi:cx="485"
         sodipodi:cy="499.7157287598"
         inkscape:label="arc"
         sodipodi:rx="30" />
      <g
         transform="matrix(0,0.739645,0.739645,0,130.110933,357.036728)"
         ns0:preamble="./preamble.tex"
         ns0:text="$\\complexPolDeg{20}{90}\\si\\volt$"
         word-spacing="normal"
         letter-spacing="normal"
         font-size-adjust="none"
         font-stretch="normal"
         font-weight="normal"
         font-variant="normal"
         font-style="normal"
         stroke-miterlimit="10.433"
         xml:space="preserve"
         id="g30523"
         style="font-style:normal;font-variant:normal;font-weight:normal;font-stretch:normal;letter-spacing:normal;word-spacing:normal;text-anchor:start;fill:#008000;stroke:#008000;stroke-linecap:butt;stroke-linejoin:miter;stroke-miterlimit:10.4329996109;stroke-opacity:1;stroke-dasharray:none;stroke-dashoffset:0"><path
           id="path30525"
           style="fill:#008000;stroke:#008000;stroke-width:0"
           d="m 239.64,478 1.05,1.02 c 1.56,1.37 2.15,1.91 2.15,2.9 0,1.14 -0.89,1.93 -2.11,1.93 -1.12,0 -1.86,-0.91 -1.86,-1.8 0,-0.55 0.5,-0.55 0.53,-0.55 0.17,0 0.52,0.12 0.52,0.52 0,0.26 -0.18,0.52 -0.53,0.52 -0.08,0 -0.1,0 -0.13,-0.01 0.23,0.64 0.77,1.01 1.34,1.01 0.91,0 1.34,-0.8 1.34,-1.62 0,-0.79 -0.5,-1.58 -1.05,-2.19 l -1.91,-2.13 c -0.11,-0.11 -0.11,-0.13 -0.11,-0.37 h 3.7 l 0.27,1.73 h -0.24 c -0.06,-0.29 -0.12,-0.73 -0.22,-0.88 C 242.31,478 241.65,478 241.43,478 z"
           inkscape:connector-curvature="0" /><path
           id="path30527"
           style="fill:#008000;stroke:#008000;stroke-width:0"
           d="m 247.93,480.41 0,0.15 0,0.15 0,0.15 -0.01,0.15 -0.01,0.15 -0.01,0.14 -0.02,0.15 -0.01,0.15 -0.03,0.14 -0.03,0.15 -0.03,0.14 -0.03,0.15 -0.05,0.14 -0.05,0.14 -0.05,0.14 -0.03,0.07 -0.03,0.07 c -0.46,0.95 -1.28,1.11 -1.69,1.11 -0.6,0 -1.33,-0.26 -1.74,-1.18 -0.32,-0.69 -0.37,-1.46 -0.37,-2.26 0,-0.74 0.05,-1.64 0.45,-2.39 0.43,-0.81 1.16,-1 1.65,-1 v 0.21 c -0.39,0 -0.98,0.25 -1.16,1.21 -0.11,0.59 -0.11,1.51 -0.11,2.09 0,0.64 0,1.29 0.08,1.83 0.19,1.18 0.94,1.27 1.19,1.27 0.32,0 0.98,-0.18 1.17,-1.16 0.1,-0.56 0.1,-1.31 0.1,-1.94 0,-0.74 0,-1.42 -0.11,-2.05 -0.15,-0.95 -0.72,-1.25 -1.16,-1.25 h 0 v -0.21 c 0.53,0 1.29,0.21 1.73,1.15 0.31,0.68 0.36,1.46 0.36,2.24 z"
           inkscape:connector-curvature="0" /><path
           id="path30529"
           style="fill:#008000;fill-rule:nonzero;stroke:#008000;stroke-width:0"
           d="m 248.54,475.73 0,0.01 0,0.01 0,0.01 -0.01,0.01 0,0.01 0,0.01 0,0.01 -0.01,0.01 0,0.01 -0.01,0.01 0,0.01 -0.01,0.01 0,0 -0.01,0.01 0,0.01 -0.01,0 -0.01,0.01 0,0.01 -0.01,0 -0.01,0.01 -0.01,0 -0.01,0.01 0,0 -0.01,0.01 -0.01,0 -0.01,0 -0.01,0.01 -0.01,0 -0.01,0 -0.01,0 -0.01,0 -0.01,0 c -0.11,0 -0.2,-0.09 -0.2,-0.2 0,-0.11 0.09,-0.19 0.2,-0.19 0.11,0 0.2,0.08 0.2,0.19 z"
           inkscape:connector-curvature="0" /><line
           id="line30531"
           y2="475.7300109863"
           x2="267.0599975586"
           y1="475.7300109863"
           x1="248.3399963379"
           style="fill:#008000;stroke:#008000;stroke-width:0.5977600217" /><line
           id="line30533"
           y2="484.1000061035"
           x2="252.5200042725"
           y1="475.7300109863"
           x1="248.3399963379"
           style="fill:#008000;stroke:#008000;stroke-width:0.5977600217" /><path
           id="path30535"
           style="fill:#008000;stroke:#008000;stroke-width:0"
           d="m 256.17,480.39 v -0.32 c 0,-2.33 -1.03,-2.78 -1.61,-2.78 -0.17,0 -0.71,0.02 -0.98,0.35 0.44,0 0.52,0.29 0.52,0.46 0,0.31 -0.24,0.46 -0.46,0.46 -0.16,0 -0.45,-0.09 -0.45,-0.48 0,-0.66 0.53,-1.07 1.38,-1.07 1.28,0 2.5,1.35 2.5,3.49 0,2.67 -1.15,3.34 -2.03,3.34 -0.55,0 -1.04,-0.17 -1.47,-0.62 -0.4,-0.45 -0.63,-0.87 -0.63,-1.61 0,-1.24 0.87,-2.22 1.99,-2.22 l 0.01,0.23 c -0.16,0 -0.62,0 -0.93,0.63 -0.18,0.36 -0.18,0.86 -0.18,1.35 0,0.54 0,1 0.21,1.37 0.27,0.5 0.65,0.63 1,0.63 0.45,0 0.78,-0.34 0.95,-0.79 0.12,-0.32 0.16,-0.94 0.16,-1.4 0,-0.82 -0.34,-1.79 -1.21,-1.79 h 0 l -0.01,-0.23 c 0.6,0 1.01,0.42 1.24,1 z"
           inkscape:connector-curvature="0" /><path
           id="path30537"
           style="fill:#008000;stroke:#008000;stroke-width:0"
           d="m 262.08,480.41 0,0.15 -0.01,0.14 0,0.15 -0.01,0.15 -0.01,0.15 -0.01,0.15 -0.01,0.15 -0.02,0.14 -0.02,0.15 -0.03,0.14 -0.03,0.15 -0.04,0.14 -0.05,0.14 -0.04,0.14 -0.06,0.14 -0.03,0.07 -0.03,0.07 c -0.46,0.95 -1.28,1.11 -1.69,1.11 -0.6,0 -1.33,-0.25 -1.73,-1.18 -0.32,-0.68 -0.37,-1.46 -0.37,-2.25 0,-0.75 0.04,-1.64 0.45,-2.4 0.42,-0.8 1.15,-1 1.64,-1 v 0.22 c -0.39,0 -0.98,0.25 -1.16,1.2 -0.11,0.6 -0.11,1.51 -0.11,2.1 0,0.63 0,1.29 0.08,1.82 0.19,1.19 0.94,1.27 1.19,1.27 0.33,0 0.98,-0.17 1.17,-1.16 0.1,-0.55 0.1,-1.31 0.1,-1.93 0,-0.75 0,-1.42 -0.11,-2.06 -0.15,-0.94 -0.72,-1.24 -1.16,-1.24 h 0 v -0.22 c 0.54,0 1.29,0.21 1.73,1.15 0.32,0.69 0.37,1.46 0.37,2.25 z"
           inkscape:connector-curvature="0" /><path
           id="path30539"
           style="fill:#008000;stroke:#008000;stroke-width:0"
           d="m 266.01,482.58 0,0.08 0,0.08 -0.01,0.07 -0.02,0.08 -0.01,0.07 -0.02,0.07 -0.03,0.07 -0.03,0.07 -0.03,0.07 -0.03,0.06 -0.04,0.06 -0.03,0.07 -0.05,0.05 -0.04,0.06 -0.05,0.05 -0.05,0.06 -0.05,0.04 -0.05,0.05 -0.06,0.04 -0.06,0.05 -0.06,0.03 -0.06,0.04 -0.07,0.03 -0.06,0.03 -0.07,0.03 -0.07,0.02 -0.07,0.02 -0.07,0.02 -0.08,0.01 -0.07,0.01 -0.08,0.01 -0.07,0 v -0.34 c 0.65,0 1.15,-0.53 1.15,-1.15 0,-0.65 -0.51,-1.16 -1.15,-1.16 h 0 c -0.66,0 -1.16,0.53 -1.16,1.15 0,0.65 0.52,1.16 1.16,1.16 v 0.34 c -0.84,0 -1.5,-0.68 -1.5,-1.49 0,-0.84 0.67,-1.5 1.5,-1.5 0.83,0 1.49,0.68 1.49,1.49 z"
           inkscape:connector-curvature="0" /><path
           id="path30541"
           style="fill:#008000;stroke:#008000;stroke-width:0"
           d="m 273.24,483.05 0.01,0.03 0.02,0.03 0.01,0.04 0.02,0.03 0.02,0.03 0.01,0.03 0.02,0.03 0.02,0.03 0.02,0.03 0.03,0.03 0.02,0.03 0.03,0.03 0.02,0.02 0.03,0.03 0.03,0.02 0.03,0.02 0.03,0.03 0.04,0.02 0.03,0.02 0.04,0.01 0.04,0.02 0.04,0.02 0.04,0.01 0.05,0.02 0.05,0.01 0.05,0.01 0.05,0.01 0.05,0.01 0.06,0 0.05,0.01 0.06,0 0.07,0 v 0.31 c -0.31,-0.02 -0.71,-0.03 -0.97,-0.03 -0.3,0 -0.88,0.02 -1.13,0.03 v -0.31 c 0.51,-0.01 0.72,-0.27 0.72,-0.5 0,-0.07 -0.03,-0.13 -0.05,-0.19 l -1.82,-4.79 -1.9,5.01 c -0.06,0.14 -0.06,0.16 -0.06,0.18 0,0.29 0.57,0.29 0.82,0.29 v 0.31 c -0.36,-0.03 -1.05,-0.03 -1.42,-0.03 -0.48,0 -0.91,0.02 -1.27,0.03 v -0.31 c 0.65,0 0.84,0 0.98,-0.38 l 2.3,-6.1 c 0.07,-0.18 0.12,-0.21 0.25,-0.21 0.17,0 0.19,0.05 0.24,0.18 z"
           inkscape:connector-curvature="0" /></g>    </g>
  </g>
  <path
     style="color:#000000;fill:#0000ff;fill-opacity:1;fill-rule:nonzero;stroke:#000000;stroke-width:1;stroke-linecap:round;stroke-linejoin:round;stroke-miterlimit:4;stroke-opacity:1;stroke-dasharray:none;stroke-dashoffset:0;marker:none;visibility:visible;display:inline;overflow:visible;enable-background:accumulate"
     d="m 250,442.3621826172 50,0"
     id="path30882"
     inkscape:connector-curvature="0" />
  <path
     style="color:#000000;fill:#0000ff;fill-opacity:1;fill-rule:nonzero;stroke:#000000;stroke-width:1;stroke-linecap:round;stroke-linejoin:round;stroke-miterlimit:4;stroke-opacity:1;stroke-dasharray:none;stroke-dashoffset:0;marker:none;visibility:visible;display:inline;overflow:visible;enable-background:accumulate"
     d="m 350,442.3621826172 0,25"
     id="path30884"
     inkscape:connector-curvature="0" />
  <path
     style="color:#000000;fill:none;stroke:#000000;stroke-width:1;stroke-linecap:round;stroke-linejoin:round;stroke-miterlimit:4;stroke-opacity:1;stroke-dasharray:none;stroke-dashoffset:0;marker:none;visibility:visible;display:inline;overflow:visible;enable-background:accumulate"
     d="m 350,517.3621826172 0,25 -100,0"
     id="path30886"
     inkscape:connector-curvature="0" />
  <path
     id="path5376-4-2-4-3-5-4-8"
     sodipodi:cx="281.9750671387"
     sodipodi:cy="444.0389099121"
     sodipodi:type="arc"
     sodipodi:ry="1"
     d="m 282.9750671387,444.0389099121 a 1,1 0 1 1 -2,0 1,1 0 1 1 2,0 z"
     style="fill:#000000;stroke:#000000;stroke-width:0.6999999881;stroke-linecap:round;stroke-linejoin:round"
     inkscape:label="circle"
     sodipodi:rx="1"
     transform="translate(18.024924004,-1.67672799389)" />
  <path
     id="path5376-4-2-4-3-5-4-1"
     sodipodi:cx="281.9750671387"
     sodipodi:cy="444.0389099121"
     sodipodi:type="arc"
     sodipodi:ry="1"
     d="m 282.9750671387,444.0389099121 a 1,1 0 1 1 -2,0 1,1 0 1 1 2,0 z"
     style="fill:#000000;stroke:#000000;stroke-width:0.6999999881;stroke-linecap:round;stroke-linejoin:round"
     inkscape:label="circle"
     sodipodi:rx="1"
     transform="translate(18.024924004,48.32327200611)" />
  <path
     id="path5376-4-2-4-3-5-4-3"
     sodipodi:cx="281.9750671387"
     sodipodi:cy="444.0389099121"
     sodipodi:type="arc"
     sodipodi:ry="1"
     d="m 282.9750671387,444.0389099121 a 1,1 0 1 1 -2,0 1,1 0 1 1 2,0 z"
     style="fill:#000000;stroke:#000000;stroke-width:0.6999999881;stroke-linecap:round;stroke-linejoin:round"
     inkscape:label="circle"
     sodipodi:rx="1"
     transform="translate(-31.975075996,48.32327200611)" />
  <path
     id="path5376-4-2-4-3-5-4-34"
     sodipodi:cx="281.9750671387"
     sodipodi:cy="444.0389099121"
     sodipodi:type="arc"
     sodipodi:ry="1"
     d="m 282.9750671387,444.0389099121 a 1,1 0 1 1 -2,0 1,1 0 1 1 2,0 z"
     style="fill:#000000;stroke:#000000;stroke-width:0.6999999881;stroke-linecap:round;stroke-linejoin:round"
     inkscape:label="circle"
     sodipodi:rx="1"
     transform="translate(18.024924004,98.32327200609)" />
  <g
     inkscape:label="arrowI"
     transform="matrix(0,-1,1,0,-175,1057.362182617)"
     id="g32333">
    <path
       inkscape:connector-curvature="0"
       inkscape:label="none"
       style="fill:none;stroke:#ff0000;stroke-width:1;stroke-linecap:round;stroke-linejoin:round;marker-end:url(#arrowCurrentEnd)"
       d="m 525,520 10,0"
       id="path32335" />
    <g
       style="font-style:normal;font-variant:normal;font-weight:normal;font-stretch:normal;letter-spacing:normal;word-spacing:normal;text-anchor:start;fill:#ff0000;stroke:#000000;stroke-linecap:butt;stroke-linejoin:miter;stroke-miterlimit:10.4329996109;stroke-opacity:1;stroke-dasharray:none;stroke-dashoffset:0"
       id="g32337"
       xml:space="preserve"
       stroke-miterlimit="10.433"
       font-style="normal"
       font-variant="normal"
       font-weight="normal"
       font-stretch="normal"
       font-size-adjust="none"
       letter-spacing="normal"
       word-spacing="normal"
       ns0:text="$\\phasorName{I}_o$"
       ns0:preamble="./preamble.tex"
       transform="matrix(0,0.739645,0.739645,0,175.07395,333.945752)"><polygon
         style="fill:#ff0000;stroke-width:0"
         points="243.86,484.91 244.13,485.28 242.57,486.54 241.01,485.29 241.29,484.9 242.57,485.72 "
         id="polygon32339" /><path
         inkscape:connector-curvature="0"
         d="m 242.76,483.37 0.01,0.02 0,0.01 0,0.02 0.01,0.01 0,0.01 0,0.01 0.01,0.01 0,0.01 0,0.01 0.01,0.01 0,0.01 0.01,0.01 0,0 0.01,0.01 0,0 0.01,0.01 0,0 0.01,0.01 0.01,0 0.01,0.01 0,0 0.01,0 0.01,0 0.01,0.01 0.02,0 0.01,0 0.01,0 0.02,0.01 0,0 0.01,0 0.01,0 0.01,0 0.01,0 0,0 0.01,0 0.01,0 c 0.15,0.01 0.28,0.01 0.43,0.01 h 0.21 c 0.21,0 0.22,0.01 0.27,0.05 0.06,0.04 0.09,0.18 0.09,0.24 0,0.12 -0.1,0.18 -0.22,0.18 -0.25,0 -0.51,-0.02 -0.76,-0.02 -0.26,0 -0.52,-0.01 -0.79,-0.01 -0.28,0 -0.56,0.01 -0.83,0.01 -0.26,0 -0.53,0.02 -0.78,0.02 -0.11,0 -0.28,0 -0.28,-0.29 0,-0.18 0.16,-0.18 0.33,-0.18 h 0.21 c 0.09,0 0.33,-0.01 0.53,-0.02 L 240,477.9 c -0.04,-0.16 -0.05,-0.17 -0.24,-0.18 -0.12,-0.02 -0.3,-0.02 -0.43,-0.02 h -0.21 c -0.2,0 -0.37,0 -0.37,-0.29 0,-0.12 0.11,-0.18 0.22,-0.18 0.25,0 0.51,0.03 0.76,0.03 0.27,0 0.54,0.01 0.81,0.01 0.27,0 0.54,-0.01 0.82,-0.01 0.26,0 0.52,-0.03 0.77,-0.03 0.1,0 0.3,0 0.3,0.29 0,0.18 -0.17,0.18 -0.34,0.18 h -0.21 c -0.07,0 -0.4,0.01 -0.53,0.02 z"
         style="fill:#ff0000;stroke-width:0"
         id="path32341" /><path
         inkscape:connector-curvature="0"
         d="m 247.94,477.59 0,0.07 -0.01,0.07 0,0.07 -0.02,0.06 -0.01,0.07 -0.02,0.06 -0.02,0.06 -0.02,0.06 -0.03,0.05 -0.02,0.06 -0.03,0.05 -0.04,0.05 -0.03,0.04 -0.04,0.05 -0.04,0.04 -0.04,0.04 -0.05,0.04 -0.04,0.03 -0.05,0.04 -0.05,0.03 -0.05,0.03 -0.05,0.02 -0.06,0.03 -0.05,0.02 -0.06,0.02 -0.06,0.01 -0.06,0.02 -0.06,0.01 -0.06,0.01 -0.06,0 -0.07,0.01 -0.06,0 c -1.03,0 -2,-0.97 -2,-1.92 0,-0.7 0.5,-1.22 1.26,-1.22 l 0.01,0.2 c -0.35,0 -0.7,0.22 -0.7,0.77 0,0.28 0.13,0.97 0.41,1.36 0.3,0.43 0.7,0.61 1.01,0.61 0.38,0 0.7,-0.25 0.7,-0.77 0,-0.17 -0.08,-0.85 -0.39,-1.34 -0.27,-0.41 -0.68,-0.63 -1.03,-0.63 h 0 l -0.01,-0.2 c 1,0 2,0.92 2,1.92 z"
         style="fill:#ff0000;stroke-width:0"
         id="path32343" /></g>  </g>
</svg>
