<?xml version="1.0" encoding="UTF-8" standalone="no"?>
<!-- Created with Inkscape (http://www.inkscape.org/) -->

<svg
   xmlns:ns0="http://www.iki.fi/pav/software/textext/"
   xmlns:dc="http://purl.org/dc/elements/1.1/"
   xmlns:cc="http://creativecommons.org/ns#"
   xmlns:rdf="http://www.w3.org/1999/02/22-rdf-syntax-ns#"
   xmlns:svg="http://www.w3.org/2000/svg"
   xmlns="http://www.w3.org/2000/svg"
   xmlns:sodipodi="http://sodipodi.sourceforge.net/DTD/sodipodi-0.dtd"
   xmlns:inkscape="http://www.inkscape.org/namespaces/inkscape"
   width="210mm"
   height="297mm"
   viewBox="0 0 793.7008056641 1122.51965332"
   version="1.1"
   id="svg2"
   inkscape:version="0.92.3 (2405546, 2018-03-11)"
   sodipodi:docname="FET_Nterminals.svg">
  <sodipodi:namedview
     pagecolor="#ffffff"
     bordercolor="#666666"
     borderopacity="1"
     objecttolerance="10"
     gridtolerance="10"
     guidetolerance="10"
     inkscape:pageopacity="0"
     inkscape:pageshadow="2"
     inkscape:window-width="1081"
     inkscape:window-height="778"
     id="namedview4"
     showgrid="true"
     inkscape:zoom="2.343901616453"
     inkscape:cx="173.6316748927"
     inkscape:cy="764.0374892865"
     inkscape:window-x="659"
     inkscape:window-y="130"
     inkscape:window-maximized="0"
     inkscape:current-layer="svg2"
     inkscape:snap-text-baseline="true">
    <inkscape:grid
       type="xygrid"
       id="grid4568" />
  </sodipodi:namedview>
  <metadata
     id="metadata8">
    <rdf:RDF>
      <cc:Work
         rdf:about="">
        <dc:format>image/svg+xml</dc:format>
        <dc:type
           rdf:resource="http://purl.org/dc/dcmitype/StillImage" />
        <dc:title></dc:title>
      </cc:Work>
    </rdf:RDF>
  </metadata>
  <defs
     id="defs6">
    <marker
       id="arrowVoltageEnd"
       orient="auto"
       refX="0"
       refY="0"
       style="overflow:visible"
       inkscape:stockid="arrowVoltageEnd">
      <path
         d="M 0,0 5,-5 -12.5,0 5,5 Z"
         style="fill:#217b21;fill-rule:evenodd;stroke:#217b21;stroke-width:1"
         transform="matrix(-0.25,0,0,-0.25,-1.823125,0)"
         id="path4141"
         inkscape:connector-curvature="0" />
    </marker>
    <marker
       id="arrowVoltageStart"
       orient="auto"
       refX="0"
       refY="0"
       style="overflow:visible"
       inkscape:stockid="arrowVoltageStart">
      <path
         d="M 0,0 5,-5 -12.5,0 5,5 Z"
         style="fill:#217b21;fill-rule:evenodd;stroke:#217b21;stroke-width:1"
         transform="matrix(0.25,0,0,0.25,1.823125,0)"
         id="path4138"
         inkscape:connector-curvature="0" />
    </marker>
    <marker
       id="marker4750"
       orient="auto"
       refX="0"
       refY="0"
       style="overflow:visible"
       inkscape:stockid="arrowVoltageEnd">
      <path
         d="M 0,0 5,-5 -12.5,0 5,5 Z"
         style="fill:#217b21;fill-rule:evenodd;stroke:#217b21;stroke-width:1"
         transform="matrix(-0.25,0,0,-0.25,-1.823125,0)"
         id="path4748"
         inkscape:connector-curvature="0" />
    </marker>
    <marker
       id="marker4754"
       orient="auto"
       refX="0"
       refY="0"
       style="overflow:visible"
       inkscape:stockid="arrowVoltageStart">
      <path
         d="M 0,0 5,-5 -12.5,0 5,5 Z"
         style="fill:#217b21;fill-rule:evenodd;stroke:#217b21;stroke-width:1"
         transform="matrix(0.25,0,0,0.25,1.823125,0)"
         id="path4752"
         inkscape:connector-curvature="0" />
    </marker>
    <marker
       inkscape:stockid="BJTArrow"
       style="overflow:visible"
       refY="0.0"
       refX="0.0"
       orient="auto"
       id="BJTArrow">
      <path
         id="path5813"
         style="stroke-width:0.6;stroke:#000000;fill:#000000;fill-rule:evenodd"
         d="M 0,0 l -3.000000,1.250000 l 0,-2.500000 z" />
    </marker>
    <marker
       inkscape:stockid="MOSArrow"
       style="overflow:visible"
       refY="0.0"
       refX="0.0"
       orient="auto"
       id="MOSArrow">
      <path
         id="path4677"
         style="stroke-width:0.6;stroke:#000000;fill:#000000;fill-rule:evenodd"
         d="M -0.3,0 l -2.400000,1.000000 l 0,-2.000000 z" />
    </marker>
    <marker
       inkscape:stockid="MOSArrow"
       style="overflow:visible"
       refY="0"
       refX="0"
       orient="auto"
       id="MOSArrow-3">
      <path
         inkscape:connector-curvature="0"
         id="path942"
         style="fill:#000000;fill-rule:evenodd;stroke:#000000;stroke-width:0.6000000238"
         d="M -0.3,0 -2.7,1 V -1 Z" />
    </marker>
    <marker
       inkscape:stockid="MOSArrow"
       style="overflow:visible"
       refY="0"
       refX="0"
       orient="auto"
       id="marker1066">
      <path
         inkscape:connector-curvature="0"
         id="path1064"
         style="fill:#000000;fill-rule:evenodd;stroke:#000000;stroke-width:0.6000000238"
         d="M -0.3,0 -2.7,1 V -1 Z" />
    </marker>
  </defs>
  <text
     xml:space="preserve"
     style="font-style:normal;font-variant:normal;font-weight:normal;font-stretch:normal;font-size:5.3333334923px;line-height:20px;font-family:Verdana;-inkscape-font-specification:Verdana;font-variant-ligatures:normal;font-variant-position:normal;font-variant-caps:normal;font-variant-numeric:normal;font-variant-alternates:normal;font-feature-settings:normal;text-indent:0;text-align:center;text-decoration:none;text-decoration-line:none;text-decoration-style:solid;text-decoration-color:#000000;letter-spacing:0px;word-spacing:0px;text-transform:none;writing-mode:lr-tb;direction:ltr;text-orientation:mixed;dominant-baseline:auto;baseline-shift:baseline;text-anchor:middle;white-space:normal;shape-padding:0;opacity:1;vector-effect:none;fill:#000000;fill-opacity:1;stroke:none;stroke-width:1px;stroke-linecap:butt;stroke-linejoin:miter;stroke-miterlimit:4;stroke-dasharray:none;stroke-dashoffset:0;stroke-opacity:1"
     x="92.36978912354"
     y="337.5196533203"
     id="text4572-3"
     inkscape:export-xdpi="253.8950042725"
     inkscape:export-ydpi="253.8950042725"><tspan
       sodipodi:role="line"
       id="tspan4570-5"
       x="93.21875"
       y="337.5196533203">4-terminal </tspan></text>
  <text
     xml:space="preserve"
     style="font-style:normal;font-variant:normal;font-weight:normal;font-stretch:normal;font-size:5.3333334923px;line-height:20px;font-family:Verdana;-inkscape-font-specification:Verdana;font-variant-ligatures:normal;font-variant-position:normal;font-variant-caps:normal;font-variant-numeric:normal;font-variant-alternates:normal;font-feature-settings:normal;text-indent:0;text-align:center;text-decoration:none;text-decoration-line:none;text-decoration-style:solid;text-decoration-color:#000000;letter-spacing:0px;word-spacing:0px;text-transform:none;writing-mode:lr-tb;direction:ltr;text-orientation:mixed;dominant-baseline:auto;baseline-shift:baseline;text-anchor:middle;white-space:normal;shape-padding:0;opacity:1;vector-effect:none;fill:#000000;fill-opacity:1;stroke:none;stroke-width:1px;stroke-linecap:butt;stroke-linejoin:miter;stroke-miterlimit:4;stroke-dasharray:none;stroke-dashoffset:0;stroke-opacity:1"
     x="175.5420074463"
     y="337.5196533203"
     id="text4572-3-6"
     inkscape:export-xdpi="253.8950042725"
     inkscape:export-ydpi="253.8950042725"><tspan
       sodipodi:role="line"
       id="tspan4570-5-2"
       x="175.5420074463"
       y="337.5196533203">3-terminal</tspan></text>
  <g
     transform="translate(-254,-127.4803149606)"
     inkscape:label="MOSFET"
     id="g910">
    <g
       inkscape:label="MOSFET"
       id="g893">
      <path
         inkscape:connector-curvature="0"
         d="m 347,494 v 11 h -28"
         style="fill:none;stroke:#000000;stroke-width:1;stroke-linecap:round;stroke-linejoin:round;stroke-dasharray:none"
         inkscape:label="none"
         id="path871" />
      <path
         inkscape:connector-curvature="0"
         d="M 354,494.6 V 475"
         style="fill:none;stroke:#000000;stroke-width:1;stroke-linecap:round;stroke-linejoin:round;stroke-dasharray:none"
         inkscape:label="none"
         id="path873" />
      <path
         inkscape:connector-curvature="0"
         d="m 349,494.75 h 5"
         style="fill:none;stroke:#000000;stroke-width:0.6999999881;stroke-linecap:round;stroke-linejoin:round;stroke-dasharray:none"
         inkscape:label="none"
         id="path875" />
      <path
         inkscape:connector-curvature="0"
         d="M 354,505.4 V 525"
         style="fill:none;stroke:#000000;stroke-width:1;stroke-linecap:round;stroke-linejoin:round;stroke-dasharray:none"
         inkscape:label="none"
         id="path877" />
      <path
         inkscape:connector-curvature="0"
         d="m 349,505.25 h 5"
         style="fill:none;stroke:#000000;stroke-width:0.6999999881;stroke-linecap:round;stroke-linejoin:round;stroke-dasharray:none"
         inkscape:label="none"
         id="path879" />
      <path
         inkscape:connector-curvature="0"
         d="m 354,500 h 20"
         style="fill:none;stroke:#000000;stroke-width:1;stroke-linecap:round;stroke-linejoin:round;stroke-dasharray:none"
         inkscape:label="none"
         id="path881" />
      <path
         inkscape:connector-curvature="0"
         d="m 354,500 h -5"
         style="fill:none;stroke:#000000;stroke-width:0.6999999881;stroke-linecap:round;stroke-linejoin:round;stroke-dasharray:none;marker-end:url(#MOSArrow-3)"
         inkscape:label="none"
         id="path883" />
      <path
         inkscape:connector-curvature="0"
         d="m 349,493 v 3.5"
         style="fill:none;stroke:#000000;stroke-width:0.6999999881;stroke-linecap:round;stroke-linejoin:round;stroke-dasharray:none"
         inkscape:label="none"
         id="path885" />
      <path
         inkscape:connector-curvature="0"
         d="m 349,498.25 v 3.5"
         style="fill:none;stroke:#000000;stroke-width:0.6999999881;stroke-linecap:round;stroke-linejoin:round;stroke-dasharray:none"
         inkscape:label="none"
         id="path887" />
      <path
         inkscape:connector-curvature="0"
         d="M 349,503.5 V 507"
         style="fill:none;stroke:#000000;stroke-width:0.6999999881;stroke-linecap:round;stroke-linejoin:round;stroke-dasharray:none"
         inkscape:label="none"
         id="path889" />
      <circle
         r="10"
         cy="500"
         cx="350"
         style="fill:none;stroke:#000000;stroke-width:1;stroke-linecap:round;stroke-linejoin:round;stroke-dasharray:none"
         inkscape:label="circle"
         id="path891" />
    </g>
    <g
       style="font-style:normal;font-variant:normal;font-weight:normal;font-stretch:normal;letter-spacing:normal;word-spacing:normal;text-anchor:start;fill:none;fill-opacity:1;fill-rule:evenodd;stroke:#000000;stroke-linecap:butt;stroke-linejoin:miter;stroke-miterlimit:10.4329996109;stroke-dasharray:none;stroke-dashoffset:0;stroke-opacity:1"
       id="content"
       xml:space="preserve"
       stroke-miterlimit="10.433"
       font-style="normal"
       font-variant="normal"
       font-weight="normal"
       font-stretch="normal"
       font-size-adjust="none"
       letter-spacing="normal"
       word-spacing="normal"
       ns0:text=" G"
       ns0:preamble="/home/fernando/.config/inkscape/extensions/textextLib/CircuitSymbolsLatexPreamble.tex"
       transform="matrix(0.394477,0,0,-0.394477,247.305792,691.597481)">
<path
   inkscape:connector-curvature="0"
   d="m 229.35,477.86 0.01,-0.02 0.01,-0.02 0.02,-0.02 0.02,-0.03 0.01,-0.02 0.02,-0.03 0.02,-0.02 0.02,-0.03 0.03,-0.02 0.02,-0.03 0.05,-0.05 0.04,-0.05 0.05,-0.05 0.03,-0.02 0.02,-0.03 0.02,-0.02 0.03,-0.02 0.02,-0.02 0.02,-0.02 0.03,-0.01 0.02,-0.02 0.02,-0.01 0.02,-0.02 0.01,-0.01 0.02,-0.01 0.02,-0.01 h 0.01 0.01 v 0 h 0.01 v -0.01 c 0.09,0 0.09,0.08 0.09,0.23 v 1.73 c 0,0.39 0.04,0.44 0.69,0.44 v 0.31 c -0.37,-0.01 -0.92,-0.03 -1.22,-0.03 -0.39,0 -1.24,0 -1.6,0.03 v -0.31 h 0.32 c 0.9,0 0.93,-0.11 0.93,-0.48 v -0.63 c 0,-1.12 -1.27,-1.21 -1.55,-1.21 -0.65,0 -2.62,0.35 -2.62,3.31 0,2.97 1.96,3.3 2.56,3.3 1.07,0 1.97,-0.89 2.17,-2.35 0.02,-0.14 0.02,-0.17 0.16,-0.17 0.16,0 0.16,0.03 0.16,0.24 V 484 c 0,0.17 0,0.24 -0.11,0.24 -0.04,0 -0.08,0 -0.16,-0.12 l -0.49,-0.74 c -0.32,0.32 -0.86,0.86 -1.85,0.86 -1.85,0 -3.47,-1.57 -3.47,-3.61 0,-2.03 1.6,-3.61 3.49,-3.61 0.73,0 1.53,0.25 1.87,0.84 z"
   style="fill:#000000;stroke-width:0"
   id="path895" />
</g>    <g
       style="font-style:normal;font-variant:normal;font-weight:normal;font-stretch:normal;letter-spacing:normal;word-spacing:normal;text-anchor:start;fill:none;fill-opacity:1;fill-rule:evenodd;stroke:#000000;stroke-linecap:butt;stroke-linejoin:miter;stroke-miterlimit:10.4329996109;stroke-dasharray:none;stroke-dashoffset:0;stroke-opacity:1"
       id="g900"
       xml:space="preserve"
       stroke-miterlimit="10.433"
       font-style="normal"
       font-variant="normal"
       font-weight="normal"
       font-stretch="normal"
       font-size-adjust="none"
       letter-spacing="normal"
       word-spacing="normal"
       ns0:text=" D"
       ns0:preamble="/home/fernando/.config/inkscape/extensions/textextLib/CircuitSymbolsLatexPreamble.tex"
       transform="matrix(0.394477,0,0,-0.394477,266.902439,678.095508)">
<path
   inkscape:connector-curvature="0"
   d="m 223.78,484.02 v -0.31 h 0.24 c 0.77,0 0.79,-0.11 0.79,-0.47 v -5.23 c 0,-0.36 -0.02,-0.47 -0.79,-0.47 h -0.24 v -0.31 h 3.65 l -0.27,0.31 h -1.01 c -0.46,0 -0.48,0.07 -0.48,0.4 v 5.38 c 0,0.32 0.02,0.39 0.48,0.39 h 1 c 0.62,0 1.31,-0.22 1.82,-0.92 0.43,-0.59 0.52,-1.44 0.52,-2.22 0,-1.1 -0.19,-1.7 -0.55,-2.18 -0.2,-0.27 -0.77,-0.85 -1.78,-0.85 l 0.27,-0.31 c 1.68,0 3.05,1.47 3.05,3.34 0,1.89 -1.34,3.45 -3.05,3.45 z"
   style="fill:#000000;stroke-width:0"
   id="path898" />
</g>    <g
       style="font-style:normal;font-variant:normal;font-weight:normal;font-stretch:normal;letter-spacing:normal;word-spacing:normal;text-anchor:start;fill:none;fill-opacity:1;fill-rule:evenodd;stroke:#000000;stroke-linecap:butt;stroke-linejoin:miter;stroke-miterlimit:10.4329996109;stroke-dasharray:none;stroke-dashoffset:0;stroke-opacity:1"
       id="g904"
       xml:space="preserve"
       stroke-miterlimit="10.433"
       font-style="normal"
       font-variant="normal"
       font-weight="normal"
       font-stretch="normal"
       font-size-adjust="none"
       letter-spacing="normal"
       word-spacing="normal"
       ns0:text=" S"
       ns0:preamble="/home/fernando/.config/inkscape/extensions/textextLib/CircuitSymbolsLatexPreamble.tex"
       transform="matrix(0.394477,0,0,-0.394477,267.269303,701.097481)">
<path
   inkscape:connector-curvature="0"
   d="m 226.91,481.09 -1.27,0.31 c -0.62,0.15 -1.01,0.68 -1.01,1.26 0,0.69 0.54,1.3 1.32,1.3 1.66,0 1.88,-1.63 1.94,-2.08 0.01,-0.06 0.01,-0.11 0.12,-0.11 0.13,0 0.13,0.05 0.13,0.23 v 2 c 0,0.17 0,0.24 -0.11,0.24 -0.07,0 -0.08,-0.01 -0.15,-0.13 l -0.35,-0.57 c -0.3,0.29 -0.71,0.7 -1.6,0.7 -1.1,0 -1.94,-0.88 -1.94,-1.93 0,-0.82 0.53,-1.55 1.31,-1.82 0.11,-0.04 0.61,-0.16 1.31,-0.32 0.27,-0.07 0.57,-0.14 0.85,-0.51 0.21,-0.26 0.31,-0.59 0.31,-0.92 0,-0.7 -0.5,-1.42 -1.34,-1.42 -0.29,0 -1.04,0.05 -1.57,0.54 -0.58,0.54 -0.61,1.17 -0.62,1.53 -0.01,0.1 -0.09,0.1 -0.12,0.1 -0.13,0 -0.13,-0.07 -0.13,-0.25 v -1.98 c 0,-0.17 0,-0.24 0.11,-0.24 0.07,0 0.08,0.02 0.15,0.13 0,0.01 0.03,0.03 0.36,0.56 0.31,-0.34 0.95,-0.69 1.83,-0.69 1.17,0 1.97,0.97 1.97,2.06 0,1 -0.66,1.81 -1.5,2.01 z"
   style="fill:#000000;stroke-width:0"
   id="path902" />
</g>    <g
       style="font-style:normal;font-variant:normal;font-weight:normal;font-stretch:normal;letter-spacing:normal;word-spacing:normal;text-anchor:start;fill:none;fill-opacity:1;fill-rule:evenodd;stroke:#000000;stroke-linecap:butt;stroke-linejoin:miter;stroke-miterlimit:10.4329996109;stroke-dasharray:none;stroke-dashoffset:0;stroke-opacity:1"
       id="g908"
       xml:space="preserve"
       stroke-miterlimit="10.433"
       font-style="normal"
       font-variant="normal"
       font-weight="normal"
       font-stretch="normal"
       font-size-adjust="none"
       letter-spacing="normal"
       word-spacing="normal"
       ns0:text=" B"
       ns0:preamble="/home/fernando/.config/inkscape/extensions/textextLib/CircuitSymbolsLatexPreamble.tex"
       transform="matrix(0.394477,0,0,-0.394477,273.51092,686.595508)">
<path
   inkscape:connector-curvature="0"
   d="m 228,480.78 0.09,0.02 0.09,0.02 0.08,0.03 0.09,0.02 0.08,0.03 0.08,0.03 0.08,0.04 0.08,0.03 0.07,0.04 0.07,0.04 0.07,0.04 0.07,0.04 0.06,0.05 0.06,0.05 0.06,0.05 0.06,0.05 0.05,0.05 0.05,0.05 0.05,0.06 0.05,0.05 0.04,0.06 0.04,0.06 0.03,0.06 0.03,0.06 0.03,0.07 0.03,0.06 0.02,0.07 0.01,0.06 0.02,0.07 0.01,0.06 v 0.07 0.07 c 0,0.86 -0.91,1.68 -2.21,1.68 l -0.07,-0.31 c 0.97,0 1.32,-0.84 1.32,-1.37 0,-0.64 -0.49,-1.47 -1.6,-1.47 h -1.44 v -0.22 h 1.87 c 0.99,0 1.41,-0.92 1.41,-1.59 0,-0.7 -0.52,-1.52 -1.55,-1.52 v 0 h -1.25 c -0.46,0 -0.48,0.07 -0.48,0.4 v 2.71 0.22 2.45 c 0,0.32 0.02,0.39 0.48,0.39 h 1.24 l 0.07,0.31 h -3.65 v -0.31 h 0.24 c 0.77,0 0.79,-0.11 0.79,-0.47 v -5.23 c 0,-0.36 -0.02,-0.47 -0.79,-0.47 h -0.24 v -0.31 h 3.91 c 1.33,0 2.22,0.89 2.22,1.82 0,0.87 -0.81,1.61 -1.92,1.73 z"
   style="fill:#000000;stroke-width:0"
   id="path906" />
</g>  </g>
  <g
     id="g1005"
     inkscape:label="MOSFET"
     transform="translate(-164,-127.4803149606)">
    <g
       id="g991"
       inkscape:label="MOSFET">
      <path
         id="path967"
         inkscape:label="none"
         style="fill:none;stroke:#000000;stroke-width:1;stroke-linecap:round;stroke-linejoin:round;stroke-dasharray:none"
         d="m 347,494 v 11 h -28"
         inkscape:connector-curvature="0" />
      <path
         id="path969"
         inkscape:label="none"
         style="fill:none;stroke:#000000;stroke-width:1;stroke-linecap:round;stroke-linejoin:round;stroke-dasharray:none"
         d="M 354,494.6 V 475"
         inkscape:connector-curvature="0" />
      <path
         id="path971"
         inkscape:label="none"
         style="fill:none;stroke:#000000;stroke-width:0.6999999881;stroke-linecap:round;stroke-linejoin:round;stroke-dasharray:none"
         d="m 349,494.75 h 5"
         inkscape:connector-curvature="0" />
      <path
         id="path973"
         inkscape:label="none"
         style="fill:none;stroke:#000000;stroke-width:1;stroke-linecap:round;stroke-linejoin:round;stroke-dasharray:none"
         d="M 354,505.4 V 525"
         inkscape:connector-curvature="0" />
      <path
         id="path975"
         inkscape:label="none"
         style="fill:none;stroke:#000000;stroke-width:0.6999999881;stroke-linecap:round;stroke-linejoin:round;stroke-dasharray:none"
         d="m 349,505.25 h 5"
         inkscape:connector-curvature="0" />
      <path
         id="path977"
         inkscape:label="none"
         style="fill:none;stroke:#000000;stroke-width:0.6999999881;stroke-linecap:round;stroke-linejoin:round;stroke-dasharray:none"
         d="M 354,505.25 V 500"
         inkscape:connector-curvature="0" />
      <circle
         id="path979"
         inkscape:label="circle"
         style="fill:none;stroke:#000000;stroke-width:1;stroke-linecap:round;stroke-linejoin:round;stroke-dasharray:none"
         cx="354"
         cy="505.25"
         r="0.4000000059605" />
      <path
         id="path981"
         inkscape:label="none"
         style="fill:none;stroke:#000000;stroke-width:0.6999999881;stroke-linecap:round;stroke-linejoin:round;stroke-dasharray:none;marker-end:url(#MOSArrow-3)"
         d="m 354,500 h -5"
         inkscape:connector-curvature="0" />
      <path
         id="path983"
         inkscape:label="none"
         style="fill:none;stroke:#000000;stroke-width:0.6999999881;stroke-linecap:round;stroke-linejoin:round;stroke-dasharray:none"
         d="m 349,493 v 3.5"
         inkscape:connector-curvature="0" />
      <path
         id="path985"
         inkscape:label="none"
         style="fill:none;stroke:#000000;stroke-width:0.6999999881;stroke-linecap:round;stroke-linejoin:round;stroke-dasharray:none"
         d="m 349,498.25 v 3.5"
         inkscape:connector-curvature="0" />
      <path
         id="path987"
         inkscape:label="none"
         style="fill:none;stroke:#000000;stroke-width:0.6999999881;stroke-linecap:round;stroke-linejoin:round;stroke-dasharray:none"
         d="M 349,503.5 V 507"
         inkscape:connector-curvature="0" />
      <circle
         id="path989"
         inkscape:label="circle"
         style="fill:none;stroke:#000000;stroke-width:1;stroke-linecap:round;stroke-linejoin:round;stroke-dasharray:none"
         cx="350"
         cy="500"
         r="10" />
    </g>
    <g
       transform="matrix(0.394477,0,0,-0.394477,247.305792,691.597481)"
       ns0:preamble="/home/fernando/.config/inkscape/extensions/textextLib/CircuitSymbolsLatexPreamble.tex"
       ns0:text=" G"
       word-spacing="normal"
       letter-spacing="normal"
       font-size-adjust="none"
       font-stretch="normal"
       font-weight="normal"
       font-variant="normal"
       font-style="normal"
       stroke-miterlimit="10.433"
       xml:space="preserve"
       id="g995"
       style="font-style:normal;font-variant:normal;font-weight:normal;font-stretch:normal;letter-spacing:normal;word-spacing:normal;text-anchor:start;fill:none;fill-opacity:1;fill-rule:evenodd;stroke:#000000;stroke-linecap:butt;stroke-linejoin:miter;stroke-miterlimit:10.4329996109;stroke-dasharray:none;stroke-dashoffset:0;stroke-opacity:1">
<path
   id="path993"
   style="fill:#000000;stroke-width:0"
   d="m 229.35,477.86 0.01,-0.02 0.01,-0.02 0.02,-0.02 0.02,-0.03 0.01,-0.02 0.02,-0.03 0.02,-0.02 0.02,-0.03 0.03,-0.02 0.02,-0.03 0.05,-0.05 0.04,-0.05 0.05,-0.05 0.03,-0.02 0.02,-0.03 0.02,-0.02 0.03,-0.02 0.02,-0.02 0.02,-0.02 0.03,-0.01 0.02,-0.02 0.02,-0.01 0.02,-0.02 0.01,-0.01 0.02,-0.01 0.02,-0.01 h 0.01 0.01 v 0 h 0.01 v -0.01 c 0.09,0 0.09,0.08 0.09,0.23 v 1.73 c 0,0.39 0.04,0.44 0.69,0.44 v 0.31 c -0.37,-0.01 -0.92,-0.03 -1.22,-0.03 -0.39,0 -1.24,0 -1.6,0.03 v -0.31 h 0.32 c 0.9,0 0.93,-0.11 0.93,-0.48 v -0.63 c 0,-1.12 -1.27,-1.21 -1.55,-1.21 -0.65,0 -2.62,0.35 -2.62,3.31 0,2.97 1.96,3.3 2.56,3.3 1.07,0 1.97,-0.89 2.17,-2.35 0.02,-0.14 0.02,-0.17 0.16,-0.17 0.16,0 0.16,0.03 0.16,0.24 V 484 c 0,0.17 0,0.24 -0.11,0.24 -0.04,0 -0.08,0 -0.16,-0.12 l -0.49,-0.74 c -0.32,0.32 -0.86,0.86 -1.85,0.86 -1.85,0 -3.47,-1.57 -3.47,-3.61 0,-2.03 1.6,-3.61 3.49,-3.61 0.73,0 1.53,0.25 1.87,0.84 z"
   inkscape:connector-curvature="0" />
</g>    <g
       transform="matrix(0.394477,0,0,-0.394477,266.902439,678.095508)"
       ns0:preamble="/home/fernando/.config/inkscape/extensions/textextLib/CircuitSymbolsLatexPreamble.tex"
       ns0:text=" D"
       word-spacing="normal"
       letter-spacing="normal"
       font-size-adjust="none"
       font-stretch="normal"
       font-weight="normal"
       font-variant="normal"
       font-style="normal"
       stroke-miterlimit="10.433"
       xml:space="preserve"
       id="g999"
       style="font-style:normal;font-variant:normal;font-weight:normal;font-stretch:normal;letter-spacing:normal;word-spacing:normal;text-anchor:start;fill:none;fill-opacity:1;fill-rule:evenodd;stroke:#000000;stroke-linecap:butt;stroke-linejoin:miter;stroke-miterlimit:10.4329996109;stroke-dasharray:none;stroke-dashoffset:0;stroke-opacity:1">
<path
   id="path997"
   style="fill:#000000;stroke-width:0"
   d="m 223.78,484.02 v -0.31 h 0.24 c 0.77,0 0.79,-0.11 0.79,-0.47 v -5.23 c 0,-0.36 -0.02,-0.47 -0.79,-0.47 h -0.24 v -0.31 h 3.65 l -0.27,0.31 h -1.01 c -0.46,0 -0.48,0.07 -0.48,0.4 v 5.38 c 0,0.32 0.02,0.39 0.48,0.39 h 1 c 0.62,0 1.31,-0.22 1.82,-0.92 0.43,-0.59 0.52,-1.44 0.52,-2.22 0,-1.1 -0.19,-1.7 -0.55,-2.18 -0.2,-0.27 -0.77,-0.85 -1.78,-0.85 l 0.27,-0.31 c 1.68,0 3.05,1.47 3.05,3.34 0,1.89 -1.34,3.45 -3.05,3.45 z"
   inkscape:connector-curvature="0" />
</g>    <g
       transform="matrix(0.394477,0,0,-0.394477,267.269303,701.097481)"
       ns0:preamble="/home/fernando/.config/inkscape/extensions/textextLib/CircuitSymbolsLatexPreamble.tex"
       ns0:text=" S"
       word-spacing="normal"
       letter-spacing="normal"
       font-size-adjust="none"
       font-stretch="normal"
       font-weight="normal"
       font-variant="normal"
       font-style="normal"
       stroke-miterlimit="10.433"
       xml:space="preserve"
       id="g1003"
       style="font-style:normal;font-variant:normal;font-weight:normal;font-stretch:normal;letter-spacing:normal;word-spacing:normal;text-anchor:start;fill:none;fill-opacity:1;fill-rule:evenodd;stroke:#000000;stroke-linecap:butt;stroke-linejoin:miter;stroke-miterlimit:10.4329996109;stroke-dasharray:none;stroke-dashoffset:0;stroke-opacity:1">
<path
   id="path1001"
   style="fill:#000000;stroke-width:0"
   d="m 226.91,481.09 -1.27,0.31 c -0.62,0.15 -1.01,0.68 -1.01,1.26 0,0.69 0.54,1.3 1.32,1.3 1.66,0 1.88,-1.63 1.94,-2.08 0.01,-0.06 0.01,-0.11 0.12,-0.11 0.13,0 0.13,0.05 0.13,0.23 v 2 c 0,0.17 0,0.24 -0.11,0.24 -0.07,0 -0.08,-0.01 -0.15,-0.13 l -0.35,-0.57 c -0.3,0.29 -0.71,0.7 -1.6,0.7 -1.1,0 -1.94,-0.88 -1.94,-1.93 0,-0.82 0.53,-1.55 1.31,-1.82 0.11,-0.04 0.61,-0.16 1.31,-0.32 0.27,-0.07 0.57,-0.14 0.85,-0.51 0.21,-0.26 0.31,-0.59 0.31,-0.92 0,-0.7 -0.5,-1.42 -1.34,-1.42 -0.29,0 -1.04,0.05 -1.57,0.54 -0.58,0.54 -0.61,1.17 -0.62,1.53 -0.01,0.1 -0.09,0.1 -0.12,0.1 -0.13,0 -0.13,-0.07 -0.13,-0.25 v -1.98 c 0,-0.17 0,-0.24 0.11,-0.24 0.07,0 0.08,0.02 0.15,0.13 0,0.01 0.03,0.03 0.36,0.56 0.31,-0.34 0.95,-0.69 1.83,-0.69 1.17,0 1.97,0.97 1.97,2.06 0,1 -0.66,1.81 -1.5,2.01 z"
   inkscape:connector-curvature="0" />
</g>  </g>
</svg>
