<?xml version="1.0" encoding="UTF-8" standalone="no"?>
<!-- Created with Inkscape (http://www.inkscape.org/) -->

<svg
   xmlns:ns0="http://www.iki.fi/pav/software/textext/"
   xmlns:dc="http://purl.org/dc/elements/1.1/"
   xmlns:cc="http://creativecommons.org/ns#"
   xmlns:rdf="http://www.w3.org/1999/02/22-rdf-syntax-ns#"
   xmlns:svg="http://www.w3.org/2000/svg"
   xmlns="http://www.w3.org/2000/svg"
   xmlns:sodipodi="http://sodipodi.sourceforge.net/DTD/sodipodi-0.dtd"
   xmlns:inkscape="http://www.inkscape.org/namespaces/inkscape"
   width="210mm"
   height="297mm"
   viewBox="0 0 744.09448819 1052.3622047"
   id="svg2"
   version="1.1"
   inkscape:version="0.91 r"
   sodipodi:docname="IndSrc_types.svg">
  <sodipodi:namedview
     id="base"
     pagecolor="#ffffff"
     bordercolor="#666666"
     borderopacity="1.0"
     inkscape:pageopacity="0.0"
     inkscape:pageshadow="2"
     inkscape:zoom="4.214509316149"
     inkscape:cx="370.4014067273"
     inkscape:cy="538.0899771362"
     inkscape:document-units="px"
     inkscape:current-layer="svg2"
     showgrid="true"
     inkscape:object-nodes="true"
     inkscape:snap-text-baseline="true"
     inkscape:window-width="1920"
     inkscape:window-height="1062"
     inkscape:window-x="-4"
     inkscape:window-y="-6"
     inkscape:window-maximized="1">
    <inkscape:grid
       type="xygrid"
       id="grid4133" />
  </sodipodi:namedview>
  <defs
     id="defs4" />
  <metadata
     id="metadata7">
    <rdf:RDF>
      <cc:Work
         rdf:about="">
        <dc:format>image/svg+xml</dc:format>
        <dc:type
           rdf:resource="http://purl.org/dc/dcmitype/StillImage" />
        <dc:title></dc:title>
      </cc:Work>
    </rdf:RDF>
  </metadata>
  <g
     inkscape:label="Layer 1"
     inkscape:groupmode="layer"
     id="layer1" />
  <text
     sodipodi:linespacing="100%"
     id="text4536"
     y="467.36218"
     x="290"
     style="font-style:normal;font-variant:normal;font-weight:normal;font-stretch:normal;font-size:5px;line-height:100%;font-family:Verdana;-inkscape-font-specification:Verdana;text-align:center;letter-spacing:0px;word-spacing:0px;writing-mode:lr-tb;text-anchor:middle;fill:#000000;fill-opacity:1;stroke:none;stroke-width:1px;stroke-linecap:butt;stroke-linejoin:miter;stroke-opacity:1"
     xml:space="preserve"
     inkscape:export-xdpi="653.1910400391"
     inkscape:export-ydpi="653.1910400391"><tspan
       y="467.36218"
       x="290"
       id="tspan4538"
       sodipodi:role="line">general</tspan><tspan
       y="472.36218"
       x="290"
       sodipodi:role="line"
       id="tspan10673">voltage</tspan><tspan
       y="477.36218"
       x="290"
       sodipodi:role="line"
       id="tspan10675">source</tspan></text>
  <text
     sodipodi:linespacing="100%"
     id="text4536-2"
     y="467.36218"
     x="325"
     style="font-style:normal;font-variant:normal;font-weight:normal;font-stretch:normal;font-size:5px;line-height:100%;font-family:Verdana;-inkscape-font-specification:Verdana;text-align:center;letter-spacing:0px;word-spacing:0px;writing-mode:lr-tb;text-anchor:middle;fill:#000000;fill-opacity:1;stroke:none;stroke-width:1px;stroke-linecap:butt;stroke-linejoin:miter;stroke-opacity:1"
     xml:space="preserve"
     inkscape:export-xdpi="653.1910400391"
     inkscape:export-ydpi="653.1910400391"><tspan
       y="467.36218"
       x="325"
       sodipodi:role="line"
       id="tspan10689">AC voltage</tspan><tspan
       y="472.36218"
       x="325"
       sodipodi:role="line"
       id="tspan10677">source</tspan></text>
  <text
     sodipodi:linespacing="100%"
     id="text4536-1"
     y="467.36218"
     x="360"
     style="font-style:normal;font-variant:normal;font-weight:normal;font-stretch:normal;font-size:5px;line-height:100%;font-family:Verdana;-inkscape-font-specification:Verdana;text-align:center;letter-spacing:0px;word-spacing:0px;writing-mode:lr-tb;text-anchor:middle;fill:#000000;fill-opacity:1;stroke:none;stroke-width:1px;stroke-linecap:butt;stroke-linejoin:miter;stroke-opacity:1"
     xml:space="preserve"
     inkscape:export-xdpi="653.1910400391"
     inkscape:export-ydpi="653.1910400391"><tspan
       id="tspan4582"
       y="467.36218"
       x="360"
       sodipodi:role="line">DC voltage</tspan><tspan
       y="472.36218"
       x="360"
       sodipodi:role="line"
       id="tspan10681">source</tspan></text>
  <text
     sodipodi:linespacing="100%"
     id="text4536-7"
     y="467.36218"
     x="395"
     style="font-style:normal;font-variant:normal;font-weight:normal;font-stretch:normal;font-size:5px;line-height:100%;font-family:Verdana;-inkscape-font-specification:Verdana;text-align:center;letter-spacing:0px;word-spacing:0px;writing-mode:lr-tb;text-anchor:middle;fill:#000000;fill-opacity:1;stroke:none;stroke-width:1px;stroke-linecap:butt;stroke-linejoin:miter;stroke-opacity:1"
     xml:space="preserve"
     inkscape:export-xdpi="653.1910400391"
     inkscape:export-ydpi="653.1910400391"><tspan
       y="467.36218"
       x="395"
       id="tspan4538-0"
       sodipodi:role="line">battery</tspan></text>
  <text
     sodipodi:linespacing="100%"
     id="text4536-9"
     y="467.36218"
     x="430"
     style="font-style:normal;font-variant:normal;font-weight:normal;font-stretch:normal;font-size:5px;line-height:100%;font-family:Verdana;-inkscape-font-specification:Verdana;text-align:center;letter-spacing:0px;word-spacing:0px;writing-mode:lr-tb;text-anchor:middle;fill:#000000;fill-opacity:1;stroke:none;stroke-width:1px;stroke-linecap:butt;stroke-linejoin:miter;stroke-opacity:1"
     xml:space="preserve"
     inkscape:export-xdpi="653.1910400391"
     inkscape:export-ydpi="653.1910400391"><tspan
       y="467.36218"
       x="430"
       id="tspan4538-3"
       sodipodi:role="line">general</tspan><tspan
       y="472.36218"
       x="430"
       sodipodi:role="line"
       id="tspan10683">current</tspan><tspan
       id="tspan4584"
       y="477.36218"
       x="430"
       sodipodi:role="line">source</tspan></text>
  <g
     inkscape:label="Source"
     transform="matrix(0,-1,1,0,-230,912.3621826172)"
     id="g9577"
     inkscape:export-xdpi="653.1910400391"
     inkscape:export-ydpi="653.1910400391">
    <g
       inkscape:label="Source"
       id="g9579">
      <path
         inkscape:connector-curvature="0"
         d="m 380,520 18,0"
         style="fill:none;stroke:#000000;stroke-width:1;stroke-linecap:round;stroke-linejoin:round;stroke-dasharray:none"
         inkscape:label="none"
         id="path9581" />
      <path
         inkscape:connector-curvature="0"
         d="m 430,520 -18,0"
         style="fill:none;stroke:#000000;stroke-width:1;stroke-linecap:round;stroke-linejoin:round;stroke-dasharray:none"
         inkscape:label="none"
         id="path9583" />
      <circle
         r="7"
         cy="520"
         cx="405"
         style="fill:none;stroke:#000000;stroke-width:1;stroke-linecap:round;stroke-linejoin:round;stroke-dasharray:none"
         inkscape:label="circle"
         id="path9585" />
      <path
         inkscape:connector-curvature="0"
         d="m 410,520 -2,0"
         style="fill:none;stroke:#000000;stroke-width:0.6000000238;stroke-linecap:round;stroke-linejoin:round;stroke-dasharray:none"
         inkscape:label="none"
         id="path9587" />
      <path
         inkscape:connector-curvature="0"
         d="m 409,519 0,2"
         style="fill:none;stroke:#000000;stroke-width:0.6000000238;stroke-linecap:round;stroke-linejoin:round;stroke-dasharray:none"
         inkscape:label="none"
         id="path9589" />
      <path
         inkscape:connector-curvature="0"
         d="m 401,519 0,2"
         style="fill:none;stroke:#000000;stroke-width:0.6000000238;stroke-linecap:round;stroke-linejoin:round;stroke-dasharray:none"
         inkscape:label="none"
         id="path9591" />
    </g>
    <g
       style="font-style:normal;font-variant:normal;font-weight:normal;font-stretch:normal;letter-spacing:normal;word-spacing:normal;text-anchor:start;fill:none;fill-opacity:1;fill-rule:evenodd;stroke:#000000;stroke-linecap:butt;stroke-linejoin:miter;stroke-miterlimit:10.4329996109;stroke-dasharray:none;stroke-dashoffset:0;stroke-opacity:1"
       id="g9593"
       xml:space="preserve"
       stroke-miterlimit="10.433"
       font-style="normal"
       font-variant="normal"
       font-weight="normal"
       font-stretch="normal"
       font-size-adjust="none"
       letter-spacing="normal"
       word-spacing="normal"
       ns0:text=" $V$"
       ns0:preamble="/home/fernando/.config/inkscape/extensions/textextLib/CircuitSymbolsLatexPreamble.tex"
       transform="matrix(0.739645,0,0,-0.739645,236.704875,861.492125)"><path
         inkscape:connector-curvature="0"
         d="m 229.68,482.89 0.05,0.07 0.04,0.06 0.05,0.07 0.04,0.05 0.04,0.06 0.05,0.05 0.04,0.05 0.04,0.04 0.05,0.04 0.04,0.04 0.04,0.03 0.04,0.03 0.04,0.03 0.04,0.03 0.04,0.02 0.04,0.02 0.04,0.02 0.04,0.02 0.04,0.01 0.04,0.02 0.04,0.01 0.03,0.01 0.04,0.01 0.04,0 0.03,0.01 0.04,0 0.07,0.01 0.07,0.01 0.07,0 c 0.12,0.01 0.13,0.18 0.13,0.19 0,0.08 -0.05,0.12 -0.13,0.12 -0.25,0 -0.54,-0.03 -0.81,-0.03 -0.33,0 -0.67,0.03 -0.99,0.03 -0.06,0 -0.19,0 -0.19,-0.19 0,-0.11 0.09,-0.12 0.16,-0.12 0.27,-0.02 0.46,-0.12 0.46,-0.33 0,-0.15 -0.15,-0.36 -0.15,-0.37 l -3.05,-4.85 -0.68,5.25 c 0,0.17 0.23,0.3 0.69,0.3 0.14,0 0.25,0 0.25,0.2 0,0.09 -0.08,0.11 -0.14,0.11 -0.4,0 -0.83,-0.03 -1.24,-0.03 -0.18,0 -0.36,0.01 -0.55,0.01 -0.17,0 -0.36,0.02 -0.53,0.02 -0.07,0 -0.19,0 -0.19,-0.19 0,-0.12 0.09,-0.12 0.25,-0.12 0.55,0 0.56,-0.09 0.6,-0.34 l 0.78,-6.13 c 0.03,-0.19 0.07,-0.22 0.2,-0.22 0.16,0 0.2,0.05 0.28,0.18 z"
         style="fill:#000000;stroke-width:0"
         id="path9595" /></g>  </g>
  <g
     id="g9741"
     transform="matrix(0,-1,1,0,-195,912.3621826172)"
     inkscape:label="Source"
     inkscape:export-xdpi="653.1910400391"
     inkscape:export-ydpi="653.1910400391">
    <g
       id="g9743"
       inkscape:label="Source">
      <path
         id="path9745"
         inkscape:label="none"
         style="fill:none;stroke:#000000;stroke-width:1;stroke-linecap:round;stroke-linejoin:round;stroke-dasharray:none"
         d="m 380,520 18,0"
         inkscape:connector-curvature="0" />
      <path
         id="path9747"
         inkscape:label="none"
         style="fill:none;stroke:#000000;stroke-width:1;stroke-linecap:round;stroke-linejoin:round;stroke-dasharray:none"
         d="m 430,520 -18,0"
         inkscape:connector-curvature="0" />
      <circle
         id="path9749"
         inkscape:label="circle"
         style="fill:none;stroke:#000000;stroke-width:1;stroke-linecap:round;stroke-linejoin:round;stroke-dasharray:none"
         cx="405"
         cy="520"
         r="7" />
      <g
         id="g9751"
         transform="matrix(0,1,-1,0,925,115)">
        <path
           id="path9753"
           inkscape:label="arc"
           sodipodi:type="arc"
           sodipodi:start="0.278246822735"
           sodipodi:ry="2.599999904633"
           sodipodi:rx="2.599999904633"
           sodipodi:open="true"
           sodipodi:end="2.86334583086"
           sodipodi:cy="519.2858276367"
           sodipodi:cx="402.5"
           style="fill:none;stroke:#000000;stroke-width:0.6000000238;stroke-linecap:round;stroke-linejoin:round;stroke-dasharray:none"
           d="M 404.9999999083,519.9999704534 A 2.599999904633,2.599999904633 0 0 1 402.5,521.8858275414 a 2.599999904633,2.599999904633 0 0 1 -2.4999999083,-1.885857088" />
        <path
           id="path9755"
           inkscape:label="arc"
           sodipodi:type="arc"
           sodipodi:start="3.41983947632"
           sodipodi:ry="2.599999904633"
           sodipodi:rx="2.599999904633"
           sodipodi:open="true"
           sodipodi:end="6.004938484445"
           sodipodi:cy="520.7141723633"
           sodipodi:cx="407.5"
           style="fill:none;stroke:#000000;stroke-width:0.6000000238;stroke-linecap:round;stroke-linejoin:round;stroke-dasharray:none"
           d="M 405.0000000917,520.0000295466 A 2.599999904633,2.599999904633 0 0 1 407.5,518.1141724586 a 2.599999904633,2.599999904633 0 0 1 2.4999999083,1.885857088" />
      </g>
      <path
         id="path9757"
         inkscape:label="none"
         style="fill:none;stroke:#000000;stroke-width:0.6000000238;stroke-linecap:round;stroke-linejoin:round;stroke-dasharray:none"
         d="m 416,516 -2,0"
         inkscape:connector-curvature="0" />
      <path
         id="path9759"
         inkscape:label="none"
         style="fill:none;stroke:#000000;stroke-width:0.6000000238;stroke-linecap:round;stroke-linejoin:round;stroke-dasharray:none"
         d="m 415,515 0,2"
         inkscape:connector-curvature="0" />
      <path
         id="path9761"
         inkscape:label="none"
         style="fill:none;stroke:#000000;stroke-width:0.6000000238;stroke-linecap:round;stroke-linejoin:round;stroke-dasharray:none"
         d="m 395,515 0,2"
         inkscape:connector-curvature="0" />
    </g>
    <g
       transform="matrix(0.739645,0,0,-0.739645,236.704875,861.492125)"
       ns0:preamble="/home/fernando/.config/inkscape/extensions/textextLib/CircuitSymbolsLatexPreamble.tex"
       ns0:text=" $V$"
       word-spacing="normal"
       letter-spacing="normal"
       font-size-adjust="none"
       font-stretch="normal"
       font-weight="normal"
       font-variant="normal"
       font-style="normal"
       stroke-miterlimit="10.433"
       xml:space="preserve"
       id="g9763"
       style="font-style:normal;font-variant:normal;font-weight:normal;font-stretch:normal;letter-spacing:normal;word-spacing:normal;text-anchor:start;fill:none;fill-opacity:1;fill-rule:evenodd;stroke:#000000;stroke-linecap:butt;stroke-linejoin:miter;stroke-miterlimit:10.4329996109;stroke-dasharray:none;stroke-dashoffset:0;stroke-opacity:1"><path
         id="path9765"
         style="fill:#000000;stroke-width:0"
         d="m 229.68,482.89 0.05,0.07 0.04,0.06 0.05,0.07 0.04,0.05 0.04,0.06 0.05,0.05 0.04,0.05 0.04,0.04 0.05,0.04 0.04,0.04 0.04,0.03 0.04,0.03 0.04,0.03 0.04,0.03 0.04,0.02 0.04,0.02 0.04,0.02 0.04,0.02 0.04,0.01 0.04,0.02 0.04,0.01 0.03,0.01 0.04,0.01 0.04,0 0.03,0.01 0.04,0 0.07,0.01 0.07,0.01 0.07,0 c 0.12,0.01 0.13,0.18 0.13,0.19 0,0.08 -0.05,0.12 -0.13,0.12 -0.25,0 -0.54,-0.03 -0.81,-0.03 -0.33,0 -0.67,0.03 -0.99,0.03 -0.06,0 -0.19,0 -0.19,-0.19 0,-0.11 0.09,-0.12 0.16,-0.12 0.27,-0.02 0.46,-0.12 0.46,-0.33 0,-0.15 -0.15,-0.36 -0.15,-0.37 l -3.05,-4.85 -0.68,5.25 c 0,0.17 0.23,0.3 0.69,0.3 0.14,0 0.25,0 0.25,0.2 0,0.09 -0.08,0.11 -0.14,0.11 -0.4,0 -0.83,-0.03 -1.24,-0.03 -0.18,0 -0.36,0.01 -0.55,0.01 -0.17,0 -0.36,0.02 -0.53,0.02 -0.07,0 -0.19,0 -0.19,-0.19 0,-0.12 0.09,-0.12 0.25,-0.12 0.55,0 0.56,-0.09 0.6,-0.34 l 0.78,-6.13 c 0.03,-0.19 0.07,-0.22 0.2,-0.22 0.16,0 0.2,0.05 0.28,0.18 z"
         inkscape:connector-curvature="0" /></g>  </g>
  <g
     inkscape:label="Source"
     transform="matrix(0,-1,1,0,-160,912.3621826172)"
     id="g9927"
     inkscape:export-xdpi="653.1910400391"
     inkscape:export-ydpi="653.1910400391">
    <g
       inkscape:label="Source"
       id="g9929">
      <path
         inkscape:connector-curvature="0"
         d="m 380,520 24,0"
         style="fill:none;stroke:#000000;stroke-width:1;stroke-linecap:round;stroke-linejoin:round;stroke-dasharray:none"
         inkscape:label="none"
         id="path9931" />
      <path
         inkscape:connector-curvature="0"
         d="m 430,520 -23,0"
         style="fill:none;stroke:#000000;stroke-width:1;stroke-linecap:round;stroke-linejoin:round;stroke-dasharray:none"
         inkscape:label="none"
         id="path9933" />
      <path
         inkscape:connector-curvature="0"
         d="m 411,516 -2,0"
         style="fill:none;stroke:#000000;stroke-width:0.6000000238;stroke-linecap:round;stroke-linejoin:round;stroke-dasharray:none"
         inkscape:label="none"
         id="path9935" />
      <path
         inkscape:connector-curvature="0"
         d="m 410,515 0,2"
         style="fill:none;stroke:#000000;stroke-width:0.6000000238;stroke-linecap:round;stroke-linejoin:round;stroke-dasharray:none"
         inkscape:label="none"
         id="path9937" />
      <path
         inkscape:connector-curvature="0"
         d="m 401,515 0,2"
         style="fill:none;stroke:#000000;stroke-width:0.6000000238;stroke-linecap:round;stroke-linejoin:round;stroke-dasharray:none"
         inkscape:label="none"
         id="path9939" />
      <path
         inkscape:connector-curvature="0"
         d="m 404,523 0,-6"
         style="fill:none;stroke:#000000;stroke-width:1;stroke-linecap:round;stroke-linejoin:round;stroke-dasharray:none"
         inkscape:label="none"
         id="path9941" />
      <path
         inkscape:connector-curvature="0"
         d="m 407,527 0,-14"
         style="fill:none;stroke:#000000;stroke-width:1;stroke-linecap:round;stroke-linejoin:round;stroke-dasharray:none"
         inkscape:label="none"
         id="path9943" />
    </g>
    <g
       style="font-style:normal;font-variant:normal;font-weight:normal;font-stretch:normal;letter-spacing:normal;word-spacing:normal;text-anchor:start;fill:none;fill-opacity:1;fill-rule:evenodd;stroke:#000000;stroke-linecap:butt;stroke-linejoin:miter;stroke-miterlimit:10.4329996109;stroke-dasharray:none;stroke-dashoffset:0;stroke-opacity:1"
       id="g9945"
       xml:space="preserve"
       stroke-miterlimit="10.433"
       font-style="normal"
       font-variant="normal"
       font-weight="normal"
       font-stretch="normal"
       font-size-adjust="none"
       letter-spacing="normal"
       word-spacing="normal"
       ns0:text=" $V$"
       ns0:preamble="/home/fernando/.config/inkscape/extensions/textextLib/CircuitSymbolsLatexPreamble.tex"
       transform="matrix(0.739645,0,0,-0.739645,236.704875,861.492125)"><path
         inkscape:connector-curvature="0"
         d="m 229.68,482.89 0.05,0.07 0.04,0.06 0.05,0.07 0.04,0.05 0.04,0.06 0.05,0.05 0.04,0.05 0.04,0.04 0.05,0.04 0.04,0.04 0.04,0.03 0.04,0.03 0.04,0.03 0.04,0.03 0.04,0.02 0.04,0.02 0.04,0.02 0.04,0.02 0.04,0.01 0.04,0.02 0.04,0.01 0.03,0.01 0.04,0.01 0.04,0 0.03,0.01 0.04,0 0.07,0.01 0.07,0.01 0.07,0 c 0.12,0.01 0.13,0.18 0.13,0.19 0,0.08 -0.05,0.12 -0.13,0.12 -0.25,0 -0.54,-0.03 -0.81,-0.03 -0.33,0 -0.67,0.03 -0.99,0.03 -0.06,0 -0.19,0 -0.19,-0.19 0,-0.11 0.09,-0.12 0.16,-0.12 0.27,-0.02 0.46,-0.12 0.46,-0.33 0,-0.15 -0.15,-0.36 -0.15,-0.37 l -3.05,-4.85 -0.68,5.25 c 0,0.17 0.23,0.3 0.69,0.3 0.14,0 0.25,0 0.25,0.2 0,0.09 -0.08,0.11 -0.14,0.11 -0.4,0 -0.83,-0.03 -1.24,-0.03 -0.18,0 -0.36,0.01 -0.55,0.01 -0.17,0 -0.36,0.02 -0.53,0.02 -0.07,0 -0.19,0 -0.19,-0.19 0,-0.12 0.09,-0.12 0.25,-0.12 0.55,0 0.56,-0.09 0.6,-0.34 l 0.78,-6.13 c 0.03,-0.19 0.07,-0.22 0.2,-0.22 0.16,0 0.2,0.05 0.28,0.18 z"
         style="fill:#000000;stroke-width:0"
         id="path9947" /></g>  </g>
  <g
     id="g10131"
     transform="matrix(0,-1,1,0,-125,912.3621826172)"
     inkscape:label="Source"
     inkscape:export-xdpi="653.1910400391"
     inkscape:export-ydpi="653.1910400391">
    <g
       id="g10133"
       inkscape:label="Source">
      <path
         id="path10135"
         inkscape:label="none"
         style="fill:none;stroke:#000000;stroke-width:1;stroke-linecap:round;stroke-linejoin:round;stroke-dasharray:none"
         d="m 380,520 18,0"
         inkscape:connector-curvature="0" />
      <path
         id="path10137"
         inkscape:label="none"
         style="fill:none;stroke:#000000;stroke-width:1;stroke-linecap:round;stroke-linejoin:round;stroke-dasharray:none"
         d="m 430,520 -17,0"
         inkscape:connector-curvature="0" />
      <path
         id="path10139"
         inkscape:label="none"
         style="fill:none;stroke:#000000;stroke-width:0.6000000238;stroke-linecap:round;stroke-linejoin:round;stroke-dasharray:none"
         d="m 417,516 -2,0"
         inkscape:connector-curvature="0" />
      <path
         id="path10141"
         inkscape:label="none"
         style="fill:none;stroke:#000000;stroke-width:0.6000000238;stroke-linecap:round;stroke-linejoin:round;stroke-dasharray:none"
         d="m 416,515 0,2"
         inkscape:connector-curvature="0" />
      <path
         id="path10143"
         inkscape:label="none"
         style="fill:none;stroke:#000000;stroke-width:0.6000000238;stroke-linecap:round;stroke-linejoin:round;stroke-dasharray:none"
         d="m 395,515 0,2"
         inkscape:connector-curvature="0" />
      <path
         id="path10145"
         inkscape:label="none"
         style="fill:none;stroke:#000000;stroke-width:1;stroke-linecap:round;stroke-linejoin:round;stroke-dasharray:none"
         d="m 398,523 0,-6"
         inkscape:connector-curvature="0" />
      <path
         id="path10147"
         inkscape:label="none"
         style="fill:none;stroke:#000000;stroke-width:1;stroke-linecap:round;stroke-linejoin:round;stroke-dasharray:none"
         d="m 401,527 0,-14"
         inkscape:connector-curvature="0" />
      <path
         id="path10149"
         inkscape:label="none"
         style="fill:none;stroke:#000000;stroke-width:1;stroke-linecap:round;stroke-linejoin:round;stroke-dasharray:none"
         d="m 404,523 0,-6"
         inkscape:connector-curvature="0" />
      <path
         id="path10151"
         inkscape:label="none"
         style="fill:none;stroke:#000000;stroke-width:1;stroke-linecap:round;stroke-linejoin:round;stroke-dasharray:none"
         d="m 407,527 0,-14"
         inkscape:connector-curvature="0" />
      <path
         id="path10153"
         inkscape:label="none"
         style="fill:none;stroke:#000000;stroke-width:1;stroke-linecap:round;stroke-linejoin:round;stroke-dasharray:none"
         d="m 410,523 0,-6"
         inkscape:connector-curvature="0" />
      <path
         id="path10155"
         inkscape:label="none"
         style="fill:none;stroke:#000000;stroke-width:1;stroke-linecap:round;stroke-linejoin:round;stroke-dasharray:none"
         d="m 413,527 0,-14"
         inkscape:connector-curvature="0" />
    </g>
    <g
       transform="matrix(0.739645,0,0,-0.739645,236.704875,861.492125)"
       ns0:preamble="/home/fernando/.config/inkscape/extensions/textextLib/CircuitSymbolsLatexPreamble.tex"
       ns0:text=" $V$"
       word-spacing="normal"
       letter-spacing="normal"
       font-size-adjust="none"
       font-stretch="normal"
       font-weight="normal"
       font-variant="normal"
       font-style="normal"
       stroke-miterlimit="10.433"
       xml:space="preserve"
       id="g10157"
       style="font-style:normal;font-variant:normal;font-weight:normal;font-stretch:normal;letter-spacing:normal;word-spacing:normal;text-anchor:start;fill:none;fill-opacity:1;fill-rule:evenodd;stroke:#000000;stroke-linecap:butt;stroke-linejoin:miter;stroke-miterlimit:10.4329996109;stroke-dasharray:none;stroke-dashoffset:0;stroke-opacity:1"><path
         id="path10159"
         style="fill:#000000;stroke-width:0"
         d="m 229.68,482.89 0.05,0.07 0.04,0.06 0.05,0.07 0.04,0.05 0.04,0.06 0.05,0.05 0.04,0.05 0.04,0.04 0.05,0.04 0.04,0.04 0.04,0.03 0.04,0.03 0.04,0.03 0.04,0.03 0.04,0.02 0.04,0.02 0.04,0.02 0.04,0.02 0.04,0.01 0.04,0.02 0.04,0.01 0.03,0.01 0.04,0.01 0.04,0 0.03,0.01 0.04,0 0.07,0.01 0.07,0.01 0.07,0 c 0.12,0.01 0.13,0.18 0.13,0.19 0,0.08 -0.05,0.12 -0.13,0.12 -0.25,0 -0.54,-0.03 -0.81,-0.03 -0.33,0 -0.67,0.03 -0.99,0.03 -0.06,0 -0.19,0 -0.19,-0.19 0,-0.11 0.09,-0.12 0.16,-0.12 0.27,-0.02 0.46,-0.12 0.46,-0.33 0,-0.15 -0.15,-0.36 -0.15,-0.37 l -3.05,-4.85 -0.68,5.25 c 0,0.17 0.23,0.3 0.69,0.3 0.14,0 0.25,0 0.25,0.2 0,0.09 -0.08,0.11 -0.14,0.11 -0.4,0 -0.83,-0.03 -1.24,-0.03 -0.18,0 -0.36,0.01 -0.55,0.01 -0.17,0 -0.36,0.02 -0.53,0.02 -0.07,0 -0.19,0 -0.19,-0.19 0,-0.12 0.09,-0.12 0.25,-0.12 0.55,0 0.56,-0.09 0.6,-0.34 l 0.78,-6.13 c 0.03,-0.19 0.07,-0.22 0.2,-0.22 0.16,0 0.2,0.05 0.28,0.18 z"
         inkscape:connector-curvature="0" /></g>  </g>
  <g
     id="g10577"
     transform="matrix(0,-1,1,0,-90,912.3621826172)"
     inkscape:label="Source"
     inkscape:export-xdpi="653.1910400391"
     inkscape:export-ydpi="653.1910400391">
    <g
       id="g10579"
       inkscape:label="Source">
      <path
         id="path10581"
         inkscape:label="none"
         style="fill:none;stroke:#000000;stroke-width:1;stroke-linecap:round;stroke-linejoin:round;stroke-dasharray:none"
         d="m 380,520 18,0"
         inkscape:connector-curvature="0" />
      <path
         id="path10583"
         inkscape:label="none"
         style="fill:none;stroke:#000000;stroke-width:1;stroke-linecap:round;stroke-linejoin:round;stroke-dasharray:none"
         d="m 430,520 -18,0"
         inkscape:connector-curvature="0" />
      <circle
         id="path10585"
         inkscape:label="circle"
         style="fill:none;stroke:#000000;stroke-width:1;stroke-linecap:round;stroke-linejoin:round;stroke-dasharray:none"
         cx="405"
         cy="520"
         r="7" />
      <path
         id="path10587"
         inkscape:label="none"
         style="fill:#000000;stroke:#000000;stroke-width:0.6999999881;stroke-linecap:round;stroke-linejoin:round;stroke-dasharray:none"
         d="m 401,520 5,0 0,1.2 3,-1.2 -3,-1.2 0,1.2"
         inkscape:connector-curvature="0" />
    </g>
    <g
       transform="matrix(0.739645,0,0,-0.739645,237.784757,861.64745)"
       ns0:preamble="/home/fernando/.config/inkscape/extensions/textextLib/CircuitSymbolsLatexPreamble.tex"
       ns0:text=" $I$"
       word-spacing="normal"
       letter-spacing="normal"
       font-size-adjust="none"
       font-stretch="normal"
       font-weight="normal"
       font-variant="normal"
       font-style="normal"
       stroke-miterlimit="10.433"
       xml:space="preserve"
       id="content"
       style="font-style:normal;font-variant:normal;font-weight:normal;font-stretch:normal;letter-spacing:normal;word-spacing:normal;text-anchor:start;fill:none;fill-opacity:1;fill-rule:evenodd;stroke:#000000;stroke-linecap:butt;stroke-linejoin:miter;stroke-miterlimit:10.4329996109;stroke-dasharray:none;stroke-dashoffset:0;stroke-opacity:1"><path
         id="path10590"
         style="fill:#000000;stroke-width:0"
         d="m 227.15,483.26 0.01,0.03 0.01,0.03 0.01,0.03 0.01,0.03 0,0.02 0.01,0.03 0.01,0.02 0.01,0.03 0.01,0.02 0.01,0.02 0.02,0.02 0.01,0.02 0.02,0.01 0.01,0.02 0.02,0.01 0.02,0.02 0.03,0.01 0.02,0.01 0.03,0.01 0.03,0.01 0.03,0.01 0.02,0 0.02,0.01 0.02,0 0.02,0 0.02,0.01 0.02,0 0.02,0 0.02,0.01 0.03,0 0.02,0 0.03,0 0.02,0 0.03,0.01 0.03,0 0.03,0 0.03,0 0.03,0 0.03,0 0.03,0 0.04,0 0.03,0 0.04,0 c 0.24,0 0.32,0 0.32,0.19 0,0.12 -0.11,0.12 -0.15,0.12 -0.29,0 -1.03,-0.03 -1.32,-0.03 -0.29,0 -1.02,0.03 -1.32,0.03 -0.07,0 -0.2,0 -0.2,-0.2 0,-0.11 0.09,-0.11 0.28,-0.11 0.42,0 0.69,0 0.69,-0.19 0,-0.05 0,-0.07 -0.02,-0.16 l -1.35,-5.35 c -0.09,-0.37 -0.11,-0.47 -0.9,-0.47 -0.23,0 -0.32,0 -0.32,-0.2 0,-0.11 0.12,-0.11 0.15,-0.11 0.29,0 1.01,0.04 1.3,0.04 0.3,0 1.04,-0.04 1.34,-0.04 0.08,0 0.2,0 0.2,0.19 0,0.12 -0.08,0.12 -0.3,0.12 -0.18,0 -0.23,0 -0.43,0.02 -0.21,0.02 -0.25,0.06 -0.25,0.17 0,0.08 0.02,0.16 0.04,0.23 z"
         inkscape:connector-curvature="0" /></g>  </g>
</svg>
