<?xml version="1.0" encoding="UTF-8" standalone="no"?>
<!-- Created with Inkscape (http://www.inkscape.org/) -->

<svg
   xmlns:ns0="http://www.iki.fi/pav/software/textext/"
   xmlns:dc="http://purl.org/dc/elements/1.1/"
   xmlns:cc="http://creativecommons.org/ns#"
   xmlns:rdf="http://www.w3.org/1999/02/22-rdf-syntax-ns#"
   xmlns:svg="http://www.w3.org/2000/svg"
   xmlns="http://www.w3.org/2000/svg"
   xmlns:sodipodi="http://sodipodi.sourceforge.net/DTD/sodipodi-0.dtd"
   xmlns:inkscape="http://www.inkscape.org/namespaces/inkscape"
   width="210mm"
   height="297mm"
   viewBox="0 0 744.09448819 1052.3622047"
   id="svg2"
   version="1.1"
   inkscape:version="0.91 r"
   sodipodi:docname="IndSrc_annotation.svg">
  <sodipodi:namedview
     id="base"
     pagecolor="#ffffff"
     bordercolor="#666666"
     borderopacity="1.0"
     inkscape:pageopacity="0.0"
     inkscape:pageshadow="2"
     inkscape:zoom="4.214509316149"
     inkscape:cx="386.6977999087"
     inkscape:cy="590.5900531618"
     inkscape:document-units="px"
     inkscape:current-layer="svg2"
     showgrid="true"
     inkscape:object-nodes="true"
     inkscape:snap-text-baseline="true"
     inkscape:window-width="1920"
     inkscape:window-height="1062"
     inkscape:window-x="-4"
     inkscape:window-y="-6"
     inkscape:window-maximized="1">
    <inkscape:grid
       type="xygrid"
       id="grid4133" />
  </sodipodi:namedview>
  <defs
     id="defs4">
    <marker
       id="arrowVoltageStart"
       orient="auto"
       refX="0.0"
       refY="0.0"
       style="overflow:visible"
       inkscape:stockid="arrowVoltageStart">
      <path
         d="M 0.0,0.0 L 5.0,-5.0 L -12.5,0.0 L 5.0,5.0 L 0.0,0.0 z "
         style="stroke-width:1.0;stroke:#217B21;fill:#217B21;fill-rule:evenodd"
         transform="scale(0.25) rotate(0) translate(7.2925,0)"
         id="path7776" />
    </marker>
    <marker
       id="arrowVoltageEnd"
       orient="auto"
       refX="0.0"
       refY="0.0"
       style="overflow:visible"
       inkscape:stockid="arrowVoltageEnd">
      <path
         d="M 0.0,0.0 L 5.0,-5.0 L -12.5,0.0 L 5.0,5.0 L 0.0,0.0 z "
         style="stroke-width:1.0;stroke:#217B21;fill:#217B21;fill-rule:evenodd"
         transform="scale(0.25) rotate(180) translate(7.2925,0)"
         id="path7779" />
    </marker>
    <marker
       inkscape:stockid="arrowCurrentStart"
       style="overflow:visible"
       refY="0.0"
       refX="0.0"
       orient="auto"
       id="arrowCurrentStart">
      <path
         id="path7833"
         transform="scale(0.25) rotate(0) translate(7.2925,0)"
         style="stroke-width:1.0;stroke:#FF0000;fill:#FF0000;fill-rule:evenodd"
         d="M 0.0,0.0 L 5.0,-5.0 L -12.5,0.0 L 5.0,5.0 L 0.0,0.0 z " />
    </marker>
    <marker
       inkscape:stockid="arrowCurrentEnd"
       style="overflow:visible"
       refY="0.0"
       refX="0.0"
       orient="auto"
       id="arrowCurrentEnd">
      <path
         id="path7836"
         transform="scale(0.25) rotate(180) translate(7.2925,0)"
         style="stroke-width:1.0;stroke:#FF0000;fill:#FF0000;fill-rule:evenodd"
         d="M 0.0,0.0 L 5.0,-5.0 L -12.5,0.0 L 5.0,5.0 L 0.0,0.0 z " />
    </marker>
  </defs>
  <metadata
     id="metadata7">
    <rdf:RDF>
      <cc:Work
         rdf:about="">
        <dc:format>image/svg+xml</dc:format>
        <dc:type
           rdf:resource="http://purl.org/dc/dcmitype/StillImage" />
        <dc:title></dc:title>
      </cc:Work>
    </rdf:RDF>
  </metadata>
  <g
     inkscape:label="Layer 1"
     inkscape:groupmode="layer"
     id="layer1" />
  <text
     xml:space="preserve"
     style="font-style:normal;font-variant:normal;font-weight:normal;font-stretch:normal;font-size:6.25px;line-height:100%;font-family:Verdana;-inkscape-font-specification:Verdana;text-align:center;letter-spacing:0px;word-spacing:0px;writing-mode:lr-tb;text-anchor:middle;fill:#000000;fill-opacity:1;stroke:none;stroke-width:1px;stroke-linecap:butt;stroke-linejoin:miter;stroke-opacity:1"
     x="365"
     y="457.36218"
     id="text8116"
     sodipodi:linespacing="100%"
     inkscape:export-xdpi="499.9925231934"
     inkscape:export-ydpi="499.9925231934"><tspan
       sodipodi:role="line"
       id="tspan8118"
       x="365"
       y="457.36218">inverted</tspan><tspan
       sodipodi:role="line"
       x="365"
       y="463.61218"
       id="tspan14724">I direction</tspan></text>
  <text
     xml:space="preserve"
     style="font-style:normal;font-variant:normal;font-weight:normal;font-stretch:normal;font-size:6.25px;line-height:100%;font-family:Verdana;-inkscape-font-specification:Verdana;text-align:center;letter-spacing:0px;word-spacing:0px;writing-mode:lr-tb;text-anchor:middle;fill:#000000;fill-opacity:1;stroke:none;stroke-width:1px;stroke-linecap:butt;stroke-linejoin:miter;stroke-opacity:1"
     x="495"
     y="457.36218"
     id="text8116-7"
     sodipodi:linespacing="100%"
     inkscape:export-xdpi="499.9925231934"
     inkscape:export-ydpi="499.9925231934"><tspan
       sodipodi:role="line"
       id="tspan8118-8"
       x="495"
       y="457.36218">inverted</tspan><tspan
       sodipodi:role="line"
       x="495"
       y="463.61218"
       id="tspan14726">V direction</tspan></text>
  <g
     inkscape:label="Source"
     transform="matrix(0,-1,1,0,-25,837.3621826172)"
     id="g14127"
     inkscape:export-xdpi="499.9925231934"
     inkscape:export-ydpi="499.9925231934">
    <g
       inkscape:label="Source"
       id="g14129">
      <path
         inkscape:connector-curvature="0"
         d="m 390,470 18,0"
         style="fill:none;stroke:#000000;stroke-width:1;stroke-linecap:round;stroke-linejoin:round;stroke-dasharray:none"
         inkscape:label="none"
         id="path14131" />
      <path
         inkscape:connector-curvature="0"
         d="m 440,470 -18,0"
         style="fill:none;stroke:#000000;stroke-width:1;stroke-linecap:round;stroke-linejoin:round;stroke-dasharray:none"
         inkscape:label="none"
         id="path14133" />
      <circle
         r="7"
         cy="470"
         cx="415"
         style="fill:none;stroke:#000000;stroke-width:1;stroke-linecap:round;stroke-linejoin:round;stroke-dasharray:none"
         inkscape:label="circle"
         id="path14135" />
      <path
         inkscape:connector-curvature="0"
         d="m 411,470 5,0 0,1.2 3,-1.2 -3,-1.2 0,1.2"
         style="fill:#000000;stroke:#000000;stroke-width:0.6999999881;stroke-linecap:round;stroke-linejoin:round;stroke-dasharray:none"
         inkscape:label="none"
         id="path14137" />
    </g>
    <g
       style="font-style:normal;font-variant:normal;font-weight:normal;font-stretch:normal;letter-spacing:normal;word-spacing:normal;text-anchor:start;fill:none;fill-opacity:1;fill-rule:evenodd;stroke:#000000;stroke-linecap:butt;stroke-linejoin:miter;stroke-miterlimit:10.4329996109;stroke-dasharray:none;stroke-dashoffset:0;stroke-opacity:1"
       id="content"
       xml:space="preserve"
       stroke-miterlimit="10.433"
       font-style="normal"
       font-variant="normal"
       font-weight="normal"
       font-stretch="normal"
       font-size-adjust="none"
       letter-spacing="normal"
       word-spacing="normal"
       ns0:text=" $5\\si\\ampere$"
       ns0:preamble="/home/fernando/.config/inkscape/extensions/textextLib/CircuitSymbolsLatexPreamble.tex"
       transform="matrix(0.739645,0,0,-0.739645,245.073958,811.492125)"><path
         inkscape:connector-curvature="0"
         d="m 227.9,479.23 0,0.11 -0.01,0.11 -0.01,0.11 -0.02,0.1 -0.02,0.11 -0.02,0.1 -0.03,0.1 -0.04,0.1 -0.03,0.1 -0.04,0.09 -0.05,0.09 -0.05,0.09 -0.05,0.09 -0.05,0.08 -0.06,0.08 -0.06,0.07 -0.07,0.08 -0.07,0.06 -0.07,0.07 -0.07,0.06 -0.08,0.06 -0.08,0.05 -0.08,0.05 -0.08,0.04 -0.09,0.04 -0.09,0.04 -0.09,0.03 -0.09,0.02 -0.1,0.02 -0.09,0.02 -0.1,0 -0.1,0.01 c -0.48,0 -0.91,-0.16 -1.27,-0.51 l 0,1.94 c 0.2,-0.06 0.53,-0.13 0.85,-0.13 1.23,0 1.92,0.9 1.92,1.03 0,0.06 -0.03,0.11 -0.1,0.11 -0.01,0 -0.03,0 -0.08,-0.03 -0.2,-0.09 -0.68,-0.29 -1.35,-0.29 -0.4,0 -0.86,0.07 -1.32,0.28 -0.08,0.03 -0.1,0.03 -0.12,0.03 -0.1,0 -0.1,-0.08 -0.1,-0.24 l 0,-2.94 c 0,-0.18 0,-0.26 0.14,-0.26 0.07,0 0.09,0.03 0.13,0.09 0.11,0.16 0.47,0.7 1.28,0.7 0.52,0 0.77,-0.46 0.85,-0.64 0.15,-0.37 0.17,-0.75 0.17,-1.25 0,-0.35 0,-0.94 -0.24,-1.36 -0.23,-0.39 -0.6,-0.64 -1.06,-0.64 -0.73,0 -1.29,0.52 -1.46,1.11 0.03,-0.01 0.06,-0.02 0.17,-0.02 0.32,0 0.49,0.25 0.49,0.48 0,0.24 -0.17,0.49 -0.49,0.49 -0.14,0 -0.49,-0.07 -0.49,-0.53 0,-0.85 0.69,-1.81 1.8,-1.81 1.15,0 2.17,0.95 2.17,2.21 z"
         style="fill:#000000;stroke-width:0"
         id="path14140" /><path
         inkscape:connector-curvature="0"
         d="m 232.37,484.15 0,0.01 -0.01,0.01 0,0.01 0,0.01 -0.01,0.02 0,0.01 -0.01,0.01 0,0 -0.01,0.01 0,0.01 0,0.01 -0.01,0.01 0,0.01 -0.01,0 0,0.01 -0.01,0.01 -0.01,0 0,0.01 -0.01,0 -0.01,0.01 0,0 -0.01,0.01 -0.01,0 -0.01,0.01 -0.01,0 -0.01,0 -0.01,0 -0.01,0 -0.01,0.01 -0.02,0 -0.01,0 -0.01,0 -0.01,0 c -0.15,0 -0.18,-0.06 -0.24,-0.2 l -2.05,-5.94 c -0.18,-0.51 -0.58,-0.66 -1.12,-0.67 l 0,-0.31 c 0.23,0.01 0.66,0.04 1.02,0.04 0.3,0 0.82,-0.03 1.14,-0.04 l 0,0.31 c -0.5,0 -0.74,0.25 -0.74,0.51 0,0.03 0,0.13 0.01,0.15 l 0.46,1.3 2.46,0 -0.11,0.31 -2.24,0 1.12,3.23 1.12,-3.23 0.11,-0.31 0.53,-1.52 c 0.01,-0.04 0.03,-0.1 0.03,-0.14 0,-0.3 -0.56,-0.3 -0.83,-0.3 l 0,-0.31 c 0.36,0.04 1.06,0.04 1.43,0.04 0.43,0 0.89,-0.01 1.31,-0.04 l 0,0.31 -0.18,0 c -0.6,0 -0.74,0.07 -0.85,0.4 z"
         style="fill:#000000;stroke-width:0"
         id="path14142" /></g>    <g
       inkscape:label="name"
       id="g14144">
      <path
         d="m 425,478.0000000072 a 30,30 0 0 1 -20,0"
         style="fill:none;stroke:#217b21;stroke-width:1;stroke-linecap:round;stroke-linejoin:round;stroke-dasharray:none;marker-start:url(#arrowVoltageStart)"
         sodipodi:cx="415"
         sodipodi:cy="449.7157287598"
         sodipodi:end="1.91063323625"
         sodipodi:open="true"
         sodipodi:rx="30"
         sodipodi:ry="30"
         sodipodi:start="1.23095941734"
         sodipodi:type="arc"
         inkscape:label="arc"
         id="path14146" />
      <g
         style="font-style:normal;font-variant:normal;font-weight:normal;font-stretch:normal;letter-spacing:normal;word-spacing:normal;text-anchor:start;fill:none;fill-opacity:1;fill-rule:evenodd;stroke:#000000;stroke-linecap:butt;stroke-linejoin:miter;stroke-miterlimit:10.4329996109;stroke-dasharray:none;stroke-dashoffset:0;stroke-opacity:1"
         id="g14148"
         xml:space="preserve"
         stroke-miterlimit="10.433"
         font-style="normal"
         font-variant="normal"
         font-weight="normal"
         font-stretch="normal"
         font-size-adjust="none"
         letter-spacing="normal"
         word-spacing="normal"
         ns0:text=" $v_s$"
         ns0:preamble="/home/fernando/.config/inkscape/extensions/textextLib/CircuitSymbolsLatexPreamble.tex"
         transform="matrix(0,0.739645,0.739645,0,60.968921,318.24235)"><path
           inkscape:connector-curvature="0"
           d="m 228.09,480.93 0,0.02 0,0.03 0,0.02 0,0.03 -0.01,0.02 0,0.02 0,0.02 0,0.02 -0.01,0.04 -0.01,0.04 -0.01,0.04 -0.01,0.04 -0.01,0.03 -0.01,0.03 -0.01,0.03 -0.01,0.03 -0.02,0.02 -0.01,0.03 -0.02,0.02 -0.01,0.02 -0.02,0.02 -0.02,0.02 -0.01,0.01 -0.02,0.02 -0.02,0.01 -0.02,0.01 -0.02,0.01 -0.02,0.01 -0.01,0.01 -0.02,0.01 -0.02,0 -0.02,0.01 -0.02,0 -0.01,0 -0.02,0.01 -0.02,0 c -0.25,0 -0.49,-0.26 -0.49,-0.48 0,-0.13 0.05,-0.19 0.16,-0.3 0.21,-0.2 0.34,-0.46 0.34,-0.81 0,-0.42 -0.61,-2.7 -1.77,-2.7 -0.51,0 -0.74,0.35 -0.74,0.87 0,0.56 0.27,1.28 0.58,2.1 0.07,0.17 0.12,0.31 0.12,0.5 0,0.45 -0.32,0.82 -0.82,0.82 -0.93,0 -1.31,-1.45 -1.31,-1.53 0,-0.1 0.1,-0.1 0.12,-0.1 0.1,0 0.11,0.02 0.16,0.17 0.29,1.01 0.71,1.24 1,1.24 0.08,0 0.25,0 0.25,-0.32 0,-0.25 -0.1,-0.52 -0.17,-0.7 -0.43,-1.15 -0.56,-1.6 -0.56,-2.03 0,-1.07 0.87,-1.23 1.33,-1.23 1.67,0 2.24,3.28 2.24,3.8 z"
           style="fill:#217b21;stroke-width:0"
           id="path14150" /><path
           inkscape:connector-curvature="0"
           d="m 231.26,478.36 -0.01,-0.01 -0.02,0 -0.02,-0.01 -0.01,0 -0.02,-0.01 -0.01,-0.01 -0.02,-0.01 -0.01,0 -0.01,-0.01 -0.02,-0.01 -0.01,-0.01 -0.01,-0.01 -0.01,-0.01 -0.01,-0.01 -0.01,-0.01 -0.01,-0.01 -0.01,-0.01 -0.01,-0.01 -0.01,-0.02 -0.01,-0.01 0,-0.01 -0.01,-0.01 0,-0.01 -0.01,-0.02 0,-0.01 -0.01,-0.01 0,-0.02 0,-0.01 -0.01,-0.01 0,-0.01 0,-0.02 0,-0.01 c 0,-0.16 0.14,-0.22 0.23,-0.22 0.07,0 0.33,0.04 0.33,0.39 0,0.45 -0.5,0.61 -0.92,0.61 -1.09,0 -1.28,-0.8 -1.28,-1.02 0,-0.25 0.14,-0.42 0.24,-0.5 0.18,-0.14 0.31,-0.17 0.79,-0.26 0.14,-0.02 0.59,-0.11 0.59,-0.45 0,-0.12 -0.08,-0.39 -0.37,-0.56 -0.27,-0.15 -0.61,-0.15 -0.7,-0.15 -0.28,0 -0.67,0.06 -0.83,0.29 0.23,0.03 0.38,0.2 0.38,0.39 0,0.18 -0.12,0.26 -0.27,0.26 -0.2,0 -0.4,-0.16 -0.4,-0.46 0,-0.42 0.44,-0.68 1.12,-0.68 1.28,0 1.52,0.88 1.52,1.15 0,0.64 -0.71,0.76 -0.97,0.81 -0.06,0.02 -0.23,0.04 -0.28,0.06 -0.25,0.05 -0.38,0.19 -0.38,0.35 0,0.16 0.13,0.34 0.28,0.44 0.19,0.12 0.43,0.13 0.55,0.13 0.15,0 0.51,-0.02 0.66,-0.25 z"
           style="fill:#217b21;stroke-width:0"
           id="path14152" /></g>    </g>
    <g
       inkscape:label="name"
       id="g14154">
      <path
         inkscape:connector-curvature="0"
         d="m 425,465 10,0"
         style="fill:none;stroke:#ff0000;stroke-width:1;stroke-linecap:round;stroke-linejoin:round;stroke-dasharray:none;marker-end:url(#arrowCurrentEnd)"
         inkscape:label="none"
         id="path14156" />
      <g
         style="font-style:normal;font-variant:normal;font-weight:normal;font-stretch:normal;letter-spacing:normal;word-spacing:normal;text-anchor:start;fill:none;fill-opacity:1;fill-rule:evenodd;stroke:#000000;stroke-linecap:butt;stroke-linejoin:miter;stroke-miterlimit:10.4329996109;stroke-dasharray:none;stroke-dashoffset:0;stroke-opacity:1"
         id="g14158"
         xml:space="preserve"
         stroke-miterlimit="10.433"
         font-style="normal"
         font-variant="normal"
         font-weight="normal"
         font-stretch="normal"
         font-size-adjust="none"
         letter-spacing="normal"
         word-spacing="normal"
         ns0:text=" $5\\si\\ampere$"
         ns0:preamble="/home/fernando/.config/inkscape/extensions/textextLib/CircuitSymbolsLatexPreamble.tex"
         transform="matrix(0,0.739645,0.739645,0,74.463743,288.109953)"><path
           inkscape:connector-curvature="0"
           d="m 227.9,479.23 0,0.11 -0.01,0.11 -0.01,0.11 -0.02,0.1 -0.02,0.11 -0.02,0.1 -0.03,0.1 -0.04,0.1 -0.03,0.1 -0.04,0.09 -0.05,0.09 -0.05,0.09 -0.05,0.09 -0.05,0.08 -0.06,0.08 -0.06,0.07 -0.07,0.08 -0.07,0.06 -0.07,0.07 -0.07,0.06 -0.08,0.06 -0.08,0.05 -0.08,0.05 -0.08,0.04 -0.09,0.04 -0.09,0.04 -0.09,0.03 -0.09,0.02 -0.1,0.02 -0.09,0.02 -0.1,0 -0.1,0.01 c -0.48,0 -0.91,-0.16 -1.27,-0.51 l 0,1.94 c 0.2,-0.06 0.53,-0.13 0.85,-0.13 1.23,0 1.92,0.9 1.92,1.03 0,0.06 -0.03,0.11 -0.1,0.11 -0.01,0 -0.03,0 -0.08,-0.03 -0.2,-0.09 -0.68,-0.29 -1.35,-0.29 -0.4,0 -0.86,0.07 -1.32,0.28 -0.08,0.03 -0.1,0.03 -0.12,0.03 -0.1,0 -0.1,-0.08 -0.1,-0.24 l 0,-2.94 c 0,-0.18 0,-0.26 0.14,-0.26 0.07,0 0.09,0.03 0.13,0.09 0.11,0.16 0.47,0.7 1.28,0.7 0.52,0 0.77,-0.46 0.85,-0.64 0.15,-0.37 0.17,-0.75 0.17,-1.25 0,-0.35 0,-0.94 -0.24,-1.36 -0.23,-0.39 -0.6,-0.64 -1.06,-0.64 -0.73,0 -1.29,0.52 -1.46,1.11 0.03,-0.01 0.06,-0.02 0.17,-0.02 0.32,0 0.49,0.25 0.49,0.48 0,0.24 -0.17,0.49 -0.49,0.49 -0.14,0 -0.49,-0.07 -0.49,-0.53 0,-0.85 0.69,-1.81 1.8,-1.81 1.15,0 2.17,0.95 2.17,2.21 z"
           style="fill:#ff0000;stroke-width:0"
           id="path14160" /><path
           inkscape:connector-curvature="0"
           d="m 232.37,484.15 0,0.01 -0.01,0.01 0,0.01 0,0.01 -0.01,0.02 0,0.01 -0.01,0.01 0,0 -0.01,0.01 0,0.01 0,0.01 -0.01,0.01 0,0.01 -0.01,0 0,0.01 -0.01,0.01 -0.01,0 0,0.01 -0.01,0 -0.01,0.01 0,0 -0.01,0.01 -0.01,0 -0.01,0.01 -0.01,0 -0.01,0 -0.01,0 -0.01,0 -0.01,0.01 -0.02,0 -0.01,0 -0.01,0 -0.01,0 c -0.15,0 -0.18,-0.06 -0.24,-0.2 l -2.05,-5.94 c -0.18,-0.51 -0.58,-0.66 -1.12,-0.67 l 0,-0.31 c 0.23,0.01 0.66,0.04 1.02,0.04 0.3,0 0.82,-0.03 1.14,-0.04 l 0,0.31 c -0.5,0 -0.74,0.25 -0.74,0.51 0,0.03 0,0.13 0.01,0.15 l 0.46,1.3 2.46,0 -0.11,0.31 -2.24,0 1.12,3.23 1.12,-3.23 0.11,-0.31 0.53,-1.52 c 0.01,-0.04 0.03,-0.1 0.03,-0.14 0,-0.3 -0.56,-0.3 -0.83,-0.3 l 0,-0.31 c 0.36,0.04 1.06,0.04 1.43,0.04 0.43,0 0.89,-0.01 1.31,-0.04 l 0,0.31 -0.18,0 c -0.6,0 -0.74,0.07 -0.85,0.4 z"
           style="fill:#ff0000;stroke-width:0"
           id="path14162" /></g>    </g>
  </g>
  <g
     id="g14236"
     transform="matrix(0,-1,1,0,25,837.3621826172)"
     inkscape:label="Source"
     inkscape:export-xdpi="499.9925231934"
     inkscape:export-ydpi="499.9925231934">
    <g
       id="g14238"
       inkscape:label="Source">
      <path
         id="path14240"
         inkscape:label="none"
         style="fill:none;stroke:#000000;stroke-width:1;stroke-linecap:round;stroke-linejoin:round;stroke-dasharray:none"
         d="m 390,470 18,0"
         inkscape:connector-curvature="0" />
      <path
         id="path14242"
         inkscape:label="none"
         style="fill:none;stroke:#000000;stroke-width:1;stroke-linecap:round;stroke-linejoin:round;stroke-dasharray:none"
         d="m 440,470 -18,0"
         inkscape:connector-curvature="0" />
      <circle
         id="path14244"
         inkscape:label="circle"
         style="fill:none;stroke:#000000;stroke-width:1;stroke-linecap:round;stroke-linejoin:round;stroke-dasharray:none"
         cx="415"
         cy="470"
         r="7" />
      <path
         id="path14246"
         inkscape:label="none"
         style="fill:#000000;stroke:#000000;stroke-width:0.6999999881;stroke-linecap:round;stroke-linejoin:round;stroke-dasharray:none"
         d="m 411,470 5,0 0,1.2 3,-1.2 -3,-1.2 0,1.2"
         inkscape:connector-curvature="0" />
    </g>
    <g
       transform="matrix(0.739645,0,0,-0.739645,245.073958,811.492125)"
       ns0:preamble="/home/fernando/.config/inkscape/extensions/textextLib/CircuitSymbolsLatexPreamble.tex"
       ns0:text=" $5\\si\\ampere$"
       word-spacing="normal"
       letter-spacing="normal"
       font-size-adjust="none"
       font-stretch="normal"
       font-weight="normal"
       font-variant="normal"
       font-style="normal"
       stroke-miterlimit="10.433"
       xml:space="preserve"
       id="g14248"
       style="font-style:normal;font-variant:normal;font-weight:normal;font-stretch:normal;letter-spacing:normal;word-spacing:normal;text-anchor:start;fill:none;fill-opacity:1;fill-rule:evenodd;stroke:#000000;stroke-linecap:butt;stroke-linejoin:miter;stroke-miterlimit:10.4329996109;stroke-dasharray:none;stroke-dashoffset:0;stroke-opacity:1"><path
         id="path14250"
         style="fill:#000000;stroke-width:0"
         d="m 227.9,479.23 0,0.11 -0.01,0.11 -0.01,0.11 -0.02,0.1 -0.02,0.11 -0.02,0.1 -0.03,0.1 -0.04,0.1 -0.03,0.1 -0.04,0.09 -0.05,0.09 -0.05,0.09 -0.05,0.09 -0.05,0.08 -0.06,0.08 -0.06,0.07 -0.07,0.08 -0.07,0.06 -0.07,0.07 -0.07,0.06 -0.08,0.06 -0.08,0.05 -0.08,0.05 -0.08,0.04 -0.09,0.04 -0.09,0.04 -0.09,0.03 -0.09,0.02 -0.1,0.02 -0.09,0.02 -0.1,0 -0.1,0.01 c -0.48,0 -0.91,-0.16 -1.27,-0.51 l 0,1.94 c 0.2,-0.06 0.53,-0.13 0.85,-0.13 1.23,0 1.92,0.9 1.92,1.03 0,0.06 -0.03,0.11 -0.1,0.11 -0.01,0 -0.03,0 -0.08,-0.03 -0.2,-0.09 -0.68,-0.29 -1.35,-0.29 -0.4,0 -0.86,0.07 -1.32,0.28 -0.08,0.03 -0.1,0.03 -0.12,0.03 -0.1,0 -0.1,-0.08 -0.1,-0.24 l 0,-2.94 c 0,-0.18 0,-0.26 0.14,-0.26 0.07,0 0.09,0.03 0.13,0.09 0.11,0.16 0.47,0.7 1.28,0.7 0.52,0 0.77,-0.46 0.85,-0.64 0.15,-0.37 0.17,-0.75 0.17,-1.25 0,-0.35 0,-0.94 -0.24,-1.36 -0.23,-0.39 -0.6,-0.64 -1.06,-0.64 -0.73,0 -1.29,0.52 -1.46,1.11 0.03,-0.01 0.06,-0.02 0.17,-0.02 0.32,0 0.49,0.25 0.49,0.48 0,0.24 -0.17,0.49 -0.49,0.49 -0.14,0 -0.49,-0.07 -0.49,-0.53 0,-0.85 0.69,-1.81 1.8,-1.81 1.15,0 2.17,0.95 2.17,2.21 z"
         inkscape:connector-curvature="0" /><path
         id="path14252"
         style="fill:#000000;stroke-width:0"
         d="m 232.37,484.15 0,0.01 -0.01,0.01 0,0.01 0,0.01 -0.01,0.02 0,0.01 -0.01,0.01 0,0 -0.01,0.01 0,0.01 0,0.01 -0.01,0.01 0,0.01 -0.01,0 0,0.01 -0.01,0.01 -0.01,0 0,0.01 -0.01,0 -0.01,0.01 0,0 -0.01,0.01 -0.01,0 -0.01,0.01 -0.01,0 -0.01,0 -0.01,0 -0.01,0 -0.01,0.01 -0.02,0 -0.01,0 -0.01,0 -0.01,0 c -0.15,0 -0.18,-0.06 -0.24,-0.2 l -2.05,-5.94 c -0.18,-0.51 -0.58,-0.66 -1.12,-0.67 l 0,-0.31 c 0.23,0.01 0.66,0.04 1.02,0.04 0.3,0 0.82,-0.03 1.14,-0.04 l 0,0.31 c -0.5,0 -0.74,0.25 -0.74,0.51 0,0.03 0,0.13 0.01,0.15 l 0.46,1.3 2.46,0 -0.11,0.31 -2.24,0 1.12,3.23 1.12,-3.23 0.11,-0.31 0.53,-1.52 c 0.01,-0.04 0.03,-0.1 0.03,-0.14 0,-0.3 -0.56,-0.3 -0.83,-0.3 l 0,-0.31 c 0.36,0.04 1.06,0.04 1.43,0.04 0.43,0 0.89,-0.01 1.31,-0.04 l 0,0.31 -0.18,0 c -0.6,0 -0.74,0.07 -0.85,0.4 z"
         inkscape:connector-curvature="0" /></g>    <g
       id="g14254"
       inkscape:label="name">
      <path
         id="path14256"
         inkscape:label="arc"
         sodipodi:type="arc"
         sodipodi:start="1.23095941734"
         sodipodi:ry="30"
         sodipodi:rx="30"
         sodipodi:open="true"
         sodipodi:end="1.91063323625"
         sodipodi:cy="449.7157287598"
         sodipodi:cx="415"
         style="fill:none;stroke:#217b21;stroke-width:1;stroke-linecap:round;stroke-linejoin:round;stroke-dasharray:none;marker-end:url(#arrowVoltageEnd)"
         d="m 425,478.0000000072 a 30,30 0 0 1 -20,0" />
      <g
         transform="matrix(0,0.739645,0.739645,0,60.968921,318.24235)"
         ns0:preamble="/home/fernando/.config/inkscape/extensions/textextLib/CircuitSymbolsLatexPreamble.tex"
         ns0:text=" $v_s$"
         word-spacing="normal"
         letter-spacing="normal"
         font-size-adjust="none"
         font-stretch="normal"
         font-weight="normal"
         font-variant="normal"
         font-style="normal"
         stroke-miterlimit="10.433"
         xml:space="preserve"
         id="g14258"
         style="font-style:normal;font-variant:normal;font-weight:normal;font-stretch:normal;letter-spacing:normal;word-spacing:normal;text-anchor:start;fill:none;fill-opacity:1;fill-rule:evenodd;stroke:#000000;stroke-linecap:butt;stroke-linejoin:miter;stroke-miterlimit:10.4329996109;stroke-dasharray:none;stroke-dashoffset:0;stroke-opacity:1"><path
           id="path14260"
           style="fill:#217b21;stroke-width:0"
           d="m 228.09,480.93 0,0.02 0,0.03 0,0.02 0,0.03 -0.01,0.02 0,0.02 0,0.02 0,0.02 -0.01,0.04 -0.01,0.04 -0.01,0.04 -0.01,0.04 -0.01,0.03 -0.01,0.03 -0.01,0.03 -0.01,0.03 -0.02,0.02 -0.01,0.03 -0.02,0.02 -0.01,0.02 -0.02,0.02 -0.02,0.02 -0.01,0.01 -0.02,0.02 -0.02,0.01 -0.02,0.01 -0.02,0.01 -0.02,0.01 -0.01,0.01 -0.02,0.01 -0.02,0 -0.02,0.01 -0.02,0 -0.01,0 -0.02,0.01 -0.02,0 c -0.25,0 -0.49,-0.26 -0.49,-0.48 0,-0.13 0.05,-0.19 0.16,-0.3 0.21,-0.2 0.34,-0.46 0.34,-0.81 0,-0.42 -0.61,-2.7 -1.77,-2.7 -0.51,0 -0.74,0.35 -0.74,0.87 0,0.56 0.27,1.28 0.58,2.1 0.07,0.17 0.12,0.31 0.12,0.5 0,0.45 -0.32,0.82 -0.82,0.82 -0.93,0 -1.31,-1.45 -1.31,-1.53 0,-0.1 0.1,-0.1 0.12,-0.1 0.1,0 0.11,0.02 0.16,0.17 0.29,1.01 0.71,1.24 1,1.24 0.08,0 0.25,0 0.25,-0.32 0,-0.25 -0.1,-0.52 -0.17,-0.7 -0.43,-1.15 -0.56,-1.6 -0.56,-2.03 0,-1.07 0.87,-1.23 1.33,-1.23 1.67,0 2.24,3.28 2.24,3.8 z"
           inkscape:connector-curvature="0" /><path
           id="path14262"
           style="fill:#217b21;stroke-width:0"
           d="m 231.26,478.36 -0.01,-0.01 -0.02,0 -0.02,-0.01 -0.01,0 -0.02,-0.01 -0.01,-0.01 -0.02,-0.01 -0.01,0 -0.01,-0.01 -0.02,-0.01 -0.01,-0.01 -0.01,-0.01 -0.01,-0.01 -0.01,-0.01 -0.01,-0.01 -0.01,-0.01 -0.01,-0.01 -0.01,-0.01 -0.01,-0.02 -0.01,-0.01 0,-0.01 -0.01,-0.01 0,-0.01 -0.01,-0.02 0,-0.01 -0.01,-0.01 0,-0.02 0,-0.01 -0.01,-0.01 0,-0.01 0,-0.02 0,-0.01 c 0,-0.16 0.14,-0.22 0.23,-0.22 0.07,0 0.33,0.04 0.33,0.39 0,0.45 -0.5,0.61 -0.92,0.61 -1.09,0 -1.28,-0.8 -1.28,-1.02 0,-0.25 0.14,-0.42 0.24,-0.5 0.18,-0.14 0.31,-0.17 0.79,-0.26 0.14,-0.02 0.59,-0.11 0.59,-0.45 0,-0.12 -0.08,-0.39 -0.37,-0.56 -0.27,-0.15 -0.61,-0.15 -0.7,-0.15 -0.28,0 -0.67,0.06 -0.83,0.29 0.23,0.03 0.38,0.2 0.38,0.39 0,0.18 -0.12,0.26 -0.27,0.26 -0.2,0 -0.4,-0.16 -0.4,-0.46 0,-0.42 0.44,-0.68 1.12,-0.68 1.28,0 1.52,0.88 1.52,1.15 0,0.64 -0.71,0.76 -0.97,0.81 -0.06,0.02 -0.23,0.04 -0.28,0.06 -0.25,0.05 -0.38,0.19 -0.38,0.35 0,0.16 0.13,0.34 0.28,0.44 0.19,0.12 0.43,0.13 0.55,0.13 0.15,0 0.51,-0.02 0.66,-0.25 z"
           inkscape:connector-curvature="0" /></g>    </g>
    <g
       id="g14264"
       inkscape:label="name">
      <path
         id="path14266"
         inkscape:label="none"
         style="fill:none;stroke:#ff0000;stroke-width:1;stroke-linecap:round;stroke-linejoin:round;stroke-dasharray:none;marker-end:url(#arrowCurrentEnd)"
         d="m 425,465 10,0"
         inkscape:connector-curvature="0" />
      <g
         transform="matrix(0,0.739645,0.739645,0,74.463743,288.109953)"
         ns0:preamble="/home/fernando/.config/inkscape/extensions/textextLib/CircuitSymbolsLatexPreamble.tex"
         ns0:text=" $5\\si\\ampere$"
         word-spacing="normal"
         letter-spacing="normal"
         font-size-adjust="none"
         font-stretch="normal"
         font-weight="normal"
         font-variant="normal"
         font-style="normal"
         stroke-miterlimit="10.433"
         xml:space="preserve"
         id="g14268"
         style="font-style:normal;font-variant:normal;font-weight:normal;font-stretch:normal;letter-spacing:normal;word-spacing:normal;text-anchor:start;fill:none;fill-opacity:1;fill-rule:evenodd;stroke:#000000;stroke-linecap:butt;stroke-linejoin:miter;stroke-miterlimit:10.4329996109;stroke-dasharray:none;stroke-dashoffset:0;stroke-opacity:1"><path
           id="path14270"
           style="fill:#ff0000;stroke-width:0"
           d="m 227.9,479.23 0,0.11 -0.01,0.11 -0.01,0.11 -0.02,0.1 -0.02,0.11 -0.02,0.1 -0.03,0.1 -0.04,0.1 -0.03,0.1 -0.04,0.09 -0.05,0.09 -0.05,0.09 -0.05,0.09 -0.05,0.08 -0.06,0.08 -0.06,0.07 -0.07,0.08 -0.07,0.06 -0.07,0.07 -0.07,0.06 -0.08,0.06 -0.08,0.05 -0.08,0.05 -0.08,0.04 -0.09,0.04 -0.09,0.04 -0.09,0.03 -0.09,0.02 -0.1,0.02 -0.09,0.02 -0.1,0 -0.1,0.01 c -0.48,0 -0.91,-0.16 -1.27,-0.51 l 0,1.94 c 0.2,-0.06 0.53,-0.13 0.85,-0.13 1.23,0 1.92,0.9 1.92,1.03 0,0.06 -0.03,0.11 -0.1,0.11 -0.01,0 -0.03,0 -0.08,-0.03 -0.2,-0.09 -0.68,-0.29 -1.35,-0.29 -0.4,0 -0.86,0.07 -1.32,0.28 -0.08,0.03 -0.1,0.03 -0.12,0.03 -0.1,0 -0.1,-0.08 -0.1,-0.24 l 0,-2.94 c 0,-0.18 0,-0.26 0.14,-0.26 0.07,0 0.09,0.03 0.13,0.09 0.11,0.16 0.47,0.7 1.28,0.7 0.52,0 0.77,-0.46 0.85,-0.64 0.15,-0.37 0.17,-0.75 0.17,-1.25 0,-0.35 0,-0.94 -0.24,-1.36 -0.23,-0.39 -0.6,-0.64 -1.06,-0.64 -0.73,0 -1.29,0.52 -1.46,1.11 0.03,-0.01 0.06,-0.02 0.17,-0.02 0.32,0 0.49,0.25 0.49,0.48 0,0.24 -0.17,0.49 -0.49,0.49 -0.14,0 -0.49,-0.07 -0.49,-0.53 0,-0.85 0.69,-1.81 1.8,-1.81 1.15,0 2.17,0.95 2.17,2.21 z"
           inkscape:connector-curvature="0" /><path
           id="path14272"
           style="fill:#ff0000;stroke-width:0"
           d="m 232.37,484.15 0,0.01 -0.01,0.01 0,0.01 0,0.01 -0.01,0.02 0,0.01 -0.01,0.01 0,0 -0.01,0.01 0,0.01 0,0.01 -0.01,0.01 0,0.01 -0.01,0 0,0.01 -0.01,0.01 -0.01,0 0,0.01 -0.01,0 -0.01,0.01 0,0 -0.01,0.01 -0.01,0 -0.01,0.01 -0.01,0 -0.01,0 -0.01,0 -0.01,0 -0.01,0.01 -0.02,0 -0.01,0 -0.01,0 -0.01,0 c -0.15,0 -0.18,-0.06 -0.24,-0.2 l -2.05,-5.94 c -0.18,-0.51 -0.58,-0.66 -1.12,-0.67 l 0,-0.31 c 0.23,0.01 0.66,0.04 1.02,0.04 0.3,0 0.82,-0.03 1.14,-0.04 l 0,0.31 c -0.5,0 -0.74,0.25 -0.74,0.51 0,0.03 0,0.13 0.01,0.15 l 0.46,1.3 2.46,0 -0.11,0.31 -2.24,0 1.12,3.23 1.12,-3.23 0.11,-0.31 0.53,-1.52 c 0.01,-0.04 0.03,-0.1 0.03,-0.14 0,-0.3 -0.56,-0.3 -0.83,-0.3 l 0,-0.31 c 0.36,0.04 1.06,0.04 1.43,0.04 0.43,0 0.89,-0.01 1.31,-0.04 l 0,0.31 -0.18,0 c -0.6,0 -0.74,0.07 -0.85,0.4 z"
           inkscape:connector-curvature="0" /></g>    </g>
  </g>
  <g
     inkscape:label="Source"
     transform="matrix(0,-1,1,0,-105,837.3621826172)"
     id="g14384"
     inkscape:export-xdpi="499.9925231934"
     inkscape:export-ydpi="499.9925231934">
    <g
       inkscape:label="Source"
       id="g14386">
      <path
         inkscape:connector-curvature="0"
         d="m 390,470 18,0"
         style="fill:none;stroke:#000000;stroke-width:1;stroke-linecap:round;stroke-linejoin:round;stroke-dasharray:none"
         inkscape:label="none"
         id="path14388" />
      <path
         inkscape:connector-curvature="0"
         d="m 440,470 -18,0"
         style="fill:none;stroke:#000000;stroke-width:1;stroke-linecap:round;stroke-linejoin:round;stroke-dasharray:none"
         inkscape:label="none"
         id="path14390" />
      <circle
         r="7"
         cy="470"
         cx="415"
         style="fill:none;stroke:#000000;stroke-width:1;stroke-linecap:round;stroke-linejoin:round;stroke-dasharray:none"
         inkscape:label="circle"
         id="path14392" />
      <path
         inkscape:connector-curvature="0"
         d="m 420,470 -2,0"
         style="fill:none;stroke:#000000;stroke-width:0.6000000238;stroke-linecap:round;stroke-linejoin:round;stroke-dasharray:none"
         inkscape:label="none"
         id="path14394" />
      <path
         inkscape:connector-curvature="0"
         d="m 419,469 0,2"
         style="fill:none;stroke:#000000;stroke-width:0.6000000238;stroke-linecap:round;stroke-linejoin:round;stroke-dasharray:none"
         inkscape:label="none"
         id="path14396" />
      <path
         inkscape:connector-curvature="0"
         d="m 411,469 0,2"
         style="fill:none;stroke:#000000;stroke-width:0.6000000238;stroke-linecap:round;stroke-linejoin:round;stroke-dasharray:none"
         inkscape:label="none"
         id="path14398" />
    </g>
    <g
       style="font-style:normal;font-variant:normal;font-weight:normal;font-stretch:normal;letter-spacing:normal;word-spacing:normal;text-anchor:start;fill:none;fill-opacity:1;fill-rule:evenodd;stroke:#000000;stroke-linecap:butt;stroke-linejoin:miter;stroke-miterlimit:10.4329996109;stroke-dasharray:none;stroke-dashoffset:0;stroke-opacity:1"
       id="g14400"
       xml:space="preserve"
       stroke-miterlimit="10.433"
       font-style="normal"
       font-variant="normal"
       font-weight="normal"
       font-stretch="normal"
       font-size-adjust="none"
       letter-spacing="normal"
       word-spacing="normal"
       ns0:text=" $5\\si\\volt$"
       ns0:preamble="/home/fernando/.config/inkscape/extensions/textextLib/CircuitSymbolsLatexPreamble.tex"
       transform="matrix(0.739645,0,0,-0.739645,245.025881,811.492125)"><path
         inkscape:connector-curvature="0"
         d="m 227.9,479.23 0,0.11 -0.01,0.11 -0.01,0.11 -0.02,0.1 -0.02,0.11 -0.02,0.1 -0.03,0.1 -0.04,0.1 -0.03,0.1 -0.04,0.09 -0.05,0.09 -0.05,0.09 -0.05,0.09 -0.05,0.08 -0.06,0.08 -0.06,0.07 -0.07,0.08 -0.07,0.06 -0.07,0.07 -0.07,0.06 -0.08,0.06 -0.08,0.05 -0.08,0.05 -0.08,0.04 -0.09,0.04 -0.09,0.04 -0.09,0.03 -0.09,0.02 -0.1,0.02 -0.09,0.02 -0.1,0 -0.1,0.01 c -0.48,0 -0.91,-0.16 -1.27,-0.51 l 0,1.94 c 0.2,-0.06 0.53,-0.13 0.85,-0.13 1.23,0 1.92,0.9 1.92,1.03 0,0.06 -0.03,0.11 -0.1,0.11 -0.01,0 -0.03,0 -0.08,-0.03 -0.2,-0.09 -0.68,-0.29 -1.35,-0.29 -0.4,0 -0.86,0.07 -1.32,0.28 -0.08,0.03 -0.1,0.03 -0.12,0.03 -0.1,0 -0.1,-0.08 -0.1,-0.24 l 0,-2.94 c 0,-0.18 0,-0.26 0.14,-0.26 0.07,0 0.09,0.03 0.13,0.09 0.11,0.16 0.47,0.7 1.28,0.7 0.52,0 0.77,-0.46 0.85,-0.64 0.15,-0.37 0.17,-0.75 0.17,-1.25 0,-0.35 0,-0.94 -0.24,-1.36 -0.23,-0.39 -0.6,-0.64 -1.06,-0.64 -0.73,0 -1.29,0.52 -1.46,1.11 0.03,-0.01 0.06,-0.02 0.17,-0.02 0.32,0 0.49,0.25 0.49,0.48 0,0.24 -0.17,0.49 -0.49,0.49 -0.14,0 -0.49,-0.07 -0.49,-0.53 0,-0.85 0.69,-1.81 1.8,-1.81 1.15,0 2.17,0.95 2.17,2.21 z"
         style="fill:#000000;stroke-width:0"
         id="path14402" /><path
         inkscape:connector-curvature="0"
         d="m 234.59,483.05 0.02,0.03 0.01,0.03 0.01,0.04 0.02,0.03 0.02,0.03 0.02,0.03 0.01,0.03 0.02,0.03 0.03,0.03 0.02,0.03 0.02,0.03 0.03,0.03 0.02,0.02 0.03,0.03 0.03,0.02 0.03,0.02 0.04,0.03 0.03,0.02 0.04,0.02 0.03,0.01 0.04,0.02 0.04,0.02 0.05,0.01 0.04,0.02 0.05,0.01 0.05,0.01 0.05,0.01 0.05,0.01 0.06,0 0.05,0.01 0.06,0 0.07,0 0,0.31 c -0.31,-0.02 -0.71,-0.03 -0.97,-0.03 -0.3,0 -0.87,0.02 -1.13,0.03 l 0,-0.31 c 0.51,-0.01 0.72,-0.27 0.72,-0.5 0,-0.07 -0.03,-0.13 -0.05,-0.19 l -1.82,-4.79 -1.9,5.01 c -0.06,0.14 -0.06,0.16 -0.06,0.18 0,0.29 0.57,0.29 0.82,0.29 l 0,0.31 c -0.36,-0.03 -1.05,-0.03 -1.42,-0.03 -0.48,0 -0.91,0.02 -1.27,0.03 l 0,-0.31 c 0.65,0 0.84,0 0.98,-0.38 l 2.31,-6.1 c 0.07,-0.18 0.12,-0.21 0.24,-0.21 0.17,0 0.19,0.05 0.24,0.18 z"
         style="fill:#000000;stroke-width:0"
         id="path14404" /></g>    <g
       inkscape:label="name"
       id="g14406">
      <path
         d="m 425,478.0000000072 a 30,30 0 0 1 -20,0"
         style="fill:none;stroke:#217b21;stroke-width:1;stroke-linecap:round;stroke-linejoin:round;stroke-dasharray:none;marker-start:url(#arrowVoltageStart)"
         sodipodi:cx="415"
         sodipodi:cy="449.7157287598"
         sodipodi:end="1.91063323625"
         sodipodi:open="true"
         sodipodi:rx="30"
         sodipodi:ry="30"
         sodipodi:start="1.23095941734"
         sodipodi:type="arc"
         inkscape:label="arc"
         id="path14408" />
      <g
         style="font-style:normal;font-variant:normal;font-weight:normal;font-stretch:normal;letter-spacing:normal;word-spacing:normal;text-anchor:start;fill:none;fill-opacity:1;fill-rule:evenodd;stroke:#000000;stroke-linecap:butt;stroke-linejoin:miter;stroke-miterlimit:10.4329996109;stroke-dasharray:none;stroke-dashoffset:0;stroke-opacity:1"
         id="g14410"
         xml:space="preserve"
         stroke-miterlimit="10.433"
         font-style="normal"
         font-variant="normal"
         font-weight="normal"
         font-stretch="normal"
         font-size-adjust="none"
         letter-spacing="normal"
         word-spacing="normal"
         ns0:text=" $5\\si\\volt$"
         ns0:preamble="/home/fernando/.config/inkscape/extensions/textextLib/CircuitSymbolsLatexPreamble.tex"
         transform="matrix(0,0.739645,0.739645,0,59.585785,318.087024)"><path
           inkscape:connector-curvature="0"
           d="m 227.9,479.23 0,0.11 -0.01,0.11 -0.01,0.11 -0.02,0.1 -0.02,0.11 -0.02,0.1 -0.03,0.1 -0.04,0.1 -0.03,0.1 -0.04,0.09 -0.05,0.09 -0.05,0.09 -0.05,0.09 -0.05,0.08 -0.06,0.08 -0.06,0.07 -0.07,0.08 -0.07,0.06 -0.07,0.07 -0.07,0.06 -0.08,0.06 -0.08,0.05 -0.08,0.05 -0.08,0.04 -0.09,0.04 -0.09,0.04 -0.09,0.03 -0.09,0.02 -0.1,0.02 -0.09,0.02 -0.1,0 -0.1,0.01 c -0.48,0 -0.91,-0.16 -1.27,-0.51 l 0,1.94 c 0.2,-0.06 0.53,-0.13 0.85,-0.13 1.23,0 1.92,0.9 1.92,1.03 0,0.06 -0.03,0.11 -0.1,0.11 -0.01,0 -0.03,0 -0.08,-0.03 -0.2,-0.09 -0.68,-0.29 -1.35,-0.29 -0.4,0 -0.86,0.07 -1.32,0.28 -0.08,0.03 -0.1,0.03 -0.12,0.03 -0.1,0 -0.1,-0.08 -0.1,-0.24 l 0,-2.94 c 0,-0.18 0,-0.26 0.14,-0.26 0.07,0 0.09,0.03 0.13,0.09 0.11,0.16 0.47,0.7 1.28,0.7 0.52,0 0.77,-0.46 0.85,-0.64 0.15,-0.37 0.17,-0.75 0.17,-1.25 0,-0.35 0,-0.94 -0.24,-1.36 -0.23,-0.39 -0.6,-0.64 -1.06,-0.64 -0.73,0 -1.29,0.52 -1.46,1.11 0.03,-0.01 0.06,-0.02 0.17,-0.02 0.32,0 0.49,0.25 0.49,0.48 0,0.24 -0.17,0.49 -0.49,0.49 -0.14,0 -0.49,-0.07 -0.49,-0.53 0,-0.85 0.69,-1.81 1.8,-1.81 1.15,0 2.17,0.95 2.17,2.21 z"
           style="fill:#217b21;stroke-width:0"
           id="path14412" /><path
           inkscape:connector-curvature="0"
           d="m 234.59,483.05 0.02,0.03 0.01,0.03 0.01,0.04 0.02,0.03 0.02,0.03 0.02,0.03 0.01,0.03 0.02,0.03 0.03,0.03 0.02,0.03 0.02,0.03 0.03,0.03 0.02,0.02 0.03,0.03 0.03,0.02 0.03,0.02 0.04,0.03 0.03,0.02 0.04,0.02 0.03,0.01 0.04,0.02 0.04,0.02 0.05,0.01 0.04,0.02 0.05,0.01 0.05,0.01 0.05,0.01 0.05,0.01 0.06,0 0.05,0.01 0.06,0 0.07,0 0,0.31 c -0.31,-0.02 -0.71,-0.03 -0.97,-0.03 -0.3,0 -0.87,0.02 -1.13,0.03 l 0,-0.31 c 0.51,-0.01 0.72,-0.27 0.72,-0.5 0,-0.07 -0.03,-0.13 -0.05,-0.19 l -1.82,-4.79 -1.9,5.01 c -0.06,0.14 -0.06,0.16 -0.06,0.18 0,0.29 0.57,0.29 0.82,0.29 l 0,0.31 c -0.36,-0.03 -1.05,-0.03 -1.42,-0.03 -0.48,0 -0.91,0.02 -1.27,0.03 l 0,-0.31 c 0.65,0 0.84,0 0.98,-0.38 l 2.31,-6.1 c 0.07,-0.18 0.12,-0.21 0.24,-0.21 0.17,0 0.19,0.05 0.24,0.18 z"
           style="fill:#217b21;stroke-width:0"
           id="path14414" /></g>    </g>
    <g
       inkscape:label="name"
       id="g14416">
      <path
         inkscape:connector-curvature="0"
         d="m 435,465 -10,0"
         style="fill:none;stroke:#ff0000;stroke-width:1;stroke-linecap:round;stroke-linejoin:round;stroke-dasharray:none;marker-end:url(#arrowCurrentEnd)"
         inkscape:label="none"
         id="path14418" />
      <g
         style="font-style:normal;font-variant:normal;font-weight:normal;font-stretch:normal;letter-spacing:normal;word-spacing:normal;text-anchor:start;fill:none;fill-opacity:1;fill-rule:evenodd;stroke:#000000;stroke-linecap:butt;stroke-linejoin:miter;stroke-miterlimit:10.4329996109;stroke-dasharray:none;stroke-dashoffset:0;stroke-opacity:1"
         id="g14420"
         xml:space="preserve"
         stroke-miterlimit="10.433"
         font-style="normal"
         font-variant="normal"
         font-weight="normal"
         font-stretch="normal"
         font-size-adjust="none"
         letter-spacing="normal"
         word-spacing="normal"
         ns0:text=" $i_s$"
         ns0:preamble="/home/fernando/.config/inkscape/extensions/textextLib/CircuitSymbolsLatexPreamble.tex"
         transform="matrix(0,0.739645,0.739645,0,75.166406,292.111433)"><path
           inkscape:connector-curvature="0"
           d="m 226.26,483.44 0,0.02 0,0.02 -0.01,0.02 0,0.02 0,0.01 -0.01,0.02 0,0.02 -0.01,0.01 0,0.02 -0.01,0.01 -0.01,0.02 -0.01,0.01 -0.01,0.02 -0.01,0.01 -0.01,0.01 -0.01,0.02 -0.01,0.01 -0.02,0.01 -0.01,0.01 -0.01,0.01 -0.02,0.01 -0.01,0.01 -0.02,0.01 -0.02,0 -0.01,0.01 -0.02,0.01 -0.02,0 -0.02,0 -0.02,0.01 -0.02,0 -0.02,0 -0.02,0 c -0.27,0 -0.54,-0.26 -0.54,-0.53 0,-0.18 0.14,-0.35 0.38,-0.35 0.23,0 0.53,0.23 0.53,0.52 z"
           style="fill:#ff0000;stroke-width:0"
           id="path14422" /><path
           inkscape:connector-curvature="0"
           d="m 225.5,479.71 0.01,0.02 0.01,0.03 0.01,0.02 0.01,0.02 0.01,0.03 0.01,0.02 0,0.01 0.01,0.02 0.01,0.02 0.01,0.02 0,0.01 0.01,0.02 0,0.01 0.01,0.02 0.01,0.02 0.01,0.03 0.01,0.03 0,0.02 0.01,0.01 0.01,0.02 0,0.01 0.01,0.02 0,0.02 0.01,0.02 0.01,0.01 0,0.03 0.01,0.02 0.01,0.02 0.01,0.03 c 0.08,0.19 0.13,0.33 0.13,0.52 0,0.45 -0.32,0.82 -0.82,0.82 -0.93,0 -1.31,-1.45 -1.31,-1.53 0,-0.1 0.1,-0.1 0.12,-0.1 0.1,0 0.11,0.02 0.16,0.17 0.27,0.94 0.67,1.24 1,1.24 0.08,0 0.25,0 0.25,-0.32 0,-0.21 -0.07,-0.42 -0.11,-0.52 -0.08,-0.26 -0.52,-1.41 -0.68,-1.84 -0.1,-0.25 -0.23,-0.58 -0.23,-0.79 0,-0.47 0.34,-0.81 0.81,-0.81 0.94,0 1.31,1.44 1.31,1.53 0,0.1 -0.09,0.1 -0.12,0.1 -0.1,0 -0.1,-0.03 -0.15,-0.18 -0.18,-0.63 -0.51,-1.24 -1.02,-1.24 -0.16,0 -0.24,0.1 -0.24,0.33 0,0.25 0.06,0.39 0.29,1 z"
           style="fill:#ff0000;stroke-width:0"
           id="path14424" /><path
           inkscape:connector-curvature="0"
           d="m 229.87,478.36 -0.02,-0.01 -0.02,0 -0.01,-0.01 -0.02,0 -0.01,-0.01 -0.02,-0.01 -0.01,-0.01 -0.02,0 -0.01,-0.01 -0.01,-0.01 -0.01,-0.01 -0.02,-0.01 -0.01,-0.01 -0.01,-0.01 -0.01,-0.01 -0.01,-0.01 -0.01,-0.01 -0.01,-0.01 0,-0.02 -0.01,-0.01 -0.01,-0.01 -0.01,-0.01 0,-0.01 -0.01,-0.02 0,-0.01 -0.01,-0.01 0,-0.02 0,-0.01 0,-0.01 -0.01,-0.01 0,-0.02 0,-0.01 c 0,-0.16 0.14,-0.22 0.23,-0.22 0.07,0 0.34,0.04 0.34,0.39 0,0.45 -0.5,0.61 -0.93,0.61 -1.09,0 -1.28,-0.8 -1.28,-1.02 0,-0.25 0.15,-0.42 0.24,-0.5 0.18,-0.14 0.31,-0.17 0.79,-0.26 0.15,-0.02 0.59,-0.11 0.59,-0.45 0,-0.12 -0.07,-0.39 -0.37,-0.56 -0.27,-0.15 -0.61,-0.15 -0.69,-0.15 -0.28,0 -0.68,0.06 -0.84,0.29 0.23,0.03 0.38,0.2 0.38,0.39 0,0.18 -0.12,0.26 -0.27,0.26 -0.2,0 -0.4,-0.16 -0.4,-0.46 0,-0.42 0.44,-0.68 1.12,-0.68 1.28,0 1.52,0.88 1.52,1.15 0,0.64 -0.71,0.76 -0.96,0.81 -0.07,0.02 -0.24,0.04 -0.28,0.06 -0.26,0.05 -0.38,0.19 -0.38,0.35 0,0.16 0.12,0.34 0.27,0.44 0.19,0.12 0.44,0.13 0.55,0.13 0.15,0 0.51,-0.02 0.67,-0.25 z"
           style="fill:#ff0000;stroke-width:0"
           id="path14426" /></g>    </g>
  </g>
  <g
     id="g14582"
     transform="matrix(0,-1,1,0,-155,837.3621826172)"
     inkscape:label="Source"
     inkscape:export-xdpi="499.9925231934"
     inkscape:export-ydpi="499.9925231934">
    <g
       id="g14584"
       inkscape:label="Source">
      <path
         id="path14586"
         inkscape:label="none"
         style="fill:none;stroke:#000000;stroke-width:1;stroke-linecap:round;stroke-linejoin:round;stroke-dasharray:none"
         d="m 390,470 18,0"
         inkscape:connector-curvature="0" />
      <path
         id="path14588"
         inkscape:label="none"
         style="fill:none;stroke:#000000;stroke-width:1;stroke-linecap:round;stroke-linejoin:round;stroke-dasharray:none"
         d="m 440,470 -18,0"
         inkscape:connector-curvature="0" />
      <circle
         id="path14590"
         inkscape:label="circle"
         style="fill:none;stroke:#000000;stroke-width:1;stroke-linecap:round;stroke-linejoin:round;stroke-dasharray:none"
         cx="415"
         cy="470"
         r="7" />
      <path
         id="path14592"
         inkscape:label="none"
         style="fill:none;stroke:#000000;stroke-width:0.6000000238;stroke-linecap:round;stroke-linejoin:round;stroke-dasharray:none"
         d="m 420,470 -2,0"
         inkscape:connector-curvature="0" />
      <path
         id="path14594"
         inkscape:label="none"
         style="fill:none;stroke:#000000;stroke-width:0.6000000238;stroke-linecap:round;stroke-linejoin:round;stroke-dasharray:none"
         d="m 419,469 0,2"
         inkscape:connector-curvature="0" />
      <path
         id="path14596"
         inkscape:label="none"
         style="fill:none;stroke:#000000;stroke-width:0.6000000238;stroke-linecap:round;stroke-linejoin:round;stroke-dasharray:none"
         d="m 411,469 0,2"
         inkscape:connector-curvature="0" />
    </g>
    <g
       transform="matrix(0.739645,0,0,-0.739645,245.025881,811.492125)"
       ns0:preamble="/home/fernando/.config/inkscape/extensions/textextLib/CircuitSymbolsLatexPreamble.tex"
       ns0:text=" $5\\si\\volt$"
       word-spacing="normal"
       letter-spacing="normal"
       font-size-adjust="none"
       font-stretch="normal"
       font-weight="normal"
       font-variant="normal"
       font-style="normal"
       stroke-miterlimit="10.433"
       xml:space="preserve"
       id="g14598"
       style="font-style:normal;font-variant:normal;font-weight:normal;font-stretch:normal;letter-spacing:normal;word-spacing:normal;text-anchor:start;fill:none;fill-opacity:1;fill-rule:evenodd;stroke:#000000;stroke-linecap:butt;stroke-linejoin:miter;stroke-miterlimit:10.4329996109;stroke-dasharray:none;stroke-dashoffset:0;stroke-opacity:1"><path
         id="path14600"
         style="fill:#000000;stroke-width:0"
         d="m 227.9,479.23 0,0.11 -0.01,0.11 -0.01,0.11 -0.02,0.1 -0.02,0.11 -0.02,0.1 -0.03,0.1 -0.04,0.1 -0.03,0.1 -0.04,0.09 -0.05,0.09 -0.05,0.09 -0.05,0.09 -0.05,0.08 -0.06,0.08 -0.06,0.07 -0.07,0.08 -0.07,0.06 -0.07,0.07 -0.07,0.06 -0.08,0.06 -0.08,0.05 -0.08,0.05 -0.08,0.04 -0.09,0.04 -0.09,0.04 -0.09,0.03 -0.09,0.02 -0.1,0.02 -0.09,0.02 -0.1,0 -0.1,0.01 c -0.48,0 -0.91,-0.16 -1.27,-0.51 l 0,1.94 c 0.2,-0.06 0.53,-0.13 0.85,-0.13 1.23,0 1.92,0.9 1.92,1.03 0,0.06 -0.03,0.11 -0.1,0.11 -0.01,0 -0.03,0 -0.08,-0.03 -0.2,-0.09 -0.68,-0.29 -1.35,-0.29 -0.4,0 -0.86,0.07 -1.32,0.28 -0.08,0.03 -0.1,0.03 -0.12,0.03 -0.1,0 -0.1,-0.08 -0.1,-0.24 l 0,-2.94 c 0,-0.18 0,-0.26 0.14,-0.26 0.07,0 0.09,0.03 0.13,0.09 0.11,0.16 0.47,0.7 1.28,0.7 0.52,0 0.77,-0.46 0.85,-0.64 0.15,-0.37 0.17,-0.75 0.17,-1.25 0,-0.35 0,-0.94 -0.24,-1.36 -0.23,-0.39 -0.6,-0.64 -1.06,-0.64 -0.73,0 -1.29,0.52 -1.46,1.11 0.03,-0.01 0.06,-0.02 0.17,-0.02 0.32,0 0.49,0.25 0.49,0.48 0,0.24 -0.17,0.49 -0.49,0.49 -0.14,0 -0.49,-0.07 -0.49,-0.53 0,-0.85 0.69,-1.81 1.8,-1.81 1.15,0 2.17,0.95 2.17,2.21 z"
         inkscape:connector-curvature="0" /><path
         id="path14602"
         style="fill:#000000;stroke-width:0"
         d="m 234.59,483.05 0.02,0.03 0.01,0.03 0.01,0.04 0.02,0.03 0.02,0.03 0.02,0.03 0.01,0.03 0.02,0.03 0.03,0.03 0.02,0.03 0.02,0.03 0.03,0.03 0.02,0.02 0.03,0.03 0.03,0.02 0.03,0.02 0.04,0.03 0.03,0.02 0.04,0.02 0.03,0.01 0.04,0.02 0.04,0.02 0.05,0.01 0.04,0.02 0.05,0.01 0.05,0.01 0.05,0.01 0.05,0.01 0.06,0 0.05,0.01 0.06,0 0.07,0 0,0.31 c -0.31,-0.02 -0.71,-0.03 -0.97,-0.03 -0.3,0 -0.87,0.02 -1.13,0.03 l 0,-0.31 c 0.51,-0.01 0.72,-0.27 0.72,-0.5 0,-0.07 -0.03,-0.13 -0.05,-0.19 l -1.82,-4.79 -1.9,5.01 c -0.06,0.14 -0.06,0.16 -0.06,0.18 0,0.29 0.57,0.29 0.82,0.29 l 0,0.31 c -0.36,-0.03 -1.05,-0.03 -1.42,-0.03 -0.48,0 -0.91,0.02 -1.27,0.03 l 0,-0.31 c 0.65,0 0.84,0 0.98,-0.38 l 2.31,-6.1 c 0.07,-0.18 0.12,-0.21 0.24,-0.21 0.17,0 0.19,0.05 0.24,0.18 z"
         inkscape:connector-curvature="0" /></g>    <g
       id="g14604"
       inkscape:label="name">
      <path
         id="path14606"
         inkscape:label="arc"
         sodipodi:type="arc"
         sodipodi:start="1.23095941734"
         sodipodi:ry="30"
         sodipodi:rx="30"
         sodipodi:open="true"
         sodipodi:end="1.91063323625"
         sodipodi:cy="449.7157287598"
         sodipodi:cx="415"
         style="fill:none;stroke:#217b21;stroke-width:1;stroke-linecap:round;stroke-linejoin:round;stroke-dasharray:none;marker-start:url(#arrowVoltageStart)"
         d="m 425,478.0000000072 a 30,30 0 0 1 -20,0" />
      <g
         transform="matrix(0,0.739645,0.739645,0,59.585785,318.087024)"
         ns0:preamble="/home/fernando/.config/inkscape/extensions/textextLib/CircuitSymbolsLatexPreamble.tex"
         ns0:text=" $5\\si\\volt$"
         word-spacing="normal"
         letter-spacing="normal"
         font-size-adjust="none"
         font-stretch="normal"
         font-weight="normal"
         font-variant="normal"
         font-style="normal"
         stroke-miterlimit="10.433"
         xml:space="preserve"
         id="g14608"
         style="font-style:normal;font-variant:normal;font-weight:normal;font-stretch:normal;letter-spacing:normal;word-spacing:normal;text-anchor:start;fill:none;fill-opacity:1;fill-rule:evenodd;stroke:#000000;stroke-linecap:butt;stroke-linejoin:miter;stroke-miterlimit:10.4329996109;stroke-dasharray:none;stroke-dashoffset:0;stroke-opacity:1"><path
           id="path14610"
           style="fill:#217b21;stroke-width:0"
           d="m 227.9,479.23 0,0.11 -0.01,0.11 -0.01,0.11 -0.02,0.1 -0.02,0.11 -0.02,0.1 -0.03,0.1 -0.04,0.1 -0.03,0.1 -0.04,0.09 -0.05,0.09 -0.05,0.09 -0.05,0.09 -0.05,0.08 -0.06,0.08 -0.06,0.07 -0.07,0.08 -0.07,0.06 -0.07,0.07 -0.07,0.06 -0.08,0.06 -0.08,0.05 -0.08,0.05 -0.08,0.04 -0.09,0.04 -0.09,0.04 -0.09,0.03 -0.09,0.02 -0.1,0.02 -0.09,0.02 -0.1,0 -0.1,0.01 c -0.48,0 -0.91,-0.16 -1.27,-0.51 l 0,1.94 c 0.2,-0.06 0.53,-0.13 0.85,-0.13 1.23,0 1.92,0.9 1.92,1.03 0,0.06 -0.03,0.11 -0.1,0.11 -0.01,0 -0.03,0 -0.08,-0.03 -0.2,-0.09 -0.68,-0.29 -1.35,-0.29 -0.4,0 -0.86,0.07 -1.32,0.28 -0.08,0.03 -0.1,0.03 -0.12,0.03 -0.1,0 -0.1,-0.08 -0.1,-0.24 l 0,-2.94 c 0,-0.18 0,-0.26 0.14,-0.26 0.07,0 0.09,0.03 0.13,0.09 0.11,0.16 0.47,0.7 1.28,0.7 0.52,0 0.77,-0.46 0.85,-0.64 0.15,-0.37 0.17,-0.75 0.17,-1.25 0,-0.35 0,-0.94 -0.24,-1.36 -0.23,-0.39 -0.6,-0.64 -1.06,-0.64 -0.73,0 -1.29,0.52 -1.46,1.11 0.03,-0.01 0.06,-0.02 0.17,-0.02 0.32,0 0.49,0.25 0.49,0.48 0,0.24 -0.17,0.49 -0.49,0.49 -0.14,0 -0.49,-0.07 -0.49,-0.53 0,-0.85 0.69,-1.81 1.8,-1.81 1.15,0 2.17,0.95 2.17,2.21 z"
           inkscape:connector-curvature="0" /><path
           id="path14612"
           style="fill:#217b21;stroke-width:0"
           d="m 234.59,483.05 0.02,0.03 0.01,0.03 0.01,0.04 0.02,0.03 0.02,0.03 0.02,0.03 0.01,0.03 0.02,0.03 0.03,0.03 0.02,0.03 0.02,0.03 0.03,0.03 0.02,0.02 0.03,0.03 0.03,0.02 0.03,0.02 0.04,0.03 0.03,0.02 0.04,0.02 0.03,0.01 0.04,0.02 0.04,0.02 0.05,0.01 0.04,0.02 0.05,0.01 0.05,0.01 0.05,0.01 0.05,0.01 0.06,0 0.05,0.01 0.06,0 0.07,0 0,0.31 c -0.31,-0.02 -0.71,-0.03 -0.97,-0.03 -0.3,0 -0.87,0.02 -1.13,0.03 l 0,-0.31 c 0.51,-0.01 0.72,-0.27 0.72,-0.5 0,-0.07 -0.03,-0.13 -0.05,-0.19 l -1.82,-4.79 -1.9,5.01 c -0.06,0.14 -0.06,0.16 -0.06,0.18 0,0.29 0.57,0.29 0.82,0.29 l 0,0.31 c -0.36,-0.03 -1.05,-0.03 -1.42,-0.03 -0.48,0 -0.91,0.02 -1.27,0.03 l 0,-0.31 c 0.65,0 0.84,0 0.98,-0.38 l 2.31,-6.1 c 0.07,-0.18 0.12,-0.21 0.24,-0.21 0.17,0 0.19,0.05 0.24,0.18 z"
           inkscape:connector-curvature="0" /></g>    </g>
    <g
       id="g14614"
       inkscape:label="name">
      <path
         id="path14616"
         inkscape:label="none"
         style="fill:none;stroke:#ff0000;stroke-width:1;stroke-linecap:round;stroke-linejoin:round;stroke-dasharray:none;marker-end:url(#arrowCurrentEnd)"
         d="m 425,465 10,0"
         inkscape:connector-curvature="0" />
      <g
         transform="matrix(0,0.739645,0.739645,0,75.166406,292.111433)"
         ns0:preamble="/home/fernando/.config/inkscape/extensions/textextLib/CircuitSymbolsLatexPreamble.tex"
         ns0:text=" $i_s$"
         word-spacing="normal"
         letter-spacing="normal"
         font-size-adjust="none"
         font-stretch="normal"
         font-weight="normal"
         font-variant="normal"
         font-style="normal"
         stroke-miterlimit="10.433"
         xml:space="preserve"
         id="g14618"
         style="font-style:normal;font-variant:normal;font-weight:normal;font-stretch:normal;letter-spacing:normal;word-spacing:normal;text-anchor:start;fill:none;fill-opacity:1;fill-rule:evenodd;stroke:#000000;stroke-linecap:butt;stroke-linejoin:miter;stroke-miterlimit:10.4329996109;stroke-dasharray:none;stroke-dashoffset:0;stroke-opacity:1"><path
           id="path14620"
           style="fill:#ff0000;stroke-width:0"
           d="m 226.26,483.44 0,0.02 0,0.02 -0.01,0.02 0,0.02 0,0.01 -0.01,0.02 0,0.02 -0.01,0.01 0,0.02 -0.01,0.01 -0.01,0.02 -0.01,0.01 -0.01,0.02 -0.01,0.01 -0.01,0.01 -0.01,0.02 -0.01,0.01 -0.02,0.01 -0.01,0.01 -0.01,0.01 -0.02,0.01 -0.01,0.01 -0.02,0.01 -0.02,0 -0.01,0.01 -0.02,0.01 -0.02,0 -0.02,0 -0.02,0.01 -0.02,0 -0.02,0 -0.02,0 c -0.27,0 -0.54,-0.26 -0.54,-0.53 0,-0.18 0.14,-0.35 0.38,-0.35 0.23,0 0.53,0.23 0.53,0.52 z"
           inkscape:connector-curvature="0" /><path
           id="path14622"
           style="fill:#ff0000;stroke-width:0"
           d="m 225.5,479.71 0.01,0.02 0.01,0.03 0.01,0.02 0.01,0.02 0.01,0.03 0.01,0.02 0,0.01 0.01,0.02 0.01,0.02 0.01,0.02 0,0.01 0.01,0.02 0,0.01 0.01,0.02 0.01,0.02 0.01,0.03 0.01,0.03 0,0.02 0.01,0.01 0.01,0.02 0,0.01 0.01,0.02 0,0.02 0.01,0.02 0.01,0.01 0,0.03 0.01,0.02 0.01,0.02 0.01,0.03 c 0.08,0.19 0.13,0.33 0.13,0.52 0,0.45 -0.32,0.82 -0.82,0.82 -0.93,0 -1.31,-1.45 -1.31,-1.53 0,-0.1 0.1,-0.1 0.12,-0.1 0.1,0 0.11,0.02 0.16,0.17 0.27,0.94 0.67,1.24 1,1.24 0.08,0 0.25,0 0.25,-0.32 0,-0.21 -0.07,-0.42 -0.11,-0.52 -0.08,-0.26 -0.52,-1.41 -0.68,-1.84 -0.1,-0.25 -0.23,-0.58 -0.23,-0.79 0,-0.47 0.34,-0.81 0.81,-0.81 0.94,0 1.31,1.44 1.31,1.53 0,0.1 -0.09,0.1 -0.12,0.1 -0.1,0 -0.1,-0.03 -0.15,-0.18 -0.18,-0.63 -0.51,-1.24 -1.02,-1.24 -0.16,0 -0.24,0.1 -0.24,0.33 0,0.25 0.06,0.39 0.29,1 z"
           inkscape:connector-curvature="0" /><path
           id="path14624"
           style="fill:#ff0000;stroke-width:0"
           d="m 229.87,478.36 -0.02,-0.01 -0.02,0 -0.01,-0.01 -0.02,0 -0.01,-0.01 -0.02,-0.01 -0.01,-0.01 -0.02,0 -0.01,-0.01 -0.01,-0.01 -0.01,-0.01 -0.02,-0.01 -0.01,-0.01 -0.01,-0.01 -0.01,-0.01 -0.01,-0.01 -0.01,-0.01 -0.01,-0.01 0,-0.02 -0.01,-0.01 -0.01,-0.01 -0.01,-0.01 0,-0.01 -0.01,-0.02 0,-0.01 -0.01,-0.01 0,-0.02 0,-0.01 0,-0.01 -0.01,-0.01 0,-0.02 0,-0.01 c 0,-0.16 0.14,-0.22 0.23,-0.22 0.07,0 0.34,0.04 0.34,0.39 0,0.45 -0.5,0.61 -0.93,0.61 -1.09,0 -1.28,-0.8 -1.28,-1.02 0,-0.25 0.15,-0.42 0.24,-0.5 0.18,-0.14 0.31,-0.17 0.79,-0.26 0.15,-0.02 0.59,-0.11 0.59,-0.45 0,-0.12 -0.07,-0.39 -0.37,-0.56 -0.27,-0.15 -0.61,-0.15 -0.69,-0.15 -0.28,0 -0.68,0.06 -0.84,0.29 0.23,0.03 0.38,0.2 0.38,0.39 0,0.18 -0.12,0.26 -0.27,0.26 -0.2,0 -0.4,-0.16 -0.4,-0.46 0,-0.42 0.44,-0.68 1.12,-0.68 1.28,0 1.52,0.88 1.52,1.15 0,0.64 -0.71,0.76 -0.96,0.81 -0.07,0.02 -0.24,0.04 -0.28,0.06 -0.26,0.05 -0.38,0.19 -0.38,0.35 0,0.16 0.12,0.34 0.27,0.44 0.19,0.12 0.44,0.13 0.55,0.13 0.15,0 0.51,-0.02 0.67,-0.25 z"
           inkscape:connector-curvature="0" /></g>    </g>
  </g>
</svg>
