<?xml version="1.0" encoding="UTF-8" standalone="no"?>
<!-- Created with Inkscape (http://www.inkscape.org/) -->

<svg
   xmlns:ns0="http://www.iki.fi/pav/software/textext/"
   xmlns:dc="http://purl.org/dc/elements/1.1/"
   xmlns:cc="http://creativecommons.org/ns#"
   xmlns:rdf="http://www.w3.org/1999/02/22-rdf-syntax-ns#"
   xmlns:svg="http://www.w3.org/2000/svg"
   xmlns="http://www.w3.org/2000/svg"
   xmlns:sodipodi="http://sodipodi.sourceforge.net/DTD/sodipodi-0.dtd"
   xmlns:inkscape="http://www.inkscape.org/namespaces/inkscape"
   width="210mm"
   height="297mm"
   viewBox="0 0 793.7008056641 1122.51965332"
   version="1.1"
   id="svg1406"
   inkscape:version="0.92.3 (2405546, 2018-03-11)"
   sodipodi:docname="latex_commands.svg">
  <sodipodi:namedview
     pagecolor="#ffffff"
     bordercolor="#666666"
     borderopacity="1"
     objecttolerance="10"
     gridtolerance="10"
     guidetolerance="10"
     inkscape:pageopacity="0"
     inkscape:pageshadow="2"
     inkscape:window-width="2560"
     inkscape:window-height="1056"
     id="namedview1408"
     showgrid="false"
     inkscape:snap-text-baseline="true"
     inkscape:zoom="3.880234405148"
     inkscape:cx="111.5062271784"
     inkscape:cy="569.0324419471"
     inkscape:window-x="1920"
     inkscape:window-y="0"
     inkscape:window-maximized="1"
     inkscape:current-layer="svg1406">
    <inkscape:grid
       type="xygrid"
       id="grid1957" />
  </sodipodi:namedview>
  <metadata
     id="metadata1412">
    <rdf:RDF>
      <cc:Work
         rdf:about="">
        <dc:format>image/svg+xml</dc:format>
        <dc:type
           rdf:resource="http://purl.org/dc/dcmitype/StillImage" />
        <dc:title></dc:title>
      </cc:Work>
    </rdf:RDF>
  </metadata>
  <defs
     id="defs1410">
    <marker
       id="arrowVoltageStart"
       orient="auto"
       refX="0.0"
       refY="0.0"
       style="overflow:visible"
       inkscape:stockid="arrowVoltageStart">
      <path
         d="M 0.0,0.0 L 5.0,-5.0 L -12.5,0.0 L 5.0,5.0 L 0.0,0.0 z "
         style="stroke-width:1.0;stroke:#217B21;fill:#217B21;fill-rule:evenodd"
         transform="scale(0.25) rotate(0) translate(7.2925,0)"
         id="path813" />
    </marker>
    <marker
       id="arrowVoltageEnd"
       orient="auto"
       refX="0.0"
       refY="0.0"
       style="overflow:visible"
       inkscape:stockid="arrowVoltageEnd">
      <path
         d="M 0.0,0.0 L 5.0,-5.0 L -12.5,0.0 L 5.0,5.0 L 0.0,0.0 z "
         style="stroke-width:1.0;stroke:#217B21;fill:#217B21;fill-rule:evenodd"
         transform="scale(0.25) rotate(180) translate(7.2925,0)"
         id="path816" />
    </marker>
    <marker
       id="arrowCurrentStart"
       orient="auto"
       refX="0.0"
       refY="0.0"
       style="overflow:visible"
       inkscape:stockid="arrowCurrentStart">
      <path
         d="M 0.0,0.0 L 5.0,-5.0 L -12.5,0.0 L 5.0,5.0 L 0.0,0.0 z "
         style="stroke-width:1.0;stroke:#FF0000;fill:#FF0000;fill-rule:evenodd"
         transform="scale(0.25) rotate(0) translate(7.2925,0)"
         id="path2516" />
    </marker>
    <marker
       id="arrowCurrentEnd"
       orient="auto"
       refX="0.0"
       refY="0.0"
       style="overflow:visible"
       inkscape:stockid="arrowCurrentEnd">
      <path
         d="M 0.0,0.0 L 5.0,-5.0 L -12.5,0.0 L 5.0,5.0 L 0.0,0.0 z "
         style="stroke-width:1.0;stroke:#FF0000;fill:#FF0000;fill-rule:evenodd"
         transform="scale(0.25) rotate(180) translate(7.2925,0)"
         id="path2519" />
    </marker>
  </defs>
  <text
     xml:space="preserve"
     style="font-style:normal;font-variant:normal;font-weight:normal;font-stretch:normal;font-size:5.3333334923px;line-height:100%;font-family:sans-serif;-inkscape-font-specification:sans-serif;font-variant-ligatures:normal;font-variant-position:normal;font-variant-caps:normal;font-variant-numeric:normal;font-variant-alternates:normal;font-feature-settings:normal;text-indent:0;text-align:start;text-decoration:none;text-decoration-line:none;text-decoration-style:solid;text-decoration-color:#000000;letter-spacing:0px;word-spacing:0px;text-transform:none;writing-mode:lr-tb;direction:ltr;text-orientation:mixed;dominant-baseline:auto;baseline-shift:baseline;text-anchor:start;white-space:normal;shape-padding:0;opacity:1;vector-effect:none;fill:#000000;fill-opacity:1;stroke:none;stroke-width:1px;stroke-linecap:butt;stroke-linejoin:miter;stroke-miterlimit:4;stroke-dasharray:none;stroke-dashoffset:0;stroke-opacity:1"
     x="10"
     y="522.5196533203"
     id="text2507"><tspan
       sodipodi:role="line"
       id="tspan2505"
       x="10"
       y="522.5196533203">$\phasorName{V_R} = \complexPolDeg{2}{-20} \si{\volt}$</tspan></text>
  <g
     transform="matrix(0.739645,0,0,-0.739645,27.7810584,905.4898813175)"
     ns0:preamble="/home/fernando/.config/inkscape/extensions/textextLib/CircuitSymbolsLatexPreamble.tex"
     ns0:text=" $v=3\\Vpp$"
     word-spacing="normal"
     letter-spacing="normal"
     font-size-adjust="none"
     font-stretch="normal"
     font-weight="normal"
     font-variant="normal"
     font-style="normal"
     stroke-miterlimit="10.433"
     xml:space="preserve"
     id="g2585"
     style="font-style:normal;font-variant:normal;font-weight:normal;font-stretch:normal;letter-spacing:normal;word-spacing:normal;text-anchor:start;fill:#000000;fill-opacity:1;fill-rule:evenodd;stroke:#000000;stroke-linecap:butt;stroke-linejoin:miter;stroke-miterlimit:10.4329996109;stroke-dasharray:none;stroke-dashoffset:0;stroke-opacity:1">
<path
   id="path2571"
   style="fill:#000000;stroke-width:0"
   d="m 228.1,480.93 v 0.02 0.03 0.02 0.03 l -0.01,0.02 v 0.02 0.02 0.02 l -0.01,0.04 -0.01,0.04 v 0.04 l -0.01,0.04 -0.01,0.03 -0.02,0.03 -0.01,0.03 -0.01,0.03 -0.02,0.02 -0.01,0.03 -0.02,0.02 -0.01,0.02 -0.02,0.02 -0.02,0.02 -0.01,0.01 -0.02,0.02 -0.02,0.01 -0.02,0.01 -0.02,0.01 -0.02,0.01 -0.01,0.01 -0.02,0.01 h -0.02 l -0.02,0.01 h -0.02 -0.02 l -0.01,0.01 h -0.02 c -0.25,0 -0.49,-0.26 -0.49,-0.48 0,-0.13 0.05,-0.19 0.16,-0.3 0.21,-0.2 0.34,-0.46 0.34,-0.81 0,-0.42 -0.61,-2.7 -1.77,-2.7 -0.51,0 -0.74,0.35 -0.74,0.87 0,0.56 0.27,1.28 0.58,2.1 0.06,0.17 0.11,0.31 0.11,0.5 0,0.45 -0.31,0.82 -0.81,0.82 -0.94,0 -1.32,-1.45 -1.32,-1.53 0,-0.1 0.1,-0.1 0.12,-0.1 0.1,0 0.11,0.02 0.16,0.17 0.29,1.01 0.72,1.24 1.01,1.24 0.08,0 0.25,0 0.25,-0.32 0,-0.25 -0.1,-0.52 -0.17,-0.7 -0.44,-1.15 -0.57,-1.6 -0.57,-2.03 0,-1.07 0.88,-1.23 1.33,-1.23 1.68,0 2.25,3.28 2.25,3.8 z"
   inkscape:connector-curvature="0" />
<path
   id="path2573"
   style="fill:#000000;stroke-width:0"
   d="m 238.24,480.48 h 0.03 0.02 0.03 l 0.02,0.01 h 0.01 0.02 0.01 0.02 0.01 l 0.01,0.01 h 0.02 0.01 l 0.01,0.01 h 0.01 l 0.02,0.01 h 0.01 l 0.01,0.01 0.01,0.01 0.01,0.01 0.01,0.01 v 0.01 h 0.01 v 0.01 0 l 0.01,0.01 v 0.01 0 l 0.01,0.01 v 0.01 0 0.01 0.01 0.01 0.01 h 0.01 v 0.01 0.01 c 0,0.2 -0.19,0.2 -0.33,0.2 h -5.98 c -0.14,0 -0.33,0 -0.33,-0.2 0,-0.2 0.19,-0.2 0.34,-0.2 z"
   inkscape:connector-curvature="0" />
<path
   id="path2575"
   style="fill:#000000;stroke-width:0"
   d="m 238.25,478.56 h 0.01 0.01 0.03 0.03 0.01 0.02 0.01 0.01 0.02 l 0.01,0.01 h 0.02 0.01 l 0.01,0.01 h 0.01 l 0.02,0.01 h 0.01 l 0.01,0.01 h 0.01 l 0.01,0.01 0.01,0.01 0.01,0.01 v 0 0.01 l 0.01,0.01 v 0 0.01 h 0.01 v 0.01 0.01 h 0.01 v 0.01 0.01 0 0.01 0.01 0.01 l 0.01,0.01 v 0.01 0.01 c 0,0.19 -0.19,0.19 -0.34,0.19 h -5.96 c -0.15,0 -0.34,0 -0.34,-0.19 0,-0.2 0.19,-0.2 0.33,-0.2 z"
   inkscape:connector-curvature="0" />
<path
   id="path2577"
   style="fill:#000000;stroke-width:0"
   d="m 244.8,480.73 0.07,0.03 0.08,0.03 0.07,0.03 0.07,0.03 0.07,0.04 0.07,0.04 0.06,0.04 0.07,0.04 0.06,0.04 0.06,0.05 0.06,0.05 0.06,0.05 0.05,0.05 0.05,0.05 0.05,0.06 0.05,0.05 0.05,0.06 0.04,0.06 0.04,0.06 0.04,0.06 0.03,0.07 0.03,0.06 0.03,0.07 0.03,0.06 0.02,0.07 0.02,0.07 0.02,0.07 0.02,0.07 0.01,0.07 0.01,0.07 v 0.08 0.07 c 0,0.82 -0.87,1.37 -1.83,1.37 -1.01,0 -1.77,-0.59 -1.77,-1.35 0,-0.33 0.22,-0.52 0.51,-0.52 0.31,0 0.51,0.22 0.51,0.51 0,0.5 -0.47,0.5 -0.62,0.5 0.31,0.48 0.97,0.61 1.33,0.61 0.41,0 0.95,-0.22 0.95,-1.11 0,-0.12 -0.01,-0.69 -0.27,-1.13 -0.3,-0.48 -0.64,-0.51 -0.89,-0.52 -0.08,-0.01 -0.32,-0.03 -0.39,-0.03 -0.08,-0.01 -0.15,-0.02 -0.15,-0.12 0,-0.11 0.07,-0.11 0.24,-0.11 h 0.44 c 0.82,0 1.18,-0.67 1.18,-1.65 0,-1.35 -0.68,-1.63 -1.12,-1.63 -0.43,0 -1.18,0.16 -1.53,0.75 0.35,-0.05 0.66,0.17 0.66,0.55 0,0.35 -0.27,0.55 -0.56,0.55 -0.24,0 -0.56,-0.14 -0.56,-0.57 0,-0.91 0.93,-1.56 2.02,-1.56 1.21,0 2.12,0.9 2.12,1.91 0,0.82 -0.63,1.59 -1.66,1.8 z"
   inkscape:connector-curvature="0" />
<path
   id="path2579"
   style="fill:#000000;stroke-width:0"
   d="m 253.08,483.05 0.01,0.03 0.02,0.03 0.01,0.04 0.02,0.03 0.01,0.03 0.02,0.03 0.02,0.03 0.02,0.03 0.02,0.03 0.03,0.03 0.02,0.03 0.02,0.03 0.03,0.02 0.03,0.03 0.03,0.02 0.03,0.02 0.03,0.03 0.04,0.02 0.03,0.02 0.04,0.01 0.04,0.02 0.04,0.02 0.04,0.01 0.05,0.02 0.05,0.01 0.04,0.01 0.06,0.01 0.05,0.01 h 0.05 l 0.06,0.01 h 0.06 0.06 v 0.31 c -0.3,-0.02 -0.7,-0.03 -0.96,-0.03 -0.3,0 -0.88,0.02 -1.14,0.03 v -0.31 c 0.52,-0.01 0.73,-0.27 0.73,-0.5 0,-0.07 -0.03,-0.13 -0.05,-0.19 l -1.83,-4.79 -1.9,5.01 c -0.06,0.14 -0.06,0.16 -0.06,0.18 0,0.29 0.57,0.29 0.82,0.29 v 0.31 c -0.36,-0.03 -1.05,-0.03 -1.43,-0.03 -0.48,0 -0.91,0.02 -1.27,0.03 v -0.31 c 0.65,0 0.84,0 0.98,-0.38 l 2.32,-6.1 c 0.07,-0.18 0.12,-0.21 0.25,-0.21 0.17,0 0.18,0.05 0.23,0.18 z"
   inkscape:connector-curvature="0" />
<path
   id="path2581"
   style="fill:#000000;stroke-width:0"
   d="m 256.3,474.64 h -0.02 -0.02 -0.02 -0.02 -0.02 -0.02 -0.02 -0.01 -0.02 -0.02 -0.01 -0.02 -0.01 l -0.02,0.01 h -0.01 -0.01 -0.02 -0.01 -0.02 -0.03 l -0.02,0.01 h -0.02 l -0.01,0.01 h -0.02 l -0.01,0.01 -0.02,0.01 -0.01,0.01 h -0.01 l -0.01,0.01 -0.01,0.02 -0.01,0.01 v 0.01 l -0.01,0.02 v 0.01 l -0.01,0.02 v 0.02 0.02 0.02 l -0.01,0.03 v 0.02 0.03 1.14 c 0.04,-0.04 0.37,-0.41 0.96,-0.41 l -0.05,0.2 c -0.61,0 -0.89,0.53 -0.91,0.57 v 1.62 c 0.21,0.34 0.62,0.52 0.99,0.52 0.59,0 1.04,-0.61 1.04,-1.34 0,-0.79 -0.52,-1.37 -1.12,-1.37 l 0.05,-0.2 c 0.92,0 1.71,0.69 1.71,1.57 0,0.86 -0.71,1.57 -1.6,1.57 -0.4,0 -0.81,-0.15 -1.09,-0.43 v 0.43 l -1.05,-0.08 v -0.25 c 0.49,0 0.52,-0.03 0.52,-0.33 v -3.21 c 0,-0.3 -0.07,-0.3 -0.52,-0.3 v -0.25 c 0.01,0 0.5,0.03 0.79,0.03 0.26,0 0.75,-0.02 0.81,-0.03 z"
   inkscape:connector-curvature="0" />
<path
   id="path2583"
   style="fill:#000000;stroke-width:0"
   d="m 260.7,474.64 h -0.02 -0.02 -0.02 -0.02 -0.02 -0.02 -0.02 -0.01 -0.02 -0.02 -0.01 -0.02 -0.01 l -0.02,0.01 h -0.01 -0.01 -0.02 -0.01 -0.02 -0.03 l -0.02,0.01 h -0.02 l -0.01,0.01 h -0.02 l -0.01,0.01 -0.02,0.01 -0.01,0.01 h -0.01 l -0.01,0.01 -0.01,0.02 v 0.01 l -0.01,0.01 -0.01,0.02 v 0.01 l -0.01,0.02 v 0.02 0.02 0.02 0.03 0.02 l -0.01,0.03 v 1.14 c 0.04,-0.04 0.37,-0.41 0.96,-0.41 l -0.05,0.2 c -0.61,0 -0.88,0.53 -0.91,0.57 v 1.62 c 0.22,0.34 0.62,0.52 0.99,0.52 0.59,0 1.04,-0.61 1.04,-1.34 0,-0.79 -0.52,-1.37 -1.12,-1.37 l 0.05,-0.2 c 0.92,0 1.71,0.69 1.71,1.57 0,0.86 -0.71,1.57 -1.6,1.57 -0.4,0 -0.81,-0.15 -1.09,-0.43 v 0.43 l -1.05,-0.08 v -0.25 c 0.49,0 0.52,-0.03 0.52,-0.33 v -3.21 c 0,-0.3 -0.07,-0.3 -0.52,-0.3 v -0.25 c 0.01,0 0.5,0.03 0.79,0.03 0.26,0 0.75,-0.02 0.81,-0.03 z"
   inkscape:connector-curvature="0" />
</g>  <g
     transform="matrix(0.739645,0,0,-0.739645,27.7810584,920.8004937293)"
     ns0:preamble="/home/fernando/.config/inkscape/extensions/textextLib/CircuitSymbolsLatexPreamble.tex"
     ns0:text=" $v=2\\Vrms$"
     word-spacing="normal"
     letter-spacing="normal"
     font-size-adjust="none"
     font-stretch="normal"
     font-weight="normal"
     font-variant="normal"
     font-style="normal"
     stroke-miterlimit="10.433"
     xml:space="preserve"
     id="g2923"
     style="font-style:normal;font-variant:normal;font-weight:normal;font-stretch:normal;letter-spacing:normal;word-spacing:normal;text-anchor:start;fill:#000000;fill-opacity:1;fill-rule:evenodd;stroke:#000000;stroke-linecap:butt;stroke-linejoin:miter;stroke-miterlimit:10.4329996109;stroke-dasharray:none;stroke-dashoffset:0;stroke-opacity:1">
<path
   id="path2907"
   style="fill:#000000;stroke-width:0"
   d="m 228.1,480.93 v 0.02 0.03 0.02 0.03 l -0.01,0.02 v 0.02 0.02 0.02 l -0.01,0.04 -0.01,0.04 v 0.04 l -0.01,0.04 -0.01,0.03 -0.02,0.03 -0.01,0.03 -0.01,0.03 -0.02,0.02 -0.01,0.03 -0.02,0.02 -0.01,0.02 -0.02,0.02 -0.02,0.02 -0.01,0.01 -0.02,0.02 -0.02,0.01 -0.02,0.01 -0.02,0.01 -0.02,0.01 -0.01,0.01 -0.02,0.01 h -0.02 l -0.02,0.01 h -0.02 -0.02 l -0.01,0.01 h -0.02 c -0.25,0 -0.49,-0.26 -0.49,-0.48 0,-0.13 0.05,-0.19 0.16,-0.3 0.21,-0.2 0.34,-0.46 0.34,-0.81 0,-0.42 -0.61,-2.7 -1.77,-2.7 -0.51,0 -0.74,0.35 -0.74,0.87 0,0.56 0.27,1.28 0.58,2.1 0.06,0.17 0.11,0.31 0.11,0.5 0,0.45 -0.31,0.82 -0.81,0.82 -0.94,0 -1.32,-1.45 -1.32,-1.53 0,-0.1 0.1,-0.1 0.12,-0.1 0.1,0 0.11,0.02 0.16,0.17 0.29,1.01 0.72,1.24 1.01,1.24 0.08,0 0.25,0 0.25,-0.32 0,-0.25 -0.1,-0.52 -0.17,-0.7 -0.44,-1.15 -0.57,-1.6 -0.57,-2.03 0,-1.07 0.88,-1.23 1.33,-1.23 1.68,0 2.25,3.28 2.25,3.8 z"
   inkscape:connector-curvature="0" />
<path
   id="path2909"
   style="fill:#000000;stroke-width:0"
   d="m 238.24,480.48 h 0.03 0.02 0.03 l 0.02,0.01 h 0.01 0.02 0.01 0.02 0.01 l 0.01,0.01 h 0.02 0.01 l 0.01,0.01 h 0.01 l 0.02,0.01 h 0.01 l 0.01,0.01 0.01,0.01 0.01,0.01 0.01,0.01 v 0.01 h 0.01 v 0.01 0 l 0.01,0.01 v 0.01 0 l 0.01,0.01 v 0.01 0 0.01 0.01 0.01 0.01 h 0.01 v 0.01 0.01 c 0,0.2 -0.19,0.2 -0.33,0.2 h -5.98 c -0.14,0 -0.33,0 -0.33,-0.2 0,-0.2 0.19,-0.2 0.34,-0.2 z"
   inkscape:connector-curvature="0" />
<path
   id="path2911"
   style="fill:#000000;stroke-width:0"
   d="m 238.25,478.56 h 0.01 0.01 0.03 0.03 0.01 0.02 0.01 0.01 0.02 l 0.01,0.01 h 0.02 0.01 l 0.01,0.01 h 0.01 l 0.02,0.01 h 0.01 l 0.01,0.01 h 0.01 l 0.01,0.01 0.01,0.01 0.01,0.01 v 0 0.01 l 0.01,0.01 v 0 0.01 h 0.01 v 0.01 0.01 h 0.01 v 0.01 0.01 0 0.01 0.01 0.01 l 0.01,0.01 v 0.01 0.01 c 0,0.19 -0.19,0.19 -0.34,0.19 h -5.96 c -0.15,0 -0.34,0 -0.34,-0.19 0,-0.2 0.19,-0.2 0.33,-0.2 z"
   inkscape:connector-curvature="0" />
<path
   id="path2913"
   style="fill:#000000;stroke-width:0"
   d="m 243.17,478 1.06,1.02 c 1.55,1.37 2.15,1.91 2.15,2.9 0,1.14 -0.9,1.93 -2.11,1.93 -1.13,0 -1.87,-0.91 -1.87,-1.8 0,-0.55 0.5,-0.55 0.53,-0.55 0.17,0 0.52,0.12 0.52,0.52 0,0.26 -0.18,0.52 -0.53,0.52 -0.08,0 -0.1,0 -0.13,-0.01 0.23,0.64 0.77,1.01 1.35,1.01 0.91,0 1.34,-0.8 1.34,-1.62 0,-0.79 -0.5,-1.58 -1.05,-2.19 l -1.92,-2.13 c -0.11,-0.11 -0.11,-0.13 -0.11,-0.37 h 3.7 l 0.28,1.73 h -0.25 c -0.05,-0.29 -0.12,-0.73 -0.22,-0.88 C 245.84,478 245.18,478 244.97,478 Z"
   inkscape:connector-curvature="0" />
<path
   id="path2915"
   style="fill:#000000;stroke-width:0"
   d="m 253.08,483.05 0.01,0.03 0.02,0.03 0.01,0.04 0.02,0.03 0.01,0.03 0.02,0.03 0.02,0.03 0.02,0.03 0.02,0.03 0.03,0.03 0.02,0.03 0.02,0.03 0.03,0.02 0.03,0.03 0.03,0.02 0.03,0.02 0.03,0.03 0.04,0.02 0.03,0.02 0.04,0.01 0.04,0.02 0.04,0.02 0.04,0.01 0.05,0.02 0.05,0.01 0.04,0.01 0.06,0.01 0.05,0.01 h 0.05 l 0.06,0.01 h 0.06 0.06 v 0.31 c -0.3,-0.02 -0.7,-0.03 -0.96,-0.03 -0.3,0 -0.88,0.02 -1.14,0.03 v -0.31 c 0.52,-0.01 0.73,-0.27 0.73,-0.5 0,-0.07 -0.03,-0.13 -0.05,-0.19 l -1.83,-4.79 -1.9,5.01 c -0.06,0.14 -0.06,0.16 -0.06,0.18 0,0.29 0.57,0.29 0.82,0.29 v 0.31 c -0.36,-0.03 -1.05,-0.03 -1.43,-0.03 -0.48,0 -0.91,0.02 -1.27,0.03 v -0.31 c 0.65,0 0.84,0 0.98,-0.38 l 2.32,-6.1 c 0.07,-0.18 0.12,-0.21 0.25,-0.21 0.17,0 0.18,0.05 0.23,0.18 z"
   inkscape:connector-curvature="0" />
<path
   id="path2917"
   style="fill:#000000;stroke-width:0"
   d="m 255.75,477.33 v 0.05 0.06 0.05 l 0.01,0.06 0.01,0.06 0.01,0.05 0.01,0.06 0.01,0.05 0.01,0.06 0.02,0.05 0.02,0.06 0.02,0.05 0.02,0.05 0.02,0.05 0.03,0.05 0.03,0.05 0.02,0.04 0.04,0.05 0.03,0.04 0.03,0.04 0.04,0.04 0.04,0.03 0.04,0.03 0.05,0.03 0.04,0.03 0.05,0.02 0.05,0.02 0.05,0.02 0.06,0.02 h 0.05 l 0.06,0.01 h 0.06 c -0.06,-0.05 -0.12,-0.14 -0.12,-0.25 0,-0.23 0.19,-0.32 0.32,-0.32 0.17,0 0.32,0.11 0.32,0.32 0,0.24 -0.22,0.45 -0.55,0.45 -0.35,0 -0.74,-0.22 -0.95,-0.75 v 0 0.75 l -1,-0.08 v -0.25 c 0.47,0 0.52,-0.05 0.52,-0.39 v -1.8 c 0,-0.3 -0.07,-0.3 -0.52,-0.3 v -0.25 c 0.03,0 0.51,0.03 0.79,0.03 0.3,0 0.61,-0.01 0.91,-0.03 v 0.25 h -0.14 c -0.51,0 -0.51,0.08 -0.51,0.31 z"
   inkscape:connector-curvature="0" />
<path
   id="path2919"
   style="fill:#000000;stroke-width:0"
   d="m 263.21,477.85 v 0.05 0.06 0.05 l -0.01,0.05 -0.01,0.05 -0.01,0.05 -0.01,0.05 -0.01,0.04 -0.02,0.05 -0.02,0.04 -0.02,0.04 -0.02,0.04 -0.02,0.03 -0.03,0.04 -0.03,0.03 -0.03,0.03 -0.03,0.03 -0.04,0.03 -0.03,0.03 -0.04,0.02 -0.04,0.03 -0.05,0.02 -0.04,0.02 -0.05,0.01 -0.05,0.02 -0.06,0.01 -0.05,0.01 -0.06,0.01 -0.06,0.01 h -0.07 l -0.06,0.01 h -0.07 c -0.56,0 -0.93,-0.3 -1.12,-0.65 -0.14,0.49 -0.52,0.65 -1.03,0.65 -0.57,0 -0.94,-0.32 -1.14,-0.68 h -0.01 v 0.68 l -1.02,-0.08 v -0.25 c 0.46,0 0.52,-0.05 0.52,-0.39 v -1.8 c 0,-0.3 -0.07,-0.3 -0.52,-0.3 v -0.25 c 0.01,0 0.5,0.03 0.79,0.03 0.26,0 0.74,-0.02 0.81,-0.03 v 0.25 c -0.46,0 -0.53,0 -0.53,0.3 v 1.25 c 0,0.73 0.58,1.07 1.04,1.07 0.49,0 0.56,-0.38 0.56,-0.73 v -1.59 c 0,-0.3 -0.07,-0.3 -0.53,-0.3 v -0.25 c 0.02,0 0.51,0.03 0.8,0.03 0.26,0 0.74,-0.02 0.8,-0.03 v 0.25 c -0.45,0 -0.52,0 -0.52,0.3 v 1.25 c 0,0.73 0.58,1.07 1.04,1.07 0.49,0 0.55,-0.38 0.55,-0.73 v -1.59 c 0,-0.3 -0.07,-0.3 -0.52,-0.3 v -0.25 c 0.01,0 0.5,0.03 0.8,0.03 0.25,0 0.74,-0.02 0.8,-0.03 v 0.25 c -0.45,0 -0.53,0 -0.53,0.3 z"
   inkscape:connector-curvature="0" />
<path
   id="path2921"
   style="fill:#000000;stroke-width:0"
   d="m 266.66,478.66 v 0.01 0.01 0.01 0.01 0.01 0.01 0.01 0.01 0.01 0.01 0 0.01 0.01 h -0.01 v 0.01 0.01 0 0.01 h -0.01 v 0.01 0 h -0.01 v 0.01 h -0.01 v 0 l -0.01,0.01 h -0.01 v 0 0 h -0.01 v 0 0 h -0.01 v 0 h -0.01 v 0 0 c -0.04,0 -0.05,0 -0.15,-0.08 -0.01,-0.01 -0.08,-0.07 -0.12,-0.11 -0.21,0.15 -0.48,0.19 -0.73,0.19 -1,0 -1.24,-0.52 -1.24,-0.87 0,-0.22 0.09,-0.4 0.26,-0.54 0.27,-0.23 0.53,-0.28 0.97,-0.35 0.35,-0.06 0.91,-0.16 0.91,-0.62 0,-0.27 -0.18,-0.59 -0.86,-0.59 -0.67,0 -0.91,0.43 -1.04,0.91 -0.02,0.09 -0.03,0.11 -0.12,0.11 -0.12,0 -0.12,-0.04 -0.12,-0.18 v -0.86 c 0,-0.12 0,-0.18 0.09,-0.18 0.07,0 0.2,0.15 0.34,0.3 0.31,-0.29 0.69,-0.3 0.85,-0.3 0.91,0 1.25,0.49 1.25,0.98 0,0.27 -0.12,0.47 -0.3,0.64 -0.27,0.25 -0.59,0.3 -0.83,0.34 -0.56,0.1 -1.02,0.18 -1.02,0.55 0,0.22 0.19,0.49 0.86,0.49 0.81,0 0.84,-0.56 0.85,-0.76 0.01,-0.08 0.1,-0.08 0.12,-0.08 0.12,0 0.12,0.05 0.12,0.19 z"
   inkscape:connector-curvature="0" />
</g>  <g
     style="font-style:normal;font-variant:normal;font-weight:normal;font-stretch:normal;letter-spacing:normal;word-spacing:normal;text-anchor:start;fill:#000000;fill-opacity:1;fill-rule:evenodd;stroke:#000000;stroke-linecap:butt;stroke-linejoin:miter;stroke-miterlimit:10.4329996109;stroke-dasharray:none;stroke-dashoffset:0;stroke-opacity:1"
     id="g3116"
     xml:space="preserve"
     stroke-miterlimit="10.433"
     font-style="normal"
     font-variant="normal"
     font-weight="normal"
     font-stretch="normal"
     font-size-adjust="none"
     letter-spacing="normal"
     word-spacing="normal"
     ns0:text=" $i=2\\Arms$"
     ns0:preamble="/home/fernando/.config/inkscape/extensions/textextLib/CircuitSymbolsLatexPreamble.tex"
     transform="matrix(0.739645,0,0,-0.739645,27.7810584,951.0852955598)">
<path
   inkscape:connector-curvature="0"
   d="m 226.26,483.44 v 0.02 0.02 0.02 0.02 l -0.01,0.01 v 0.02 l -0.01,0.02 v 0.01 l -0.01,0.02 -0.01,0.01 v 0.02 l -0.01,0.01 -0.01,0.02 -0.01,0.01 -0.01,0.01 -0.01,0.02 -0.02,0.01 -0.01,0.01 -0.01,0.01 -0.02,0.01 -0.01,0.01 -0.02,0.01 -0.01,0.01 h -0.02 l -0.02,0.01 -0.02,0.01 H 226 225.98 l -0.02,0.01 h -0.02 -0.02 -0.02 c -0.27,0 -0.54,-0.26 -0.54,-0.53 0,-0.18 0.14,-0.35 0.38,-0.35 0.22,0 0.52,0.23 0.52,0.52 z"
   style="fill:#000000;stroke-width:0"
   id="path3098" />
<path
   inkscape:connector-curvature="0"
   d="m 225.51,479.71 0.01,0.02 0.01,0.03 0.01,0.02 0.01,0.02 v 0.03 l 0.01,0.02 0.01,0.01 0.01,0.02 v 0.02 l 0.01,0.02 0.01,0.01 v 0.02 l 0.01,0.01 v 0.02 l 0.01,0.02 0.01,0.03 0.01,0.03 0.01,0.02 v 0.01 l 0.01,0.02 0.01,0.01 v 0.02 l 0.01,0.02 0.01,0.02 v 0.01 l 0.01,0.03 0.01,0.02 0.01,0.02 0.01,0.03 c 0.07,0.19 0.12,0.33 0.12,0.52 0,0.45 -0.31,0.82 -0.81,0.82 -0.94,0 -1.32,-1.45 -1.32,-1.53 0,-0.1 0.1,-0.1 0.12,-0.1 0.1,0 0.11,0.02 0.16,0.17 0.27,0.94 0.67,1.24 1.01,1.24 0.08,0 0.25,0 0.25,-0.32 0,-0.21 -0.07,-0.42 -0.11,-0.52 -0.08,-0.26 -0.53,-1.41 -0.69,-1.84 -0.1,-0.25 -0.23,-0.58 -0.23,-0.79 0,-0.47 0.34,-0.81 0.82,-0.81 0.94,0 1.3,1.44 1.3,1.53 0,0.1 -0.09,0.1 -0.12,0.1 -0.1,0 -0.1,-0.03 -0.14,-0.18 -0.19,-0.63 -0.51,-1.24 -1.02,-1.24 -0.17,0 -0.24,0.1 -0.24,0.33 0,0.25 0.06,0.39 0.29,1 z"
   style="fill:#000000;stroke-width:0"
   id="path3100" />
<path
   inkscape:connector-curvature="0"
   d="m 236.48,480.48 h 0.03 0.03 0.03 l 0.01,0.01 h 0.02 0.01 0.02 0.01 0.02 l 0.01,0.01 h 0.01 0.02 l 0.01,0.01 h 0.01 l 0.01,0.01 h 0.01 l 0.01,0.01 0.01,0.01 0.01,0.01 0.01,0.01 0.01,0.01 v 0 l 0.01,0.01 v 0 0.01 l 0.01,0.01 v 0 0.01 0.01 h 0.01 v 0.01 0.01 0.01 0.01 0 0.01 0.01 c 0,0.2 -0.19,0.2 -0.33,0.2 h -5.97 c -0.14,0 -0.33,0 -0.33,-0.2 0,-0.2 0.19,-0.2 0.34,-0.2 z"
   style="fill:#000000;stroke-width:0"
   id="path3102" />
<path
   inkscape:connector-curvature="0"
   d="m 236.49,478.56 h 0.02 0.01 0.03 0.02 0.02 0.01 0.02 0.01 0.01 l 0.02,0.01 h 0.01 0.01 l 0.02,0.01 h 0.01 l 0.01,0.01 h 0.01 l 0.01,0.01 h 0.01 l 0.01,0.01 0.01,0.01 0.01,0.01 h 0.01 v 0.01 0.01 h 0.01 v 0.01 0 l 0.01,0.01 v 0.01 0 0.01 l 0.01,0.01 v 0 0.01 0.01 0.01 0.01 0.01 0.01 c 0,0.19 -0.19,0.19 -0.34,0.19 h -5.95 c -0.15,0 -0.34,0 -0.34,-0.19 0,-0.2 0.19,-0.2 0.33,-0.2 z"
   style="fill:#000000;stroke-width:0"
   id="path3104" />
<path
   inkscape:connector-curvature="0"
   d="m 241.42,478 1.05,1.02 c 1.56,1.37 2.16,1.91 2.16,2.9 0,1.14 -0.9,1.93 -2.12,1.93 -1.12,0 -1.86,-0.91 -1.86,-1.8 0,-0.55 0.5,-0.55 0.53,-0.55 0.17,0 0.52,0.12 0.52,0.52 0,0.26 -0.18,0.52 -0.53,0.52 -0.08,0 -0.1,0 -0.13,-0.01 0.23,0.64 0.77,1.01 1.34,1.01 0.91,0 1.34,-0.8 1.34,-1.62 0,-0.79 -0.5,-1.58 -1.05,-2.19 l -1.91,-2.13 c -0.11,-0.11 -0.11,-0.13 -0.11,-0.37 h 3.7 l 0.28,1.73 h -0.25 c -0.05,-0.29 -0.12,-0.73 -0.22,-0.88 C 244.09,478 243.43,478 243.21,478 Z"
   style="fill:#000000;stroke-width:0"
   id="path3106" />
<path
   inkscape:connector-curvature="0"
   d="m 249.1,484.15 v 0.01 l -0.01,0.01 v 0.01 l -0.01,0.01 v 0.02 l -0.01,0.01 v 0.01 0 l -0.01,0.01 v 0.01 l -0.01,0.01 v 0.01 l -0.01,0.01 v 0 l -0.01,0.01 v 0.01 h -0.01 l -0.01,0.01 v 0 l -0.01,0.01 h -0.01 v 0.01 h -0.01 l -0.01,0.01 h -0.01 -0.01 -0.01 -0.02 l -0.01,0.01 h -0.01 -0.01 -0.01 -0.01 c -0.16,0 -0.19,-0.06 -0.24,-0.2 l -2.06,-5.94 c -0.18,-0.51 -0.58,-0.66 -1.12,-0.67 v -0.31 c 0.23,0.01 0.66,0.04 1.02,0.04 0.31,0 0.83,-0.03 1.15,-0.04 v 0.31 c -0.5,0 -0.75,0.25 -0.75,0.51 0,0.03 0.01,0.13 0.02,0.15 l 0.46,1.3 0.11,0.31 1.11,3.23 1.13,-3.23 h -2.24 l -0.11,-0.31 h 2.46 l 0.53,-1.52 c 0.01,-0.04 0.03,-0.1 0.03,-0.14 0,-0.3 -0.56,-0.3 -0.83,-0.3 v -0.31 c 0.36,0.04 1.06,0.04 1.44,0.04 0.42,0 0.88,-0.01 1.3,-0.04 v 0.31 h -0.18 c -0.6,0 -0.74,0.07 -0.84,0.4 z"
   style="fill:#000000;stroke-width:0"
   id="path3108" />
<path
   inkscape:connector-curvature="0"
   d="m 253.99,477.33 v 0.05 l 0.01,0.06 v 0.05 l 0.01,0.06 v 0.06 l 0.01,0.05 0.01,0.06 0.02,0.05 0.01,0.06 0.02,0.05 0.01,0.06 0.02,0.05 0.03,0.05 0.02,0.05 0.02,0.05 0.03,0.05 0.03,0.04 0.03,0.05 0.04,0.04 0.03,0.04 0.04,0.04 0.04,0.03 0.04,0.03 0.04,0.03 0.05,0.03 0.05,0.02 0.05,0.02 0.05,0.02 0.05,0.02 h 0.06 l 0.06,0.01 h 0.06 c -0.06,-0.05 -0.12,-0.14 -0.12,-0.25 0,-0.23 0.18,-0.32 0.31,-0.32 0.17,0 0.33,0.11 0.33,0.32 0,0.24 -0.23,0.45 -0.56,0.45 -0.35,0 -0.73,-0.22 -0.94,-0.75 h -0.01 v 0.75 l -1,-0.08 v -0.25 c 0.47,0 0.53,-0.05 0.53,-0.39 v -1.8 c 0,-0.3 -0.07,-0.3 -0.53,-0.3 v -0.25 c 0.04,0 0.51,0.03 0.8,0.03 0.3,0 0.61,-0.01 0.91,-0.03 v 0.25 h -0.14 c -0.52,0 -0.52,0.08 -0.52,0.31 z"
   style="fill:#000000;stroke-width:0"
   id="path3110" />
<path
   inkscape:connector-curvature="0"
   d="m 261.46,477.85 v 0.05 0.06 l -0.01,0.05 v 0.05 l -0.01,0.05 -0.01,0.05 -0.01,0.05 -0.02,0.04 -0.01,0.05 -0.02,0.04 -0.02,0.04 -0.02,0.04 -0.03,0.03 -0.02,0.04 -0.03,0.03 -0.03,0.03 -0.04,0.03 -0.03,0.03 -0.04,0.03 -0.04,0.02 -0.04,0.03 -0.04,0.02 -0.05,0.02 -0.05,0.01 -0.05,0.02 -0.05,0.01 -0.06,0.01 -0.06,0.01 -0.06,0.01 h -0.06 l -0.07,0.01 h -0.07 c -0.55,0 -0.93,-0.3 -1.12,-0.65 -0.14,0.49 -0.51,0.65 -1.02,0.65 -0.58,0 -0.95,-0.32 -1.14,-0.68 h -0.01 v 0.68 l -1.03,-0.08 v -0.25 c 0.47,0 0.53,-0.05 0.53,-0.39 v -1.8 c 0,-0.3 -0.07,-0.3 -0.53,-0.3 v -0.25 c 0.02,0 0.51,0.03 0.8,0.03 0.26,0 0.74,-0.02 0.8,-0.03 v 0.25 c -0.45,0 -0.52,0 -0.52,0.3 v 1.25 c 0,0.73 0.58,1.07 1.04,1.07 0.49,0 0.55,-0.38 0.55,-0.73 v -1.59 c 0,-0.3 -0.07,-0.3 -0.52,-0.3 v -0.25 c 0.01,0 0.5,0.03 0.8,0.03 0.25,0 0.74,-0.02 0.8,-0.03 v 0.25 c -0.45,0 -0.52,0 -0.52,0.3 v 1.25 c 0,0.73 0.57,1.07 1.04,1.07 0.49,0 0.55,-0.38 0.55,-0.73 v -1.59 c 0,-0.3 -0.07,-0.3 -0.52,-0.3 v -0.25 c 0.01,0 0.5,0.03 0.79,0.03 0.26,0 0.74,-0.02 0.81,-0.03 v 0.25 c -0.46,0 -0.53,0 -0.53,0.3 z"
   style="fill:#000000;stroke-width:0"
   id="path3112" />
<path
   inkscape:connector-curvature="0"
   d="m 264.91,478.66 v 0.01 0.01 0.01 0.01 0.01 0.01 0.01 0.01 0.01 0.01 0 l -0.01,0.01 v 0.01 0 0.01 0.01 h -0.01 v 0.01 0 0.01 h -0.01 v 0 l -0.01,0.01 v 0 h -0.01 v 0.01 h -0.01 v 0 h -0.01 v 0 0 h -0.01 v 0 h -0.01 v 0 0 h -0.01 c -0.03,0 -0.05,0 -0.14,-0.08 -0.01,-0.01 -0.08,-0.07 -0.12,-0.11 -0.21,0.15 -0.48,0.19 -0.74,0.19 -1,0 -1.24,-0.52 -1.24,-0.87 0,-0.22 0.1,-0.4 0.27,-0.54 0.27,-0.23 0.53,-0.28 0.96,-0.35 0.35,-0.06 0.92,-0.16 0.92,-0.62 0,-0.27 -0.19,-0.59 -0.86,-0.59 -0.67,0 -0.92,0.43 -1.04,0.91 -0.02,0.09 -0.03,0.11 -0.13,0.11 -0.12,0 -0.12,-0.04 -0.12,-0.18 v -0.86 c 0,-0.12 0,-0.18 0.1,-0.18 0.06,0 0.2,0.15 0.34,0.3 0.31,-0.29 0.68,-0.3 0.85,-0.3 0.91,0 1.25,0.49 1.25,0.98 0,0.27 -0.12,0.47 -0.31,0.64 -0.26,0.25 -0.58,0.3 -0.83,0.34 -0.56,0.1 -1.01,0.18 -1.01,0.55 0,0.22 0.19,0.49 0.85,0.49 0.81,0 0.85,-0.56 0.86,-0.76 0.01,-0.08 0.09,-0.08 0.12,-0.08 0.12,0 0.12,0.05 0.12,0.19 z"
   style="fill:#000000;stroke-width:0"
   id="path3114" />
</g>  <g
     transform="matrix(0.739645,0,0,-0.739645,27.7810584,935.6119227264)"
     ns0:preamble="/home/fernando/.config/inkscape/extensions/textextLib/CircuitSymbolsLatexPreamble.tex"
     ns0:text=" $i=4\\App$"
     word-spacing="normal"
     letter-spacing="normal"
     font-size-adjust="none"
     font-stretch="normal"
     font-weight="normal"
     font-variant="normal"
     font-style="normal"
     stroke-miterlimit="10.433"
     xml:space="preserve"
     id="g3320"
     style="font-style:normal;font-variant:normal;font-weight:normal;font-stretch:normal;letter-spacing:normal;word-spacing:normal;text-anchor:start;fill:#000000;fill-opacity:1;fill-rule:evenodd;stroke:#000000;stroke-linecap:butt;stroke-linejoin:miter;stroke-miterlimit:10.4329996109;stroke-dasharray:none;stroke-dashoffset:0;stroke-opacity:1">
<path
   id="path3304"
   style="fill:#000000;stroke-width:0"
   d="m 226.26,483.44 v 0.02 0.02 0.02 0.02 l -0.01,0.01 v 0.02 l -0.01,0.02 v 0.01 l -0.01,0.02 -0.01,0.01 v 0.02 l -0.01,0.01 -0.01,0.02 -0.01,0.01 -0.01,0.01 -0.01,0.02 -0.02,0.01 -0.01,0.01 -0.01,0.01 -0.02,0.01 -0.01,0.01 -0.02,0.01 -0.01,0.01 h -0.02 l -0.02,0.01 -0.02,0.01 H 226 225.98 l -0.02,0.01 h -0.02 -0.02 -0.02 c -0.27,0 -0.54,-0.26 -0.54,-0.53 0,-0.18 0.14,-0.35 0.38,-0.35 0.22,0 0.52,0.23 0.52,0.52 z"
   inkscape:connector-curvature="0" />
<path
   id="path3306"
   style="fill:#000000;stroke-width:0"
   d="m 225.51,479.71 0.01,0.02 0.01,0.03 0.01,0.02 0.01,0.02 v 0.03 l 0.01,0.02 0.01,0.01 0.01,0.02 v 0.02 l 0.01,0.02 0.01,0.01 v 0.02 l 0.01,0.01 v 0.02 l 0.01,0.02 0.01,0.03 0.01,0.03 0.01,0.02 v 0.01 l 0.01,0.02 0.01,0.01 v 0.02 l 0.01,0.02 0.01,0.02 v 0.01 l 0.01,0.03 0.01,0.02 0.01,0.02 0.01,0.03 c 0.07,0.19 0.12,0.33 0.12,0.52 0,0.45 -0.31,0.82 -0.81,0.82 -0.94,0 -1.32,-1.45 -1.32,-1.53 0,-0.1 0.1,-0.1 0.12,-0.1 0.1,0 0.11,0.02 0.16,0.17 0.27,0.94 0.67,1.24 1.01,1.24 0.08,0 0.25,0 0.25,-0.32 0,-0.21 -0.07,-0.42 -0.11,-0.52 -0.08,-0.26 -0.53,-1.41 -0.69,-1.84 -0.1,-0.25 -0.23,-0.58 -0.23,-0.79 0,-0.47 0.34,-0.81 0.82,-0.81 0.94,0 1.3,1.44 1.3,1.53 0,0.1 -0.09,0.1 -0.12,0.1 -0.1,0 -0.1,-0.03 -0.14,-0.18 -0.19,-0.63 -0.51,-1.24 -1.02,-1.24 -0.17,0 -0.24,0.1 -0.24,0.33 0,0.25 0.06,0.39 0.29,1 z"
   inkscape:connector-curvature="0" />
<path
   id="path3308"
   style="fill:#000000;stroke-width:0"
   d="m 236.48,480.48 h 0.03 0.03 0.03 l 0.01,0.01 h 0.02 0.01 0.02 0.01 0.02 l 0.01,0.01 h 0.01 0.02 l 0.01,0.01 h 0.01 l 0.01,0.01 h 0.01 l 0.01,0.01 0.01,0.01 0.01,0.01 0.01,0.01 0.01,0.01 v 0 l 0.01,0.01 v 0 0.01 l 0.01,0.01 v 0 0.01 0.01 h 0.01 v 0.01 0.01 0.01 0.01 0 0.01 0.01 c 0,0.2 -0.19,0.2 -0.33,0.2 h -5.97 c -0.14,0 -0.33,0 -0.33,-0.2 0,-0.2 0.19,-0.2 0.34,-0.2 z"
   inkscape:connector-curvature="0" />
<path
   id="path3310"
   style="fill:#000000;stroke-width:0"
   d="m 236.49,478.56 h 0.02 0.01 0.03 0.02 0.02 0.01 0.02 0.01 0.01 l 0.02,0.01 h 0.01 0.01 l 0.02,0.01 h 0.01 l 0.01,0.01 h 0.01 l 0.01,0.01 h 0.01 l 0.01,0.01 0.01,0.01 0.01,0.01 h 0.01 v 0.01 0.01 h 0.01 v 0.01 0 l 0.01,0.01 v 0.01 0 0.01 l 0.01,0.01 v 0 0.01 0.01 0.01 0.01 0.01 0.01 c 0,0.19 -0.19,0.19 -0.34,0.19 h -5.95 c -0.15,0 -0.34,0 -0.34,-0.19 0,-0.2 0.19,-0.2 0.33,-0.2 z"
   inkscape:connector-curvature="0" />
<path
   id="path3312"
   style="fill:#000000;stroke-width:0"
   d="m 243.08,478.87 v -0.86 c 0,-0.36 -0.02,-0.47 -0.76,-0.47 h -0.2 v -0.31 c 0.4,0.04 0.92,0.04 1.34,0.04 0.42,0 0.95,0 1.36,-0.04 v 0.31 h -0.21 c -0.74,0 -0.76,0.11 -0.76,0.47 v 0.86 h 1 v 0.31 h -1 v 4.52 c 0,0.2 0,0.26 -0.16,0.26 -0.09,0 -0.12,0 -0.2,-0.12 l -3.06,-4.66 h 0.28 l 2.43,3.71 v -3.71 h -2.43 -0.28 v -0.31 z"
   inkscape:connector-curvature="0" />
<path
   id="path3314"
   style="fill:#000000;stroke-width:0"
   d="m 249.1,484.15 v 0.01 l -0.01,0.01 v 0.01 l -0.01,0.01 v 0.02 l -0.01,0.01 v 0.01 0 l -0.01,0.01 v 0.01 l -0.01,0.01 v 0.01 l -0.01,0.01 v 0 l -0.01,0.01 v 0.01 h -0.01 l -0.01,0.01 v 0 l -0.01,0.01 h -0.01 v 0.01 h -0.01 l -0.01,0.01 h -0.01 -0.01 -0.01 -0.02 l -0.01,0.01 h -0.01 -0.01 -0.01 -0.01 c -0.16,0 -0.19,-0.06 -0.24,-0.2 l -2.06,-5.94 c -0.18,-0.51 -0.58,-0.66 -1.12,-0.67 v -0.31 c 0.23,0.01 0.66,0.04 1.02,0.04 0.31,0 0.83,-0.03 1.15,-0.04 v 0.31 c -0.5,0 -0.75,0.25 -0.75,0.51 0,0.03 0.01,0.13 0.02,0.15 l 0.46,1.3 0.11,0.31 1.11,3.23 1.13,-3.23 h -2.24 l -0.11,-0.31 h 2.46 l 0.53,-1.52 c 0.01,-0.04 0.03,-0.1 0.03,-0.14 0,-0.3 -0.56,-0.3 -0.83,-0.3 v -0.31 c 0.36,0.04 1.06,0.04 1.44,0.04 0.42,0 0.88,-0.01 1.3,-0.04 v 0.31 h -0.18 c -0.6,0 -0.74,0.07 -0.84,0.4 z"
   inkscape:connector-curvature="0" />
<path
   id="path3316"
   style="fill:#000000;stroke-width:0"
   d="m 254.54,474.64 h -0.02 -0.02 -0.02 -0.02 -0.01 -0.02 -0.02 -0.02 -0.01 -0.02 -0.02 -0.01 -0.02 l -0.01,0.01 h -0.02 -0.01 -0.01 -0.01 -0.03 -0.02 l -0.02,0.01 h -0.02 l -0.02,0.01 h -0.01 l -0.02,0.01 -0.01,0.01 -0.01,0.01 h -0.01 l -0.01,0.01 -0.01,0.02 -0.01,0.01 -0.01,0.01 v 0.02 l -0.01,0.01 v 0.02 0.02 l -0.01,0.02 v 0.02 0.03 0.02 0.03 1.14 c 0.03,-0.04 0.36,-0.41 0.95,-0.41 l -0.04,0.2 c -0.62,0 -0.89,0.53 -0.91,0.57 v 1.62 c 0.21,0.34 0.62,0.52 0.99,0.52 0.58,0 1.04,-0.61 1.04,-1.34 0,-0.79 -0.53,-1.37 -1.12,-1.37 l 0.04,-0.2 c 0.92,0 1.71,0.69 1.71,1.57 0,0.86 -0.71,1.57 -1.6,1.57 -0.4,0 -0.8,-0.15 -1.09,-0.43 v 0.43 l -1.05,-0.08 v -0.25 c 0.49,0 0.53,-0.03 0.53,-0.33 v -3.21 c 0,-0.3 -0.07,-0.3 -0.53,-0.3 v -0.25 c 0.02,0 0.51,0.03 0.8,0.03 0.26,0 0.74,-0.02 0.8,-0.03 z"
   inkscape:connector-curvature="0" />
<path
   id="path3318"
   style="fill:#000000;stroke-width:0"
   d="m 258.95,474.64 h -0.03 -0.02 -0.02 -0.02 -0.01 -0.02 -0.02 -0.02 -0.01 -0.02 -0.02 -0.01 -0.02 l -0.01,0.01 h -0.01 -0.02 -0.01 -0.01 -0.03 -0.02 l -0.02,0.01 h -0.02 l -0.02,0.01 h -0.01 l -0.02,0.01 -0.01,0.01 -0.01,0.01 h -0.01 l -0.01,0.01 -0.01,0.02 -0.01,0.01 -0.01,0.01 v 0.02 l -0.01,0.01 v 0.02 0.02 l -0.01,0.02 v 0.02 0.03 0.02 0.03 1.14 c 0.04,-0.04 0.36,-0.41 0.95,-0.41 l -0.04,0.2 c -0.62,0 -0.89,0.53 -0.91,0.57 v 1.62 c 0.21,0.34 0.62,0.52 0.99,0.52 0.58,0 1.04,-0.61 1.04,-1.34 0,-0.79 -0.53,-1.37 -1.12,-1.37 l 0.04,-0.2 c 0.93,0 1.71,0.69 1.71,1.57 0,0.86 -0.71,1.57 -1.6,1.57 -0.4,0 -0.8,-0.15 -1.09,-0.43 v 0.43 l -1.05,-0.08 v -0.25 c 0.49,0 0.53,-0.03 0.53,-0.33 v -3.21 c 0,-0.3 -0.07,-0.3 -0.53,-0.3 v -0.25 c 0.02,0 0.51,0.03 0.8,0.03 0.26,0 0.74,-0.02 0.81,-0.03 z"
   inkscape:connector-curvature="0" />
</g>  <g
     transform="matrix(0.739645,0,0,-0.739645,27.49259685,860.874750987)"
     ns0:preamble="/home/fernando/.config/inkscape/extensions/textextLib/CircuitSymbolsLatexPreamble.tex"
     ns0:text=" $\\impedance{Z_L}=Lj\\omega$"
     word-spacing="normal"
     letter-spacing="normal"
     font-size-adjust="none"
     font-stretch="normal"
     font-weight="normal"
     font-variant="normal"
     font-style="normal"
     stroke-miterlimit="10.433"
     xml:space="preserve"
     id="content"
     style="font-style:normal;font-variant:normal;font-weight:normal;font-stretch:normal;letter-spacing:normal;word-spacing:normal;text-anchor:start;fill:#000000;fill-opacity:1;fill-rule:evenodd;stroke:#000000;stroke-linecap:butt;stroke-linejoin:miter;stroke-miterlimit:10.4329996109;stroke-dasharray:none;stroke-dashoffset:0;stroke-opacity:1">
<path
   id="path3784"
   style="fill:#000000;stroke-width:0"
   d="m 231.31,483.57 0.01,0.02 0.02,0.02 0.01,0.02 0.02,0.01 0.01,0.02 0.01,0.02 0.01,0.02 0.01,0.01 v 0.01 l 0.01,0.01 v 0.01 l 0.01,0.01 v 0.02 l 0.01,0.01 v 0.01 0.01 l 0.01,0.01 v 0.01 0.02 0.01 l 0.01,0.01 v 0.01 0.02 0.01 0.01 c 0,0.14 -0.11,0.14 -0.29,0.14 h -4.82 c -0.25,0 -0.3,0 -0.36,-0.24 l -0.55,-1.78 c -0.05,-0.15 -0.05,-0.18 -0.05,-0.2 0,-0.16 0.17,-0.17 0.23,-0.17 0.14,0 0.18,0.02 0.23,0.16 0.45,1.27 1.2,1.76 2.58,1.76 h 1.33 l -5.47,-5.83 c -0.08,-0.08 -0.18,-0.19 -0.18,-0.38 0,-0.14 0.1,-0.14 0.3,-0.14 h 4.99 c 0.25,0 0.28,0 0.35,0.23 l 0.74,2.28 c 0.03,0.11 0.03,0.13 0.03,0.14 0,0.15 -0.13,0.18 -0.23,0.18 -0.07,0 -0.18,0 -0.23,-0.13 -0.43,-1.26 -0.89,-2.19 -2.79,-2.19 h -1.43 z"
   inkscape:connector-curvature="0" />
<path
   id="path3786"
   style="fill:#000000;stroke-width:0"
   d="m 234.41,479.99 v 0 0.01 0 0.01 0 h 0.01 v 0.01 0 0 0.01 0 0 0.01 0 0 h 0.01 v 0.01 0 0 0 0 0.01 0 0 0.01 h 0.01 v 0 0.01 0 0 0 0 0 0.01 0 h 0.01 v 0 0 0 0 0 c 0.01,0 0.1,0.03 0.46,0.03 h 0.23 c 0.13,0 0.17,0 0.21,0.04 0.04,0.04 0.08,0.14 0.08,0.2 0,0.02 -0.02,0.15 -0.18,0.15 -0.18,0 -0.39,-0.02 -0.59,-0.02 -0.19,0 -0.45,-0.01 -0.64,-0.01 -0.17,0 -0.36,0.01 -0.53,0.01 -0.19,0 -0.39,0.02 -0.57,0.02 -0.08,0 -0.12,-0.01 -0.17,-0.05 -0.03,-0.05 -0.05,-0.17 -0.05,-0.19 0,-0.15 0.13,-0.15 0.32,-0.15 0.1,0 0.22,0 0.31,-0.01 0.04,0 0.06,0 0.06,-0.02 l -0.96,-3.83 c -0.03,-0.1 -0.03,-0.11 -0.16,-0.12 -0.1,-0.01 -0.23,-0.01 -0.33,-0.01 -0.22,0 -0.34,0 -0.34,-0.24 0,-0.15 0.14,-0.15 0.26,-0.15 h 3.84 c 0.15,0 0.2,0 0.25,0.11 0.08,0.18 0.26,0.64 0.33,0.82 0.04,0.1 0.14,0.35 0.18,0.45 0.05,0.11 0.13,0.31 0.13,0.34 0,0.15 -0.17,0.15 -0.22,0.15 -0.15,0 -0.17,-0.01 -0.24,-0.15 -0.24,-0.55 -0.62,-1.33 -1.85,-1.33 h -0.84 z"
   inkscape:connector-curvature="0" />
<path
   id="path3788"
   style="fill:#000000;stroke-width:0"
   d="m 247.19,480.48 h 0.03 0.03 0.03 l 0.01,0.01 h 0.02 0.01 0.01 0.02 0.01 l 0.02,0.01 h 0.01 0.01 l 0.02,0.01 h 0.01 l 0.01,0.01 h 0.01 l 0.01,0.01 0.01,0.01 0.01,0.01 0.01,0.01 0.01,0.01 v 0 0.01 h 0.01 v 0.01 0.01 h 0.01 v 0.01 0.01 0 0.01 l 0.01,0.01 v 0.01 0.01 0 0.01 0.01 c 0,0.2 -0.19,0.2 -0.33,0.2 h -5.97 c -0.14,0 -0.33,0 -0.33,-0.2 0,-0.2 0.19,-0.2 0.34,-0.2 z"
   inkscape:connector-curvature="0" />
<path
   id="path3790"
   style="fill:#000000;stroke-width:0"
   d="m 247.2,478.56 h 0.01 0.02 0.02 0.03 0.02 0.01 0.01 0.02 0.01 l 0.02,0.01 h 0.01 0.01 l 0.01,0.01 h 0.02 l 0.01,0.01 h 0.01 l 0.01,0.01 h 0.01 l 0.01,0.01 0.01,0.01 0.01,0.01 v 0 l 0.01,0.01 v 0.01 0 l 0.01,0.01 v 0 0.01 l 0.01,0.01 v 0 0.01 0.01 0 l 0.01,0.01 v 0.01 0.01 0.01 0.01 0.01 c 0,0.19 -0.19,0.19 -0.34,0.19 h -5.95 c -0.15,0 -0.34,0 -0.34,-0.19 0,-0.2 0.19,-0.2 0.33,-0.2 z"
   inkscape:connector-curvature="0" />
<path
   id="path3792"
   style="fill:#000000;stroke-width:0"
   d="m 254.59,483.24 v 0.04 l 0.01,0.03 0.01,0.03 0.01,0.03 0.01,0.03 0.01,0.02 0.01,0.03 0.01,0.02 0.01,0.02 0.01,0.02 0.02,0.02 0.01,0.02 0.02,0.02 0.02,0.01 0.02,0.02 0.03,0.01 0.02,0.02 0.03,0.01 0.03,0.01 0.04,0.01 h 0.02 l 0.02,0.01 h 0.02 l 0.02,0.01 h 0.02 0.02 l 0.03,0.01 h 0.02 0.03 0.03 l 0.02,0.01 h 0.03 0.03 0.04 l 0.03,0.01 h 0.03 0.04 0.03 0.04 0.04 0.04 0.04 0.04 0.04 c 0.3,0 0.38,0 0.38,0.19 0,0.12 -0.11,0.12 -0.16,0.12 -0.33,0 -1.15,-0.03 -1.48,-0.03 -0.29,0 -1.02,0.03 -1.32,0.03 -0.07,0 -0.19,0 -0.19,-0.2 0,-0.11 0.09,-0.11 0.28,-0.11 0.02,0 0.21,0 0.38,-0.02 0.18,-0.02 0.27,-0.03 0.27,-0.16 0,-0.04 -0.01,-0.07 -0.04,-0.19 l -1.34,-5.33 c -0.1,-0.39 -0.12,-0.47 -0.91,-0.47 -0.17,0 -0.27,0 -0.27,-0.2 0,-0.11 0.09,-0.11 0.27,-0.11 h 4.62 c 0.24,0 0.25,0 0.31,0.17 l 0.79,2.15 c 0.04,0.11 0.04,0.13 0.04,0.14 0,0.04 -0.03,0.11 -0.12,0.11 -0.09,0 -0.1,-0.05 -0.17,-0.21 -0.34,-0.92 -0.78,-2.05 -2.5,-2.05 h -0.94 c -0.14,0 -0.16,0 -0.22,0.01 -0.1,0.01 -0.13,0.02 -0.13,0.1 0,0.03 0,0.05 0.05,0.23 z"
   inkscape:connector-curvature="0" />
<path
   id="path3794"
   style="fill:#000000;stroke-width:0"
   d="m 261.6,483.44 -0.01,0.02 v 0.02 0.02 0.01 l -0.01,0.02 v 0.02 0.01 l -0.01,0.02 -0.01,0.01 v 0.02 l -0.01,0.02 -0.01,0.01 -0.01,0.01 -0.01,0.02 -0.01,0.01 -0.01,0.01 -0.02,0.02 -0.01,0.01 -0.01,0.01 -0.02,0.01 -0.01,0.01 -0.02,0.01 h -0.02 l -0.01,0.01 -0.02,0.01 h -0.02 l -0.02,0.01 h -0.02 l -0.02,0.01 h -0.02 -0.02 -0.02 c -0.23,0 -0.53,-0.23 -0.53,-0.53 0,-0.19 0.14,-0.35 0.37,-0.35 0.27,0 0.54,0.25 0.54,0.52 z"
   inkscape:connector-curvature="0" />
<path
   id="path3796"
   style="fill:#000000;stroke-width:0"
   d="m 259.59,476.74 -0.02,-0.07 -0.02,-0.07 -0.02,-0.07 -0.02,-0.07 -0.03,-0.06 -0.03,-0.06 -0.02,-0.07 -0.03,-0.06 -0.03,-0.06 -0.04,-0.05 -0.03,-0.06 -0.03,-0.05 -0.04,-0.05 -0.04,-0.05 -0.04,-0.05 -0.03,-0.05 -0.05,-0.04 -0.04,-0.04 -0.04,-0.04 -0.04,-0.03 -0.05,-0.04 -0.04,-0.03 -0.05,-0.03 -0.05,-0.02 -0.04,-0.03 -0.05,-0.02 -0.05,-0.01 -0.05,-0.02 -0.05,-0.01 -0.05,-0.01 h -0.05 -0.06 c -0.06,0 -0.21,0 -0.38,0.09 0.29,0.07 0.44,0.32 0.44,0.52 0,0.16 -0.11,0.35 -0.38,0.35 -0.24,0 -0.53,-0.21 -0.53,-0.57 0,-0.39 0.39,-0.61 0.87,-0.61 0.7,0 1.63,0.53 1.88,1.51 l 0.92,3.63 c 0.05,0.2 0.05,0.34 0.05,0.37 0,0.57 -0.42,0.92 -0.92,0.92 -1.02,0 -1.59,-1.45 -1.59,-1.53 0,-0.1 0.1,-0.1 0.12,-0.1 0.09,0 0.1,0.01 0.18,0.2 0.25,0.6 0.71,1.21 1.26,1.21 0.14,0 0.32,-0.04 0.32,-0.46 0,-0.23 -0.03,-0.34 -0.07,-0.51 z"
   inkscape:connector-curvature="0" />
<path
   id="path3798"
   style="fill:#000000;stroke-width:0"
   d="m 268.34,480.93 v 0.04 0.04 l -0.01,0.04 v 0.04 0.03 l -0.01,0.04 -0.01,0.03 v 0.04 l -0.01,0.03 -0.01,0.03 -0.01,0.03 -0.01,0.03 -0.01,0.02 -0.01,0.03 -0.01,0.02 -0.02,0.03 -0.01,0.02 -0.02,0.02 -0.01,0.02 -0.02,0.01 -0.01,0.02 -0.02,0.01 -0.02,0.02 -0.01,0.01 -0.02,0.01 -0.02,0.01 -0.02,0.01 h -0.02 l -0.02,0.01 h -0.02 l -0.02,0.01 h -0.02 c -0.26,0 -0.53,-0.24 -0.53,-0.47 0,-0.1 0.05,-0.21 0.15,-0.3 0.17,-0.15 0.35,-0.42 0.35,-0.83 0,-0.4 -0.19,-0.97 -0.5,-1.42 -0.3,-0.43 -0.67,-0.77 -1.14,-0.77 -0.56,0 -0.87,0.36 -0.96,0.89 0.11,0.26 0.34,0.9 0.34,1.18 0,0.12 -0.05,0.22 -0.18,0.22 -0.08,0 -0.19,-0.02 -0.27,-0.17 -0.11,-0.2 -0.23,-0.85 -0.23,-1.2 -0.33,-0.47 -0.73,-0.92 -1.36,-0.92 -0.66,0 -0.87,0.59 -0.87,1.14 0,1.25 1.02,2.29 1.02,2.42 0,0.11 -0.08,0.19 -0.19,0.19 -0.13,0 -0.2,-0.13 -0.26,-0.22 -0.51,-0.74 -0.88,-1.92 -0.88,-2.82 0,-0.69 0.22,-1.42 1.04,-1.42 0.71,0 1.18,0.49 1.54,1.04 0.09,-0.58 0.48,-1.04 1.1,-1.04 0.77,0 1.25,0.6 1.61,1.35 0.24,0.48 0.62,1.83 0.62,2.45 z"
   inkscape:connector-curvature="0" />
</g>  <text
     id="text3913"
     y="507.5196533203"
     x="10"
     style="font-style:normal;font-variant:normal;font-weight:normal;font-stretch:normal;font-size:5.3333334923px;line-height:100%;font-family:sans-serif;-inkscape-font-specification:sans-serif;font-variant-ligatures:normal;font-variant-position:normal;font-variant-caps:normal;font-variant-numeric:normal;font-variant-alternates:normal;font-feature-settings:normal;text-indent:0;text-align:start;text-decoration:none;text-decoration-line:none;text-decoration-style:solid;text-decoration-color:#000000;letter-spacing:0px;word-spacing:0px;text-transform:none;writing-mode:lr-tb;direction:ltr;text-orientation:mixed;dominant-baseline:auto;baseline-shift:baseline;text-anchor:start;white-space:normal;shape-padding:0;opacity:1;vector-effect:none;fill:#000000;fill-opacity:1;stroke:none;stroke-width:1px;stroke-linecap:butt;stroke-linejoin:miter;stroke-miterlimit:4;stroke-dasharray:none;stroke-dashoffset:0;stroke-opacity:1"
     xml:space="preserve"><tspan
       y="507.5196533203"
       x="10"
       id="tspan3911"
       sodipodi:role="line">$\impedance{Z_L}=Lj\omega$</tspan></text>
  <text
     xml:space="preserve"
     style="font-style:normal;font-variant:normal;font-weight:normal;font-stretch:normal;font-size:5.3333334923px;line-height:100%;font-family:sans-serif;-inkscape-font-specification:sans-serif;font-variant-ligatures:normal;font-variant-position:normal;font-variant-caps:normal;font-variant-numeric:normal;font-variant-alternates:normal;font-feature-settings:normal;text-indent:0;text-align:start;text-decoration:none;text-decoration-line:none;text-decoration-style:solid;text-decoration-color:#000000;letter-spacing:0px;word-spacing:0px;text-transform:none;writing-mode:lr-tb;direction:ltr;text-orientation:mixed;dominant-baseline:auto;baseline-shift:baseline;text-anchor:start;white-space:normal;shape-padding:0;opacity:1;vector-effect:none;fill:#000000;fill-opacity:1;stroke:none;stroke-width:1px;stroke-linecap:butt;stroke-linejoin:miter;stroke-miterlimit:4;stroke-dasharray:none;stroke-dashoffset:0;stroke-opacity:1"
     x="10"
     y="537.5196533203"
     id="text2507-9"><tspan
       sodipodi:role="line"
       id="tspan2505-2"
       x="10"
       y="537.5196533203">$\phasorName{I_C} = \complexPol{5}{\pi/6} \si{\ampere}$</tspan></text>
  <text
     xml:space="preserve"
     style="font-style:normal;font-variant:normal;font-weight:normal;font-stretch:normal;font-size:5.3333334923px;line-height:100%;font-family:sans-serif;-inkscape-font-specification:sans-serif;font-variant-ligatures:normal;font-variant-position:normal;font-variant-caps:normal;font-variant-numeric:normal;font-variant-alternates:normal;font-feature-settings:normal;text-indent:0;text-align:start;text-decoration:none;text-decoration-line:none;text-decoration-style:solid;text-decoration-color:#000000;letter-spacing:0px;word-spacing:0px;text-transform:none;writing-mode:lr-tb;direction:ltr;text-orientation:mixed;dominant-baseline:auto;baseline-shift:baseline;text-anchor:start;white-space:normal;shape-padding:0;opacity:1;vector-effect:none;fill:#000000;fill-opacity:1;stroke:none;stroke-width:1px;stroke-linecap:butt;stroke-linejoin:miter;stroke-miterlimit:4;stroke-dasharray:none;stroke-dashoffset:0;stroke-opacity:1"
     x="10"
     y="552.5196533203"
     id="text2507-9-2"><tspan
       sodipodi:role="line"
       id="tspan2505-2-3"
       x="10"
       y="552.5196533203">$v=3\Vpp$</tspan></text>
  <text
     xml:space="preserve"
     style="font-style:normal;font-variant:normal;font-weight:normal;font-stretch:normal;font-size:5.3333334923px;line-height:100%;font-family:sans-serif;-inkscape-font-specification:sans-serif;font-variant-ligatures:normal;font-variant-position:normal;font-variant-caps:normal;font-variant-numeric:normal;font-variant-alternates:normal;font-feature-settings:normal;text-indent:0;text-align:start;text-decoration:none;text-decoration-line:none;text-decoration-style:solid;text-decoration-color:#000000;letter-spacing:0px;word-spacing:0px;text-transform:none;writing-mode:lr-tb;direction:ltr;text-orientation:mixed;dominant-baseline:auto;baseline-shift:baseline;text-anchor:start;white-space:normal;shape-padding:0;opacity:1;vector-effect:none;fill:#000000;fill-opacity:1;stroke:none;stroke-width:1px;stroke-linecap:butt;stroke-linejoin:miter;stroke-miterlimit:4;stroke-dasharray:none;stroke-dashoffset:0;stroke-opacity:1"
     x="10"
     y="567.5196533203"
     id="text2507-9-2-1"><tspan
       sodipodi:role="line"
       id="tspan2505-2-3-8"
       x="10"
       y="567.5196533203">$v=2\Vrms$</tspan></text>
  <text
     xml:space="preserve"
     style="font-style:normal;font-variant:normal;font-weight:normal;font-stretch:normal;font-size:5.3333334923px;line-height:100%;font-family:sans-serif;-inkscape-font-specification:sans-serif;font-variant-ligatures:normal;font-variant-position:normal;font-variant-caps:normal;font-variant-numeric:normal;font-variant-alternates:normal;font-feature-settings:normal;text-indent:0;text-align:start;text-decoration:none;text-decoration-line:none;text-decoration-style:solid;text-decoration-color:#000000;letter-spacing:0px;word-spacing:0px;text-transform:none;writing-mode:lr-tb;direction:ltr;text-orientation:mixed;dominant-baseline:auto;baseline-shift:baseline;text-anchor:start;white-space:normal;shape-padding:0;opacity:1;vector-effect:none;fill:#000000;fill-opacity:1;stroke:none;stroke-width:1px;stroke-linecap:butt;stroke-linejoin:miter;stroke-miterlimit:4;stroke-dasharray:none;stroke-dashoffset:0;stroke-opacity:1"
     x="10"
     y="582.5196533203"
     id="text2507-9-2-3"><tspan
       sodipodi:role="line"
       id="tspan2505-2-3-4"
       x="10"
       y="582.5196533203">$i=4\App$</tspan></text>
  <text
     xml:space="preserve"
     style="font-style:normal;font-variant:normal;font-weight:normal;font-stretch:normal;font-size:5.3333334923px;line-height:100%;font-family:sans-serif;-inkscape-font-specification:sans-serif;font-variant-ligatures:normal;font-variant-position:normal;font-variant-caps:normal;font-variant-numeric:normal;font-variant-alternates:normal;font-feature-settings:normal;text-indent:0;text-align:start;text-decoration:none;text-decoration-line:none;text-decoration-style:solid;text-decoration-color:#000000;letter-spacing:0px;word-spacing:0px;text-transform:none;writing-mode:lr-tb;direction:ltr;text-orientation:mixed;dominant-baseline:auto;baseline-shift:baseline;text-anchor:start;white-space:normal;shape-padding:0;opacity:1;vector-effect:none;fill:#000000;fill-opacity:1;stroke:none;stroke-width:1px;stroke-linecap:butt;stroke-linejoin:miter;stroke-miterlimit:4;stroke-dasharray:none;stroke-dashoffset:0;stroke-opacity:1"
     x="10"
     y="597.5196533203"
     id="text2507-9-2-2"><tspan
       sodipodi:role="line"
       id="tspan2505-2-3-2"
       x="10"
       y="597.5196533203">$i=2\Arms$</tspan></text>
  <g
     id="g5351"
     transform="matrix(0.739645,0,0,-0.739645,27.62573295,890.2586897173)"
     xml:space="preserve"
     stroke="black"
     stroke-linecap="butt"
     stroke-linejoin="miter"
     stroke-miterlimit="10.433"
     stroke-dasharray="none"
     stroke-dashoffset="0"
     stroke-opacity="1"
     fill="none"
     fill-rule="evenodd"
     fill-opacity="1"
     font-style="normal"
     font-variant="normal"
     font-weight="normal"
     font-stretch="normal"
     font-size-adjust="none"
     letter-spacing="normal"
     word-spacing="normal"
     text-anchor="start"
     ns0:text=" $\\phasorName{I_C}=\\complexPol{5}{\\pi/6}\\ \\si\\ampere$"
     ns0:preamble="/home/fernando/.config/inkscape/extensions/textextLib/CircuitSymbolsLatexPreamble.tex"
     style="font-style:normal;font-variant:normal;font-weight:normal;font-stretch:normal;letter-spacing:normal;word-spacing:normal;text-anchor:start;fill:none;fill-opacity:1;fill-rule:evenodd;stroke:#000000;stroke-linecap:butt;stroke-linejoin:miter;stroke-miterlimit:10.4329996109;stroke-dasharray:none;stroke-dashoffset:0;stroke-opacity:1">
<polygon
   points="227.64,486.54 226.07,485.29 226.35,484.9 227.64,485.72 228.92,484.91 229.2,485.28 "
   stroke-width="0"
   fill="black"
   id="polygon5325" />
<path
   d="M227.83,483.37 L227.83,483.39 L227.84,483.4 L227.84,483.42 L227.84,483.43 L227.85,483.44 L227.85,483.45 L227.85,483.46 L227.86,483.47 L227.86,483.48 L227.87,483.49 L227.87,483.5 L227.87,483.51 L227.88,483.51 L227.88,483.52 L227.89,483.52 L227.89,483.53 L227.9,483.53 L227.91,483.54 L227.92,483.54 L227.92,483.55 L227.93,483.55 L227.94,483.55 L227.95,483.55 L227.96,483.56 L227.97,483.56 L227.99,483.56 L228,483.56 L228.01,483.57 L228.02,483.57 L228.03,483.57 L228.04,483.57 L228.04,483.57 L228.05,483.57 L228.06,483.57 L228.07,483.57 L228.08,483.57 C228.23,483.58,228.36,483.58,228.51,483.58 H228.72 C228.93,483.58,228.94,483.59,228.99,483.63 C229.05,483.67,229.08,483.81,229.08,483.87 C229.08,483.99,228.98,484.05,228.86,484.05 C228.61,484.05,228.35,484.03,228.1,484.03 C227.84,484.03,227.57,484.02,227.3,484.02 C227.02,484.02,226.74,484.03,226.47,484.03 C226.21,484.03,225.95,484.05,225.7,484.05 C225.59,484.05,225.41,484.05,225.41,483.76 C225.41,483.58,225.57,483.58,225.75,483.58 H225.96 C226.04,483.58,226.28,483.57,226.48,483.56 L225.06,477.9 C225.02,477.74,225.01,477.73,224.82,477.72 C224.7,477.7,224.52,477.7,224.39,477.7 H224.18 C223.98,477.7,223.81,477.7,223.81,477.41 C223.81,477.29,223.92,477.23,224.03,477.23 C224.28,477.23,224.54,477.26,224.79,477.26 C225.06,477.26,225.33,477.27,225.6,477.27 C225.88,477.27,226.14,477.26,226.42,477.26 C226.68,477.26,226.94,477.23,227.19,477.23 C227.29,477.23,227.49,477.23,227.49,477.52 C227.49,477.7,227.32,477.7,227.15,477.7 H226.94 C226.87,477.7,226.54,477.71,226.41,477.72 Z "
   stroke-width="0"
   fill="black"
   id="path5327" />
<path
   d="M235.09,480.38 L235.09,480.38 L235.09,480.39 L235.09,480.39 L235.09,480.4 L235.1,480.4 L235.1,480.4 L235.1,480.41 L235.1,480.41 L235.1,480.42 L235.1,480.42 L235.1,480.42 L235.1,480.43 L235.1,480.43 L235.1,480.43 L235.1,480.43 L235.11,480.44 L235.11,480.44 L235.11,480.44 L235.11,480.45 L235.11,480.45 L235.11,480.45 L235.11,480.45 L235.11,480.46 L235.11,480.46 L235.11,480.47 L235.11,480.47 L235.11,480.47 L235.11,480.47 L235.11,480.48 L235.12,480.48 L235.12,480.48 L235.12,480.48 L235.12,480.49 L235.12,480.49 L235.12,480.49 L235.12,480.49 L235.12,480.49 L235.12,480.49 L235.12,480.49 L235.12,480.49 L235.12,480.5 L235.12,480.5 C235.12,480.62,235,480.62,234.89,480.62 L234.21,480.13 C233.82,480.48,233.28,480.62,232.75,480.62 C230.31,480.62,229,478.98,229,477.58 C229,476.2,230.17,475.63,231.56,475.63 C232.61,475.63,233.52,476.08,233.98,476.65 C234.26,477.01,234.33,477.34,234.33,477.38 C234.33,477.5,234.21,477.5,234.11,477.5 C233.99,477.5,233.93,477.5,233.89,477.39 C233.59,476.42,232.55,476.02,231.77,476.02 C231.46,476.02,230.85,476.06,230.45,476.4 C230.17,476.62,230.06,476.92,230.06,477.33 C230.06,477.59,230.19,478.84,230.96,479.55 C231.59,480.14,232.4,480.23,232.87,480.23 C233.78,480.23,234.2,479.63,234.2,478.99 C234.2,478.94,234.19,478.86,234.19,478.81 C234.19,478.67,234.29,478.67,234.44,478.67 C234.64,478.67,234.66,478.67,234.71,478.84 Z "
   stroke-width="0"
   fill="black"
   id="path5329" />
<path
   d="M245.53,480.48 L245.56,480.48 L245.59,480.48 L245.62,480.48 L245.63,480.49 L245.65,480.49 L245.66,480.49 L245.68,480.49 L245.69,480.49 L245.71,480.49 L245.72,480.5 L245.73,480.5 L245.75,480.5 L245.76,480.51 L245.77,480.51 L245.78,480.52 L245.79,480.52 L245.8,480.53 L245.81,480.54 L245.82,480.55 L245.83,480.56 L245.84,480.57 L245.84,480.57 L245.85,480.58 L245.85,480.58 L245.85,480.59 L245.86,480.6 L245.86,480.6 L245.86,480.61 L245.86,480.62 L245.87,480.62 L245.87,480.63 L245.87,480.64 L245.87,480.65 L245.87,480.66 L245.87,480.66 L245.87,480.67 L245.87,480.68 C245.87,480.88,245.68,480.88,245.54,480.88 H239.57 C239.43,480.88,239.24,480.88,239.24,480.68 C239.24,480.48,239.43,480.48,239.58,480.48 Z "
   stroke-width="0"
   fill="black"
   id="path5331" />
<path
   d="M245.54,478.56 L245.56,478.56 L245.57,478.56 L245.6,478.56 L245.62,478.56 L245.64,478.56 L245.65,478.56 L245.67,478.56 L245.68,478.56 L245.69,478.56 L245.71,478.57 L245.72,478.57 L245.73,478.57 L245.75,478.58 L245.76,478.58 L245.77,478.59 L245.78,478.59 L245.79,478.6 L245.8,478.6 L245.81,478.61 L245.82,478.62 L245.83,478.63 L245.84,478.63 L245.84,478.64 L245.84,478.65 L245.85,478.65 L245.85,478.66 L245.85,478.66 L245.86,478.67 L245.86,478.68 L245.86,478.68 L245.86,478.69 L245.87,478.7 L245.87,478.7 L245.87,478.71 L245.87,478.72 L245.87,478.73 L245.87,478.74 L245.87,478.75 L245.87,478.76 C245.87,478.95,245.68,478.95,245.53,478.95 H239.58 C239.43,478.95,239.24,478.95,239.24,478.76 C239.24,478.56,239.43,478.56,239.57,478.56 Z "
   stroke-width="0"
   fill="black"
   id="path5333" />
<path
   d="M253.68,479.23 L253.68,479.34 L253.67,479.45 L253.66,479.56 L253.64,479.66 L253.62,479.77 L253.6,479.87 L253.57,479.97 L253.53,480.07 L253.5,480.17 L253.46,480.26 L253.41,480.35 L253.36,480.44 L253.31,480.53 L253.26,480.61 L253.2,480.69 L253.13,480.76 L253.07,480.84 L253,480.9 L252.93,480.97 L252.86,481.03 L252.78,481.09 L252.7,481.14 L252.62,481.19 L252.53,481.23 L252.45,481.27 L252.36,481.31 L252.27,481.34 L252.17,481.36 L252.08,481.38 L251.98,481.4 L251.88,481.4 L251.78,481.41 C251.3,481.41,250.88,481.25,250.52,480.9 V482.84 C250.72,482.78,251.04,482.71,251.37,482.71 C252.59,482.71,253.29,483.61,253.29,483.74 C253.29,483.8,253.26,483.85,253.19,483.85 C253.18,483.85,253.16,483.85,253.11,483.82 C252.91,483.73,252.42,483.53,251.75,483.53 C251.35,483.53,250.9,483.6,250.43,483.81 C250.35,483.84,250.33,483.84,250.31,483.84 C250.21,483.84,250.21,483.76,250.21,483.6 V480.66 C250.21,480.48,250.21,480.4,250.35,480.4 C250.42,480.4,250.44,480.43,250.48,480.49 C250.59,480.65,250.96,481.19,251.76,481.19 C252.28,481.19,252.53,480.73,252.61,480.55 C252.77,480.18,252.79,479.8,252.79,479.3 C252.79,478.95,252.79,478.36,252.55,477.94 C252.31,477.55,251.94,477.3,251.48,477.3 C250.76,477.3,250.19,477.82,250.02,478.41 C250.05,478.4,250.08,478.39,250.19,478.39 C250.52,478.39,250.69,478.64,250.69,478.87 C250.69,479.11,250.52,479.36,250.19,479.36 C250.05,479.36,249.7,479.29,249.7,478.83 C249.7,477.98,250.39,477.02,251.5,477.02 C252.66,477.02,253.68,477.97,253.68,479.23 Z "
   stroke-width="0"
   fill="black"
   id="path5335" />
<path
   d="M254.38,473.24 L254.38,473.25 L254.38,473.26 L254.38,473.27 L254.37,473.28 L254.37,473.29 L254.37,473.3 L254.37,473.31 L254.36,473.32 L254.36,473.33 L254.35,473.34 L254.35,473.35 L254.34,473.35 L254.34,473.36 L254.33,473.37 L254.33,473.38 L254.32,473.38 L254.31,473.39 L254.31,473.4 L254.3,473.4 L254.29,473.41 L254.28,473.41 L254.27,473.42 L254.27,473.42 L254.26,473.43 L254.25,473.43 L254.24,473.43 L254.23,473.44 L254.22,473.44 L254.21,473.44 L254.2,473.44 L254.19,473.44 L254.18,473.44 C254.07,473.44,253.98,473.35,253.98,473.24 C253.98,473.13,254.07,473.04,254.18,473.04 C254.29,473.04,254.38,473.13,254.38,473.24 Z "
   stroke-width="0"
   fill="black"
   fill-rule="nonzero"
   id="path5337" />
<line
   x1="254.18"
   y1="473.24"
   x2="275.91"
   y2="473.24"
   stroke-width="0.59776"
   id="line5339" />
<line
   x1="254.18"
   y1="473.24"
   x2="259.91"
   y2="484.71"
   stroke-width="0.59776"
   id="line5341" />
<path
   d="M262.55,480.93 H263.68 C263.35,479.46,263.26,479.04,263.26,478.37 C263.26,478.22,263.26,477.95,263.34,477.61 C263.44,477.18,263.55,477.12,263.7,477.12 C263.9,477.12,264.11,477.3,264.11,477.5 C264.11,477.56,264.11,477.58,264.05,477.71 C263.76,478.43,263.76,479.08,263.76,479.35 C263.76,479.88,263.83,480.42,263.94,480.93 H265.08 C265.21,480.93,265.57,480.93,265.57,481.27 C265.57,481.51,265.36,481.51,265.17,481.51 H261.83 C261.61,481.51,261.23,481.51,260.79,481.04 C260.44,480.65,260.18,480.2,260.18,480.15 C260.18,480.14,260.18,480.05,260.3,480.05 C260.38,480.05,260.4,480.09,260.46,480.17 C260.95,480.93,261.53,480.93,261.73,480.93 H262.29 C261.98,479.73,261.44,478.53,261.02,477.62 C260.94,477.48,260.94,477.46,260.94,477.39 C260.94,477.2,261.1,477.12,261.23,477.12 C261.53,477.12,261.61,477.4,261.73,477.76 C261.87,478.22,261.87,478.24,261.99,478.74 Z "
   stroke-width="0"
   fill="black"
   id="path5343" />
<path
   d="M270.33,484.3 L270.33,484.31 L270.33,484.31 L270.33,484.32 L270.33,484.32 L270.34,484.33 L270.34,484.33 L270.34,484.35 L270.35,484.36 L270.35,484.36 L270.35,484.37 L270.35,484.38 L270.36,484.39 L270.36,484.4 L270.36,484.4 L270.36,484.41 L270.37,484.42 L270.37,484.42 L270.37,484.43 L270.37,484.44 L270.37,484.44 L270.37,484.44 L270.37,484.45 L270.37,484.45 L270.37,484.46 L270.37,484.46 L270.37,484.46 L270.38,484.47 L270.38,484.47 L270.38,484.47 L270.38,484.47 L270.38,484.47 L270.38,484.48 L270.38,484.48 L270.38,484.48 L270.38,484.48 C270.38,484.59,270.29,484.68,270.18,484.68 C270.11,484.68,270.04,484.65,270.01,484.59 L266.55,475.12 C266.5,474.99,266.5,474.95,266.5,474.94 C266.5,474.83,266.59,474.74,266.7,474.74 C266.83,474.74,266.86,474.81,266.92,474.98 Z "
   stroke-width="0"
   fill="black"
   id="path5345" />
<path
   d="M272.24,480.49 V480.73 C272.24,483.24,273.48,483.6,273.99,483.6 C274.23,483.6,274.65,483.54,274.87,483.2 C274.72,483.2,274.32,483.2,274.32,482.75 C274.32,482.44,274.56,482.29,274.78,482.29 C274.94,482.29,275.24,482.38,275.24,482.77 C275.24,483.37,274.8,483.84,273.97,483.84 C272.69,483.84,271.35,482.56,271.35,480.37 C271.35,477.71,272.51,477.01,273.43,477.01 C274.54,477.01,275.49,477.94,275.49,479.25 C275.49,480.52,274.6,481.47,273.49,481.47 L273.48,481.24 C273.64,481.24,274.1,481.24,274.41,480.62 C274.59,480.26,274.59,479.75,274.59,479.26 C274.59,478.79,274.59,478.29,274.42,477.93 C274.12,477.34,273.66,477.29,273.43,477.29 H273.43 C272.8,477.29,272.51,477.88,272.45,478.03 C272.27,478.5,272.27,479.29,272.27,479.47 C272.27,480.25,272.58,481.24,273.48,481.24 L273.49,481.47 C272.81,481.47,272.45,480.96,272.24,480.49 Z "
   stroke-width="0"
   fill="black"
   id="path5347" />
<path
   d="M283.2,484.15 L283.2,484.16 L283.19,484.17 L283.19,484.18 L283.18,484.19 L283.18,484.21 L283.17,484.22 L283.17,484.23 L283.17,484.23 L283.16,484.24 L283.16,484.25 L283.15,484.26 L283.15,484.27 L283.14,484.28 L283.14,484.28 L283.13,484.29 L283.13,484.3 L283.12,484.3 L283.11,484.31 L283.11,484.31 L283.1,484.32 L283.09,484.32 L283.08,484.33 L283.08,484.33 L283.07,484.34 L283.06,484.34 L283.05,484.34 L283.04,484.34 L283.02,484.34 L283.01,484.35 L283,484.35 L282.99,484.35 L282.98,484.35 L282.97,484.35 C282.81,484.35,282.78,484.29,282.73,484.15 L280.67,478.21 C280.49,477.7,280.09,477.55,279.55,477.54 V477.23 C279.78,477.24,280.21,477.27,280.57,477.27 C280.88,477.27,281.39,477.24,281.71,477.23 V477.54 C281.21,477.54,280.97,477.79,280.97,478.05 C280.97,478.08,280.98,478.18,280.99,478.2 L281.45,479.5 L281.55,479.81 L282.67,483.04 L283.8,479.81 H281.55 L281.45,479.5 H283.91 L284.44,477.98 C284.45,477.94,284.47,477.88,284.47,477.84 C284.47,477.54,283.91,477.54,283.64,477.54 V477.23 C284,477.27,284.7,477.27,285.08,477.27 C285.5,477.27,285.96,477.26,286.38,477.23 V477.54 H286.2 C285.6,477.54,285.46,477.61,285.35,477.94 Z "
   stroke-width="0"
   fill="black"
   id="path5349" />
</g>  <g
     style="font-style:normal;font-variant:normal;font-weight:normal;font-stretch:normal;letter-spacing:normal;word-spacing:normal;text-anchor:start;fill:none;fill-opacity:1;fill-rule:evenodd;stroke:#000000;stroke-linecap:butt;stroke-linejoin:miter;stroke-miterlimit:10.4329996109;stroke-dasharray:none;stroke-dashoffset:0;stroke-opacity:1"
     ns0:preamble="/home/fernando/.config/inkscape/extensions/textextLib/CircuitSymbolsLatexPreamble.tex"
     ns0:text=" $\\phasorName{V_R}=\\complexPolDeg{2}{-20}\\ \\si{\\volt}$"
     text-anchor="start"
     word-spacing="normal"
     letter-spacing="normal"
     font-size-adjust="none"
     font-stretch="normal"
     font-weight="normal"
     font-variant="normal"
     font-style="normal"
     fill-opacity="1"
     fill-rule="evenodd"
     fill="none"
     stroke-opacity="1"
     stroke-dashoffset="0"
     stroke-dasharray="none"
     stroke-miterlimit="10.433"
     stroke-linejoin="miter"
     stroke-linecap="butt"
     stroke="black"
     xml:space="preserve"
     transform="matrix(0.739645,0,0,-0.739645,27.62573295,875.6469755862)"
     id="g5577">
<polygon
   id="polygon5549"
   fill="black"
   stroke-width="0"
   points="228.08,486.54 226.51,485.29 226.79,484.9 228.08,485.72 229.37,484.91 229.65,485.28 " />
<path
   id="path5551"
   fill="black"
   stroke-width="0"
   d="M231,483.18 L231.03,483.23 L231.06,483.26 L231.09,483.3 L231.1,483.32 L231.12,483.34 L231.13,483.36 L231.15,483.37 L231.17,483.39 L231.19,483.4 L231.21,483.42 L231.23,483.43 L231.25,483.45 L231.28,483.46 L231.3,483.48 L231.33,483.49 L231.36,483.5 L231.39,483.51 L231.43,483.52 L231.46,483.53 L231.5,483.54 L231.54,483.55 L231.58,483.55 L231.63,483.56 L231.67,483.57 L231.73,483.57 L231.75,483.57 L231.78,483.58 L231.81,483.58 L231.84,483.58 L231.86,483.58 L231.9,483.58 L231.93,483.58 L231.96,483.58 C232.08,483.58,232.26,483.58,232.26,483.87 C232.26,483.93,232.21,484.05,232.08,484.05 C231.79,484.05,231.47,484.02,231.17,484.02 C230.81,484.02,230.42,484.05,230.07,484.05 C229.99,484.05,229.8,484.05,229.8,483.76 C229.8,483.58,229.97,483.58,230.06,483.58 C230.11,483.58,230.4,483.58,230.62,483.48 L227.33,478.71 L226.45,483.36 C226.44,483.39,226.43,483.47,226.43,483.5 C226.43,483.58,226.97,483.58,227.04,483.58 C227.26,483.58,227.42,483.58,227.42,483.87 C227.42,484,227.32,484.05,227.2,484.05 C226.95,484.05,226.69,484.03,226.44,484.03 C226.2,484.03,225.96,484.02,225.72,484.02 C225.49,484.02,225.26,484.03,225.03,484.03 C224.81,484.03,224.58,484.05,224.37,484.05 C224.28,484.05,224.09,484.05,224.09,483.76 C224.09,483.58,224.25,483.58,224.46,483.58 C224.59,483.58,224.71,483.58,224.85,483.57 C224.96,483.56,224.97,483.55,225,483.38 L226.13,477.34 C226.18,477.07,226.29,477.07,226.48,477.07 C226.76,477.07,226.81,477.14,226.94,477.32 Z " />
<path
   id="path5553"
   fill="black"
   stroke-width="0"
   d="M235.18,478.1 L235.28,478.13 L235.38,478.16 L235.48,478.19 L235.57,478.23 L235.66,478.27 L235.74,478.3 L235.82,478.34 L235.9,478.38 L235.97,478.42 L236.03,478.46 L236.1,478.5 L236.15,478.54 L236.21,478.59 L236.26,478.63 L236.31,478.67 L236.35,478.72 L236.39,478.76 L236.43,478.81 L236.46,478.85 L236.49,478.9 L236.52,478.94 L236.54,478.99 L236.57,479.03 L236.58,479.08 L236.6,479.12 L236.62,479.16 L236.63,479.21 L236.64,479.25 L236.64,479.29 L236.65,479.33 L236.65,479.37 L236.65,479.41 C236.65,480.18,235.71,480.51,234.65,480.51 H232.04 C231.91,480.51,231.76,480.51,231.76,480.27 C231.76,480.12,231.9,480.12,232.02,480.12 H232.16 C232.45,480.12,232.45,480.11,232.45,480.09 L231.49,476.26 C231.46,476.16,231.46,476.15,231.33,476.14 C231.23,476.13,231.11,476.13,231,476.13 C230.79,476.13,230.78,476.13,230.75,476.1 C230.66,476.05,230.66,475.94,230.66,475.89 C230.66,475.85,230.7,475.74,230.82,475.74 C230.99,475.74,231.18,475.76,231.35,475.76 C231.51,475.76,231.7,475.77,231.86,475.77 C232.01,475.77,232.25,475.76,232.4,475.76 C232.58,475.76,232.76,475.74,232.93,475.74 C232.98,475.74,233.15,475.74,233.15,475.98 C233.15,476.13,233.02,476.13,232.82,476.13 C232.73,476.13,232.6,476.13,232.51,476.14 C232.46,476.14,232.46,476.15,232.46,476.17 C232.46,476.18,232.47,476.23,232.48,476.26 L232.91,477.97 L232.99,478.29 L233.42,480 C233.45,480.1,233.46,480.11,233.49,480.11 C233.53,480.12,233.55,480.12,233.66,480.12 H234.49 C234.93,480.12,235.11,480.05,235.2,480.02 C235.55,479.89,235.56,479.67,235.56,479.53 C235.56,479.36,235.49,478.83,235.15,478.56 C235.02,478.47,234.7,478.29,234.01,478.29 H232.99 L232.91,477.97 H233.92 C234.51,477.97,234.72,477.68,234.72,477.42 C234.72,477.34,234.67,477.14,234.63,477 C234.54,476.65,234.51,476.55,234.51,476.42 C234.51,475.75,235.3,475.63,235.93,475.63 C236.76,475.63,237.02,476.33,237.02,476.45 C237.02,476.6,236.87,476.6,236.81,476.6 C236.67,476.6,236.62,476.6,236.58,476.45 C236.5,476.19,236.25,475.95,235.99,475.95 C235.82,475.95,235.64,476.01,235.64,476.42 C235.64,476.5,235.66,476.69,235.68,476.83 C235.7,477,235.72,477.24,235.72,477.33 C235.72,477.48,235.7,477.86,235.18,478.1 Z " />
<path
   id="path5555"
   fill="black"
   stroke-width="0"
   d="M247.07,480.48 L247.1,480.48 L247.12,480.48 L247.15,480.48 L247.17,480.49 L247.18,480.49 L247.2,480.49 L247.21,480.49 L247.23,480.49 L247.24,480.49 L247.25,480.5 L247.27,480.5 L247.28,480.5 L247.29,480.51 L247.3,480.51 L247.32,480.52 L247.33,480.52 L247.34,480.53 L247.35,480.54 L247.36,480.55 L247.37,480.56 L247.37,480.57 L247.38,480.57 L247.38,480.58 L247.38,480.58 L247.39,480.59 L247.39,480.6 L247.39,480.6 L247.4,480.61 L247.4,480.62 L247.4,480.62 L247.4,480.63 L247.4,480.64 L247.4,480.65 L247.4,480.66 L247.41,480.66 L247.41,480.67 L247.41,480.68 C247.41,480.88,247.22,480.88,247.08,480.88 H241.1 C240.96,480.88,240.77,480.88,240.77,480.68 C240.77,480.48,240.96,480.48,241.11,480.48 Z " />
<path
   id="path5557"
   fill="black"
   stroke-width="0"
   d="M247.08,478.56 L247.09,478.56 L247.1,478.56 L247.13,478.56 L247.16,478.56 L247.17,478.56 L247.19,478.56 L247.2,478.56 L247.21,478.56 L247.23,478.56 L247.24,478.57 L247.26,478.57 L247.27,478.57 L247.28,478.58 L247.29,478.58 L247.31,478.59 L247.32,478.59 L247.33,478.6 L247.34,478.6 L247.35,478.61 L247.36,478.62 L247.37,478.63 L247.37,478.63 L247.37,478.64 L247.38,478.65 L247.38,478.65 L247.38,478.66 L247.39,478.66 L247.39,478.67 L247.39,478.68 L247.4,478.68 L247.4,478.69 L247.4,478.7 L247.4,478.7 L247.4,478.71 L247.4,478.72 L247.4,478.73 L247.41,478.74 L247.41,478.75 L247.41,478.76 C247.41,478.95,247.22,478.95,247.07,478.95 H241.11 C240.96,478.95,240.77,478.95,240.77,478.76 C240.77,478.56,240.96,478.56,241.1,478.56 Z " />
<path
   id="path5559"
   fill="black"
   stroke-width="0"
   d="M252,478 L253.06,479.02 C254.61,480.39,255.21,480.93,255.21,481.92 C255.21,483.06,254.31,483.85,253.1,483.85 C251.97,483.85,251.23,482.94,251.23,482.05 C251.23,481.5,251.73,481.5,251.76,481.5 C251.93,481.5,252.28,481.62,252.28,482.02 C252.28,482.28,252.1,482.54,251.75,482.54 C251.67,482.54,251.65,482.54,251.62,482.53 C251.85,483.17,252.39,483.54,252.97,483.54 C253.88,483.54,254.3,482.74,254.3,481.92 C254.3,481.13,253.81,480.34,253.26,479.73 L251.34,477.6 C251.23,477.49,251.23,477.47,251.23,477.23 H254.93 L255.21,478.96 H254.96 C254.91,478.67,254.84,478.23,254.74,478.08 C254.67,478,254.01,478,253.8,478 Z " />
<path
   id="path5561"
   fill-rule="nonzero"
   fill="black"
   stroke-width="0"
   d="M255.91,474.9 L255.91,474.91 L255.91,474.92 L255.91,474.93 L255.91,474.94 L255.91,474.95 L255.9,474.96 L255.9,474.97 L255.9,474.98 L255.89,474.99 L255.89,475 L255.88,475.01 L255.88,475.02 L255.87,475.02 L255.87,475.03 L255.86,475.04 L255.85,475.04 L255.85,475.05 L255.84,475.06 L255.83,475.06 L255.83,475.07 L255.82,475.07 L255.81,475.08 L255.8,475.08 L255.79,475.09 L255.78,475.09 L255.77,475.09 L255.76,475.1 L255.75,475.1 L255.74,475.1 L255.73,475.1 L255.72,475.1 L255.71,475.1 C255.6,475.1,255.51,475.01,255.51,474.9 C255.51,474.79,255.6,474.7,255.71,474.7 C255.82,474.7,255.91,474.79,255.91,474.9 Z " />
<line
   id="line5563"
   stroke-width="0.59776"
   y2="474.9"
   x2="282.6"
   y1="474.9"
   x1="255.71" />
<line
   id="line5565"
   stroke-width="0.59776"
   y2="484.1"
   x2="260.31"
   y1="474.9"
   x1="255.71" />
<path
   id="path5567"
   fill="black"
   stroke-width="0"
   d="M266.88,479.51 L266.91,479.51 L266.94,479.51 L266.98,479.51 L266.99,479.52 L267.01,479.52 L267.02,479.52 L267.04,479.52 L267.05,479.52 L267.07,479.52 L267.08,479.53 L267.09,479.53 L267.11,479.53 L267.12,479.54 L267.13,479.54 L267.14,479.55 L267.15,479.55 L267.16,479.56 L267.17,479.57 L267.18,479.58 L267.19,479.59 L267.2,479.6 L267.2,479.6 L267.21,479.61 L267.21,479.61 L267.21,479.62 L267.22,479.63 L267.22,479.63 L267.22,479.64 L267.22,479.65 L267.22,479.65 L267.23,479.66 L267.23,479.67 L267.23,479.68 L267.23,479.68 L267.23,479.69 L267.23,479.7 L267.23,479.71 C267.23,479.91,267.05,479.91,266.88,479.91 H261.49 C261.32,479.91,261.14,479.91,261.14,479.71 C261.14,479.51,261.32,479.51,261.49,479.51 Z " />
<path
   id="path5569"
   fill="black"
   stroke-width="0"
   d="M269.32,477.99 L270.38,479.02 C271.94,480.39,272.54,480.92,272.54,481.92 C272.54,483.05,271.64,483.84,270.42,483.84 C269.3,483.84,268.56,482.93,268.56,482.05 C268.56,481.49,269.05,481.49,269.08,481.49 C269.26,481.49,269.6,481.61,269.6,482.02 C269.6,482.27,269.42,482.53,269.08,482.53 C268.99,482.53,268.98,482.53,268.95,482.52 C269.17,483.17,269.71,483.54,270.29,483.54 C271.2,483.54,271.63,482.73,271.63,481.92 C271.63,481.12,271.13,480.34,270.58,479.72 L268.67,477.6 C268.56,477.49,268.56,477.47,268.56,477.23 H272.26 L272.54,478.96 H272.29 C272.24,478.66,272.17,478.22,272.07,478.07 C272,477.99,271.34,477.99,271.12,477.99 Z " />
<path
   id="path5571"
   fill="black"
   stroke-width="0"
   d="M277.63,480.41 L277.63,480.56 L277.62,480.7 L277.62,480.85 L277.61,481 L277.6,481.15 L277.59,481.3 L277.58,481.45 L277.56,481.59 L277.53,481.74 L277.51,481.88 L277.47,482.03 L277.44,482.17 L277.39,482.31 L277.35,482.45 L277.29,482.59 L277.26,482.66 L277.23,482.73 C276.77,483.68,275.95,483.84,275.53,483.84 C274.93,483.84,274.21,483.59,273.8,482.66 C273.48,481.98,273.43,481.2,273.43,480.41 C273.43,479.66,273.47,478.77,273.88,478.01 C274.31,477.21,275.03,477.01,275.52,477.01 V477.23 C275.13,477.23,274.55,477.48,274.37,478.43 C274.26,479.03,274.26,479.94,274.26,480.53 C274.26,481.16,274.26,481.82,274.34,482.35 C274.52,483.54,275.27,483.62,275.52,483.62 C275.85,483.62,276.51,483.45,276.7,482.46 C276.8,481.91,276.8,481.15,276.8,480.53 C276.8,479.78,276.8,479.11,276.69,478.47 C276.54,477.53,275.97,477.23,275.52,477.23 H275.52 V477.01 C276.06,477.01,276.82,477.22,277.26,478.16 C277.58,478.85,277.63,479.62,277.63,480.41 Z " />
<path
   id="path5573"
   fill="black"
   stroke-width="0"
   d="M281.57,482.58 L281.56,482.66 L281.56,482.74 L281.55,482.81 L281.54,482.89 L281.52,482.96 L281.5,483.03 L281.47,483.1 L281.45,483.17 L281.42,483.24 L281.38,483.3 L281.35,483.36 L281.31,483.43 L281.27,483.48 L281.22,483.54 L281.17,483.59 L281.12,483.65 L281.07,483.69 L281.02,483.74 L280.96,483.78 L280.9,483.83 L280.84,483.86 L280.78,483.9 L280.71,483.93 L280.65,483.96 L280.58,483.99 L280.51,484.01 L280.44,484.03 L280.36,484.05 L280.29,484.06 L280.22,484.07 L280.14,484.08 L280.06,484.08 V483.74 C280.72,483.74,281.22,483.21,281.22,482.59 C281.22,481.94,280.71,481.43,280.06,481.43 H280.06 C279.4,481.43,278.9,481.96,278.9,482.58 C278.9,483.23,279.42,483.74,280.06,483.74 V484.08 C279.22,484.08,278.56,483.4,278.56,482.59 C278.56,481.75,279.24,481.09,280.06,481.09 C280.9,481.09,281.57,481.77,281.57,482.58 Z " />
<path
   id="path5575"
   fill="black"
   stroke-width="0"
   d="M292.11,483.05 L292.13,483.08 L292.14,483.11 L292.16,483.15 L292.17,483.18 L292.19,483.21 L292.21,483.24 L292.23,483.27 L292.25,483.3 L292.27,483.33 L292.29,483.36 L292.32,483.39 L292.34,483.42 L292.37,483.44 L292.4,483.47 L292.43,483.49 L292.46,483.51 L292.49,483.54 L292.52,483.56 L292.56,483.58 L292.6,483.59 L292.64,483.61 L292.68,483.63 L292.72,483.64 L292.77,483.66 L292.81,483.67 L292.86,483.68 L292.91,483.69 L292.97,483.7 L293.02,483.7 L293.08,483.71 L293.14,483.71 L293.2,483.71 V484.02 C292.89,484,292.49,483.99,292.23,483.99 C291.93,483.99,291.36,484.01,291.1,484.02 V483.71 C291.62,483.7,291.83,483.44,291.83,483.21 C291.83,483.14,291.8,483.08,291.78,483.02 L289.95,478.23 L288.05,483.24 C287.99,483.38,287.99,483.4,287.99,483.42 C287.99,483.71,288.55,483.71,288.8,483.71 V484.02 C288.45,483.99,287.76,483.99,287.38,483.99 C286.9,483.99,286.47,484.01,286.11,484.02 V483.71 C286.76,483.71,286.95,483.71,287.09,483.33 L289.4,477.23 C289.47,477.05,289.52,477.02,289.65,477.02 C289.82,477.02,289.84,477.07,289.89,477.2 Z " />
</g></svg>
