<?xml version="1.0" encoding="UTF-8" standalone="no"?>
<!-- Created with Inkscape (http://www.inkscape.org/) -->

<svg
   xmlns:ns0="http://www.iki.fi/pav/software/textext/"
   xmlns:dc="http://purl.org/dc/elements/1.1/"
   xmlns:cc="http://creativecommons.org/ns#"
   xmlns:rdf="http://www.w3.org/1999/02/22-rdf-syntax-ns#"
   xmlns:svg="http://www.w3.org/2000/svg"
   xmlns="http://www.w3.org/2000/svg"
   xmlns:sodipodi="http://sodipodi.sourceforge.net/DTD/sodipodi-0.dtd"
   xmlns:inkscape="http://www.inkscape.org/namespaces/inkscape"
   width="210mm"
   height="297mm"
   viewBox="0 0 744.09448819 1052.3622047"
   id="svg2"
   version="1.1"
   inkscape:version="0.91 r"
   sodipodi:docname="OpAmp_annotation.svg">
  <sodipodi:namedview
     id="base"
     pagecolor="#ffffff"
     bordercolor="#666666"
     borderopacity="1.0"
     inkscape:pageopacity="0.0"
     inkscape:pageshadow="2"
     inkscape:zoom="2.40624999873"
     inkscape:cx="337.2110106394"
     inkscape:cy="440.6468186213"
     inkscape:document-units="px"
     inkscape:current-layer="svg2"
     showgrid="true"
     inkscape:object-nodes="true"
     inkscape:snap-text-baseline="true"
     inkscape:window-width="1920"
     inkscape:window-height="1062"
     inkscape:window-x="-4"
     inkscape:window-y="-6"
     inkscape:window-maximized="1">
    <inkscape:grid
       id="grid6303"
       type="xygrid" />
  </sodipodi:namedview>
  <defs
     id="defs4">
    <marker
       id="arrowCurrentStart"
       orient="auto"
       refX="0.0"
       refY="0.0"
       style="overflow:visible"
       inkscape:stockid="arrowCurrentStart">
      <path
         d="M 0.0,0.0 L 5.0,-5.0 L -12.5,0.0 L 5.0,5.0 L 0.0,0.0 z "
         style="stroke-width:1.0;stroke:#FF0000;fill:#FF0000;fill-rule:evenodd"
         transform="scale(0.25) rotate(0) translate(7.2925,0)"
         id="path6041" />
    </marker>
    <marker
       id="arrowCurrentEnd"
       orient="auto"
       refX="0.0"
       refY="0.0"
       style="overflow:visible"
       inkscape:stockid="arrowCurrentEnd">
      <path
         d="M 0.0,0.0 L 5.0,-5.0 L -12.5,0.0 L 5.0,5.0 L 0.0,0.0 z "
         style="stroke-width:1.0;stroke:#FF0000;fill:#FF0000;fill-rule:evenodd"
         transform="scale(0.25) rotate(180) translate(7.2925,0)"
         id="path6044" />
    </marker>
    <marker
       inkscape:stockid="arrowVoltageStart"
       style="overflow:visible"
       refY="0.0"
       refX="0.0"
       orient="auto"
       id="arrowVoltageStart">
      <path
         id="path6927"
         transform="scale(0.25) rotate(0) translate(7.2925,0)"
         style="stroke-width:1.0;stroke:#217B21;fill:#217B21;fill-rule:evenodd"
         d="M 0.0,0.0 L 5.0,-5.0 L -12.5,0.0 L 5.0,5.0 L 0.0,0.0 z " />
    </marker>
    <marker
       inkscape:stockid="arrowVoltageEnd"
       style="overflow:visible"
       refY="0.0"
       refX="0.0"
       orient="auto"
       id="arrowVoltageEnd">
      <path
         id="path6930"
         transform="scale(0.25) rotate(180) translate(7.2925,0)"
         style="stroke-width:1.0;stroke:#217B21;fill:#217B21;fill-rule:evenodd"
         d="M 0.0,0.0 L 5.0,-5.0 L -12.5,0.0 L 5.0,5.0 L 0.0,0.0 z " />
    </marker>
  </defs>
  <metadata
     id="metadata7">
    <rdf:RDF>
      <cc:Work
         rdf:about="">
        <dc:format>image/svg+xml</dc:format>
        <dc:type
           rdf:resource="http://purl.org/dc/dcmitype/StillImage" />
        <dc:title></dc:title>
      </cc:Work>
    </rdf:RDF>
  </metadata>
  <g
     inkscape:label="Layer 1"
     inkscape:groupmode="layer"
     id="layer1" />
  <g
     id="g8250"
     inkscape:export-xdpi="304.752532959"
     inkscape:export-ydpi="304.752532959">
    <g
       transform="translate(-157.5,-12.63781738281)"
       inkscape:label="OpAmp"
       id="g5909">
      <g
         inkscape:label="OpAmp"
         id="g5911">
        <path
           inkscape:connector-curvature="0"
           d="m 315,610 -35,20 0,-40 35,20"
           style="fill:none;stroke:#000000;stroke-width:1;stroke-linecap:round;stroke-linejoin:round;stroke-dasharray:none"
           inkscape:label="none"
           id="path5913" />
        <path
           inkscape:connector-curvature="0"
           d="m 280,620 -7.5,0"
           style="fill:none;stroke:#000000;stroke-width:1;stroke-linecap:round;stroke-linejoin:round;stroke-dasharray:none"
           inkscape:label="none"
           id="path5915" />
        <path
           inkscape:connector-curvature="0"
           d="m 280,600 -7.5,0"
           style="fill:none;stroke:#000000;stroke-width:1;stroke-linecap:round;stroke-linejoin:round;stroke-dasharray:none"
           inkscape:label="none"
           id="path5917" />
        <path
           inkscape:connector-curvature="0"
           d="m 315,610 7.5,0"
           style="fill:none;stroke:#000000;stroke-width:1;stroke-linecap:round;stroke-linejoin:round;stroke-dasharray:none"
           inkscape:label="none"
           id="path5919" />
        <path
           inkscape:connector-curvature="0"
           d="m 286,620 -3,0"
           style="fill:none;stroke:#000000;stroke-width:0.6999999881;stroke-linecap:round;stroke-linejoin:round;stroke-dasharray:none"
           inkscape:label="none"
           id="path5921" />
        <path
           inkscape:connector-curvature="0"
           d="m 286,600 -3,0"
           style="fill:none;stroke:#000000;stroke-width:0.6999999881;stroke-linecap:round;stroke-linejoin:round;stroke-dasharray:none"
           inkscape:label="none"
           id="path5923" />
        <path
           inkscape:connector-curvature="0"
           d="m 284.5,598.5 0,3"
           style="fill:none;stroke:#000000;stroke-width:0.6999999881;stroke-linecap:round;stroke-linejoin:round;stroke-dasharray:none"
           inkscape:label="none"
           id="path5925" />
      </g>
      <g
         style="font-style:normal;font-variant:normal;font-weight:normal;font-stretch:normal;letter-spacing:normal;word-spacing:normal;text-anchor:start;fill:none;fill-opacity:1;fill-rule:evenodd;stroke:#000000;stroke-linecap:butt;stroke-linejoin:miter;stroke-miterlimit:10.4329996109;stroke-dasharray:none;stroke-dashoffset:0;stroke-opacity:1"
         id="g5927"
         xml:space="preserve"
         stroke-miterlimit="10.433"
         font-style="normal"
         font-variant="normal"
         font-weight="normal"
         font-stretch="normal"
         font-size-adjust="none"
         letter-spacing="normal"
         word-spacing="normal"
         ns0:text=" $v_1$"
         ns0:preamble="/home/fernando/.config/inkscape/extensions/textextLib/CircuitSymbolsLatexPreamble.tex"
         transform="matrix(0.591716,0,0,-0.591716,141.98816,879.50297)"><path
           inkscape:connector-curvature="0"
           d="m 228.09,480.93 0,0.02 0,0.03 0,0.02 0,0.03 -0.01,0.02 0,0.02 0,0.02 0,0.02 -0.01,0.04 -0.01,0.04 -0.01,0.04 -0.01,0.04 -0.01,0.03 -0.01,0.03 -0.01,0.03 -0.01,0.03 -0.02,0.02 -0.01,0.03 -0.02,0.02 -0.01,0.02 -0.02,0.02 -0.02,0.02 -0.01,0.01 -0.02,0.02 -0.02,0.01 -0.02,0.01 -0.02,0.01 -0.02,0.01 -0.01,0.01 -0.02,0.01 -0.02,0 -0.02,0.01 -0.02,0 -0.01,0 -0.02,0.01 -0.02,0 c -0.25,0 -0.49,-0.26 -0.49,-0.48 0,-0.13 0.05,-0.19 0.16,-0.3 0.21,-0.2 0.34,-0.46 0.34,-0.81 0,-0.42 -0.61,-2.7 -1.77,-2.7 -0.51,0 -0.74,0.35 -0.74,0.87 0,0.56 0.27,1.28 0.58,2.1 0.07,0.17 0.12,0.31 0.12,0.5 0,0.45 -0.32,0.82 -0.82,0.82 -0.93,0 -1.31,-1.45 -1.31,-1.53 0,-0.1 0.1,-0.1 0.12,-0.1 0.1,0 0.11,0.02 0.16,0.17 0.29,1.01 0.71,1.24 1,1.24 0.08,0 0.25,0 0.25,-0.32 0,-0.25 -0.1,-0.52 -0.17,-0.7 -0.43,-1.15 -0.56,-1.6 -0.56,-2.03 0,-1.07 0.87,-1.23 1.33,-1.23 1.67,0 2.24,3.28 2.24,3.8 z"
           style="fill:#217b21;stroke-width:0"
           id="path5929" /><path
           inkscape:connector-curvature="0"
           d="m 230.59,480.16 0,0.01 0,0.01 0,0.01 0,0.01 0,0 0,0.01 0,0.01 0,0.01 0,0 0,0.01 0,0.01 0,0 0,0.01 0,0 0,0.01 0,0 0,0.01 0,0 -0.01,0.01 0,0.01 0,0.01 0,0 -0.01,0.01 0,0.01 -0.01,0 0,0.01 -0.01,0 -0.01,0 0,0.01 -0.01,0 -0.01,0 -0.01,0 0,0 -0.01,0 -0.01,0 0,0.01 -0.01,0 0,0 -0.01,0 -0.01,0 0,0 -0.01,0 -0.01,0 0,0 -0.01,0 -0.01,0 -0.01,0 -0.01,0 -0.01,0 -0.01,0 c -0.44,-0.44 -1.07,-0.45 -1.36,-0.45 l 0,-0.25 c 0.17,0 0.63,0 1.01,0.2 l 0,-3.55 c 0,-0.23 0,-0.32 -0.7,-0.32 l -0.26,0 0,-0.25 c 0.12,0.01 0.98,0.03 1.24,0.03 0.21,0 1.09,-0.02 1.24,-0.03 l 0,0.25 -0.26,0 c -0.7,0 -0.7,0.09 -0.7,0.32 z"
           style="fill:#217b21;stroke-width:0"
           id="path5931" /></g>      <g
         style="font-style:normal;font-variant:normal;font-weight:normal;font-stretch:normal;letter-spacing:normal;word-spacing:normal;text-anchor:start;fill:none;fill-opacity:1;fill-rule:evenodd;stroke:#000000;stroke-linecap:butt;stroke-linejoin:miter;stroke-miterlimit:10.4329996109;stroke-dasharray:none;stroke-dashoffset:0;stroke-opacity:1"
         id="g5933"
         xml:space="preserve"
         stroke-miterlimit="10.433"
         font-style="normal"
         font-variant="normal"
         font-weight="normal"
         font-stretch="normal"
         font-size-adjust="none"
         letter-spacing="normal"
         word-spacing="normal"
         ns0:text=" $v_2$"
         ns0:preamble="/home/fernando/.config/inkscape/extensions/textextLib/CircuitSymbolsLatexPreamble.tex"
         transform="matrix(0.591716,0,0,-0.591716,141.852066,899.50297)"><path
           inkscape:connector-curvature="0"
           d="m 228.09,480.93 0,0.02 0,0.03 0,0.02 0,0.03 -0.01,0.02 0,0.02 0,0.02 0,0.02 -0.01,0.04 -0.01,0.04 -0.01,0.04 -0.01,0.04 -0.01,0.03 -0.01,0.03 -0.01,0.03 -0.01,0.03 -0.02,0.02 -0.01,0.03 -0.02,0.02 -0.01,0.02 -0.02,0.02 -0.02,0.02 -0.01,0.01 -0.02,0.02 -0.02,0.01 -0.02,0.01 -0.02,0.01 -0.02,0.01 -0.01,0.01 -0.02,0.01 -0.02,0 -0.02,0.01 -0.02,0 -0.01,0 -0.02,0.01 -0.02,0 c -0.25,0 -0.49,-0.26 -0.49,-0.48 0,-0.13 0.05,-0.19 0.16,-0.3 0.21,-0.2 0.34,-0.46 0.34,-0.81 0,-0.42 -0.61,-2.7 -1.77,-2.7 -0.51,0 -0.74,0.35 -0.74,0.87 0,0.56 0.27,1.28 0.58,2.1 0.07,0.17 0.12,0.31 0.12,0.5 0,0.45 -0.32,0.82 -0.82,0.82 -0.93,0 -1.31,-1.45 -1.31,-1.53 0,-0.1 0.1,-0.1 0.12,-0.1 0.1,0 0.11,0.02 0.16,0.17 0.29,1.01 0.71,1.24 1,1.24 0.08,0 0.25,0 0.25,-0.32 0,-0.25 -0.1,-0.52 -0.17,-0.7 -0.43,-1.15 -0.56,-1.6 -0.56,-2.03 0,-1.07 0.87,-1.23 1.33,-1.23 1.67,0 2.24,3.28 2.24,3.8 z"
           style="fill:#217b21;stroke-width:0"
           id="path5935" /><path
           inkscape:connector-curvature="0"
           d="m 231.78,477.01 -0.24,0 c -0.02,-0.16 -0.09,-0.57 -0.18,-0.64 -0.06,-0.04 -0.59,-0.04 -0.69,-0.04 l -1.28,0 c 0.73,0.65 0.97,0.84 1.39,1.17 0.52,0.41 1,0.84 1,1.5 0,0.84 -0.74,1.36 -1.63,1.36 -0.86,0 -1.45,-0.61 -1.45,-1.25 0,-0.35 0.3,-0.39 0.37,-0.39 0.17,0 0.37,0.12 0.37,0.37 0,0.13 -0.05,0.37 -0.41,0.37 0.21,0.49 0.69,0.65 1.01,0.65 0.7,0 1.06,-0.54 1.06,-1.11 0,-0.6 -0.43,-1.08 -0.65,-1.33 l -1.68,-1.66 c -0.07,-0.06 -0.07,-0.07 -0.07,-0.27 l 2.87,0 z"
           style="fill:#217b21;stroke-width:0"
           id="path5937" /></g>    </g>
    <text
       sodipodi:linespacing="100%"
       id="text7278"
       y="627.36218"
       x="140"
       style="font-style:normal;font-variant:normal;font-weight:normal;font-stretch:normal;font-size:6.25px;line-height:100%;font-family:Verdana;-inkscape-font-specification:Verdana;text-align:center;letter-spacing:0px;word-spacing:0px;writing-mode:lr-tb;text-anchor:middle;fill:#000000;fill-opacity:1;stroke:none;stroke-width:1px;stroke-linecap:butt;stroke-linejoin:miter;stroke-opacity:1"
       xml:space="preserve"><tspan
         y="627.36218"
         x="140"
         id="tspan7280"
         sodipodi:role="line">input voltage</tspan><tspan
         id="tspan7282"
         y="633.61218"
         x="140"
         sodipodi:role="line">annotation</tspan></text>
  </g>
  <g
     id="g8270"
     inkscape:export-xdpi="304.752532959"
     inkscape:export-ydpi="304.752532959">
    <g
       id="g6141"
       inkscape:label="OpAmp"
       transform="translate(-82.5,-12.63781738281)">
      <g
         id="g6143"
         inkscape:label="OpAmp">
        <path
           id="path6145"
           inkscape:label="none"
           style="fill:none;stroke:#000000;stroke-width:1;stroke-linecap:round;stroke-linejoin:round;stroke-dasharray:none"
           d="m 315,610 -35,20 0,-40 35,20"
           inkscape:connector-curvature="0" />
        <path
           id="path6147"
           inkscape:label="none"
           style="fill:none;stroke:#000000;stroke-width:1;stroke-linecap:round;stroke-linejoin:round;stroke-dasharray:none"
           d="m 280,620 -7.5,0"
           inkscape:connector-curvature="0" />
        <path
           id="path6149"
           inkscape:label="none"
           style="fill:none;stroke:#000000;stroke-width:1;stroke-linecap:round;stroke-linejoin:round;stroke-dasharray:none"
           d="m 280,600 -7.5,0"
           inkscape:connector-curvature="0" />
        <path
           id="path6151"
           inkscape:label="none"
           style="fill:none;stroke:#000000;stroke-width:1;stroke-linecap:round;stroke-linejoin:round;stroke-dasharray:none"
           d="m 315,610 7.5,0"
           inkscape:connector-curvature="0" />
        <path
           id="path6153"
           inkscape:label="none"
           style="fill:none;stroke:#000000;stroke-width:0.6999999881;stroke-linecap:round;stroke-linejoin:round;stroke-dasharray:none"
           d="m 286,620 -3,0"
           inkscape:connector-curvature="0" />
        <path
           id="path6155"
           inkscape:label="none"
           style="fill:none;stroke:#000000;stroke-width:0.6999999881;stroke-linecap:round;stroke-linejoin:round;stroke-dasharray:none"
           d="m 286,600 -3,0"
           inkscape:connector-curvature="0" />
        <path
           id="path6157"
           inkscape:label="none"
           style="fill:none;stroke:#000000;stroke-width:0.6999999881;stroke-linecap:round;stroke-linejoin:round;stroke-dasharray:none"
           d="m 284.5,598.5 0,3"
           inkscape:connector-curvature="0" />
      </g>
      <g
         id="g6159"
         transform="matrix(-1,0,0,-1,545,1206)"
         inkscape:label="name">
        <path
           id="path6161"
           inkscape:label="none"
           style="fill:none;stroke:#ff0000;stroke-width:1;stroke-linecap:round;stroke-linejoin:round;stroke-dasharray:none;marker-end:url(#arrowCurrentEnd)"
           d="m 277.5,603 -10,0"
           inkscape:connector-curvature="0" />
        <g
           transform="matrix(-0.739645,0,0,0.739645,564.54513,242.493082)"
           ns0:preamble="/home/fernando/.config/inkscape/extensions/textextLib/CircuitSymbolsLatexPreamble.tex"
           ns0:text=" $$i_1$$"
           word-spacing="normal"
           letter-spacing="normal"
           font-size-adjust="none"
           font-stretch="normal"
           font-weight="normal"
           font-variant="normal"
           font-style="normal"
           stroke-miterlimit="10.433"
           xml:space="preserve"
           id="g6163"
           style="font-style:normal;font-variant:normal;font-weight:normal;font-stretch:normal;letter-spacing:normal;word-spacing:normal;text-anchor:start;fill:none;fill-opacity:1;fill-rule:evenodd;stroke:#000000;stroke-linecap:butt;stroke-linejoin:miter;stroke-miterlimit:10.4329996109;stroke-dasharray:none;stroke-dashoffset:0;stroke-opacity:1"><path
             id="path6165"
             style="fill:#ff0000;stroke-width:0"
             d="m 394.16,483.44 0,0.02 0,0.02 0,0.02 0,0.02 -0.01,0.01 0,0.02 -0.01,0.02 0,0.01 -0.01,0.02 -0.01,0.01 0,0.02 -0.01,0.01 -0.01,0.02 -0.01,0.01 -0.01,0.01 -0.02,0.02 -0.01,0.01 -0.01,0.01 -0.01,0.01 -0.02,0.01 -0.01,0.01 -0.02,0.01 -0.02,0.01 -0.01,0 -0.02,0.01 -0.02,0.01 -0.02,0 -0.01,0 -0.02,0.01 -0.02,0 -0.02,0 -0.03,0 c -0.26,0 -0.53,-0.26 -0.53,-0.53 0,-0.18 0.14,-0.35 0.38,-0.35 0.22,0 0.52,0.23 0.52,0.52 z"
             inkscape:connector-curvature="0" /><path
             id="path6167"
             style="fill:#ff0000;stroke-width:0"
             d="m 393.41,479.71 0.01,0.02 0.01,0.03 0.01,0.02 0.01,0.02 0,0.03 0.01,0.02 0.01,0.01 0.01,0.02 0,0.02 0.01,0.02 0.01,0.01 0,0.02 0.01,0.01 0,0.02 0.01,0.02 0.01,0.03 0.01,0.03 0.01,0.02 0,0.01 0.01,0.02 0.01,0.01 0,0.02 0.01,0.02 0.01,0.02 0,0.01 0.01,0.03 0.01,0.02 0.01,0.02 0,0.03 c 0.08,0.19 0.14,0.33 0.14,0.52 0,0.45 -0.32,0.82 -0.82,0.82 -0.94,0 -1.31,-1.45 -1.31,-1.53 0,-0.1 0.1,-0.1 0.11,-0.1 0.1,0 0.11,0.02 0.16,0.17 0.27,0.94 0.67,1.24 1.01,1.24 0.08,0 0.25,0 0.25,-0.32 0,-0.21 -0.07,-0.42 -0.11,-0.52 -0.08,-0.26 -0.53,-1.41 -0.69,-1.84 -0.1,-0.25 -0.23,-0.58 -0.23,-0.79 0,-0.47 0.34,-0.81 0.82,-0.81 0.93,0 1.3,1.44 1.3,1.53 0,0.1 -0.09,0.1 -0.12,0.1 -0.1,0 -0.1,-0.03 -0.15,-0.18 -0.18,-0.63 -0.5,-1.24 -1.01,-1.24 -0.17,0 -0.24,0.1 -0.24,0.33 0,0.25 0.06,0.39 0.29,1 z"
             inkscape:connector-curvature="0" /><path
             id="path6169"
             style="fill:#ff0000;stroke-width:0"
             d="m 397.1,480.16 0,0.01 0,0.01 0,0.01 0,0.01 0,0 0,0.01 0,0.01 0,0.01 0,0 0,0.01 0,0.01 0,0 0,0.01 0,0 0,0.01 0,0 0,0.01 -0.01,0 0,0.01 0,0.01 0,0.01 -0.01,0 0,0.01 0,0.01 -0.01,0 0,0.01 -0.01,0 -0.01,0 -0.01,0.01 0,0 -0.01,0 -0.01,0 -0.01,0 0,0 -0.01,0 0,0.01 -0.01,0 -0.01,0 0,0 -0.01,0 -0.01,0 0,0 -0.01,0 -0.01,0 0,0 -0.01,0 -0.01,0 -0.01,0 -0.01,0 -0.01,0 c -0.44,-0.44 -1.08,-0.45 -1.36,-0.45 l 0,-0.25 c 0.17,0 0.62,0 1.01,0.2 l 0,-3.55 c 0,-0.23 0,-0.32 -0.7,-0.32 l -0.26,0 0,-0.25 c 0.12,0.01 0.98,0.03 1.24,0.03 0.21,0 1.09,-0.02 1.24,-0.03 l 0,0.25 -0.26,0 c -0.7,0 -0.7,0.09 -0.7,0.32 z"
             inkscape:connector-curvature="0" /></g>      </g>
      <g
         id="g6171"
         transform="matrix(-1,0,0,-1,545,1246)"
         inkscape:label="name">
        <path
           id="path6173"
           inkscape:label="none"
           style="fill:none;stroke:#ff0000;stroke-width:1;stroke-linecap:round;stroke-linejoin:round;stroke-dasharray:none;marker-end:url(#arrowCurrentEnd)"
           d="m 277.5,623 -10,0"
           inkscape:connector-curvature="0" />
        <g
           transform="matrix(-0.739645,0,0,0.739645,564.630189,262.493082)"
           ns0:preamble="/home/fernando/.config/inkscape/extensions/textextLib/CircuitSymbolsLatexPreamble.tex"
           ns0:text=" $$i_2$$"
           word-spacing="normal"
           letter-spacing="normal"
           font-size-adjust="none"
           font-stretch="normal"
           font-weight="normal"
           font-variant="normal"
           font-style="normal"
           stroke-miterlimit="10.433"
           xml:space="preserve"
           id="g6175"
           style="font-style:normal;font-variant:normal;font-weight:normal;font-stretch:normal;letter-spacing:normal;word-spacing:normal;text-anchor:start;fill:none;fill-opacity:1;fill-rule:evenodd;stroke:#000000;stroke-linecap:butt;stroke-linejoin:miter;stroke-miterlimit:10.4329996109;stroke-dasharray:none;stroke-dashoffset:0;stroke-opacity:1"><path
             id="path6177"
             style="fill:#ff0000;stroke-width:0"
             d="m 394.16,483.44 0,0.02 0,0.02 0,0.02 0,0.02 -0.01,0.01 0,0.02 -0.01,0.02 0,0.01 -0.01,0.02 -0.01,0.01 0,0.02 -0.01,0.01 -0.01,0.02 -0.01,0.01 -0.01,0.01 -0.02,0.02 -0.01,0.01 -0.01,0.01 -0.01,0.01 -0.02,0.01 -0.01,0.01 -0.02,0.01 -0.02,0.01 -0.01,0 -0.02,0.01 -0.02,0.01 -0.02,0 -0.01,0 -0.02,0.01 -0.02,0 -0.02,0 -0.03,0 c -0.26,0 -0.53,-0.26 -0.53,-0.53 0,-0.18 0.14,-0.35 0.38,-0.35 0.22,0 0.52,0.23 0.52,0.52 z"
             inkscape:connector-curvature="0" /><path
             id="path6179"
             style="fill:#ff0000;stroke-width:0"
             d="m 393.41,479.71 0.01,0.02 0.01,0.03 0.01,0.02 0.01,0.02 0,0.03 0.01,0.02 0.01,0.01 0.01,0.02 0,0.02 0.01,0.02 0.01,0.01 0,0.02 0.01,0.01 0,0.02 0.01,0.02 0.01,0.03 0.01,0.03 0.01,0.02 0,0.01 0.01,0.02 0.01,0.01 0,0.02 0.01,0.02 0.01,0.02 0,0.01 0.01,0.03 0.01,0.02 0.01,0.02 0,0.03 c 0.08,0.19 0.14,0.33 0.14,0.52 0,0.45 -0.32,0.82 -0.82,0.82 -0.94,0 -1.31,-1.45 -1.31,-1.53 0,-0.1 0.1,-0.1 0.11,-0.1 0.1,0 0.11,0.02 0.16,0.17 0.27,0.94 0.67,1.24 1.01,1.24 0.08,0 0.25,0 0.25,-0.32 0,-0.21 -0.07,-0.42 -0.11,-0.52 -0.08,-0.26 -0.53,-1.41 -0.69,-1.84 -0.1,-0.25 -0.23,-0.58 -0.23,-0.79 0,-0.47 0.34,-0.81 0.82,-0.81 0.93,0 1.3,1.44 1.3,1.53 0,0.1 -0.09,0.1 -0.12,0.1 -0.1,0 -0.1,-0.03 -0.15,-0.18 -0.18,-0.63 -0.5,-1.24 -1.01,-1.24 -0.17,0 -0.24,0.1 -0.24,0.33 0,0.25 0.06,0.39 0.29,1 z"
             inkscape:connector-curvature="0" /><path
             id="path6181"
             style="fill:#ff0000;stroke-width:0"
             d="m 398.29,477.01 -0.24,0 c -0.02,-0.16 -0.09,-0.57 -0.18,-0.64 -0.06,-0.04 -0.59,-0.04 -0.69,-0.04 l -1.28,0 c 0.73,0.65 0.97,0.84 1.39,1.17 0.51,0.41 1,0.84 1,1.5 0,0.84 -0.74,1.36 -1.63,1.36 -0.87,0 -1.45,-0.61 -1.45,-1.25 0,-0.35 0.3,-0.39 0.37,-0.39 0.16,0 0.37,0.12 0.37,0.37 0,0.13 -0.05,0.37 -0.41,0.37 0.21,0.49 0.69,0.65 1.01,0.65 0.7,0 1.06,-0.54 1.06,-1.11 0,-0.6 -0.43,-1.08 -0.65,-1.33 l -1.68,-1.66 c -0.07,-0.06 -0.07,-0.07 -0.07,-0.27 l 2.87,0 z"
             inkscape:connector-curvature="0" /></g>      </g>
    </g>
    <text
       sodipodi:linespacing="100%"
       id="text7278-7"
       y="627.36218"
       x="215"
       style="font-style:normal;font-variant:normal;font-weight:normal;font-stretch:normal;font-size:6.25px;line-height:100%;font-family:Verdana;-inkscape-font-specification:Verdana;text-align:center;letter-spacing:0px;word-spacing:0px;writing-mode:lr-tb;text-anchor:middle;fill:#000000;fill-opacity:1;stroke:none;stroke-width:1px;stroke-linecap:butt;stroke-linejoin:miter;stroke-opacity:1"
       xml:space="preserve"><tspan
         y="627.36218"
         x="215"
         id="tspan7280-0"
         sodipodi:role="line">input current</tspan><tspan
         id="tspan7282-9"
         y="633.61218"
         x="215"
         sodipodi:role="line">annotation</tspan></text>
  </g>
  <g
     id="g8333"
     transform="translate(-5,0)"
     inkscape:export-xdpi="304.752532959"
     inkscape:export-ydpi="304.752532959">
    <g
       transform="translate(147.5,-12.63781738281)"
       inkscape:label="OpAmp"
       id="g7079">
      <g
         inkscape:label="OpAmp"
         id="g7081">
        <path
           inkscape:connector-curvature="0"
           d="m 315,610 -35,20 0,-40 35,20"
           style="fill:none;stroke:#000000;stroke-width:1;stroke-linecap:round;stroke-linejoin:round;stroke-dasharray:none"
           inkscape:label="none"
           id="path7083" />
        <path
           inkscape:connector-curvature="0"
           d="m 280,620 -7.5,0"
           style="fill:none;stroke:#000000;stroke-width:1;stroke-linecap:round;stroke-linejoin:round;stroke-dasharray:none"
           inkscape:label="none"
           id="path7085" />
        <path
           inkscape:connector-curvature="0"
           d="m 280,600 -7.5,0"
           style="fill:none;stroke:#000000;stroke-width:1;stroke-linecap:round;stroke-linejoin:round;stroke-dasharray:none"
           inkscape:label="none"
           id="path7087" />
        <path
           inkscape:connector-curvature="0"
           d="m 315,610 7.5,0"
           style="fill:none;stroke:#000000;stroke-width:1;stroke-linecap:round;stroke-linejoin:round;stroke-dasharray:none"
           inkscape:label="none"
           id="path7089" />
        <path
           inkscape:connector-curvature="0"
           d="m 286,620 -3,0"
           style="fill:none;stroke:#000000;stroke-width:0.6999999881;stroke-linecap:round;stroke-linejoin:round;stroke-dasharray:none"
           inkscape:label="none"
           id="path7091" />
        <path
           inkscape:connector-curvature="0"
           d="m 286,600 -3,0"
           style="fill:none;stroke:#000000;stroke-width:0.6999999881;stroke-linecap:round;stroke-linejoin:round;stroke-dasharray:none"
           inkscape:label="none"
           id="path7093" />
        <path
           inkscape:connector-curvature="0"
           d="m 284.5,598.5 0,3"
           style="fill:none;stroke:#000000;stroke-width:0.6999999881;stroke-linecap:round;stroke-linejoin:round;stroke-dasharray:none"
           inkscape:label="none"
           id="path7095" />
      </g>
      <g
         inkscape:label="name"
         transform="matrix(0,-1,1,0,-324,896)"
         id="g7097">
        <path
           d="m 293.5,610.0000076348 a 22.5,22.5 0 0 1 -15,0"
           style="fill:none;stroke:#217b21;stroke-width:1;stroke-linecap:round;stroke-linejoin:round;stroke-dasharray:none;marker-start:url(#arrowVoltageStart)"
           sodipodi:cx="286"
           sodipodi:cy="588.7868041992"
           sodipodi:end="1.91063323625"
           sodipodi:open="true"
           sodipodi:rx="22.5"
           sodipodi:ry="22.5"
           sodipodi:start="1.23095941734"
           sodipodi:type="arc"
           inkscape:label="arc"
           id="path7099" />
        <g
           style="font-style:normal;font-variant:normal;font-weight:normal;font-stretch:normal;letter-spacing:normal;word-spacing:normal;text-anchor:start;fill:none;fill-opacity:1;fill-rule:evenodd;stroke:#000000;stroke-linecap:butt;stroke-linejoin:miter;stroke-miterlimit:10.4329996109;stroke-dasharray:none;stroke-dashoffset:0;stroke-opacity:1"
           id="g7101"
           xml:space="preserve"
           stroke-miterlimit="10.433"
           font-style="normal"
           font-variant="normal"
           font-weight="normal"
           font-stretch="normal"
           font-size-adjust="none"
           letter-spacing="normal"
           word-spacing="normal"
           ns0:text=" $v_d$"
           ns0:preamble="/home/fernando/.config/inkscape/extensions/textextLib/CircuitSymbolsLatexPreamble.tex"
           transform="matrix(0,0.739645,0.739645,0,-68.031079,449.813418)"><path
             inkscape:connector-curvature="0"
             d="m 228.09,480.93 0,0.02 0,0.03 0,0.02 0,0.03 -0.01,0.02 0,0.02 0,0.02 0,0.02 -0.01,0.04 -0.01,0.04 -0.01,0.04 -0.01,0.04 -0.01,0.03 -0.01,0.03 -0.01,0.03 -0.01,0.03 -0.02,0.02 -0.01,0.03 -0.02,0.02 -0.01,0.02 -0.02,0.02 -0.02,0.02 -0.01,0.01 -0.02,0.02 -0.02,0.01 -0.02,0.01 -0.02,0.01 -0.02,0.01 -0.01,0.01 -0.02,0.01 -0.02,0 -0.02,0.01 -0.02,0 -0.01,0 -0.02,0.01 -0.02,0 c -0.25,0 -0.49,-0.26 -0.49,-0.48 0,-0.13 0.05,-0.19 0.16,-0.3 0.21,-0.2 0.34,-0.46 0.34,-0.81 0,-0.42 -0.61,-2.7 -1.77,-2.7 -0.51,0 -0.74,0.35 -0.74,0.87 0,0.56 0.27,1.28 0.58,2.1 0.07,0.17 0.12,0.31 0.12,0.5 0,0.45 -0.32,0.82 -0.82,0.82 -0.93,0 -1.31,-1.45 -1.31,-1.53 0,-0.1 0.1,-0.1 0.12,-0.1 0.1,0 0.11,0.02 0.16,0.17 0.29,1.01 0.71,1.24 1,1.24 0.08,0 0.25,0 0.25,-0.32 0,-0.25 -0.1,-0.52 -0.17,-0.7 -0.43,-1.15 -0.56,-1.6 -0.56,-2.03 0,-1.07 0.87,-1.23 1.33,-1.23 1.67,0 2.24,3.28 2.24,3.8 z"
             style="fill:#217b21;stroke-width:0"
             id="path7103" /><path
             inkscape:connector-curvature="0"
             d="m 232.24,480.36 0,0 0,0 0,0 0,0 0,0 0,0 0,0.01 0,0 0,0 0,0 0,0.01 0.01,0 0,0 0,0.01 0,0 0,0.01 0,0 0,0.01 0,0.01 0.01,0.01 0,0 0,0.01 0,0 0,0 0,0.01 0,0 0,0.01 0,0 0,0 0,0 0,0 0.01,0 0,0 0,0.01 0,0 0,0 0,0 0,0 0,0 0,0 c 0,0.03 -0.03,0.1 -0.12,0.1 -0.14,0 -0.71,-0.06 -0.89,-0.07 -0.05,-0.01 -0.15,-0.02 -0.15,-0.16 0,-0.1 0.1,-0.1 0.18,-0.1 0.33,0 0.33,-0.05 0.33,-0.1 0,-0.05 -0.01,-0.09 -0.02,-0.16 l -0.4,-1.58 c -0.15,0.23 -0.38,0.41 -0.72,0.41 l 0,-0.2 c 0.49,0 0.62,-0.53 0.62,-0.6 0,-0.03 -0.01,-0.08 -0.02,-0.1 l -0.33,-1.3 c -0.04,-0.19 -0.2,-0.33 -0.35,-0.47 -0.06,-0.05 -0.34,-0.27 -0.64,-0.27 -0.26,0 -0.51,0.18 -0.51,0.67 0,0.37 0.2,1.13 0.36,1.41 0.32,0.56 0.68,0.66 0.87,0.66 l 0,0.2 c -0.89,0 -1.79,-0.98 -1.79,-1.98 0,-0.68 0.45,-1.16 1.05,-1.16 0.37,0 0.71,0.22 0.99,0.49 0.13,-0.42 0.53,-0.49 0.71,-0.49 0.25,0 0.43,0.15 0.55,0.37 0.16,0.27 0.25,0.67 0.25,0.69 0,0.1 -0.09,0.1 -0.11,0.1 -0.1,0 -0.11,-0.03 -0.16,-0.22 -0.08,-0.33 -0.21,-0.74 -0.51,-0.74 -0.18,0 -0.22,0.15 -0.22,0.34 0,0.13 0.01,0.19 0.03,0.28 z"
             style="fill:#217b21;stroke-width:0"
             id="path7105" /></g>      </g>
    </g>
    <text
       sodipodi:linespacing="100%"
       id="text7278-1"
       y="627.36218"
       x="445"
       style="font-style:normal;font-variant:normal;font-weight:normal;font-stretch:normal;font-size:6.25px;line-height:100%;font-family:Verdana;-inkscape-font-specification:Verdana;text-align:center;letter-spacing:0px;word-spacing:0px;writing-mode:lr-tb;text-anchor:middle;fill:#000000;fill-opacity:1;stroke:none;stroke-width:1px;stroke-linecap:butt;stroke-linejoin:miter;stroke-opacity:1"
       xml:space="preserve"><tspan
         y="627.36218"
         x="445"
         id="tspan7280-8"
         sodipodi:role="line">input differential</tspan><tspan
         id="tspan7282-7"
         y="633.61218"
         x="445"
         sodipodi:role="line">voltage annotation</tspan></text>
  </g>
  <g
     id="g8313"
     transform="translate(5,0)"
     inkscape:export-xdpi="304.752532959"
     inkscape:export-ydpi="304.752532959">
    <text
       sodipodi:linespacing="100%"
       id="text7278-7-3"
       y="627.36218"
       x="360"
       style="font-style:normal;font-variant:normal;font-weight:normal;font-stretch:normal;font-size:6.25px;line-height:100%;font-family:Verdana;-inkscape-font-specification:Verdana;text-align:center;letter-spacing:0px;word-spacing:0px;writing-mode:lr-tb;text-anchor:middle;fill:#000000;fill-opacity:1;stroke:none;stroke-width:1px;stroke-linecap:butt;stroke-linejoin:miter;stroke-opacity:1"
       xml:space="preserve"><tspan
         y="627.36218"
         x="360"
         id="tspan7280-0-6"
         sodipodi:role="line">output current</tspan><tspan
         id="tspan7282-9-0"
         y="633.61218"
         x="360"
         sodipodi:role="line">annotation</tspan></text>
    <g
       transform="translate(62.5,-12.63781738281)"
       id="g7556"
       inkscape:label="OpAmp">
      <g
         id="g7558"
         inkscape:label="OpAmp">
        <path
           inkscape:connector-curvature="0"
           id="path7560"
           inkscape:label="none"
           style="fill:none;stroke:#000000;stroke-width:1;stroke-linecap:round;stroke-linejoin:round;stroke-dasharray:none"
           d="m 315,610 -35,20 0,-40 35,20" />
        <path
           inkscape:connector-curvature="0"
           id="path7562"
           inkscape:label="none"
           style="fill:none;stroke:#000000;stroke-width:1;stroke-linecap:round;stroke-linejoin:round;stroke-dasharray:none"
           d="m 280,620 -7.5,0" />
        <path
           inkscape:connector-curvature="0"
           id="path7564"
           inkscape:label="none"
           style="fill:none;stroke:#000000;stroke-width:1;stroke-linecap:round;stroke-linejoin:round;stroke-dasharray:none"
           d="m 280,600 -7.5,0" />
        <path
           inkscape:connector-curvature="0"
           id="path7566"
           inkscape:label="none"
           style="fill:none;stroke:#000000;stroke-width:1;stroke-linecap:round;stroke-linejoin:round;stroke-dasharray:none"
           d="m 315,610 7.5,0" />
        <path
           inkscape:connector-curvature="0"
           id="path7568"
           inkscape:label="none"
           style="fill:none;stroke:#000000;stroke-width:0.6999999881;stroke-linecap:round;stroke-linejoin:round;stroke-dasharray:none"
           d="m 286,620 -3,0" />
        <path
           inkscape:connector-curvature="0"
           id="path7570"
           inkscape:label="none"
           style="fill:none;stroke:#000000;stroke-width:0.6999999881;stroke-linecap:round;stroke-linejoin:round;stroke-dasharray:none"
           d="m 286,600 -3,0" />
        <path
           inkscape:connector-curvature="0"
           id="path7572"
           inkscape:label="none"
           style="fill:none;stroke:#000000;stroke-width:0.6999999881;stroke-linecap:round;stroke-linejoin:round;stroke-dasharray:none"
           d="m 284.5,598.5 0,3" />
      </g>
      <g
         id="g7574"
         transform="matrix(-1,0,0,-1,644,1226)"
         inkscape:label="name">
        <path
           inkscape:connector-curvature="0"
           id="path7576"
           inkscape:label="none"
           style="fill:none;stroke:#ff0000;stroke-width:1;stroke-linecap:round;stroke-linejoin:round;stroke-dasharray:none;marker-end:url(#arrowCurrentEnd)"
           d="m 327,613 -10,0" />
        <g
           style="font-style:normal;font-variant:normal;font-weight:normal;font-stretch:normal;letter-spacing:normal;word-spacing:normal;text-anchor:start;fill:none;fill-opacity:1;fill-rule:evenodd;stroke:#000000;stroke-linecap:butt;stroke-linejoin:miter;stroke-miterlimit:10.4329996109;stroke-dasharray:none;stroke-dashoffset:0;stroke-opacity:1"
           transform="matrix(-0.739645,0,0,0.739645,614.207852,252.493082)"
           ns0:preamble="/home/fernando/.config/inkscape/extensions/textextLib/CircuitSymbolsLatexPreamble.tex"
           ns0:text=" $$i_o$$"
           word-spacing="normal"
           letter-spacing="normal"
           font-size-adjust="none"
           font-stretch="normal"
           font-weight="normal"
           font-variant="normal"
           font-style="normal"
           stroke-miterlimit="10.433"
           xml:space="preserve"
           id="g7578"><path
             inkscape:connector-curvature="0"
             id="path7580"
             style="fill:#ff0000;stroke-width:0"
             d="m 394.18,483.44 0,0.02 0,0.02 0,0.02 0,0.02 -0.01,0.01 0,0.02 -0.01,0.02 0,0.01 -0.01,0.02 -0.01,0.01 -0.01,0.02 0,0.01 -0.01,0.02 -0.01,0.01 -0.02,0.01 -0.01,0.02 -0.01,0.01 -0.01,0.01 -0.02,0.01 -0.01,0.01 -0.01,0.01 -0.02,0.01 -0.02,0.01 -0.01,0 -0.02,0.01 -0.02,0.01 -0.02,0 -0.02,0 -0.01,0.01 -0.03,0 -0.02,0 -0.02,0 c -0.26,0 -0.53,-0.26 -0.53,-0.53 0,-0.18 0.14,-0.35 0.37,-0.35 0.23,0 0.53,0.23 0.53,0.52 z" /><path
             inkscape:connector-curvature="0"
             id="path7582"
             style="fill:#ff0000;stroke-width:0"
             d="m 393.42,479.71 0.02,0.02 0.01,0.03 0.01,0.02 0,0.02 0.01,0.03 0.01,0.02 0.01,0.01 0.01,0.02 0,0.02 0.01,0.02 0.01,0.01 0,0.02 0.01,0.01 0,0.02 0.01,0.02 0.01,0.03 0.01,0.03 0.01,0.02 0,0.01 0.01,0.02 0,0.01 0.01,0.02 0.01,0.02 0,0.02 0.01,0.01 0.01,0.03 0.01,0.02 0.01,0.02 0,0.03 c 0.08,0.19 0.13,0.33 0.13,0.52 0,0.45 -0.32,0.82 -0.81,0.82 -0.94,0 -1.32,-1.45 -1.32,-1.53 0,-0.1 0.1,-0.1 0.12,-0.1 0.1,0 0.11,0.02 0.16,0.17 0.27,0.94 0.67,1.24 1.01,1.24 0.08,0 0.25,0 0.25,-0.32 0,-0.21 -0.07,-0.42 -0.11,-0.52 -0.08,-0.26 -0.53,-1.41 -0.69,-1.84 -0.1,-0.25 -0.23,-0.58 -0.23,-0.79 0,-0.47 0.34,-0.81 0.82,-0.81 0.93,0 1.3,1.44 1.3,1.53 0,0.1 -0.09,0.1 -0.12,0.1 -0.1,0 -0.1,-0.03 -0.15,-0.18 -0.18,-0.63 -0.51,-1.24 -1.01,-1.24 -0.17,0 -0.24,0.1 -0.24,0.33 0,0.25 0.06,0.39 0.29,1 z" /><path
             inkscape:connector-curvature="0"
             id="path7584"
             style="fill:#ff0000;stroke-width:0"
             d="m 398.49,477.59 -0.01,0.07 0,0.07 -0.01,0.07 -0.01,0.06 -0.01,0.07 -0.02,0.06 -0.02,0.06 -0.02,0.06 -0.03,0.05 -0.03,0.06 -0.03,0.05 -0.03,0.05 -0.04,0.04 -0.04,0.05 -0.04,0.04 -0.04,0.04 -0.04,0.04 -0.05,0.03 -0.05,0.04 -0.05,0.03 -0.05,0.03 -0.05,0.02 -0.05,0.03 -0.06,0.02 -0.06,0.02 -0.06,0.01 -0.05,0.02 -0.06,0.01 -0.07,0.01 -0.06,0 -0.06,0.01 -0.06,0 -0.01,-0.2 c 0.38,0 0.7,-0.25 0.7,-0.77 0,-0.17 -0.09,-0.85 -0.4,-1.34 -0.26,-0.41 -0.68,-0.63 -1.03,-0.63 l 0,0 c -0.34,0 -0.69,0.22 -0.69,0.77 0,0.28 0.13,0.97 0.4,1.36 0.3,0.43 0.7,0.61 1.02,0.61 l 0.01,0.2 c -1.03,0 -2.01,-0.97 -2.01,-1.92 0,-0.7 0.51,-1.22 1.27,-1.22 0.99,0 2,0.92 2,1.92 z" /></g>      </g>
    </g>
  </g>
  <g
     id="g8296"
     inkscape:export-xdpi="304.752532959"
     inkscape:export-ydpi="304.752532959">
    <text
       sodipodi:linespacing="100%"
       id="text7278-6"
       y="627.36218"
       x="290"
       style="font-style:normal;font-variant:normal;font-weight:normal;font-stretch:normal;font-size:6.25px;line-height:100%;font-family:Verdana;-inkscape-font-specification:Verdana;text-align:center;letter-spacing:0px;word-spacing:0px;writing-mode:lr-tb;text-anchor:middle;fill:#000000;fill-opacity:1;stroke:none;stroke-width:1px;stroke-linecap:butt;stroke-linejoin:miter;stroke-opacity:1"
       xml:space="preserve"><tspan
         y="627.36218"
         x="290"
         id="tspan7280-2"
         sodipodi:role="line">output voltage</tspan><tspan
         id="tspan7282-6"
         y="633.61218"
         x="290"
         sodipodi:role="line">annotation</tspan></text>
    <g
       transform="translate(-7.5,-12.63781738281)"
       inkscape:label="OpAmp"
       id="g7990">
      <g
         inkscape:label="OpAmp"
         id="g7992">
        <path
           inkscape:connector-curvature="0"
           d="m 315,610 -35,20 0,-40 35,20"
           style="fill:none;stroke:#000000;stroke-width:1;stroke-linecap:round;stroke-linejoin:round;stroke-dasharray:none"
           inkscape:label="none"
           id="path7994" />
        <path
           inkscape:connector-curvature="0"
           d="m 280,620 -7.5,0"
           style="fill:none;stroke:#000000;stroke-width:1;stroke-linecap:round;stroke-linejoin:round;stroke-dasharray:none"
           inkscape:label="none"
           id="path7996" />
        <path
           inkscape:connector-curvature="0"
           d="m 280,600 -7.5,0"
           style="fill:none;stroke:#000000;stroke-width:1;stroke-linecap:round;stroke-linejoin:round;stroke-dasharray:none"
           inkscape:label="none"
           id="path7998" />
        <path
           inkscape:connector-curvature="0"
           d="m 315,610 7.5,0"
           style="fill:none;stroke:#000000;stroke-width:1;stroke-linecap:round;stroke-linejoin:round;stroke-dasharray:none"
           inkscape:label="none"
           id="path8000" />
        <path
           inkscape:connector-curvature="0"
           d="m 286,620 -3,0"
           style="fill:none;stroke:#000000;stroke-width:0.6999999881;stroke-linecap:round;stroke-linejoin:round;stroke-dasharray:none"
           inkscape:label="none"
           id="path8002" />
        <path
           inkscape:connector-curvature="0"
           d="m 286,600 -3,0"
           style="fill:none;stroke:#000000;stroke-width:0.6999999881;stroke-linecap:round;stroke-linejoin:round;stroke-dasharray:none"
           inkscape:label="none"
           id="path8004" />
        <path
           inkscape:connector-curvature="0"
           d="m 284.5,598.5 0,3"
           style="fill:none;stroke:#000000;stroke-width:0.6999999881;stroke-linecap:round;stroke-linejoin:round;stroke-dasharray:none"
           inkscape:label="none"
           id="path8006" />
      </g>
      <g
         style="font-style:normal;font-variant:normal;font-weight:normal;font-stretch:normal;letter-spacing:normal;word-spacing:normal;text-anchor:start;fill:none;fill-opacity:1;fill-rule:evenodd;stroke:#000000;stroke-linecap:butt;stroke-linejoin:miter;stroke-miterlimit:10.4329996109;stroke-dasharray:none;stroke-dashoffset:0;stroke-opacity:1"
         id="g8008"
         xml:space="preserve"
         stroke-miterlimit="10.433"
         font-style="normal"
         font-variant="normal"
         font-weight="normal"
         font-stretch="normal"
         font-size-adjust="none"
         letter-spacing="normal"
         word-spacing="normal"
         ns0:text=" $v_o$"
         ns0:preamble="/home/fernando/.config/inkscape/extensions/textextLib/CircuitSymbolsLatexPreamble.tex"
         transform="matrix(0.739645,0,0,-0.739645,149.526621,959.826937)"><path
           inkscape:connector-curvature="0"
           d="m 228.09,480.93 0,0.02 0,0.03 0,0.02 0,0.03 -0.01,0.02 0,0.02 0,0.02 0,0.02 -0.01,0.04 -0.01,0.04 -0.01,0.04 -0.01,0.04 -0.01,0.03 -0.01,0.03 -0.01,0.03 -0.01,0.03 -0.02,0.02 -0.01,0.03 -0.02,0.02 -0.01,0.02 -0.02,0.02 -0.02,0.02 -0.01,0.01 -0.02,0.02 -0.02,0.01 -0.02,0.01 -0.02,0.01 -0.02,0.01 -0.01,0.01 -0.02,0.01 -0.02,0 -0.02,0.01 -0.02,0 -0.01,0 -0.02,0.01 -0.02,0 c -0.25,0 -0.49,-0.26 -0.49,-0.48 0,-0.13 0.05,-0.19 0.16,-0.3 0.21,-0.2 0.34,-0.46 0.34,-0.81 0,-0.42 -0.61,-2.7 -1.77,-2.7 -0.51,0 -0.74,0.35 -0.74,0.87 0,0.56 0.27,1.28 0.58,2.1 0.07,0.17 0.12,0.31 0.12,0.5 0,0.45 -0.32,0.82 -0.82,0.82 -0.93,0 -1.31,-1.45 -1.31,-1.53 0,-0.1 0.1,-0.1 0.12,-0.1 0.1,0 0.11,0.02 0.16,0.17 0.29,1.01 0.71,1.24 1,1.24 0.08,0 0.25,0 0.25,-0.32 0,-0.25 -0.1,-0.52 -0.17,-0.7 -0.43,-1.15 -0.56,-1.6 -0.56,-2.03 0,-1.07 0.87,-1.23 1.33,-1.23 1.67,0 2.24,3.28 2.24,3.8 z"
           style="fill:#217b21;stroke-width:0"
           id="path8010" /><path
           inkscape:connector-curvature="0"
           d="m 231.96,477.59 0,0.07 -0.01,0.07 -0.01,0.07 -0.01,0.06 -0.01,0.07 -0.02,0.06 -0.02,0.06 -0.02,0.06 -0.03,0.05 -0.03,0.06 -0.03,0.05 -0.03,0.05 -0.04,0.04 -0.03,0.05 -0.04,0.04 -0.05,0.04 -0.04,0.04 -0.05,0.03 -0.04,0.04 -0.05,0.03 -0.05,0.03 -0.06,0.02 -0.05,0.03 -0.06,0.02 -0.05,0.02 -0.06,0.01 -0.06,0.02 -0.06,0.01 -0.06,0.01 -0.06,0 -0.07,0.01 -0.06,0 c -1.03,0 -2.01,-0.97 -2.01,-1.92 0,-0.7 0.51,-1.22 1.27,-1.22 l 0.01,0.2 c -0.35,0 -0.7,0.22 -0.7,0.77 0,0.28 0.13,0.97 0.41,1.36 0.29,0.43 0.7,0.61 1.01,0.61 0.38,0 0.7,-0.25 0.7,-0.77 0,-0.17 -0.09,-0.85 -0.39,-1.34 -0.27,-0.41 -0.68,-0.63 -1.03,-0.63 l 0,0 -0.01,-0.2 c 1,0 2,0.92 2,1.92 z"
           style="fill:#217b21;stroke-width:0"
           id="path8012" /></g>    </g>
  </g>
</svg>
