<?xml version="1.0" encoding="UTF-8" standalone="no"?>
<svg
   width="210mm"
   height="297mm"
   viewBox="0 0 793.7008056641 1122.51965332"
   id="svg2"
   version="1.1"
   inkscape:version="1.1.2 (1:1.1+202202050950+0a00cf5339)"
   sodipodi:docname="RLC_variable.svg"
   xmlns:inkscape="http://www.inkscape.org/namespaces/inkscape"
   xmlns:sodipodi="http://sodipodi.sourceforge.net/DTD/sodipodi-0.dtd"
   xmlns="http://www.w3.org/2000/svg"
   xmlns:svg="http://www.w3.org/2000/svg"
   xmlns:rdf="http://www.w3.org/1999/02/22-rdf-syntax-ns#"
   xmlns:cc="http://creativecommons.org/ns#"
   xmlns:dc="http://purl.org/dc/elements/1.1/"
   xmlns:ns0="http://www.iki.fi/pav/software/textext/">
  <sodipodi:namedview
     id="base"
     pagecolor="#ffffff"
     bordercolor="#666666"
     borderopacity="1.0"
     inkscape:pageopacity="0.0"
     inkscape:pageshadow="2"
     inkscape:zoom="4"
     inkscape:cx="486.25"
     inkscape:cy="443.375"
     inkscape:document-units="px"
     inkscape:current-layer="svg2"
     showgrid="true"
     inkscape:object-nodes="true"
     inkscape:snap-text-baseline="true"
     inkscape:window-width="2560"
     inkscape:window-height="1416"
     inkscape:window-x="1920"
     inkscape:window-y="0"
     inkscape:window-maximized="1"
     inkscape:document-rotation="0"
     inkscape:pagecheckerboard="1">
    <inkscape:grid
       id="grid4133"
       type="xygrid" />
  </sodipodi:namedview>
  <defs
     id="defs4">
    <marker
       inkscape:stockid="BJTArrow"
       style="overflow:visible"
       refY="0"
       refX="0"
       orient="auto"
       id="marker4173">
      <path
         inkscape:connector-curvature="0"
         id="path4171"
         transform="translate(1)"
         style="fill:#000000;fill-rule:evenodd;stroke:#000000;stroke-width:0.6000000238"
         d="m 0,0 -3,1.25 v -2.5 z" />
    </marker>
    <marker
       inkscape:stockid="BJTArrow"
       style="overflow:visible"
       refY="0.0"
       refX="0.0"
       orient="auto"
       id="BJTArrow">
      <path
         id="path1378"
         transform="translate (1,0)"
         style="stroke-width:0.6;stroke:#000000;fill:#000000;fill-rule:evenodd"
         d="M 0,0 l -3.000000,1.250000 l 0,-2.500000 z" />
    </marker>
    <marker
       inkscape:stockid="arrow"
       orient="auto"
       refY="0.0"
       refX="0.0"
       id="arrow"
       style="overflow:visible">
      <path
         d="M 0,0 l -3.000000,1.250000 l 0,-2.500000 z"
         style="fill:#000000;fill-opacity:1.0;fill-rule:evenodd;stroke:#000000;stroke-opacity:1.0;stroke-width:0.6"
         transform="translate (1,0)"
         id="path1247" />
    </marker>
  </defs>
  <metadata
     id="metadata7">
    <rdf:RDF>
      <cc:Work
         rdf:about="">
        <dc:format>image/svg+xml</dc:format>
        <dc:type
           rdf:resource="http://purl.org/dc/dcmitype/StillImage" />
        <dc:title />
      </cc:Work>
    </rdf:RDF>
  </metadata>
  <g
     id="layer1"
     inkscape:groupmode="layer"
     inkscape:label="Layer 1" />
  <g
     inkscape:label="Resistor"
     id="g1476"
     transform="translate(-140,-85)">
    <g
       id="g1459">
      <path
         inkscape:label="none"
         style="fill:none;fill-opacity:1;stroke:#000000;stroke-width:1;stroke-linecap:round;stroke-linejoin:round;stroke-dasharray:none;stroke-opacity:1"
         d="M 460.5,490 H 445"
         id="path1449" />
      <path
         inkscape:label="none"
         style="fill:none;fill-opacity:1;stroke:#000000;stroke-width:1;stroke-linecap:round;stroke-linejoin:round;stroke-dasharray:none;stroke-opacity:1"
         d="m 460.5,493 h 19 v -6 h -19 v 6"
         id="path1451" />
      <path
         inkscape:label="none"
         style="fill:none;fill-opacity:1;stroke:#000000;stroke-width:1;stroke-linecap:round;stroke-linejoin:round;stroke-dasharray:none;stroke-opacity:1"
         d="M 479.5,490 H 495"
         id="path1454" />
      <path
         inkscape:label="none"
         style="fill:none;fill-opacity:1;stroke:#000000;stroke-width:1;stroke-linecap:round;stroke-linejoin:round;stroke-dasharray:none;stroke-opacity:1;marker-end:url(#arrow)"
         d="m 460,496 20,-12"
         id="path1457" />
    </g>
    <g
       inkscape:label="Layer 1"
       inkscape:groupmode="layer"
       id="g1474"
       transform="matrix(0.552997,0,0,0.552997,248.80102,168.39628)">
      <g
         transform="matrix(1.33333,0,0,1.33333,395.25,555.313)"
         ns0:version="1.5.0"
         ns0:texconverter="pdflatex"
         ns0:pdfconverter="inkscape"
         ns0:text=" $R$"
         ns0:preamble="/home/fernando/.config/inkscape/extensions/circuitSymbols/circuitSymbolsPreamble.tex"
         ns0:scale="1.0"
         ns0:alignment="middle center"
         ns0:stroke-to-path="0"
         ns0:inkscapeversion="1.0.1"
         ns0:jacobian_sqrt="1.33333"
         id="g1472">
        <defs
           id="id-0c50cd8e-9394-4616-a5e0-adc9b3da5c8e">
          <g
             id="id-035c4b87-6c39-412b-80a5-afd84664768f">
            <symbol
               overflow="visible"
               id="id-e8f5351b-2369-471d-b446-f4bcd790cbcd">
              <path
                 style="stroke:none;stroke-width:0"
                 d=""
                 id="id-28a9dfd0-fb75-492f-8799-4feed1e8ee45" />
            </symbol>
            <symbol
               overflow="visible"
               id="id-ecb1a49e-116e-418f-92a5-a8bf6f5d6042">
              <path
                 style="stroke:none;stroke-width:0"
                 d="m 3.734375,-6.125 c 0.0625,-0.234375 0.09375,-0.328125 0.28125,-0.359375 C 4.109375,-6.5 4.421875,-6.5 4.625,-6.5 c 0.703125,0 1.8125,0 1.8125,0.984375 0,0.34375 -0.15625,1.03125 -0.546875,1.421875 -0.265625,0.25 -0.78125,0.578125 -1.6875,0.578125 H 3.09375 Z m 1.4375,2.734375 c 1.015625,-0.21875 2.1875,-0.921875 2.1875,-1.921875 0,-0.859375 -0.890625,-1.5 -2.203125,-1.5 H 2.328125 c -0.203125,0 -0.296875,0 -0.296875,0.203125 C 2.03125,-6.5 2.125,-6.5 2.3125,-6.5 c 0.015625,0 0.203125,0 0.375,0.015625 0.1875,0.03125 0.265625,0.03125 0.265625,0.171875 0,0.03125 0,0.0625 -0.03125,0.1875 l -1.34375,5.34375 C 1.484375,-0.390625 1.46875,-0.3125 0.671875,-0.3125 0.5,-0.3125 0.40625,-0.3125 0.40625,-0.109375 0.40625,0 0.53125,0 0.546875,0 c 0.28125,0 0.984375,-0.03125 1.25,-0.03125 0.28125,0 1,0.03125 1.28125,0.03125 0.078125,0 0.1875,0 0.1875,-0.203125 0,-0.109375 -0.078125,-0.109375 -0.28125,-0.109375 -0.359375,0 -0.640625,0 -0.640625,-0.171875 0,-0.0625 0.015625,-0.109375 0.03125,-0.171875 l 0.65625,-2.640625 h 1.1875 c 0.90625,0 1.078125,0.5625 1.078125,0.90625 0,0.140625 -0.078125,0.453125 -0.140625,0.6875 C 5.09375,-1.421875 5,-1.0625 5,-0.859375 5,0.21875 6.203125,0.21875 6.328125,0.21875 c 0.84375,0 1.203125,-1 1.203125,-1.140625 0,-0.125 -0.109375,-0.125 -0.125,-0.125 -0.09375,0 -0.109375,0.0625 -0.125,0.140625 C 7.03125,-0.171875 6.59375,0 6.375,0 6.046875,0 5.96875,-0.21875 5.96875,-0.609375 c 0,-0.3125 0.0625,-0.8125 0.109375,-1.140625 0.015625,-0.140625 0.03125,-0.328125 0.03125,-0.46875 0,-0.765625 -0.671875,-1.078125 -0.9375,-1.171875 z m 0,0"
                 id="id-3aea5e43-905d-44ad-a7ae-fec1351d773d" />
            </symbol>
          </g>
        </defs>
        <g
           id="id-bd37af05-1027-42c1-b638-3b0ba03c4127"
           transform="translate(-149.118,-127.953)">
          <g
             style="fill:#000000;fill-opacity:1"
             id="id-01cdb197-a137-4fc0-b4f3-da1c3af9f3b7">
            <g
               transform="translate(148.712,134.765)"
               id="g1468">
              <path
                 style="stroke:none;stroke-width:0"
                 d="m 3.734375,-6.125 c 0.0625,-0.234375 0.09375,-0.328125 0.28125,-0.359375 C 4.109375,-6.5 4.421875,-6.5 4.625,-6.5 c 0.703125,0 1.8125,0 1.8125,0.984375 0,0.34375 -0.15625,1.03125 -0.546875,1.421875 -0.265625,0.25 -0.78125,0.578125 -1.6875,0.578125 H 3.09375 Z m 1.4375,2.734375 c 1.015625,-0.21875 2.1875,-0.921875 2.1875,-1.921875 0,-0.859375 -0.890625,-1.5 -2.203125,-1.5 H 2.328125 c -0.203125,0 -0.296875,0 -0.296875,0.203125 C 2.03125,-6.5 2.125,-6.5 2.3125,-6.5 c 0.015625,0 0.203125,0 0.375,0.015625 0.1875,0.03125 0.265625,0.03125 0.265625,0.171875 0,0.03125 0,0.0625 -0.03125,0.1875 l -1.34375,5.34375 C 1.484375,-0.390625 1.46875,-0.3125 0.671875,-0.3125 0.5,-0.3125 0.40625,-0.3125 0.40625,-0.109375 0.40625,0 0.53125,0 0.546875,0 c 0.28125,0 0.984375,-0.03125 1.25,-0.03125 0.28125,0 1,0.03125 1.28125,0.03125 0.078125,0 0.1875,0 0.1875,-0.203125 0,-0.109375 -0.078125,-0.109375 -0.28125,-0.109375 -0.359375,0 -0.640625,0 -0.640625,-0.171875 0,-0.0625 0.015625,-0.109375 0.03125,-0.171875 l 0.65625,-2.640625 h 1.1875 c 0.90625,0 1.078125,0.5625 1.078125,0.90625 0,0.140625 -0.078125,0.453125 -0.140625,0.6875 C 5.09375,-1.421875 5,-1.0625 5,-0.859375 5,0.21875 6.203125,0.21875 6.328125,0.21875 c 0.84375,0 1.203125,-1 1.203125,-1.140625 0,-0.125 -0.109375,-0.125 -0.125,-0.125 -0.09375,0 -0.109375,0.0625 -0.125,0.140625 C 7.03125,-0.171875 6.59375,0 6.375,0 6.046875,0 5.96875,-0.21875 5.96875,-0.609375 c 0,-0.3125 0.0625,-0.8125 0.109375,-1.140625 0.015625,-0.140625 0.03125,-0.328125 0.03125,-0.46875 0,-0.765625 -0.671875,-1.078125 -0.9375,-1.171875 z m 0,0"
                 id="id-896db0db-3ae3-45fc-a70f-88557c003aa4" />
            </g>
          </g>
        </g>
      </g>
    </g>
  </g>
  <g
     inkscape:label="Inductro"
     id="g3248"
     transform="translate(10,-85)">
    <g
       id="g3231">
      <path
         inkscape:label="none"
         style="fill:none;fill-opacity:1;stroke:#000000;stroke-width:1;stroke-linecap:round;stroke-linejoin:round;stroke-dasharray:none;stroke-opacity:1"
         d="M 458,490 H 445"
         id="path3217" />
      <path
         inkscape:label="none"
         style="fill:none;fill-opacity:1;stroke:#000000;stroke-width:1;stroke-linecap:round;stroke-linejoin:round;stroke-dasharray:none;stroke-opacity:1"
         d="m 482,490 h 13"
         id="path3219" />
      <path
         inkscape:label="arc"
         style="fill:none;fill-opacity:1;stroke:#000000;stroke-width:1;stroke-linecap:round;stroke-linejoin:round;stroke-dasharray:none;stroke-opacity:1"
         sodipodi:type="arc"
         sodipodi:rx="3"
         sodipodi:ry="3"
         sodipodi:cx="461"
         sodipodi:cy="490"
         sodipodi:start="6.123234e-17"
         sodipodi:end="3.1415927"
         d="m 464,490 a 3,3 0 0 1 -1.5,2.59808 3,3 0 0 1 -3,0 A 3,3 0 0 1 458,490"
         sodipodi:arc-type="arc"
         id="path3221"
         sodipodi:open="true" />
      <path
         inkscape:label="arc"
         style="fill:none;fill-opacity:1;stroke:#000000;stroke-width:1;stroke-linecap:round;stroke-linejoin:round;stroke-dasharray:none;stroke-opacity:1"
         sodipodi:type="arc"
         sodipodi:rx="3"
         sodipodi:ry="3"
         sodipodi:cx="467"
         sodipodi:cy="490"
         sodipodi:start="6.123234e-17"
         sodipodi:end="3.1415927"
         d="m 470,490 a 3,3 0 0 1 -1.5,2.59808 3,3 0 0 1 -3,0 A 3,3 0 0 1 464,490"
         sodipodi:arc-type="arc"
         id="path3223"
         sodipodi:open="true" />
      <path
         inkscape:label="arc"
         style="fill:none;fill-opacity:1;stroke:#000000;stroke-width:1;stroke-linecap:round;stroke-linejoin:round;stroke-dasharray:none;stroke-opacity:1"
         sodipodi:type="arc"
         sodipodi:rx="3"
         sodipodi:ry="3"
         sodipodi:cx="473"
         sodipodi:cy="490"
         sodipodi:start="6.123234e-17"
         sodipodi:end="3.1415927"
         d="m 476,490 a 3,3 0 0 1 -1.5,2.59808 3,3 0 0 1 -3,0 A 3,3 0 0 1 470,490"
         sodipodi:arc-type="arc"
         id="path3225"
         sodipodi:open="true" />
      <path
         inkscape:label="arc"
         style="fill:none;fill-opacity:1;stroke:#000000;stroke-width:1;stroke-linecap:round;stroke-linejoin:round;stroke-dasharray:none;stroke-opacity:1"
         sodipodi:type="arc"
         sodipodi:rx="3"
         sodipodi:ry="3"
         sodipodi:cx="479"
         sodipodi:cy="490"
         sodipodi:start="6.123234e-17"
         sodipodi:end="3.1415927"
         d="m 482,490 a 3,3 0 0 1 -1.5,2.59808 3,3 0 0 1 -3,0 A 3,3 0 0 1 476,490"
         sodipodi:arc-type="arc"
         id="path3227"
         sodipodi:open="true" />
      <path
         inkscape:label="none"
         style="fill:none;fill-opacity:1;stroke:#000000;stroke-width:1;stroke-linecap:round;stroke-linejoin:round;stroke-dasharray:none;stroke-opacity:1;marker-end:url(#arrow)"
         d="m 460,497 20,-12"
         id="path3229" />
    </g>
    <g
       inkscape:label="Layer 1"
       inkscape:groupmode="layer"
       id="g3246"
       transform="matrix(0.552997,0,0,0.552997,248.80125,169.47739)">
      <g
         transform="matrix(1.33333,0,0,1.33333,395.99,555.458)"
         ns0:version="1.5.0"
         ns0:texconverter="pdflatex"
         ns0:pdfconverter="inkscape"
         ns0:text=" $L$"
         ns0:preamble="/home/fernando/.config/inkscape/extensions/circuitSymbols/circuitSymbolsPreamble.tex"
         ns0:scale="1.0"
         ns0:alignment="middle center"
         ns0:stroke-to-path="0"
         ns0:inkscapeversion="1.0.1"
         ns0:jacobian_sqrt="1.33333"
         id="g3244">
        <defs
           id="id-0139a370-fd71-4a60-9324-b9e493c9082b">
          <g
             id="id-f92c5fe7-0ba1-4bed-b808-04e37f0d19a7">
            <symbol
               overflow="visible"
               id="id-3b2054ba-f019-427d-a434-6096f06e7b1c">
              <path
                 style="stroke:none;stroke-width:0"
                 d=""
                 id="id-ecb54f76-7c5d-44bd-b8ca-6564462c1327" />
            </symbol>
            <symbol
               overflow="visible"
               id="id-de0d2be6-9c18-4537-9718-0be549b7d1cb">
              <path
                 style="stroke:none;stroke-width:0"
                 d="M 3.734375,-6.03125 C 3.8125,-6.390625 3.84375,-6.5 4.78125,-6.5 c 0.296875,0 0.375,0 0.375,-0.1875 0,-0.125 -0.109375,-0.125 -0.15625,-0.125 -0.328125,0 -1.140625,0.03125 -1.46875,0.03125 -0.296875,0 -1.03125,-0.03125 -1.328125,-0.03125 -0.0625,0 -0.1875,0 -0.1875,0.203125 0,0.109375 0.09375,0.109375 0.28125,0.109375 0.015625,0 0.203125,0 0.375,0.015625 0.171875,0.03125 0.265625,0.03125 0.265625,0.171875 0,0.03125 0,0.0625 -0.03125,0.1875 L 1.5625,-0.78125 c -0.09375,0.390625 -0.109375,0.46875 -0.90625,0.46875 -0.171875,0 -0.265625,0 -0.265625,0.203125 C 0.390625,0 0.484375,0 0.65625,0 h 4.625 C 5.515625,0 5.515625,0 5.578125,-0.171875 L 6.375,-2.328125 c 0.03125,-0.109375 0.03125,-0.125 0.03125,-0.140625 0,-0.03125 -0.03125,-0.109375 -0.109375,-0.109375 -0.09375,0 -0.109375,0.0625 -0.171875,0.21875 -0.34375,0.90625 -0.78125,2.046875 -2.5,2.046875 H 2.6875 c -0.140625,0 -0.171875,0 -0.21875,0 -0.109375,-0.015625 -0.140625,-0.03125 -0.140625,-0.109375 0,-0.03125 0,-0.046875 0.046875,-0.21875 z m 0,0"
                 id="id-32f4d5a2-bbad-4be2-aeec-0a0addf75b45" />
            </symbol>
          </g>
        </defs>
        <g
           id="id-a2752c35-bf51-472e-9939-dd8b341ac710"
           transform="translate(-149.103,-127.953)">
          <g
             style="fill:#000000;fill-opacity:1"
             id="id-c9bb25c3-d160-4ea5-9e7a-c7cc501e9037">
            <g
               transform="translate(148.712,134.765)"
               id="g3240">
              <path
                 style="stroke:none;stroke-width:0"
                 d="M 3.734375,-6.03125 C 3.8125,-6.390625 3.84375,-6.5 4.78125,-6.5 c 0.296875,0 0.375,0 0.375,-0.1875 0,-0.125 -0.109375,-0.125 -0.15625,-0.125 -0.328125,0 -1.140625,0.03125 -1.46875,0.03125 -0.296875,0 -1.03125,-0.03125 -1.328125,-0.03125 -0.0625,0 -0.1875,0 -0.1875,0.203125 0,0.109375 0.09375,0.109375 0.28125,0.109375 0.015625,0 0.203125,0 0.375,0.015625 0.171875,0.03125 0.265625,0.03125 0.265625,0.171875 0,0.03125 0,0.0625 -0.03125,0.1875 L 1.5625,-0.78125 c -0.09375,0.390625 -0.109375,0.46875 -0.90625,0.46875 -0.171875,0 -0.265625,0 -0.265625,0.203125 C 0.390625,0 0.484375,0 0.65625,0 h 4.625 C 5.515625,0 5.515625,0 5.578125,-0.171875 L 6.375,-2.328125 c 0.03125,-0.109375 0.03125,-0.125 0.03125,-0.140625 0,-0.03125 -0.03125,-0.109375 -0.109375,-0.109375 -0.09375,0 -0.109375,0.0625 -0.171875,0.21875 -0.34375,0.90625 -0.78125,2.046875 -2.5,2.046875 H 2.6875 c -0.140625,0 -0.171875,0 -0.21875,0 -0.109375,-0.015625 -0.140625,-0.03125 -0.140625,-0.109375 0,-0.03125 0,-0.046875 0.046875,-0.21875 z m 0,0"
                 id="id-f56a03b7-780b-4a4d-8bd1-a461993874fa" />
            </g>
          </g>
        </g>
      </g>
    </g>
  </g>
  <g
     inkscape:label="Capacitor"
     id="g3811"
     transform="translate(-65,-85)">
    <g
       id="g3794">
      <path
         inkscape:label="none"
         style="fill:none;fill-opacity:1;stroke:#000000;stroke-width:1;stroke-linecap:round;stroke-linejoin:round;stroke-dasharray:none;stroke-opacity:1"
         d="m 472,490 h 23"
         id="path3784" />
      <path
         inkscape:label="none"
         style="fill:none;fill-opacity:1;stroke:#000000;stroke-width:1;stroke-linecap:round;stroke-linejoin:round;stroke-dasharray:none;stroke-opacity:1"
         d="M 472,497 V 483"
         id="path3786" />
      <path
         inkscape:label="none"
         style="fill:none;fill-opacity:1;stroke:#000000;stroke-width:1;stroke-linecap:round;stroke-linejoin:round;stroke-dasharray:none;stroke-opacity:1"
         d="M 468,490 H 445"
         id="path3788" />
      <path
         inkscape:label="none"
         style="fill:none;fill-opacity:1;stroke:#000000;stroke-width:1;stroke-linecap:round;stroke-linejoin:round;stroke-dasharray:none;stroke-opacity:1"
         d="M 468,497 V 483"
         id="path3790" />
      <path
         inkscape:label="none"
         style="fill:none;fill-opacity:1;stroke:#000000;stroke-width:1;stroke-linecap:round;stroke-linejoin:round;stroke-dasharray:none;stroke-opacity:1;marker-end:url(#arrow)"
         d="m 460,496 20,-12"
         id="path3792" />
    </g>
    <g
       inkscape:label="Layer 1"
       inkscape:groupmode="layer"
       id="g3809"
       transform="matrix(0.552997,0,0,0.552997,248.80134,166.31554)">
      <g
         transform="matrix(1.33333,0,0,1.33333,395.281,555.167)"
         ns0:version="1.5.0"
         ns0:texconverter="pdflatex"
         ns0:pdfconverter="inkscape"
         ns0:text=" $C$"
         ns0:preamble="/home/fernando/.config/inkscape/extensions/circuitSymbols/circuitSymbolsPreamble.tex"
         ns0:scale="1.0"
         ns0:alignment="middle center"
         ns0:stroke-to-path="0"
         ns0:inkscapeversion="1.0.1"
         ns0:jacobian_sqrt="1.33333"
         id="g3807">
        <defs
           id="id-3e718db0-b301-443a-8296-331551230e99">
          <g
             id="id-2f5fb02d-7733-4553-bbdf-540e03601c0f">
            <symbol
               overflow="visible"
               id="id-fed86dfa-bcb7-42c9-b657-6b5a1e8a40ca">
              <path
                 style="stroke:none;stroke-width:0"
                 d=""
                 id="id-4c902bc4-cbd4-4d82-bab1-910b08b309b3" />
            </symbol>
            <symbol
               overflow="visible"
               id="id-a88b5a33-757a-4daf-831e-cb6319b56824">
              <path
                 style="stroke:none;stroke-width:0"
                 d="m 7.578125,-6.921875 c 0,-0.03125 -0.015625,-0.109375 -0.109375,-0.109375 -0.03125,0 -0.046875,0.015625 -0.15625,0.125 L 6.625,-6.140625 C 6.53125,-6.28125 6.078125,-7.03125 4.96875,-7.03125 2.734375,-7.03125 0.5,-4.828125 0.5,-2.515625 0.5,-0.875 1.671875,0.21875 3.203125,0.21875 c 0.859375,0 1.625,-0.390625 2.15625,-0.859375 0.921875,-0.8125 1.09375,-1.71875 1.09375,-1.75 C 6.453125,-2.5 6.34375,-2.5 6.328125,-2.5 c -0.0625,0 -0.109375,0.03125 -0.125,0.109375 -0.09375,0.28125 -0.328125,1 -1.015625,1.578125 -0.6875,0.546875 -1.3125,0.71875 -1.828125,0.71875 -0.890625,0 -1.953125,-0.515625 -1.953125,-2.0625 0,-0.578125 0.203125,-2.1875 1.203125,-3.359375 0.609375,-0.703125 1.546875,-1.203125 2.4375,-1.203125 1.015625,0 1.609375,0.765625 1.609375,1.921875 0,0.40625 -0.03125,0.40625 -0.03125,0.515625 0,0.09375 0.109375,0.09375 0.140625,0.09375 0.125,0 0.125,-0.015625 0.1875,-0.203125 z m 0,0"
                 id="id-06a95e1c-4297-4fe5-8cd9-cb07de465f7e" />
            </symbol>
          </g>
        </defs>
        <g
           id="id-d72cbd00-ec6c-4d3c-888a-bd90bc51d0cc"
           transform="translate(-149.212,-127.734)">
          <g
             style="fill:#000000;fill-opacity:1"
             id="id-a91cef8d-98a8-45c4-ab2d-7f8994cd935f">
            <g
               transform="translate(148.712,134.765)"
               id="g3803">
              <path
                 style="stroke:none;stroke-width:0"
                 d="m 7.578125,-6.921875 c 0,-0.03125 -0.015625,-0.109375 -0.109375,-0.109375 -0.03125,0 -0.046875,0.015625 -0.15625,0.125 L 6.625,-6.140625 C 6.53125,-6.28125 6.078125,-7.03125 4.96875,-7.03125 2.734375,-7.03125 0.5,-4.828125 0.5,-2.515625 0.5,-0.875 1.671875,0.21875 3.203125,0.21875 c 0.859375,0 1.625,-0.390625 2.15625,-0.859375 0.921875,-0.8125 1.09375,-1.71875 1.09375,-1.75 C 6.453125,-2.5 6.34375,-2.5 6.328125,-2.5 c -0.0625,0 -0.109375,0.03125 -0.125,0.109375 -0.09375,0.28125 -0.328125,1 -1.015625,1.578125 -0.6875,0.546875 -1.3125,0.71875 -1.828125,0.71875 -0.890625,0 -1.953125,-0.515625 -1.953125,-2.0625 0,-0.578125 0.203125,-2.1875 1.203125,-3.359375 0.609375,-0.703125 1.546875,-1.203125 2.4375,-1.203125 1.015625,0 1.609375,0.765625 1.609375,1.921875 0,0.40625 -0.03125,0.40625 -0.03125,0.515625 0,0.09375 0.109375,0.09375 0.140625,0.09375 0.125,0 0.125,-0.015625 0.1875,-0.203125 z m 0,0"
                 id="id-787b87e2-2d3f-4ffd-8034-5b389112517a" />
            </g>
          </g>
        </g>
      </g>
    </g>
  </g>
  <g
     inkscape:label="Resistor"
     id="g5040"
     transform="translate(85,-85)">
    <g
       id="g5023">
      <path
         inkscape:label="none"
         style="fill:none;fill-opacity:1;stroke:#000000;stroke-width:1;stroke-linecap:round;stroke-linejoin:round;stroke-dasharray:none;stroke-opacity:1"
         d="M 460.5,490 H 445"
         id="path5015" />
      <path
         inkscape:label="none"
         style="fill:none;fill-opacity:1;stroke:#000000;stroke-width:1;stroke-linecap:round;stroke-linejoin:round;stroke-dasharray:none;stroke-opacity:1"
         d="m 460.5,493 h 19 v -6 h -19 v 6"
         id="path5017" />
      <path
         inkscape:label="none"
         style="fill:none;fill-opacity:1;stroke:#000000;stroke-width:1;stroke-linecap:round;stroke-linejoin:round;stroke-dasharray:none;stroke-opacity:1"
         d="M 479.5,490 H 495"
         id="path5019" />
      <path
         inkscape:label="none"
         style="fill:none;fill-opacity:1;stroke:#000000;stroke-width:1;stroke-linecap:round;stroke-linejoin:round;stroke-dasharray:none;stroke-opacity:1;marker-end:url(#arrow)"
         d="m 460,496 20,-12"
         id="path5021" />
    </g>
    <g
       inkscape:label="Layer 1"
       inkscape:groupmode="layer"
       id="g5038"
       transform="matrix(0.552997,0,0,0.552997,248.8013,168.47739)">
      <g
         transform="matrix(1.33333,0,0,1.33333,395.583,555.458)"
         ns0:version="1.5.0"
         ns0:texconverter="pdflatex"
         ns0:pdfconverter="inkscape"
         ns0:text=" $Z$"
         ns0:preamble="/home/fernando/.config/inkscape/extensions/circuitSymbols/circuitSymbolsPreamble.tex"
         ns0:scale="1.0"
         ns0:alignment="middle center"
         ns0:stroke-to-path="0"
         ns0:inkscapeversion="1.0.1"
         ns0:jacobian_sqrt="1.33333"
         id="g5036">
        <defs
           id="id-4b167555-f9c3-4162-a6ed-192adcfa9a77">
          <g
             id="id-344ed759-6d34-4e4e-8207-f1c32f330388">
            <symbol
               overflow="visible"
               id="id-ff03a34c-8bf8-4e49-b9ed-0ac1ef468da7">
              <path
                 style="stroke:none;stroke-width:0"
                 d=""
                 id="id-0f958e3b-8d66-4b33-92af-a52e9783c109" />
            </symbol>
            <symbol
               overflow="visible"
               id="id-806219de-df40-46e8-8e1f-efa5edd7a4e1">
              <path
                 style="stroke:none;stroke-width:0"
                 d="m 7.171875,-6.5625 c 0.015625,-0.046875 0.03125,-0.09375 0.03125,-0.15625 0,-0.09375 -0.046875,-0.09375 -0.25,-0.09375 H 2.75 c -0.234375,0 -0.25,0.015625 -0.3125,0.203125 L 1.890625,-4.8125 c -0.015625,0.046875 -0.03125,0.125 -0.03125,0.140625 0,0 0,0.109375 0.125,0.109375 0.09375,0 0.109375,-0.078125 0.125,-0.109375 C 2.5,-5.84375 3.015625,-6.5 4.5625,-6.5 h 1.625 L 0.625,-0.265625 c 0,0 -0.046875,0.140625 -0.046875,0.171875 C 0.578125,0 0.640625,0 0.828125,0 H 5.15625 c 0.25,0 0.25,-0.015625 0.3125,-0.203125 L 6.1875,-2.40625 c 0,-0.03125 0.03125,-0.109375 0.03125,-0.140625 0,-0.0625 -0.03125,-0.109375 -0.125,-0.109375 -0.09375,0 -0.109375,0.03125 -0.171875,0.25 C 5.484375,-1.0625 5,-0.34375 3.3125,-0.34375 H 1.609375 Z m 0,0"
                 id="id-56ff5cc2-c006-4dbe-a78c-e46e25186718" />
            </symbol>
          </g>
        </defs>
        <g
           id="id-1f69c362-b6a7-4c93-b4aa-dbda0f7d001f"
           transform="translate(-149.29,-127.953)">
          <g
             style="fill:#000000;fill-opacity:1"
             id="id-f25740ea-6d47-49e2-b05c-bce4f5e2f466">
            <g
               transform="translate(148.712,134.765)"
               id="g5032">
              <path
                 style="stroke:none;stroke-width:0"
                 d="m 7.171875,-6.5625 c 0.015625,-0.046875 0.03125,-0.09375 0.03125,-0.15625 0,-0.09375 -0.046875,-0.09375 -0.25,-0.09375 H 2.75 c -0.234375,0 -0.25,0.015625 -0.3125,0.203125 L 1.890625,-4.8125 c -0.015625,0.046875 -0.03125,0.125 -0.03125,0.140625 0,0 0,0.109375 0.125,0.109375 0.09375,0 0.109375,-0.078125 0.125,-0.109375 C 2.5,-5.84375 3.015625,-6.5 4.5625,-6.5 h 1.625 L 0.625,-0.265625 c 0,0 -0.046875,0.140625 -0.046875,0.171875 C 0.578125,0 0.640625,0 0.828125,0 H 5.15625 c 0.25,0 0.25,-0.015625 0.3125,-0.203125 L 6.1875,-2.40625 c 0,-0.03125 0.03125,-0.109375 0.03125,-0.140625 0,-0.0625 -0.03125,-0.109375 -0.125,-0.109375 -0.09375,0 -0.109375,0.03125 -0.171875,0.25 C 5.484375,-1.0625 5,-0.34375 3.3125,-0.34375 H 1.609375 Z m 0,0"
                 id="id-7fb927f4-a983-49b9-95bb-4adafa32920f" />
            </g>
          </g>
        </g>
      </g>
    </g>
  </g>
</svg>
