<?xml version="1.0" encoding="UTF-8" standalone="no"?>
<svg
   xmlns:ns0="http://www.iki.fi/pav/software/textext/"
   xmlns:dc="http://purl.org/dc/elements/1.1/"
   xmlns:cc="http://creativecommons.org/ns#"
   xmlns:rdf="http://www.w3.org/1999/02/22-rdf-syntax-ns#"
   xmlns:svg="http://www.w3.org/2000/svg"
   xmlns="http://www.w3.org/2000/svg"
   xmlns:sodipodi="http://sodipodi.sourceforge.net/DTD/sodipodi-0.dtd"
   xmlns:inkscape="http://www.inkscape.org/namespaces/inkscape"
   width="210mm"
   height="297mm"
   viewBox="0 0 793.7008056641 1122.51965332"
   version="1.1"
   id="svg1406"
   inkscape:version="1.0.1 (1.0.1+r73)"
   sodipodi:docname="switch_pushButton.svg">
  <sodipodi:namedview
     pagecolor="#ffffff"
     bordercolor="#666666"
     borderopacity="1"
     objecttolerance="10"
     gridtolerance="10"
     guidetolerance="10"
     inkscape:pageopacity="0"
     inkscape:pageshadow="2"
     inkscape:window-width="1920"
     inkscape:window-height="1056"
     id="namedview1408"
     showgrid="true"
     inkscape:snap-text-baseline="true"
     inkscape:zoom="7.2119673"
     inkscape:cx="116.42916"
     inkscape:cy="733.58982"
     inkscape:window-x="0"
     inkscape:window-y="0"
     inkscape:window-maximized="1"
     inkscape:current-layer="svg1406"
     inkscape:document-rotation="0">
    <inkscape:grid
       id="grid1957"
       type="xygrid" />
  </sodipodi:namedview>
  <metadata
     id="metadata1412">
    <rdf:RDF>
      <cc:Work
         rdf:about="">
        <dc:format>image/svg+xml</dc:format>
        <dc:type
           rdf:resource="http://purl.org/dc/dcmitype/StillImage" />
        <dc:title></dc:title>
      </cc:Work>
    </rdf:RDF>
  </metadata>
  <defs
     id="defs1410">
    <marker
       inkscape:stockid="arrowVoltageStart"
       style="overflow:visible"
       refY="0.0"
       refX="0.0"
       orient="auto"
       id="arrowVoltageStart">
      <path
         id="path1749"
         transform="scale(0.25) rotate(0) translate(7.2925,0)"
         style="stroke-width:1.0;stroke:#217B21;fill:#217B21;fill-rule:evenodd"
         d="M 0.0,0.0 L 5.0,-5.0 L -12.5,0.0 L 5.0,5.0 L 0.0,0.0 z " />
    </marker>
    <marker
       inkscape:stockid="arrowVoltageEnd"
       style="overflow:visible"
       refY="0.0"
       refX="0.0"
       orient="auto"
       id="arrowVoltageEnd">
      <path
         id="path1752"
         transform="scale(0.25) rotate(180) translate(7.2925,0)"
         style="stroke-width:1.0;stroke:#217B21;fill:#217B21;fill-rule:evenodd"
         d="M 0.0,0.0 L 5.0,-5.0 L -12.5,0.0 L 5.0,5.0 L 0.0,0.0 z " />
    </marker>
    <marker
       inkscape:stockid="arrowCurrentStart"
       style="overflow:visible"
       refY="0.0"
       refX="0.0"
       orient="auto"
       id="arrowCurrentStart">
      <path
         id="path1755"
         transform="scale(0.25) rotate(0) translate(7.2925,0)"
         style="stroke-width:1.0;stroke:#FF0000;fill:#FF0000;fill-rule:evenodd"
         d="M 0.0,0.0 L 5.0,-5.0 L -12.5,0.0 L 5.0,5.0 L 0.0,0.0 z " />
    </marker>
    <marker
       inkscape:stockid="arrowCurrentEnd"
       style="overflow:visible"
       refY="0.0"
       refX="0.0"
       orient="auto"
       id="arrowCurrentEnd">
      <path
         id="path1758"
         transform="scale(0.25) rotate(180) translate(7.2925,0)"
         style="stroke-width:1.0;stroke:#FF0000;fill:#FF0000;fill-rule:evenodd"
         d="M 0.0,0.0 L 5.0,-5.0 L -12.5,0.0 L 5.0,5.0 L 0.0,0.0 z " />
    </marker>
    <marker
       id="arrowSwitchStart"
       orient="auto"
       refX="0.0"
       refY="0.0"
       style="overflow:visible"
       inkscape:stockid="arrowSwitchStart">
      <path
         d="M 0.0,0.0 L 5.0,-5.0 L -12.5,0.0 L 5.0,5.0 L 0.0,0.0 z "
         style="stroke-width:1.0;stroke:#FF0000;fill:#FF0000;fill-rule:evenodd"
         transform="scale(0.25) rotate(0) translate(7.2925,0)"
         id="path12139" />
    </marker>
    <marker
       id="arrowSwitchEnd"
       orient="auto"
       refX="0.0"
       refY="0.0"
       style="overflow:visible"
       inkscape:stockid="arrowSwitchEnd">
      <path
         d="M 0.0,0.0 L 5.0,-5.0 L -12.5,0.0 L 5.0,5.0 L 0.0,0.0 z "
         style="stroke-width:1.0;stroke:#FF0000;fill:#FF0000;fill-rule:evenodd"
         transform="scale(0.25) rotate(180) translate(7.2925,0)"
         id="path12142" />
    </marker>
    <marker
       inkscape:stockid="arrowSwitchEnd"
       style="overflow:visible"
       refY="0"
       refX="0"
       orient="auto"
       id="arrowSwitchEnd-3">
      <path
         inkscape:connector-curvature="0"
         id="path12142-6"
         transform="matrix(-0.25,0,0,-0.25,-1.823125,0)"
         style="fill:#ff0000;fill-rule:evenodd;stroke:#ff0000;stroke-width:1"
         d="M 0,0 5,-5 -12.5,0 5,5 Z" />
    </marker>
    <marker
       inkscape:stockid="arrowSwitchEnd"
       style="overflow:visible"
       refY="0"
       refX="0"
       orient="auto"
       id="marker913">
      <path
         inkscape:connector-curvature="0"
         id="path911"
         transform="matrix(-0.25,0,0,-0.25,-1.823125,0)"
         style="fill:#ff0000;fill-rule:evenodd;stroke:#ff0000;stroke-width:1"
         d="M 0,0 5,-5 -12.5,0 5,5 Z" />
    </marker>
  </defs>
  <text
     id="text1840-4-5-6-3-5-6-7"
     y="709.99994"
     x="170"
     style="font-style:normal;font-variant:normal;font-weight:normal;font-stretch:normal;font-size:5.33333px;line-height:100%;font-family:sans-serif;-inkscape-font-specification:sans-serif;text-align:center;letter-spacing:0px;word-spacing:0px;writing-mode:lr-tb;text-anchor:middle;fill:#000000;fill-opacity:1;stroke:none;stroke-width:1px;stroke-linecap:butt;stroke-linejoin:miter;stroke-opacity:1"
     xml:space="preserve"
     inkscape:export-xdpi="398"
     inkscape:export-ydpi="398"><tspan
       id="tspan1860-4-6-9-7-3-2-5"
       y="709.99994"
       x="170"
       sodipodi:role="line">1P1T push-button</tspan><tspan
       y="715.33325"
       x="170"
       sodipodi:role="line"
       id="tspan2204-5-9-3">normally open</tspan></text>
  <text
     id="text1840-4-5-6-3-5-6-1-5"
     y="709.99994"
     x="100"
     style="font-style:normal;font-variant:normal;font-weight:normal;font-stretch:normal;font-size:5.33333px;line-height:100%;font-family:sans-serif;-inkscape-font-specification:sans-serif;text-align:center;letter-spacing:0px;word-spacing:0px;writing-mode:lr-tb;text-anchor:middle;fill:#000000;fill-opacity:1;stroke:none;stroke-width:1px;stroke-linecap:butt;stroke-linejoin:miter;stroke-opacity:1"
     xml:space="preserve"
     inkscape:export-xdpi="398"
     inkscape:export-ydpi="398"><tspan
       id="tspan1860-4-6-9-7-3-2-2-6"
       y="709.99994"
       x="100"
       sodipodi:role="line">1P1T push-button</tspan><tspan
       y="715.33325"
       x="100"
       sodipodi:role="line"
       id="tspan2204-5-9-7-2">normally closed</tspan></text>
  <g
     transform="translate(15,-30)"
     inkscape:label="Switch"
     id="g1222"
     inkscape:export-xdpi="398"
     inkscape:export-ydpi="398">
    <g
       inkscape:label="Switch"
       id="g1204">
      <path
         inkscape:connector-curvature="0"
         d="M 60,770 H 75"
         style="fill:none;stroke:#000000;stroke-width:1;stroke-linecap:round;stroke-linejoin:round;stroke-dasharray:none"
         inkscape:label="none"
         id="path1192" />
      <path
         inkscape:connector-curvature="0"
         d="M 110,770 H 95"
         style="fill:none;stroke:#000000;stroke-width:1;stroke-linecap:round;stroke-linejoin:round;stroke-dasharray:none"
         inkscape:label="none"
         id="path1194" />
      <path
         inkscape:connector-curvature="0"
         d="M 75,772 H 95"
         style="fill:none;stroke:#000000;stroke-width:1;stroke-linecap:round;stroke-linejoin:round;stroke-dasharray:none"
         inkscape:label="none"
         id="path1196" />
      <path
         inkscape:connector-curvature="0"
         d="m 85,772 v -9"
         style="fill:none;stroke:#000000;stroke-width:1;stroke-linecap:round;stroke-linejoin:round;stroke-dasharray:none"
         inkscape:label="none"
         id="path1198" />
      <circle
         r="1.2"
         cy="770"
         cx="95"
         style="fill:#ffffff;stroke:#000000;stroke-width:0.7;stroke-linecap:round;stroke-linejoin:round;stroke-dasharray:none"
         inkscape:label="circle"
         id="path1200" />
      <circle
         r="1.2"
         cy="770"
         cx="75"
         style="fill:#ffffff;stroke:#000000;stroke-width:0.7;stroke-linecap:round;stroke-linejoin:round;stroke-dasharray:none"
         inkscape:label="circle"
         id="path1202" />
    </g>
    <g
       style="font-style:normal;font-variant:normal;font-weight:normal;font-stretch:normal;letter-spacing:normal;word-spacing:normal;text-anchor:start;fill:none;fill-opacity:1;fill-rule:evenodd;stroke:#000000;stroke-linecap:butt;stroke-linejoin:miter;stroke-miterlimit:10.433;stroke-dasharray:none;stroke-dashoffset:0;stroke-opacity:1"
       id="g1220"
       xml:space="preserve"
       stroke-miterlimit="10.433"
       font-style="normal"
       font-variant="normal"
       font-weight="normal"
       font-stretch="normal"
       font-size-adjust="none"
       letter-spacing="normal"
       word-spacing="normal"
       ns0:text=" $S$"
       ns0:preamble="/home/fernando/.config/inkscape/extensions/textextLib/CircuitSymbolsLatexPreamble.tex"
       transform="matrix(0.739645,0,0,-0.739645,-77.643498,1113.4921)">
<path
   inkscape:connector-curvature="0"
   d="m 229.86,484.14 v 0 0.01 0 0 0.01 0 0 0.01 0 0.01 h -0.01 v 0 0.01 0 0.01 h -0.01 v 0 0.01 h -0.01 v 0 l -0.01,0.01 v 0 h -0.01 v 0.01 h -0.01 v 0 0 h -0.01 v 0 0 h -0.01 v 0.01 0 h -0.01 v 0 0 h -0.01 v 0 h -0.01 c -0.05,0 -0.05,-0.01 -0.18,-0.15 l -0.47,-0.57 c -0.26,0.47 -0.78,0.72 -1.43,0.72 -1.27,0 -2.46,-1.14 -2.46,-2.35 0,-0.8 0.53,-1.26 1.03,-1.41 l 1.07,-0.28 c 0.37,-0.08 0.92,-0.23 0.92,-1.05 0,-0.89 -0.82,-1.83 -1.8,-1.83 -0.64,0 -1.74,0.22 -1.74,1.45 0,0.24 0.05,0.48 0.06,0.54 0.01,0.04 0.02,0.05 0.02,0.07 0,0.1 -0.07,0.11 -0.12,0.11 -0.05,0 -0.07,-0.01 -0.1,-0.04 -0.04,-0.04 -0.6,-2.3 -0.6,-2.33 0,-0.06 0.05,-0.1 0.11,-0.1 0.05,0 0.06,0.01 0.18,0.15 l 0.49,0.56 c 0.43,-0.57 1.11,-0.71 1.68,-0.71 1.36,0 2.54,1.32 2.54,2.55 0,0.69 -0.34,1.02 -0.49,1.16 -0.23,0.23 -0.38,0.27 -1.27,0.5 -0.22,0.06 -0.58,0.16 -0.67,0.18 -0.27,0.09 -0.61,0.38 -0.61,0.9 0,0.81 0.8,1.65 1.75,1.65 0.83,0 1.44,-0.43 1.44,-1.54 0,-0.32 -0.04,-0.5 -0.04,-0.56 0,-0.01 0,-0.09 0.12,-0.09 0.1,0 0.11,0.03 0.14,0.19 z"
   style="fill:#000000;stroke-width:0"
   id="path1218" />
</g>
  </g>
  <g
     id="g1410"
     inkscape:label="Switch"
     transform="translate(85,-30)"
     inkscape:export-xdpi="398"
     inkscape:export-ydpi="398">
    <g
       id="g1392"
       inkscape:label="Switch">
      <path
         id="path1380"
         inkscape:label="none"
         style="fill:none;stroke:#000000;stroke-width:1;stroke-linecap:round;stroke-linejoin:round;stroke-dasharray:none"
         d="M 60,770 H 75"
         inkscape:connector-curvature="0" />
      <path
         id="path1382"
         inkscape:label="none"
         style="fill:none;stroke:#000000;stroke-width:1;stroke-linecap:round;stroke-linejoin:round;stroke-dasharray:none"
         d="M 110,770 H 95"
         inkscape:connector-curvature="0" />
      <path
         id="path1384"
         inkscape:label="none"
         style="fill:none;stroke:#000000;stroke-width:1;stroke-linecap:round;stroke-linejoin:round;stroke-dasharray:none"
         d="M 75,765 H 95"
         inkscape:connector-curvature="0" />
      <path
         id="path1386"
         inkscape:label="none"
         style="fill:none;stroke:#000000;stroke-width:1;stroke-linecap:round;stroke-linejoin:round;stroke-dasharray:none"
         d="m 85,765 v -7"
         inkscape:connector-curvature="0" />
      <circle
         id="path1388"
         inkscape:label="circle"
         style="fill:#ffffff;stroke:#000000;stroke-width:0.7;stroke-linecap:round;stroke-linejoin:round;stroke-dasharray:none"
         cx="95"
         cy="770"
         r="1.2" />
      <circle
         id="path1390"
         inkscape:label="circle"
         style="fill:#ffffff;stroke:#000000;stroke-width:0.7;stroke-linecap:round;stroke-linejoin:round;stroke-dasharray:none"
         cx="75"
         cy="770"
         r="1.2" />
    </g>
    <g
       transform="matrix(0.739645,0,0,-0.739645,-77.643498,1113.4921)"
       ns0:preamble="/home/fernando/.config/inkscape/extensions/textextLib/CircuitSymbolsLatexPreamble.tex"
       ns0:text=" $S$"
       word-spacing="normal"
       letter-spacing="normal"
       font-size-adjust="none"
       font-stretch="normal"
       font-weight="normal"
       font-variant="normal"
       font-style="normal"
       stroke-miterlimit="10.433"
       xml:space="preserve"
       id="g1408"
       style="font-style:normal;font-variant:normal;font-weight:normal;font-stretch:normal;letter-spacing:normal;word-spacing:normal;text-anchor:start;fill:none;fill-opacity:1;fill-rule:evenodd;stroke:#000000;stroke-linecap:butt;stroke-linejoin:miter;stroke-miterlimit:10.433;stroke-dasharray:none;stroke-dashoffset:0;stroke-opacity:1">
<path
   id="path1406"
   style="fill:#000000;stroke-width:0"
   d="m 229.86,484.14 v 0 0.01 0 0 0.01 0 0 0.01 0 0.01 h -0.01 v 0 0.01 0 0.01 h -0.01 v 0 0.01 h -0.01 v 0 l -0.01,0.01 v 0 h -0.01 v 0.01 h -0.01 v 0 0 h -0.01 v 0 0 h -0.01 v 0.01 0 h -0.01 v 0 0 h -0.01 v 0 h -0.01 c -0.05,0 -0.05,-0.01 -0.18,-0.15 l -0.47,-0.57 c -0.26,0.47 -0.78,0.72 -1.43,0.72 -1.27,0 -2.46,-1.14 -2.46,-2.35 0,-0.8 0.53,-1.26 1.03,-1.41 l 1.07,-0.28 c 0.37,-0.08 0.92,-0.23 0.92,-1.05 0,-0.89 -0.82,-1.83 -1.8,-1.83 -0.64,0 -1.74,0.22 -1.74,1.45 0,0.24 0.05,0.48 0.06,0.54 0.01,0.04 0.02,0.05 0.02,0.07 0,0.1 -0.07,0.11 -0.12,0.11 -0.05,0 -0.07,-0.01 -0.1,-0.04 -0.04,-0.04 -0.6,-2.3 -0.6,-2.33 0,-0.06 0.05,-0.1 0.11,-0.1 0.05,0 0.06,0.01 0.18,0.15 l 0.49,0.56 c 0.43,-0.57 1.11,-0.71 1.68,-0.71 1.36,0 2.54,1.32 2.54,2.55 0,0.69 -0.34,1.02 -0.49,1.16 -0.23,0.23 -0.38,0.27 -1.27,0.5 -0.22,0.06 -0.58,0.16 -0.67,0.18 -0.27,0.09 -0.61,0.38 -0.61,0.9 0,0.81 0.8,1.65 1.75,1.65 0.83,0 1.44,-0.43 1.44,-1.54 0,-0.32 -0.04,-0.5 -0.04,-0.56 0,-0.01 0,-0.09 0.12,-0.09 0.1,0 0.11,0.03 0.14,0.19 z"
   inkscape:connector-curvature="0" />
</g>
  </g>
</svg>
